<svg width="327" height="172" viewBox="0 0 327 172" fill="none" xmlns="http://www.w3.org/2000/svg">
<path d="M147.276 80.134C146.819 75.6206 146.228 71.1341 145.543 66.661C144.858 62.1879 144.079 57.7417 143.165 53.3089C142.708 51.0925 140.694 42.2941 140.156 40.1046C139.095 35.7121 137.98 31.3465 136.865 26.9675C136.758 26.5645 137.013 26.1481 137.416 26.0541C137.792 25.96 138.182 26.1749 138.316 26.5376C139.807 30.8361 141.056 35.2151 142.131 39.6345C142.668 41.8509 143.138 44.0673 143.582 46.2971C144.025 48.5269 144.401 50.7702 144.764 53.0134C145.489 57.4999 146.093 62.0133 146.55 66.5267C147.007 71.04 147.302 75.5803 147.49 80.1071C147.49 80.1608 147.45 80.2146 147.396 80.2146C147.329 80.2146 147.276 80.1743 147.276 80.134Z" fill="#60E5AE"/>
<path d="M160.802 70.6372C160.963 67.6686 161.219 64.7134 161.608 61.7582C161.998 58.8031 162.508 55.8747 163.113 52.9464C163.717 50.0315 164.389 47.1166 165.316 44.2689C166.242 41.4346 167.263 38.6272 168.526 35.9138C168.701 35.5377 169.157 35.3765 169.533 35.5511C169.883 35.7123 170.044 36.1153 169.936 36.4645C169.05 39.272 168.096 42.0525 167.236 44.8734C166.377 47.6808 165.463 50.4748 164.684 53.3225C163.905 56.1568 163.22 59.0314 162.602 61.9194C161.984 64.8075 161.434 67.7223 161.004 70.6507C160.99 70.7044 160.95 70.7447 160.883 70.7313C160.843 70.7447 160.802 70.691 160.802 70.6372Z" fill="#84CC16"/>
<path d="M130.068 71.1746C128.188 66.4597 126.052 61.8792 123.621 57.4733C122.398 55.2703 121.069 53.1345 119.793 50.9719C118.516 48.8092 117.173 46.6868 115.87 44.5242C115.655 44.1615 115.776 43.7048 116.125 43.4899C116.448 43.2884 116.864 43.369 117.093 43.6511C118.731 45.6257 120.169 47.748 121.512 49.9241C122.855 52.1002 123.984 54.4106 125.045 56.7345C127.194 61.3822 128.94 66.1911 130.243 71.1074C130.257 71.1611 130.23 71.2149 130.176 71.2283C130.136 71.2552 130.095 71.2283 130.068 71.1746Z" fill="#4D93FC"/>
<path d="M170.272 78.2393C171.495 74.4378 172.959 70.7035 174.705 67.1036C176.451 63.5036 178.453 60.0111 180.683 56.6664C181.798 55.0007 182.953 53.3485 184.202 51.7635C185.438 50.1784 186.741 48.6337 188.111 47.1561C190.838 44.2009 193.82 41.4606 197.044 39.0562C197.38 38.8009 197.85 38.8681 198.105 39.2039C198.333 39.5129 198.293 39.9562 198.011 40.2114C195.096 42.8845 192.262 45.6247 189.602 48.5128C186.929 51.4008 184.377 54.4097 182.026 57.5798C179.662 60.7499 177.553 64.0947 175.619 67.5469C173.684 71.0125 171.965 74.5856 170.487 78.293C170.46 78.3467 170.407 78.3736 170.353 78.3467C170.286 78.3467 170.259 78.293 170.272 78.2393Z" fill="#E343E6"/>
<path d="M127.167 88.0856C125.004 84.9155 122.613 81.9066 120.061 79.0589C117.509 76.2112 114.782 73.5381 111.894 71.0664C108.993 68.5948 105.917 66.365 102.787 64.2158C99.6569 62.0666 96.3793 60.1323 93.048 58.292C92.6853 58.0905 92.551 57.6338 92.7525 57.2577C92.9406 56.9219 93.357 56.7741 93.7196 56.9353C97.2927 58.4666 100.678 60.4009 103.915 62.5501C107.152 64.6994 110.148 67.2113 112.982 69.8709C115.803 72.5306 118.449 75.3918 120.854 78.4141C123.258 81.4499 125.421 84.6603 127.368 87.9782C127.395 88.0319 127.382 88.0856 127.328 88.1125C127.261 88.1528 127.207 88.1259 127.167 88.0856Z" fill="#4D93FC"/>
<path d="M210.718 22.6688L209.16 28.8881L213.405 33.6836L207.011 34.1268L203.76 39.6342L201.369 33.697L195.109 32.3134L200.026 28.203L199.408 21.8225L204.848 25.221L210.718 22.6688Z" fill="#E343E6"/>
<path d="M143.917 22.1316L135.589 19.5659L128.752 24.9793L128.604 16.2615L121.351 11.4392L129.598 8.60489L131.949 0.209473L137.174 7.18103L145.892 6.81834L140.882 13.9511L143.917 22.1316Z" fill="#60E5AE"/>
<path d="M75.8136 44.2414L82.2613 45.9877L87.3523 41.6624L87.6881 48.3384L93.3701 51.8443L87.1374 54.2219L85.5523 60.7099L81.3613 55.5114L74.6987 56.0084L78.3524 50.4204L75.8136 44.2414Z" fill="#4D93FC"/>
<path d="M200.093 61.5965C200.093 59.2995 201.96 57.4324 204.257 57.4324C206.554 57.4324 208.421 59.2995 208.421 61.5965C208.421 63.8935 206.554 65.7606 204.257 65.7606C201.96 65.7606 200.093 63.8935 200.093 61.5965Z" fill="#60E5AE"/>
<path d="M95.7612 78.2667C95.7612 76.6682 97.0642 75.3652 98.6627 75.3652C100.261 75.3652 101.564 76.6682 101.564 78.2667C101.564 79.8652 100.261 81.1681 98.6627 81.1681C97.0642 81.1681 95.7612 79.8786 95.7612 78.2667Z" fill="#DD9221"/>
<path d="M0 127.215C0 124.918 1.86714 123.051 4.16413 123.051C6.46112 123.051 8.32825 124.918 8.32825 127.215C8.32825 129.512 6.46112 131.379 4.16413 131.379C1.86714 131.379 0 129.512 0 127.215Z" fill="#DD9221"/>
<path d="M239.639 59.8104C239.639 58.2119 240.942 56.9089 242.54 56.9089C244.139 56.9089 245.442 58.2119 245.442 59.8104C245.442 61.4089 244.139 62.7118 242.54 62.7118C240.928 62.6984 239.639 61.4089 239.639 59.8104Z" fill="#E343E6"/>
<path d="M176.841 131.044C176.841 129.445 178.144 128.142 179.743 128.142C181.341 128.142 182.644 129.445 182.644 131.044C182.644 132.642 181.341 133.945 179.743 133.945C178.144 133.945 176.841 132.642 176.841 131.044Z" fill="#60E5AE"/>
<path d="M11.2965 72.0202C12.8989 72.0202 14.1979 70.7212 14.1979 69.1187C14.1979 67.5163 12.8989 66.2173 11.2965 66.2173C9.69405 66.2173 8.39502 67.5163 8.39502 69.1187C8.39502 70.7212 9.69405 72.0202 11.2965 72.0202Z" fill="#DD9221"/>
<path d="M321.135 134.173C321.135 132.575 322.438 131.272 324.037 131.272C325.635 131.272 326.938 132.575 326.938 134.173C326.938 135.772 325.635 137.075 324.037 137.075C322.438 137.075 321.135 135.772 321.135 134.173Z" fill="#DD9221"/>
<path d="M211.497 152.026C213.099 152.026 214.398 150.727 214.398 149.124C214.398 147.522 213.099 146.223 211.497 146.223C209.894 146.223 208.595 147.522 208.595 149.124C208.595 150.727 209.894 152.026 211.497 152.026Z" fill="#4D93FC"/>
<path d="M285.27 146.424C285.27 144.826 286.572 143.523 288.171 143.523C289.769 143.523 291.072 144.826 291.072 146.424C291.072 148.023 289.769 149.326 288.171 149.326C286.572 149.326 285.27 148.023 285.27 146.424Z" fill="#DD9221"/>
<path d="M31.325 147.766C32.9275 147.766 34.2265 146.467 34.2265 144.865C34.2265 143.262 32.9275 141.963 31.325 141.963C29.7226 141.963 28.4236 143.262 28.4236 144.865C28.4236 146.467 29.7226 147.766 31.325 147.766Z" fill="#DD9221"/>
<path d="M311.141 72.5048C312.743 72.5048 314.042 71.2058 314.042 69.6034C314.042 68.0009 312.743 66.7019 311.141 66.7019C309.538 66.7019 308.239 68.0009 308.239 69.6034C308.239 71.2058 309.538 72.5048 311.141 72.5048Z" fill="#DD9221"/>
<path d="M62.3679 74.8411C62.3679 72.5441 64.2351 70.677 66.532 70.677C68.829 70.677 70.6962 72.5441 70.6962 74.8411C70.6962 77.1381 68.829 79.0053 66.532 79.0053C64.2351 79.0053 62.3679 77.1515 62.3679 74.8411Z" fill="#E343E6"/>
<path d="M131.694 141.226C131.694 138.929 133.561 137.062 135.858 137.062C138.155 137.062 140.022 138.929 140.022 141.226C140.022 143.523 138.155 145.39 135.858 145.39C133.561 145.39 131.694 143.523 131.694 141.226Z" fill="#60E5AE"/>
<path d="M279.48 67.9102L279.775 72.9743L284.114 75.6071L279.386 77.4473L278.217 82.3771L275.007 78.4548L269.956 78.8712L272.696 74.6131L270.735 69.9385L275.638 71.228L279.48 67.9102Z" fill="#4D93FC"/>
<path d="M67.9559 132.427L68.238 137.492L72.5767 140.124L67.8484 141.965L66.6798 146.894L63.4694 142.972L58.4187 143.389L61.159 139.117L59.1978 134.442L64.1141 135.732L67.9559 132.427Z" fill="#60E5AE"/>
<path d="M247.054 129.511L250.439 133.273L255.476 132.628L252.924 137.02L255.1 141.601L250.143 140.54L246.463 144.019L245.939 138.968L241.479 136.537L246.127 134.482L247.054 129.511Z" fill="#E343E6"/>
<path d="M101.39 163.739C101.39 162.14 102.693 160.837 104.291 160.837C105.89 160.837 107.193 162.14 107.193 163.739C107.193 165.337 105.89 166.64 104.291 166.64C102.693 166.64 101.39 165.337 101.39 163.739Z" fill="#84CC16"/>
<path d="M157.431 157.492L160.816 161.267L165.84 160.609L163.301 165.001L165.464 169.582L160.507 168.521L156.826 172L156.302 166.949L151.856 164.531L156.49 162.476L157.431 157.492Z" fill="#E343E6"/>
<path fill-rule="evenodd" clip-rule="evenodd" d="M258.929 106.785C259.31 106.277 259.71 105.809 260.11 105.282C260.706 104.549 261.321 103.807 261.936 103.085C262.551 102.363 262.971 101.874 263.488 101.269C263.722 100.986 263.957 100.693 264.201 100.41C264.074 99.8113 264.074 99.1928 264.201 98.5941C264.28 98.3052 264.461 98.0546 264.71 97.8879C264.959 97.7212 265.26 97.6496 265.558 97.6862C265.948 97.6882 266.323 97.8422 266.602 98.1158C266.899 98.3638 267.096 98.7103 267.159 99.092C267.209 99.3345 267.198 99.5856 267.126 99.8227C267.055 100.06 266.925 100.275 266.749 100.449C266.507 100.693 266.238 100.909 265.948 101.093C266.261 101.386 266.553 101.689 266.837 102.001C267.246 102.451 267.621 102.931 267.959 103.436C268.335 103.986 268.661 104.568 268.935 105.174C269.21 105.799 269.407 106.454 269.521 107.127C269.596 107.555 269.632 107.99 269.629 108.425C269.638 108.575 269.638 108.725 269.629 108.874C270.099 108.317 270.523 107.723 270.898 107.097C270.957 107.019 271.034 106.956 271.122 106.914C271.21 106.871 271.307 106.851 271.405 106.853C271.594 106.834 271.783 106.89 271.931 107.009C272.079 107.127 272.174 107.299 272.196 107.488C272.241 107.731 272.192 107.982 272.06 108.191L270.751 110.143C270.273 110.864 269.734 111.544 269.141 112.174C268.549 112.797 267.872 113.333 267.129 113.765C266.341 114.202 265.453 114.424 264.552 114.41C263.397 114.472 262.245 114.24 261.203 113.736C260.829 113.519 260.509 113.218 260.268 112.857C260.028 112.497 259.874 112.086 259.817 111.657C259.755 111.39 259.753 111.113 259.813 110.846C259.872 110.579 259.99 110.329 260.159 110.114C260.315 109.922 260.513 109.768 260.739 109.664C260.964 109.561 261.21 109.511 261.457 109.519C261.841 109.509 262.214 109.645 262.502 109.899C262.745 110.106 262.914 110.387 262.98 110.7C263.022 110.908 262.994 111.124 262.902 111.315C262.866 111.383 262.823 111.449 262.775 111.51C262.891 111.604 263.037 111.649 263.185 111.637C263.386 111.634 263.583 111.587 263.762 111.497C263.941 111.407 264.098 111.278 264.22 111.12C264.585 110.673 264.857 110.159 265.021 109.606C265.243 108.865 265.365 108.096 265.382 107.322C265.41 106.384 265.345 105.445 265.187 104.52C265.099 104.032 265.001 103.544 264.874 103.085C264.816 102.864 264.747 102.639 264.669 102.411L264.259 102.88C263.82 103.378 263.39 103.856 262.961 104.403L261.321 106.355C260.803 107 260.286 107.644 259.778 108.308C259.485 108.786 259.173 109.284 258.87 109.724C258.399 110.426 257.887 111.101 257.337 111.744C256.775 112.398 256.136 112.981 255.434 113.482C254.797 113.948 254.035 114.21 253.247 114.234C252.335 114.261 251.439 113.986 250.699 113.453C250.344 113.18 250.046 112.839 249.823 112.45C249.601 112.061 249.457 111.632 249.4 111.188C249.265 110.124 249.459 109.043 249.957 108.093C250.523 106.912 251.119 105.731 251.724 104.569C252.101 103.945 252.331 103.244 252.398 102.519C252.398 102.333 252.3 102.021 252.066 102.021C251.656 102.055 251.262 102.196 250.923 102.431C250.413 102.751 249.936 103.12 249.498 103.534C249.002 103.995 248.529 104.48 248.083 104.989C247.697 105.434 247.335 105.9 246.999 106.385L243.455 113.804C243.438 113.845 243.409 113.879 243.373 113.903C243.337 113.928 243.294 113.941 243.25 113.941H239.189C239.15 113.941 239.112 113.931 239.078 113.912C239.043 113.893 239.015 113.866 238.994 113.834C238.975 113.801 238.965 113.764 238.965 113.726C238.965 113.688 238.975 113.651 238.994 113.619C239.238 113.062 239.511 112.516 239.784 111.979C240.146 111.276 240.487 110.563 240.829 109.841C241.171 109.118 241.571 108.259 241.932 107.459C242.293 106.658 242.615 105.936 242.908 105.174C243.152 104.579 243.396 103.973 243.611 103.358C243.735 103.047 243.804 102.717 243.816 102.382C243.816 102.197 243.728 101.933 243.494 101.933C242.895 102.045 242.345 102.342 241.922 102.782C241.191 103.44 240.506 104.148 239.872 104.901C239.238 105.643 238.632 106.404 238.047 107.185C237.685 107.673 237.314 108.161 236.924 108.65L236.875 108.708C236.47 109.221 236.012 109.689 235.508 110.104C234.745 110.71 233.848 111.125 232.892 111.315C232.755 111.52 232.57 111.735 232.423 111.92C232.107 112.272 231.765 112.598 231.398 112.896C230.93 113.294 230.407 113.622 229.846 113.873C229.172 114.154 228.448 114.294 227.718 114.283C227.075 114.29 226.437 114.171 225.841 113.931C225.244 113.692 224.701 113.337 224.242 112.887C223.192 111.81 222.526 110.417 222.348 108.923C222.348 108.698 222.29 108.484 222.28 108.259C221.928 108.737 221.606 109.235 221.304 109.743C220.859 110.459 220.353 111.135 219.79 111.764C219.214 112.416 218.558 112.993 217.838 113.482C217.119 113.982 216.263 114.245 215.388 114.234C214.893 114.244 214.402 114.148 213.947 113.952C213.493 113.757 213.085 113.467 212.752 113.101C212.059 112.35 211.607 111.408 211.453 110.397C211.357 109.648 211.413 108.888 211.619 108.161C211.694 107.883 211.785 107.609 211.893 107.341C211.629 107.654 211.375 107.966 211.141 108.318C210.731 108.903 210.33 109.509 209.95 110.124C209.512 110.821 209.009 111.475 208.446 112.076C207.903 112.68 207.278 113.205 206.591 113.638C205.905 114.072 205.109 114.299 204.297 114.292C203.412 114.345 202.542 114.047 201.876 113.463C201.275 112.846 200.892 112.051 200.783 111.198C200.682 110.512 200.708 109.814 200.861 109.138C201.009 108.43 201.232 107.739 201.525 107.078C201.791 106.466 202.075 105.861 202.374 105.262L201.202 106.746L199.758 108.601L199.689 108.669C199.396 109.108 199.113 109.558 198.83 109.997C198.39 110.68 197.904 111.333 197.376 111.949C196.828 112.59 196.186 113.143 195.472 113.59C194.757 114.053 193.922 114.298 193.07 114.292C192.18 114.337 191.302 114.067 190.59 113.531C189.99 113.039 189.591 112.345 189.468 111.578V111.422C189.359 111.582 189.242 111.735 189.116 111.881C188.784 112.298 188.404 112.675 187.984 113.004C187.534 113.351 187.038 113.633 186.51 113.843C185.937 114.077 185.323 114.194 184.704 114.185C184.141 114.201 183.582 114.084 183.073 113.843C182.63 113.629 182.237 113.323 181.921 112.945C181.62 112.577 181.376 112.166 181.199 111.725C181.023 111.281 180.896 110.819 180.818 110.348C180.727 109.794 180.694 109.231 180.72 108.669C180.72 108.581 180.72 108.493 180.72 108.406C180.678 108.463 180.632 108.519 180.584 108.572C180.31 109.021 180.027 109.47 179.734 109.919C179.289 110.608 178.79 111.261 178.241 111.871C177.7 112.485 177.091 113.036 176.425 113.511C175.809 113.96 175.068 114.206 174.306 114.214C173.879 114.231 173.452 114.162 173.051 114.011C172.65 113.86 172.284 113.63 171.973 113.336C171.333 112.681 170.924 111.834 170.811 110.924C170.709 110.278 170.709 109.619 170.811 108.972C170.908 108.342 171.058 107.721 171.261 107.117C171.415 106.63 171.601 106.154 171.817 105.692L171.739 105.789C171.348 106.229 170.968 106.687 170.587 107.136C170.372 107.4 170.157 107.664 169.952 107.937L169.864 108.064C169.445 108.698 169.015 109.333 168.576 109.958C168.079 110.674 167.535 111.356 166.945 111.998C166.392 112.618 165.766 113.169 165.081 113.638C164.457 114.068 163.72 114.303 162.962 114.312C162.096 114.355 161.24 114.115 160.522 113.629C159.961 113.209 159.584 112.591 159.467 111.901C159.426 111.658 159.4 111.414 159.389 111.168C159.282 111.334 159.165 111.481 159.047 111.637C158.695 112.097 158.3 112.522 157.866 112.906C157.421 113.292 156.929 113.62 156.402 113.882C155.874 114.156 155.288 114.3 154.693 114.302C154.203 114.329 153.713 114.256 153.251 114.088C152.79 113.921 152.367 113.661 152.009 113.326C151.315 112.605 150.87 111.682 150.739 110.69C150.531 109.628 150.625 108.528 151.013 107.517C151.084 107.335 151.163 107.149 151.247 106.961C151.052 107.195 150.857 107.42 150.671 107.654C150.446 107.916 150.234 108.19 150.037 108.474C150.009 108.514 149.976 108.55 149.939 108.581C149.587 109.089 149.256 109.606 148.963 110.124C148.522 110.819 148.019 111.472 147.459 112.076C146.879 112.709 146.208 113.252 145.468 113.687C144.785 114.121 143.992 114.348 143.183 114.341C142.295 114.396 141.422 114.097 140.752 113.511C140.152 112.896 139.771 112.1 139.669 111.246C139.56 110.562 139.583 109.863 139.737 109.187C139.895 108.481 140.117 107.791 140.401 107.127C140.664 106.512 140.957 105.906 141.25 105.311C140.86 105.799 140.469 106.287 140.088 106.795L138.634 108.611L138.575 108.679L137.706 110.007C137.273 110.692 136.79 111.345 136.262 111.959C135.712 112.597 135.07 113.15 134.358 113.599C133.642 114.061 132.808 114.306 131.956 114.302C131.063 114.345 130.183 114.076 129.467 113.541C128.873 113.043 128.475 112.351 128.344 111.588C128.344 111.539 128.344 111.481 128.344 111.432L127.993 111.891C127.657 112.308 127.273 112.685 126.85 113.014C126.4 113.36 125.904 113.643 125.376 113.853C124.804 114.088 124.189 114.204 123.57 114.195C123.008 114.209 122.449 114.092 121.94 113.853C121.5 113.634 121.108 113.328 120.788 112.955C120.493 112.586 120.256 112.174 120.085 111.735C119.909 111.291 119.782 110.829 119.704 110.358C119.613 109.803 119.58 109.241 119.607 108.679C119.607 108.591 119.607 108.503 119.607 108.415C119.548 108.484 119.489 108.562 119.421 108.63L118.581 109.772C118.045 110.465 117.478 111.139 116.873 111.783C116.248 112.458 115.547 113.058 114.784 113.57C114.106 114.05 113.301 114.318 112.47 114.341C112.041 114.358 111.613 114.286 111.213 114.13C110.814 113.974 110.45 113.737 110.147 113.433C109.573 112.869 109.194 112.138 109.063 111.344C108.968 110.612 109.08 109.868 109.385 109.196C109.71 108.438 110.112 107.715 110.586 107.039C111.059 106.356 111.574 105.704 112.128 105.086C112.577 104.579 113.027 104.11 113.466 103.544C113.536 103.465 113.596 103.376 113.642 103.28C113.599 103.2 113.53 103.138 113.446 103.104C112.763 102.753 112.109 102.345 111.494 101.884C110.605 101.181 109.688 100.107 110.352 98.9554C110.461 98.799 110.607 98.6724 110.778 98.5871C110.948 98.5019 111.137 98.4606 111.328 98.4672C111.658 98.4682 111.975 98.5937 112.216 98.8187C112.491 99.0531 112.671 99.3792 112.724 99.7363C112.791 100.092 112.736 100.46 112.568 100.781C112.95 101.113 113.374 101.395 113.827 101.621C114.481 101.952 115.135 102.265 115.78 102.597C116.136 102.783 116.451 103.038 116.707 103.349C116.972 103.66 117.147 104.038 117.215 104.442C117.31 105.072 117.235 105.715 117 106.307C116.751 106.944 116.423 107.547 116.024 108.103C115.545 108.777 115.047 109.45 114.54 110.055C114.285 110.349 114.075 110.678 113.915 111.032C113.915 111.075 113.923 111.118 113.941 111.157C113.959 111.197 113.985 111.232 114.017 111.261C114.049 111.289 114.087 111.311 114.129 111.324C114.17 111.336 114.214 111.34 114.257 111.334C114.621 111.277 114.96 111.114 115.233 110.866C115.679 110.505 116.097 110.11 116.482 109.684C116.873 109.245 117.254 108.796 117.595 108.327C117.752 108.103 117.918 107.878 118.084 107.664L118.181 107.527C118.484 107.127 118.786 106.736 119.099 106.346C119.411 105.955 119.753 105.545 120.075 105.155C120.397 104.764 120.612 104.53 120.866 104.178C121.12 103.827 121.129 103.827 121.266 103.661C122.15 102.469 123.27 101.472 124.556 100.732C125.921 100.016 127.447 99.6595 128.988 99.6973C129.871 99.6488 130.746 99.8812 131.488 100.361C131.804 100.573 132.078 100.841 132.298 101.152L132.669 100.42C132.827 99.9841 133.122 99.6109 133.508 99.3556C133.838 99.1652 134.211 99.0611 134.592 99.053C135.103 99.0523 135.597 99.24 135.978 99.5801C136.398 99.9543 136.668 100.467 136.74 101.025L136.789 101.318C136.761 101.997 136.587 102.663 136.281 103.27C135.92 104.09 135.52 104.901 135.1 105.701L133.45 108.63C133.043 109.254 132.829 109.984 132.835 110.729C132.893 111.081 133.05 111.276 133.421 111.276C133.728 111.234 134.019 111.109 134.26 110.915C134.67 110.632 135.046 110.305 135.383 109.938C135.783 109.519 136.174 109.089 136.545 108.65C136.916 108.21 137.199 107.82 137.521 107.39C137.577 107.302 137.65 107.225 137.736 107.166C138.214 106.521 138.712 105.887 139.2 105.213L141.104 102.851C141.709 102.099 142.314 101.347 142.89 100.586C143.359 99.9804 143.818 99.3654 144.267 98.7406L144.53 98.0767C144.765 97.5105 144.999 96.954 145.243 96.3976C145.556 95.6849 145.868 94.982 146.219 94.2791C146.571 93.5761 146.883 92.9123 147.244 92.2387C147.606 91.565 148.406 90.4424 149.431 90.4424C149.674 90.4509 149.911 90.5142 150.126 90.6275C150.341 90.7407 150.527 90.901 150.671 91.0964C151.026 91.5679 151.255 92.1225 151.335 92.7073C151.472 93.5563 151.364 94.4268 151.023 95.2163C150.803 95.7849 150.528 96.3309 150.203 96.8466H152.37C152.641 96.8381 152.908 96.9168 153.131 97.0712C153.317 97.2079 153.443 97.4106 153.483 97.6374C153.505 97.7731 153.489 97.9122 153.437 98.0395C153.386 98.1669 153.3 98.2777 153.19 98.3598C152.883 98.569 152.515 98.6687 152.145 98.6429H149.217L144.882 107.83C144.402 108.675 144.15 109.63 144.15 110.602C144.171 110.753 144.228 110.897 144.316 111.022C144.364 111.069 144.423 111.105 144.487 111.127C144.551 111.149 144.619 111.156 144.687 111.149C145.041 111.136 145.382 111.013 145.663 110.797C146.052 110.504 146.414 110.177 146.747 109.821C147.128 109.419 147.487 108.995 147.82 108.552L148.689 107.41L148.758 107.322V107.273C148.794 107.214 148.837 107.158 148.885 107.107C150.154 105.565 151.394 103.964 152.507 102.314C152.887 101.747 153.268 101.181 153.659 100.625C153.844 100.331 154.049 100.05 154.274 99.7852C154.292 99.7563 154.319 99.733 154.35 99.7175C154.38 99.7021 154.415 99.6951 154.449 99.6973H158.93C158.969 99.6976 159.007 99.7076 159.042 99.7263C159.076 99.7451 159.105 99.772 159.126 99.8047C159.145 99.8388 159.156 99.8775 159.156 99.917C159.156 99.9564 159.145 99.9951 159.126 100.029L155.308 107.908C154.934 108.587 154.768 109.361 154.83 110.134C154.856 110.429 154.992 110.704 155.211 110.905C155.437 111.061 155.707 111.139 155.982 111.129C156.411 111.134 156.831 111.005 157.183 110.758C157.674 110.366 158.114 109.914 158.491 109.411C158.96 108.806 159.399 108.171 159.809 107.517C160.239 106.82 160.624 106.096 160.961 105.35L163.509 99.9316C163.526 99.8913 163.555 99.8569 163.591 99.8326C163.628 99.8084 163.67 99.7952 163.714 99.7949H167.922C167.961 99.7952 167.999 99.8052 168.033 99.8239C168.067 99.8427 168.096 99.8696 168.117 99.9023C168.137 99.9365 168.147 99.9752 168.147 100.015C168.147 100.054 168.137 100.093 168.117 100.127L164.27 108.396C163.913 109.088 163.716 109.852 163.695 110.631C163.753 110.983 163.9 111.227 164.29 111.227C164.613 111.187 164.919 111.055 165.169 110.846C165.576 110.55 165.961 110.223 166.321 109.87C166.75 109.438 167.154 108.981 167.531 108.503C167.795 108.171 168.058 107.83 168.302 107.478L168.351 107.38L168.439 107.273L168.576 107.058C168.628 106.97 168.698 106.894 168.781 106.834C169.113 106.394 169.454 105.965 169.757 105.535L171.407 103.436L173.076 101.318L174.599 99.3654C174.97 98.3891 175.351 97.3445 175.722 96.3292C176.093 95.3139 176.601 94.0838 177.099 92.9806C177.596 91.8775 178.075 90.9695 178.622 90.0519C179.025 89.2846 179.564 88.5967 180.213 88.0212C180.661 87.5856 181.257 87.3347 181.882 87.3183C182.351 87.3412 182.794 87.5399 183.122 87.8748C183.547 88.2747 183.819 88.8095 183.893 89.388C184.036 90.3929 183.936 91.4173 183.6 92.3754C183.261 93.4186 182.826 94.4284 182.302 95.392C181.817 96.2995 181.283 97.1795 180.701 98.0279C180.32 98.5844 179.939 99.1408 179.539 99.6875L175.634 108.044C175.4 108.508 175.226 109 175.117 109.509C175.073 109.793 175.073 110.083 175.117 110.368C175.175 110.729 175.322 110.963 175.712 110.963C176.025 110.951 176.328 110.845 176.581 110.661C176.94 110.418 177.267 110.133 177.557 109.811C177.909 109.431 178.241 109.03 178.534 108.62C178.729 108.367 178.914 108.103 179.09 107.839C179.139 107.737 179.202 107.642 179.276 107.556L179.334 107.468L179.451 107.283C179.499 107.214 179.554 107.152 179.617 107.097L180.184 106.375C180.506 105.965 180.838 105.574 181.16 105.184C181.482 104.793 181.697 104.559 181.951 104.208L182.361 103.69C183.243 102.497 184.363 101.5 185.651 100.761C187.012 100.044 188.535 99.6878 190.073 99.7266C190.958 99.678 191.837 99.9103 192.582 100.39C192.894 100.608 193.168 100.875 193.392 101.181L193.754 100.449C193.913 100.011 194.211 99.637 194.603 99.3849C194.932 99.1921 195.305 99.0878 195.687 99.0823C196.195 99.0822 196.685 99.2699 197.063 99.6094C197.486 99.9808 197.757 100.495 197.825 101.054L197.873 101.347C197.835 102.025 197.663 102.689 197.366 103.3C196.995 104.12 196.604 104.93 196.175 105.731C195.628 106.707 195.081 107.683 194.525 108.659C194.121 109.284 193.91 110.014 193.92 110.758C193.978 111.11 194.134 111.305 194.505 111.305C194.812 111.262 195.102 111.137 195.345 110.944C195.754 110.661 196.131 110.334 196.468 109.968C196.868 109.548 197.249 109.118 197.62 108.679C197.991 108.24 198.283 107.849 198.596 107.42C198.651 107.334 198.72 107.258 198.801 107.195C199.279 106.551 199.777 105.916 200.275 105.242C200.9 104.452 201.534 103.661 202.228 102.88C202.921 102.099 203.428 101.376 204.014 100.615C204.473 100.01 204.942 99.3947 205.381 98.7699C205.469 98.5551 205.557 98.3305 205.654 98.106C205.879 97.5398 206.123 96.9833 206.357 96.4268C206.67 95.7142 206.992 95.0112 207.333 94.3083C207.675 93.6054 207.997 92.9416 208.368 92.268C208.739 91.5943 209.52 90.4716 210.555 90.4716C210.796 90.4802 211.032 90.5436 211.245 90.6569C211.459 90.7702 211.643 90.9306 211.785 91.1257C212.148 91.5928 212.377 92.1495 212.449 92.7366C212.589 93.5847 212.484 94.4551 212.146 95.2455C211.923 95.8144 211.645 96.3605 211.317 96.8759H213.484C213.756 96.8645 214.023 96.9435 214.245 97.1005C214.431 97.2372 214.557 97.4398 214.597 97.6667C214.618 97.8014 214.602 97.9392 214.553 98.0661C214.503 98.193 214.42 98.3044 214.314 98.3891C214.004 98.5997 213.633 98.6995 213.259 98.6722H210.331L205.996 107.83C205.52 108.676 205.268 109.631 205.264 110.602C205.29 110.752 205.346 110.895 205.43 111.022C205.479 111.069 205.537 111.104 205.601 111.126C205.665 111.148 205.733 111.156 205.801 111.149C206.155 111.136 206.496 111.013 206.777 110.797C207.167 110.501 207.532 110.175 207.87 109.821C208.251 109.421 208.603 108.991 208.944 108.552L209.92 107.283C209.961 107.226 210.007 107.174 210.057 107.127C211.258 105.584 212.459 104.032 213.64 102.47L215.69 99.7852C215.71 99.757 215.736 99.7342 215.767 99.7188C215.798 99.7035 215.832 99.6961 215.866 99.6973H220.552C220.591 99.6976 220.629 99.7076 220.663 99.7263C220.697 99.7451 220.726 99.772 220.747 99.8047C220.764 99.8398 220.772 99.8781 220.772 99.917C220.772 99.9558 220.764 99.9941 220.747 100.029L216.842 107.839C216.615 108.288 216.426 108.755 216.276 109.235C216.158 109.597 216.121 109.981 216.169 110.358C216.237 110.758 216.383 111.159 216.842 111.159C217.196 111.123 217.534 110.991 217.818 110.778C218.257 110.469 218.663 110.116 219.029 109.724C219.449 109.284 219.843 108.821 220.21 108.337L220.825 107.517C220.855 107.458 220.891 107.403 220.933 107.351C220.984 107.294 221.029 107.231 221.069 107.166L221.245 106.931C221.274 106.87 221.317 106.816 221.372 106.775L221.977 105.955L222.954 104.608C223.773 103.034 225.012 101.718 226.534 100.804C228.055 99.8913 229.8 99.4168 231.574 99.4337C232.052 99.3962 232.532 99.4641 232.981 99.6328C233.43 99.8016 233.836 100.067 234.171 100.41C234.727 101.074 235.091 101.878 235.225 102.733C235.328 103.356 235.357 103.988 235.313 104.618C235.268 105.231 235.183 105.841 235.059 106.443C234.953 106.987 234.806 107.522 234.62 108.044C234.561 108.23 234.493 108.406 234.415 108.591C234.684 108.445 234.928 108.258 235.137 108.035C235.401 107.751 235.655 107.459 235.889 107.156L236.426 106.404C236.797 105.887 237.197 105.379 237.607 104.871C238.017 104.364 238.584 103.661 239.14 103.065C239.684 102.451 240.271 101.877 240.897 101.347C241.467 100.863 242.074 100.426 242.713 100.039C243.245 99.6992 243.859 99.5103 244.49 99.4923C244.965 99.4856 245.435 99.5857 245.866 99.7852C246.256 99.9569 246.613 100.195 246.921 100.488C247.206 100.755 247.444 101.069 247.624 101.416C247.794 101.719 247.913 102.049 247.975 102.392V102.587L248.034 102.519C248.441 102.088 248.878 101.687 249.342 101.318C249.899 100.86 250.497 100.455 251.128 100.107C251.74 99.7505 252.432 99.5557 253.14 99.5411C253.965 99.5039 254.774 99.7793 255.404 100.312C255.996 100.878 256.375 101.629 256.478 102.441C256.583 103.176 256.55 103.924 256.381 104.647C256.181 105.52 255.82 106.348 255.317 107.088C254.873 107.748 254.484 108.443 254.155 109.167C253.95 109.605 253.872 110.092 253.93 110.573C253.989 110.895 254.116 111.12 254.467 111.12C254.831 111.073 255.172 110.916 255.444 110.67C255.879 110.325 256.281 109.939 256.644 109.519C257.045 109.06 257.425 108.542 257.796 108.103C258.167 107.664 258.421 107.293 258.724 106.883C258.778 106.792 258.856 106.718 258.948 106.668L258.929 106.785ZM97.8456 109.05C97.7297 108.214 97.8065 107.362 98.0702 106.56C98.3401 105.635 98.7307 104.748 99.2319 103.925C99.702 103.153 100.284 102.455 100.96 101.855C101.487 101.349 102.182 101.053 102.912 101.025C103.196 100.994 103.483 101.034 103.747 101.141C104.011 101.249 104.244 101.42 104.426 101.64C104.693 102.036 104.892 102.475 105.011 102.938C104.816 103.397 104.514 104.1 104.094 105.037C103.674 105.975 103.215 106.912 102.717 107.869C101.741 109.743 100.569 110.68 99.1929 110.68C99.0162 110.687 98.8406 110.649 98.6821 110.571C98.5235 110.492 98.3871 110.376 98.285 110.231C98.0479 109.877 97.8974 109.473 97.8456 109.05ZM257.416 114.907C236.777 134.97 174.531 129.747 131.81 121.653C120.427 119.506 110.469 117.846 103.088 116.977H103.02C104.972 112.838 106.925 108.532 107.95 106.531C108.482 105.558 108.954 104.554 109.366 103.524C109.692 102.844 109.83 102.089 109.766 101.337C109.755 101.031 109.679 100.73 109.545 100.454C109.41 100.178 109.22 99.9339 108.985 99.7363C108.672 99.5148 108.303 99.3862 107.921 99.3654C107.624 99.3747 107.334 99.4515 107.071 99.5899C106.741 99.7539 106.474 100.021 106.31 100.351C106.154 100.615 106.017 100.869 105.89 101.113L105.705 101.484C105.522 100.996 105.177 100.586 104.728 100.322C104.088 99.9538 103.357 99.7744 102.62 99.8047C101.049 99.7571 99.4953 100.131 98.119 100.888C96.9669 101.562 95.9691 102.47 95.1902 103.554L94.7997 104.022C94.5361 104.335 94.2432 104.715 93.9015 105.155C93.5598 105.594 93.2182 106.053 92.8472 106.512L92.7203 106.678H92.6422C92.532 106.674 92.4227 106.699 92.3251 106.75C92.2275 106.802 92.145 106.877 92.0857 106.97C91.7928 107.38 91.4804 107.791 91.168 108.191C90.8556 108.591 90.4163 109.167 90.016 109.606C89.6525 110.027 89.2505 110.413 88.8152 110.758C88.5422 111.003 88.2021 111.159 87.839 111.207C87.4875 111.207 87.3508 110.983 87.302 110.661C87.2439 110.18 87.3217 109.693 87.5266 109.255C87.856 108.531 88.2446 107.836 88.6883 107.175C89.1922 106.435 89.5531 105.608 89.7524 104.735C89.9166 104.011 89.9496 103.264 89.8501 102.528C89.7418 101.718 89.3634 100.969 88.7762 100.4C88.1452 99.8672 87.3364 99.5917 86.5112 99.629C85.8007 99.6448 85.1057 99.8396 84.4904 100.195C83.8635 100.545 83.2689 100.95 82.7136 101.406C82.25 101.775 81.8129 102.176 81.4054 102.607L81.3468 102.675V102.48C81.2842 102.137 81.1655 101.807 80.9954 101.503C80.8157 101.156 80.5779 100.843 80.2925 100.576C79.9842 100.283 79.6275 100.045 79.2381 99.873C78.8067 99.6745 78.3365 99.5745 77.8616 99.5801C77.2307 99.5982 76.6166 99.7871 76.0848 100.127C75.444 100.511 74.8367 100.949 74.2689 101.435C73.6406 101.963 73.0531 102.537 72.5117 103.153C71.9845 103.749 71.4671 104.344 70.9789 104.959C70.4908 105.574 70.1686 105.936 69.7879 106.492L69.2607 107.244C69.0166 107.546 68.7726 107.839 68.509 108.122C68.298 108.348 68.0504 108.536 67.7768 108.679C67.861 108.502 67.9327 108.319 67.9916 108.132C68.1734 107.609 68.3201 107.074 68.4309 106.531C68.5559 105.929 68.6375 105.319 68.6749 104.706C68.7223 104.077 68.6961 103.444 68.5968 102.821C68.4633 101.964 68.095 101.159 67.5327 100.498C67.2002 100.154 66.7958 99.8887 66.3485 99.72C65.9012 99.5512 65.4222 99.4834 64.9456 99.5216C63.1608 99.505 61.4066 99.985 59.8788 100.908C55.9152 103.309 54.0213 109.372 57.6725 112.867C58.1314 113.317 58.6746 113.672 59.271 113.912C59.8674 114.151 60.5053 114.271 61.148 114.263C61.875 114.275 62.5965 114.136 63.2665 113.853C63.8306 113.603 64.3565 113.274 64.8285 112.877C65.1804 112.579 65.507 112.253 65.8047 111.901C65.9748 111.707 66.1345 111.505 66.2831 111.295C67.2392 111.106 68.1362 110.691 68.8995 110.085C69.4032 109.669 69.8613 109.201 70.2663 108.689L70.3151 108.63C70.7056 108.162 71.0765 107.654 71.4378 107.166C72.0235 106.385 72.6288 105.623 73.2634 104.881C73.8893 104.146 74.5645 103.455 75.2842 102.812C75.7069 102.372 76.2564 102.075 76.856 101.962C77.0806 101.962 77.1489 102.226 77.1782 102.411C77.1688 102.747 77.0959 103.079 76.9634 103.388C76.7584 104.003 76.5143 104.608 76.2605 105.203C75.9481 105.965 75.6064 106.726 75.2842 107.488C74.9621 108.249 74.552 109.079 74.1811 109.87C73.8101 110.661 73.4977 111.305 73.1365 112.008C72.8631 112.545 72.5898 113.092 72.3359 113.648C72.3195 113.682 72.311 113.718 72.311 113.755C72.311 113.793 72.3195 113.829 72.3359 113.863C72.357 113.896 72.3859 113.922 72.42 113.941C72.4541 113.96 72.4923 113.97 72.5312 113.97H76.6705C76.7143 113.97 76.757 113.957 76.7935 113.933C76.8299 113.908 76.8584 113.874 76.8755 113.834L80.4096 106.414C80.7492 105.93 81.1142 105.464 81.503 105.018C81.9498 104.509 82.4223 104.024 82.9186 103.563C83.3561 103.149 83.8336 102.78 84.3439 102.46C84.6814 102.224 85.0757 102.083 85.4862 102.05C85.7205 102.05 85.779 102.362 85.8083 102.548C85.7467 103.275 85.516 103.977 85.1347 104.598C84.5392 105.76 83.9437 106.941 83.3774 108.122C82.8769 109.072 82.6793 110.152 82.8112 111.217C82.9327 112.115 83.4027 112.928 84.1194 113.482C84.8598 114.016 85.7553 114.29 86.6674 114.263C87.4533 114.243 88.2138 113.981 88.8445 113.511C89.568 113.019 90.2244 112.435 90.797 111.774C91.3525 111.135 91.8645 110.46 92.3298 109.753C92.6812 109.226 93.0327 108.689 93.306 108.142C93.3201 108.115 93.3364 108.088 93.3548 108.064C93.2379 108.768 93.2379 109.488 93.3548 110.192C93.4881 111.163 93.8605 112.086 94.4385 112.877C94.7155 113.247 95.0799 113.542 95.499 113.736C95.9182 113.93 96.379 114.017 96.8401 113.99C97.819 114.055 98.7908 113.783 99.5931 113.219C100.217 112.707 100.807 112.156 101.36 111.569C100.608 113.179 99.8372 114.986 99.0074 116.743C92.3102 116.489 88.4247 117.875 86.5308 119.828C85.732 120.623 85.2236 121.664 85.0873 122.783C84.9509 123.902 85.1946 125.034 85.779 125.998C86.347 127.022 87.1687 127.884 88.1654 128.499C89.1621 129.115 90.3003 129.463 91.4707 129.512C96.9572 129.688 100.159 123.01 102.21 118.773L101.751 118.725L101.165 118.656C100.306 118.559 99.271 118.461 98.158 118.412C96.6448 121.4 94.048 125.676 90.553 125.939C89.867 126.017 89.1736 125.883 88.5662 125.555C87.9587 125.227 87.4664 124.72 87.1556 124.104C86.8681 123.436 86.8079 122.692 86.9842 121.986C87.1606 121.281 87.5638 120.653 88.1318 120.199C89.9379 118.471 93.9406 117.211 101.253 118.08L101.839 118.149C111.601 119.262 121.774 121.556 131.41 123.499C160.902 129.434 189.936 136.053 220.249 133.7C235.704 132.509 256.029 128.497 258.109 115.327C258.109 114.8 257.884 114.702 257.484 115.005L257.416 114.907ZM131.527 102.948C131.413 102.534 131.214 102.148 130.941 101.816C130.736 101.592 130.482 101.419 130.199 101.311C129.917 101.203 129.612 101.161 129.311 101.191C128.984 101.216 128.666 101.306 128.374 101.455C128.082 101.604 127.823 101.81 127.612 102.06C126.972 102.709 126.418 103.438 125.962 104.227C125.482 105.058 125.101 105.943 124.83 106.863C124.59 107.566 124.504 108.311 124.576 109.05C124.673 109.655 124.908 110.485 125.65 110.485C126.06 110.488 126.466 110.402 126.84 110.234C127.214 110.065 127.547 109.818 127.817 109.509C128.438 108.846 128.964 108.1 129.379 107.293L131.527 102.978V102.948ZM192.602 102.948C192.492 102.534 192.295 102.148 192.026 101.816C191.82 101.591 191.564 101.417 191.28 101.309C190.995 101.2 190.689 101.16 190.385 101.191C190.059 101.217 189.741 101.307 189.45 101.456C189.158 101.605 188.899 101.81 188.687 102.06C188.05 102.71 187.499 103.438 187.047 104.227C186.558 105.054 186.178 105.94 185.914 106.863C185.675 107.566 185.588 108.311 185.66 109.05C185.758 109.655 185.983 110.485 186.734 110.485C187.144 110.487 187.55 110.4 187.924 110.232C188.298 110.063 188.631 109.817 188.902 109.509C189.523 108.848 190.045 108.102 190.454 107.293L192.602 102.978V102.948ZM231.027 110.309C230.824 110.02 230.697 109.684 230.656 109.333C230.609 109 230.66 108.661 230.803 108.357C230.867 108.185 230.984 108.037 231.136 107.934C231.288 107.831 231.468 107.777 231.652 107.781C231.904 107.775 232.153 107.835 232.374 107.956C232.469 108 232.558 108.056 232.638 108.122C232.755 107.859 232.843 107.586 232.931 107.322C233.078 106.861 233.195 106.392 233.282 105.916C233.38 105.407 233.439 104.891 233.458 104.374C233.486 103.887 233.46 103.399 233.38 102.919C233.33 102.503 233.168 102.108 232.911 101.777C232.773 101.638 232.607 101.531 232.423 101.463C232.239 101.396 232.042 101.369 231.847 101.386C231.223 101.431 230.633 101.689 230.178 102.118C229.548 102.674 229.02 103.335 228.616 104.071C228.163 104.877 227.812 105.736 227.571 106.629C227.327 107.452 227.267 108.318 227.396 109.167C227.459 109.678 227.669 110.159 228.001 110.553C228.126 110.707 228.284 110.831 228.463 110.917C228.642 111.003 228.837 111.049 229.036 111.051C229.508 111.06 229.975 110.96 230.402 110.758C230.643 110.627 230.866 110.466 231.066 110.28L231.027 110.309ZM64.3013 110.309C64.0985 110.02 63.971 109.684 63.9303 109.333C63.8832 109 63.9341 108.661 64.0768 108.357C64.1414 108.185 64.2577 108.037 64.4098 107.934C64.562 107.831 64.7423 107.777 64.9261 107.781C65.1782 107.775 65.4273 107.835 65.6485 107.956C65.7432 108 65.8318 108.056 65.9121 108.122C66.0293 107.859 66.1171 107.586 66.205 107.322C66.5078 106.373 66.685 105.388 66.7322 104.393C66.7552 103.907 66.729 103.42 66.6541 102.938C66.6004 102.522 66.4351 102.127 66.1757 101.796C66.0396 101.657 65.8745 101.55 65.6923 101.483C65.51 101.415 65.315 101.389 65.1213 101.406C64.4967 101.448 63.9065 101.707 63.452 102.138C62.8225 102.694 62.294 103.354 61.8899 104.09C61.4374 104.897 61.0865 105.756 60.8453 106.648C60.6015 107.471 60.5415 108.338 60.6696 109.187C60.7332 109.697 60.9435 110.179 61.2749 110.573C61.4005 110.726 61.5582 110.851 61.737 110.937C61.9158 111.023 62.1113 111.068 62.3097 111.071C62.7649 111.088 63.2183 111.005 63.6374 110.827C63.8749 110.691 64.0974 110.531 64.3013 110.348V110.309ZM36.966 92.9221C37.6806 91.4814 38.5201 90.1061 39.475 88.812C40.5925 87.2983 41.9056 85.9392 43.38 84.7703C44.8905 83.5447 46.5667 82.539 48.3589 81.7829C50.2519 80.996 52.2837 80.5976 54.3337 80.6114C55.7006 80.5461 57.0493 80.9453 58.1606 81.7439C59.1126 82.5013 59.738 83.5949 59.9081 84.7996C60.0514 85.6527 60.0178 86.5262 59.8096 87.3659C59.6014 88.2056 59.2228 88.9935 58.6975 89.6809C57.5442 91.2516 56.1072 92.5926 54.4606 93.6347C52.6609 94.7943 50.7138 95.7071 48.6714 96.3487C46.7473 96.9743 44.7392 97.3035 42.7161 97.325C42.3747 97.3445 42.0325 97.3445 41.6911 97.325H41.4177C41.2603 98.0091 41.1559 98.7043 41.1053 99.4044C41.0401 100.272 41.0827 101.144 41.2322 102.001C41.3766 103.403 41.9808 104.718 42.9505 105.74C43.8678 106.539 45.0546 106.957 46.2697 106.912C46.9469 106.918 47.6159 106.764 48.2223 106.463C48.7921 106.186 49.3028 105.802 49.7257 105.33C50.1127 104.89 50.411 104.38 50.6043 103.827C50.7873 103.335 50.8411 102.803 50.7605 102.284C50.7432 102.144 50.7071 102.006 50.6532 101.874C50.6316 101.839 50.6202 101.799 50.6202 101.757C50.6202 101.716 50.6316 101.675 50.6532 101.64C50.6806 101.606 50.7169 101.579 50.7582 101.564C50.7994 101.548 50.8441 101.544 50.8875 101.552C51.8553 101.67 52.7551 102.11 53.4409 102.803C54.1267 103.496 54.5582 104.4 54.6656 105.369C54.8065 106.354 54.7094 107.359 54.3825 108.298C54.0257 109.39 53.4324 110.39 52.6447 111.227C51.746 112.183 50.6679 112.952 49.4719 113.492C48.0314 114.13 46.4683 114.443 44.8932 114.41C43.4207 114.442 41.9548 114.204 40.5684 113.707C39.4234 113.29 38.386 112.623 37.5322 111.754C36.7123 110.888 36.069 109.87 35.6383 108.757C35.1559 107.54 34.812 106.273 34.6132 104.979C34.355 103.359 34.3881 101.706 34.7108 100.098C34.9653 98.6828 35.3476 97.2941 35.853 95.9485C34.2199 95.436 32.7038 94.6066 31.3915 93.5078C29.9828 92.1832 29.0903 90.4014 28.8728 88.4801C28.7549 87.813 28.795 87.1275 28.9899 86.4787C29.1776 85.8667 29.5128 85.3101 29.9662 84.8581C30.4292 84.4003 30.9806 84.0415 31.5868 83.8038C32.2597 83.5461 32.975 83.4169 33.6955 83.423C34.0951 83.4195 34.494 83.4555 34.8865 83.5304C35.2575 83.6085 35.6187 83.6964 35.9702 83.8038C36.0167 83.8108 36.0592 83.8345 36.0897 83.8704C36.1202 83.9063 36.1367 83.9519 36.1361 83.999C36.1422 84.0451 36.133 84.092 36.1101 84.1325C36.0873 84.173 36.0519 84.2049 36.0092 84.2236C35.6382 84.4101 35.2824 84.6256 34.9451 84.8679C34.5616 85.1295 34.2305 85.4607 33.9688 85.8442C33.6893 86.247 33.4843 86.6967 33.3636 87.1719C33.2404 87.7281 33.2404 88.3046 33.3636 88.8608C33.5114 89.8356 33.9425 90.7455 34.6034 91.4772C35.2655 92.2053 36.0972 92.7587 37.0245 93.088L36.966 92.9221ZM41.9644 94.5524H42.8626C43.8823 94.529 44.8967 94.3981 45.889 94.1619C47.0203 93.9153 48.1327 93.589 49.2181 93.1856C50.3288 92.7669 51.4004 92.2507 52.4202 91.6432C53.3797 91.1001 54.2712 90.4446 55.0756 89.6906C55.7657 89.0349 56.3284 88.257 56.7353 87.3964C57.1018 86.6178 57.2178 85.7445 57.0672 84.8972C57.0393 84.632 56.9531 84.3763 56.8146 84.1485C56.6762 83.9206 56.4891 83.7262 56.2667 83.5792C55.7679 83.2746 55.1912 83.1219 54.607 83.1399C53.1755 83.1377 51.7614 83.4546 50.4677 84.0674C49.1189 84.704 47.8799 85.5509 46.7969 86.5764C45.6455 87.675 44.6591 88.9344 43.8681 90.3154C43.0712 91.6626 42.4168 93.0891 41.9156 94.5719L41.9644 94.5524ZM223.061 94.4743C223.14 94.8723 223.134 95.2825 223.043 95.678C222.953 96.0734 222.779 96.4451 222.534 96.7685C222.235 97.1047 221.863 97.3675 221.447 97.5368C221.03 97.7061 220.581 97.7773 220.132 97.7448C219.325 97.7683 218.539 97.4818 217.936 96.9443C217.364 96.4377 216.987 95.7469 216.871 94.9917C216.799 94.6021 216.816 94.2013 216.921 93.8192C217.026 93.4371 217.216 93.0837 217.477 92.7854C217.774 92.4506 218.145 92.1885 218.559 92.0193C218.974 91.85 219.422 91.7781 219.869 91.8091C220.269 91.7945 220.667 91.8605 221.041 92.003C221.415 92.1456 221.757 92.3618 222.046 92.6389C222.564 93.1226 222.908 93.7647 223.022 94.4645L223.061 94.4743ZM276.209 103.71C276.619 102.16 276.944 100.589 277.185 99.0042C277.39 97.5495 277.566 96.0754 277.712 94.6305C277.819 93.6054 277.937 92.5706 278.073 91.5455C278.166 90.7833 278.303 90.0271 278.483 89.2806C278.539 88.9858 278.672 88.7109 278.867 88.4831C279.062 88.2553 279.314 88.0826 279.596 87.9822C279.872 87.8928 280.164 87.8613 280.453 87.8899C280.742 87.9184 281.022 88.0064 281.275 88.1481C281.811 88.4667 282.252 88.9215 282.554 89.4661C282.729 89.7565 282.842 90.0794 282.887 90.4151C282.933 90.7509 282.909 91.0923 282.818 91.4186C282.622 92.1342 282.378 92.8355 282.086 93.5176C281.705 94.4157 281.324 95.3236 280.934 96.2218C280.387 97.4812 279.85 98.7406 279.342 100.01C278.766 101.468 278.283 102.961 277.898 104.481C277.817 104.803 277.64 105.092 277.39 105.311C277.292 105.388 277.175 105.438 277.052 105.455C276.928 105.472 276.802 105.456 276.687 105.408C276.564 105.351 276.457 105.265 276.374 105.158C276.291 105.051 276.234 104.926 276.209 104.793C276.116 104.438 276.116 104.065 276.209 103.71ZM277.185 111.364C277.446 111.94 277.471 112.595 277.253 113.189C277.083 113.506 276.819 113.763 276.498 113.926C276.177 114.088 275.813 114.148 275.457 114.097C274.828 114.106 274.219 113.872 273.758 113.443C273.334 113.071 273 112.607 272.782 112.086C272.635 111.783 272.553 111.453 272.543 111.116C272.533 110.78 272.595 110.445 272.723 110.134C272.892 109.827 273.149 109.577 273.46 109.417C273.771 109.257 274.123 109.194 274.471 109.235C275.096 109.238 275.696 109.479 276.15 109.909C276.611 110.299 276.975 110.79 277.214 111.344L277.185 111.364Z" fill="url(#paint0_linear_1884_2515)"/>
<defs>
<linearGradient id="paint0_linear_1884_2515" x1="28.8066" y1="107.396" x2="282.91" y2="107.396" gradientUnits="userSpaceOnUse">
<stop stop-color="#BA8417"/>
<stop offset="1" stop-color="#EDC238"/>
</linearGradient>
</defs>
</svg>
