<svg width="124" height="100" viewBox="0 0 124 100" fill="none" xmlns="http://www.w3.org/2000/svg">
<g clip-path="url(#clip0_1825_4722)">
<path d="M0.194716 85.34C-27.3136 101.216 -27.3136 126.967 0.194716 142.85C27.703 158.732 72.3003 158.732 99.8086 142.85C127.317 126.967 127.314 101.219 99.8086 85.34C72.3037 69.4606 27.6997 69.4573 0.194716 85.34Z" fill="#FAFAFA"/>
<path d="M-21.0002 30.3671C-21.0002 21.3791 -15.0798 10.6775 -7.79199 6.46405C-3.92799 4.23301 -0.450394 4.26661 1.95201 6.12805C4.97601 7.37461 6.88449 10.8321 6.88449 15.9527V58.2551L-19.5587 73.5196L-21.0002 72.6561V30.3671Z" fill="#E6E6E6"/>
<path d="M-19.5318 73.5194V31.2137C-19.5318 22.2291 -13.6115 11.5241 -6.31023 7.31065C0.991051 3.09721 6.91137 6.97465 6.91137 15.9492V58.255L-19.5318 73.5194Z" fill="#F5F5F5"/>
<path d="M-18.087 31.2136V71.0128L5.4632 57.4149V15.9525C5.4632 11.4602 3.884 8.3589 1.22624 7.3845C0.608855 7.15723 -0.0445245 7.0434 -0.702397 7.0485C-2.20768 7.0485 -3.84736 7.55586 -5.58784 8.5605C-12.4792 12.5421 -18.087 22.7027 -18.087 31.2136Z" fill="#E0E0E0"/>
<path d="M5.4632 57.4153L3.97136 56.5552L-18.0837 69.2929V71.0133L5.4632 57.4153Z" fill="#EBEBEB"/>
<path d="M-18.087 31.2136V69.2959L3.968 56.5547V15.0856C3.968 11.5039 2.96 8.81586 1.22624 7.3845C0.608855 7.15723 -0.0445245 7.0434 -0.702397 7.0485C-2.20768 7.0485 -3.84736 7.55586 -5.58784 8.5605C-12.4792 12.5421 -18.087 22.7027 -18.087 31.2136Z" fill="white"/>
<path d="M5.46321 43.9414L-5.58783 50.322V52.0188L5.46321 45.6382V43.9414Z" fill="#F5F5F5"/>
<path d="M3.97137 43.0815L5.46321 43.9417L-5.58783 50.3223V48.6255L3.97137 43.0815Z" fill="#EBEBEB"/>
<path d="M5.46321 19.1714L-5.58783 25.552V27.2488L5.46321 20.8682V19.1714Z" fill="#F5F5F5"/>
<path d="M3.97137 18.3115L5.46321 19.1717L-5.58783 25.5523V23.8555L3.97137 18.3115Z" fill="#EBEBEB"/>
<path d="M90.0512 41.7207L99.5163 36.2573L124.437 50.628V51.6696L114.972 57.133L90.0512 42.7589V41.7207Z" fill="#EBEBEB"/>
<path d="M114.972 56.0948L90.0512 41.7207L99.5163 36.2573L124.437 50.628L114.972 56.0948Z" fill="#FAFAFA"/>
<path d="M114.972 56.0947V57.1329L124.437 51.6695V50.6279L114.972 56.0947Z" fill="#E6E6E6"/>
<path d="M96.6671 27.249L91.1163 30.4578V41.0183L96.6671 37.8129V27.249Z" fill="#EBEBEB"/>
<path d="M91.2944 30.6323L96.6704 27.5479C96.9992 27.8959 97.4297 28.1311 97.9002 28.2199L92.5712 31.2909C92.1182 31.1291 91.6888 30.9076 91.2944 30.6323Z" fill="white"/>
<path d="M93.0853 31.2709C92.9255 31.3521 92.7488 31.3944 92.5695 31.3944C92.3903 31.3944 92.2136 31.3521 92.0538 31.2709L91.1465 30.7535C91.0853 30.7315 91.0322 30.6912 90.9948 30.638C90.9573 30.5847 90.9372 30.5212 90.9372 30.4561C90.9372 30.391 90.9573 30.3275 90.9948 30.2743C91.0322 30.2211 91.0853 30.1807 91.1465 30.1588L96.4453 27.1348L96.667 27.2624L91.459 30.2864C91.4219 30.2991 91.3896 30.3231 91.3668 30.355C91.3439 30.387 91.3316 30.4253 91.3316 30.4645C91.3316 30.5038 91.3439 30.5421 91.3668 30.574C91.3896 30.6059 91.4219 30.6299 91.459 30.6426L92.3024 31.1197C92.3983 31.1679 92.5042 31.193 92.6115 31.193C92.7189 31.193 92.8247 31.1679 92.9206 31.1197L98.1286 28.1159L98.3806 28.2637L93.0853 31.2709Z" fill="#FAFAFA"/>
<path d="M98.384 28.2334V38.7939L93.0886 41.8347C92.9288 41.9158 92.7521 41.9581 92.5729 41.9581C92.3936 41.9581 92.2169 41.9158 92.0571 41.8347L91.1499 41.3139C91.0915 41.2879 91.0411 41.2467 91.0039 41.1948C90.9667 41.1428 90.944 41.0819 90.9382 41.0182V30.4544C90.9438 30.5185 90.9664 30.58 91.0036 30.6326C91.0408 30.6851 91.0913 30.7268 91.1499 30.7534L92.0571 31.2708C92.2169 31.352 92.3936 31.3943 92.5729 31.3943C92.7521 31.3943 92.9288 31.352 93.0886 31.2708L98.384 28.2334Z" fill="#E0E0E0"/>
<path d="M92.5678 31.3954C92.3886 31.3993 92.2114 31.3565 92.0538 31.2711L91.1466 30.7536C91.0879 30.727 91.0374 30.6853 91.0002 30.6328C90.963 30.5802 90.9405 30.5187 90.9349 30.4546V41.0184C90.9407 41.0821 90.9634 41.143 91.0006 41.195C91.0378 41.247 91.0882 41.2881 91.1466 41.3141L92.0538 41.8349C92.2122 41.9177 92.389 41.9593 92.5678 41.9559V31.3954Z" fill="#F0F0F0"/>
<path d="M98.9955 28.8481L93.4448 32.0569L95.1685 42.9366L100.723 39.7312L98.9955 28.8481Z" fill="#EBEBEB"/>
<path d="M93.68 32.2085L99.056 29.124C99.4761 29.4313 99.9698 29.6225 100.487 29.6784L95.1584 32.7495C94.6471 32.6245 94.1512 32.443 93.68 32.2085Z" fill="white"/>
<path d="M95.696 32.7055C95.5225 32.7887 95.334 32.836 95.1417 32.8447C94.9495 32.8533 94.7574 32.8231 94.5771 32.7559L93.5221 32.3359C93.1861 32.1981 93.1491 31.9562 93.4347 31.7916L98.7335 28.7676L98.9955 28.8751L93.7875 31.8823C93.6162 31.9831 93.6397 32.1276 93.8413 32.2183L94.8224 32.6148C94.9309 32.6542 95.0461 32.6718 95.1614 32.6667C95.2767 32.6615 95.3899 32.6336 95.4944 32.5845L100.699 29.5807L100.998 29.7017L95.696 32.7055Z" fill="#FAFAFA"/>
<path d="M100.998 29.665L102.722 40.5481L97.423 43.5889C97.2493 43.6713 97.0608 43.7183 96.8687 43.7269C96.6765 43.7356 96.4846 43.7058 96.3042 43.6393L95.2458 43.2092C95.0811 43.1386 94.987 43.0446 94.9736 42.9471L93.2466 32.0641C93.2634 32.1615 93.3574 32.259 93.5221 32.3262L94.5805 32.7596C94.7611 32.8252 94.9529 32.8545 95.1449 32.8458C95.3369 32.8372 95.5253 32.7907 95.6994 32.7092L100.998 29.665Z" fill="#E0E0E0"/>
<path d="M95.1584 32.8432C94.962 32.8563 94.765 32.8276 94.5805 32.7592L93.5221 32.3358C93.3574 32.2686 93.2634 32.1712 93.2466 32.0737L94.9736 42.9568C94.9736 43.0542 95.0811 43.1483 95.2458 43.2188L96.3042 43.6489C96.4885 43.7185 96.6854 43.7483 96.8821 43.7363L95.1584 32.8432Z" fill="#F0F0F0"/>
<path opacity="0.05" d="M101.022 42.752C99.7179 43.508 99.7179 44.731 101.022 45.4837C101.754 45.8564 102.565 46.0506 103.387 46.0506C104.209 46.0506 105.02 45.8564 105.752 45.4837C107.06 44.731 107.06 43.508 105.752 42.752C105.019 42.3809 104.209 42.1875 103.387 42.1875C102.565 42.1875 101.755 42.3809 101.022 42.752Z" fill="black"/>
<path d="M105.514 44.664C106.653 43.5015 107.322 40.6018 106.213 39.6812H100.565C99.4558 40.6018 100.124 43.5015 101.26 44.6607L101.29 44.6943L101.331 44.7312C101.364 44.7632 101.399 44.7935 101.435 44.822C101.442 44.8315 101.451 44.8395 101.462 44.8455L101.546 44.9093C101.596 44.9429 101.643 44.9765 101.694 45.0034C102.219 45.2702 102.8 45.4092 103.389 45.4092C103.978 45.4092 104.559 45.2702 105.084 45.0034C105.134 44.9765 105.181 44.9429 105.232 44.9093L105.312 44.8488L105.346 44.822L105.443 44.7346L105.49 44.6909L105.514 44.664Z" fill="#F5F5F5"/>
<path d="M101.072 39.241C99.7851 39.9835 99.7851 41.1898 101.072 41.929C101.795 42.2951 102.595 42.4858 103.406 42.4858C104.216 42.4858 105.016 42.2951 105.739 41.929C107.026 41.183 107.026 39.9768 105.739 39.241C105.016 38.8748 104.216 38.6841 103.406 38.6841C102.595 38.6841 101.795 38.8748 101.072 39.241Z" fill="white"/>
<path d="M101.969 39.7685C101.186 40.2221 101.186 40.9546 101.969 41.4082C102.409 41.6303 102.896 41.746 103.389 41.746C103.882 41.746 104.368 41.6303 104.808 41.4082C105.591 40.9546 105.591 40.2221 104.808 39.7685C104.369 39.5448 103.882 39.4282 103.389 39.4282C102.895 39.4282 102.409 39.5448 101.969 39.7685Z" fill="#EBEBEB"/>
<path d="M104.808 40.5448C104.368 40.3227 103.882 40.207 103.389 40.207C102.896 40.207 102.409 40.3227 101.969 40.5448C101.78 40.6484 101.619 40.7959 101.499 40.9749C101.618 41.1558 101.779 41.3046 101.969 41.4084C102.409 41.6305 102.896 41.7462 103.389 41.7462C103.882 41.7462 104.368 41.6305 104.808 41.4084C104.998 41.3056 105.159 41.1565 105.275 40.9749C105.158 40.7953 104.997 40.6475 104.808 40.5448Z" fill="#E0E0E0"/>
<path d="M102.14 40.9747C101.739 40.5679 101.395 40.1091 101.116 39.6105C100.642 38.7739 100.555 37.6517 100.8 37.5105C101.045 37.3694 102.043 38.4917 102.043 38.4917C101.951 38.0216 101.915 37.5422 101.936 37.0637C101.979 36.3144 102.161 35.6357 102.376 35.5013C102.591 35.3669 103.068 36.3043 103.273 36.9864C103.478 37.6685 103.609 38.233 103.609 38.233C103.692 37.7001 103.815 37.1744 103.978 36.6605C104.227 35.9515 104.452 35.7902 104.627 35.8608C104.802 35.9314 104.916 36.264 104.963 37.2048C104.98 37.6533 104.965 38.1023 104.919 38.5488C104.919 38.5488 105.272 38.159 105.662 37.7861C106.052 37.4131 106.273 37.3157 106.398 37.3963C106.522 37.4769 106.552 38.1154 105.89 39.3149C105.56 39.9263 105.137 40.4828 104.637 40.9646C104.637 40.9646 103.713 41.5694 102.14 40.9747Z" fill="#EBEBEB"/>
<path d="M112.197 35.2627L106.646 38.4681V49.032L112.197 45.8265V35.2627Z" fill="#E0E0E0"/>
<path d="M106.824 38.646L112.2 35.5615C112.53 35.9083 112.96 36.1432 113.43 36.2335L108.101 39.3046C107.648 39.1428 107.219 38.9213 106.824 38.646Z" fill="white"/>
<path d="M108.615 39.2846C108.455 39.3658 108.279 39.4081 108.099 39.4081C107.92 39.4081 107.743 39.3658 107.584 39.2846L106.676 38.7672C106.614 38.7469 106.559 38.7071 106.52 38.6537C106.481 38.6003 106.46 38.5359 106.46 38.4698C106.46 38.4037 106.481 38.3393 106.52 38.2859C106.559 38.2325 106.614 38.1927 106.676 38.1724L111.972 35.1484L112.197 35.2761L106.989 38.2833C106.952 38.296 106.92 38.32 106.897 38.3519C106.874 38.3839 106.862 38.4221 106.862 38.4614C106.862 38.5007 106.874 38.5389 106.897 38.5709C106.92 38.6028 106.952 38.6268 106.989 38.6395L107.829 39.1166C107.926 39.1646 108.032 39.1895 108.14 39.1895C108.248 39.1895 108.354 39.1646 108.451 39.1166L113.655 36.1128L113.911 36.2606L108.615 39.2846Z" fill="#FAFAFA"/>
<path d="M113.911 36.2437V46.8075L108.615 49.8483C108.455 49.9279 108.278 49.9694 108.099 49.9694C107.921 49.9694 107.744 49.9279 107.584 49.8483L106.676 49.3275C106.618 49.3015 106.568 49.2604 106.531 49.2084C106.493 49.1564 106.471 49.0955 106.465 49.0318V38.468C106.471 38.5316 106.493 38.5926 106.531 38.6445C106.568 38.6965 106.618 38.7376 106.676 38.7637L107.584 39.2844C107.744 39.3656 107.92 39.4079 108.099 39.4079C108.279 39.4079 108.455 39.3656 108.615 39.2844L113.911 36.2437Z" fill="#E0E0E0"/>
<path d="M108.098 39.4091C107.919 39.413 107.741 39.3702 107.584 39.2847L106.676 38.7639C106.618 38.7379 106.568 38.6968 106.531 38.6448C106.493 38.5929 106.471 38.5319 106.465 38.4683V49.0321C106.471 49.0958 106.493 49.1567 106.531 49.2087C106.568 49.2607 106.618 49.3018 106.676 49.3278L107.584 49.8486C107.742 49.9314 107.919 49.973 108.098 49.9695V39.4091Z" fill="#F0F0F0"/>
<path d="M114.468 36.5664L108.918 39.7718V50.3357L114.468 47.1302V36.5664Z" fill="#EBEBEB"/>
<path d="M109.096 39.9497L114.472 36.8652C114.801 37.2127 115.231 37.4478 115.701 37.5372L110.372 40.6083C109.92 40.4465 109.49 40.225 109.096 39.9497Z" fill="white"/>
<path d="M110.887 40.5882C110.726 40.6694 110.549 40.7117 110.369 40.7117C110.189 40.7117 110.012 40.6694 109.852 40.5882L108.948 40.064C108.885 40.0437 108.83 40.004 108.791 39.9506C108.752 39.8971 108.731 39.8328 108.731 39.7667C108.731 39.7006 108.752 39.6362 108.791 39.5828C108.83 39.5293 108.885 39.4896 108.948 39.4693L114.243 36.4453L114.468 36.573L109.26 39.5802C109.223 39.5929 109.191 39.6169 109.168 39.6488C109.145 39.6807 109.133 39.719 109.133 39.7583C109.133 39.7975 109.145 39.8358 109.168 39.8678C109.191 39.8997 109.223 39.9237 109.26 39.9364L110.1 40.4135C110.197 40.4614 110.303 40.4864 110.411 40.4864C110.519 40.4864 110.625 40.4614 110.722 40.4135L115.927 37.4096L116.182 37.5575L110.887 40.5882Z" fill="#FAFAFA"/>
<path d="M116.192 37.5474V48.128L110.887 51.152C110.726 51.2317 110.549 51.2731 110.369 51.2731C110.19 51.2731 110.013 51.2317 109.852 51.152L108.948 50.6312C108.889 50.6054 108.838 50.5644 108.8 50.5124C108.763 50.4605 108.739 50.3994 108.733 50.3355V39.7717C108.739 39.8356 108.763 39.8966 108.8 39.9486C108.838 40.0005 108.889 40.0415 108.948 40.0674L109.852 40.5882C110.012 40.6694 110.189 40.7117 110.369 40.7117C110.549 40.7117 110.726 40.6694 110.887 40.5882L116.192 37.5474Z" fill="#E0E0E0"/>
<path d="M110.369 40.7127C110.189 40.7166 110.011 40.6738 109.852 40.5884L108.948 40.0642C108.889 40.0384 108.838 39.9974 108.8 39.9455C108.763 39.8935 108.739 39.8325 108.733 39.7686V50.3324C108.739 50.3963 108.763 50.4573 108.8 50.5093C108.838 50.5612 108.889 50.6022 108.948 50.6281L109.852 51.1489C110.011 51.2317 110.189 51.2733 110.369 51.2698V40.7127Z" fill="#F0F0F0"/>
<path d="M116.709 38.8076L111.159 42.0131L112.882 52.8961L118.436 49.6907L116.709 38.8076Z" fill="#EBEBEB"/>
<path d="M111.377 42.1641L116.753 39.0796C117.173 39.3869 117.667 39.5781 118.184 39.634L112.856 42.705C112.344 42.58 111.848 42.3986 111.377 42.1641Z" fill="white"/>
<path d="M113.413 42.6645C113.24 42.747 113.051 42.7939 112.859 42.8025C112.667 42.8112 112.475 42.7814 112.294 42.7149L111.236 42.2815C110.9 42.1471 110.863 41.9051 111.149 41.7405L116.447 38.6997L116.709 38.8072L111.501 41.8312C111.33 41.9287 111.354 42.0731 111.555 42.1672L112.536 42.5637C112.645 42.6031 112.76 42.6208 112.875 42.6156C112.991 42.6104 113.104 42.5825 113.208 42.5335L118.413 39.5296L118.712 39.6506L113.413 42.6645Z" fill="#FAFAFA"/>
<path d="M118.712 39.624L120.436 50.5071L115.137 53.5311C114.963 53.613 114.774 53.6593 114.582 53.6674C114.39 53.6755 114.198 53.6451 114.018 53.5781L112.96 53.1682C112.795 53.101 112.701 53.0069 112.688 52.9061L110.96 42.0264C110.977 42.1239 111.071 42.2179 111.236 42.2851L112.294 42.7186C112.475 42.7851 112.667 42.8149 112.859 42.8062C113.051 42.7976 113.24 42.7506 113.413 42.6682L118.712 39.624Z" fill="#E0E0E0"/>
<path d="M112.872 42.8025C112.676 42.8145 112.479 42.7847 112.294 42.7151L111.236 42.2817C111.071 42.2145 110.977 42.1204 110.96 42.0229L112.688 52.9026C112.688 53.0034 112.795 53.0975 112.96 53.1647L114.018 53.5948C114.202 53.666 114.399 53.6958 114.596 53.6821L112.872 42.8025Z" fill="#F0F0F0"/>
<path d="M90.0512 21.2212L99.5163 15.7578L124.437 30.1285V31.1668L114.972 36.6335L90.0512 22.2594V21.2212Z" fill="#EBEBEB"/>
<path d="M114.972 35.5919L90.0512 21.2212L99.5163 15.7578L124.437 30.1285L114.972 35.5919Z" fill="#FAFAFA"/>
<path d="M114.972 35.5918V36.6334L124.437 31.1667V30.1284L114.972 35.5918Z" fill="#E6E6E6"/>
<path d="M98.0615 5.74463L91.9227 9.28943V20.9654L98.0615 17.4206V5.74463Z" fill="#EBEBEB"/>
<path d="M92.121 9.48798L98.048 6.07422C98.406 6.45789 98.8767 6.71791 99.392 6.81678L93.5288 10.2137C93.0297 10.0346 92.5564 9.79057 92.121 9.48798Z" fill="white"/>
<path d="M94.1 10.1935C93.923 10.2814 93.7281 10.3271 93.5305 10.3271C93.3329 10.3271 93.138 10.2814 92.961 10.1935L91.953 9.61891C91.8639 9.61891 91.7784 9.58351 91.7154 9.5205C91.6524 9.45749 91.617 9.37203 91.617 9.28291C91.617 9.1938 91.6524 9.10834 91.7154 9.04533C91.7784 8.98231 91.8639 8.94691 91.953 8.94691L97.8061 5.58691L98.0547 5.72803L92.2991 9.05443C92.1075 9.16195 92.1075 9.33667 92.2991 9.44755L93.2264 9.97171C93.3307 10.024 93.4458 10.0513 93.5624 10.0513C93.6791 10.0513 93.7941 10.024 93.8984 9.97171L99.6541 6.65539L99.933 6.81667L94.1 10.1935Z" fill="#FAFAFA"/>
<path d="M99.9531 6.8335V18.5061L94.1 21.8661C93.9235 21.9556 93.7284 22.0022 93.5305 22.0022C93.3326 22.0022 93.1375 21.9556 92.961 21.8661L91.953 21.2916C91.8869 21.2623 91.83 21.2156 91.7885 21.1564C91.7471 21.0971 91.7226 21.0277 91.7178 20.9556V9.28966C91.7226 9.36178 91.7471 9.43121 91.7885 9.49043C91.83 9.54965 91.8869 9.59641 91.953 9.62566L92.961 10.2002C93.1379 10.2881 93.3329 10.3339 93.5305 10.3339C93.7281 10.3339 93.923 10.2881 94.1 10.2002L99.9531 6.8335Z" fill="#E0E0E0"/>
<path d="M93.5288 10.3277C93.3311 10.3323 93.1356 10.286 92.961 10.1933L91.953 9.61871C91.8869 9.58947 91.83 9.54271 91.7885 9.48349C91.7471 9.42427 91.7226 9.35484 91.7178 9.28271V20.9654C91.7226 21.0376 91.7471 21.107 91.7885 21.1662C91.83 21.2254 91.8869 21.2722 91.953 21.3014L92.961 21.876C93.1356 21.9688 93.3311 22.015 93.5288 22.0104V10.3277Z" fill="#F0F0F0"/>
<path d="M100.444 7.77441L94.3083 11.3192L96.2134 23.348L102.352 19.8032L100.444 7.77441Z" fill="#EBEBEB"/>
<path d="M94.5502 11.5039L100.494 8.07666C100.957 8.41651 101.502 8.62752 102.073 8.68818L96.1832 12.0851C95.6192 11.9518 95.0716 11.7569 94.5502 11.5039Z" fill="white"/>
<path d="M96.7981 12.0382C96.6061 12.1294 96.3977 12.1811 96.1853 12.1904C95.9729 12.1996 95.7608 12.1661 95.5616 12.0919L94.3923 11.6148C94.0261 11.467 93.9824 11.1982 94.2983 11.0167L100.155 7.65674L100.444 7.77434L94.688 11.0974C94.4999 11.2049 94.5234 11.3662 94.7451 11.4569L95.8304 11.8937C95.9501 11.9384 96.0775 11.9585 96.2051 11.9528C96.3327 11.947 96.4579 11.9155 96.573 11.8601L102.329 8.54378L102.665 8.67818L96.7981 12.0382Z" fill="#FAFAFA"/>
<path d="M102.655 8.67822L104.56 20.7037L98.7066 24.0637C98.5138 24.1542 98.3049 24.2056 98.092 24.2149C97.8792 24.2241 97.6667 24.191 97.4667 24.1174L96.3008 23.6403C96.116 23.5664 96.0119 23.4622 95.9951 23.3513L94.0899 11.3225C94.0899 11.4334 94.2109 11.5376 94.3923 11.6115L95.5616 12.092C95.7612 12.1649 95.9733 12.1974 96.1856 12.1876C96.3979 12.1778 96.6061 12.1259 96.7981 12.0349L102.655 8.67822Z" fill="#E0E0E0"/>
<path d="M96.2 12.176C95.983 12.189 95.7656 12.157 95.5616 12.0819L94.3923 11.6015C94.2109 11.5275 94.1067 11.4234 94.0899 11.3125L95.9951 23.3413C96.0119 23.4522 96.116 23.5563 96.3008 23.6303L97.4667 24.1074C97.6706 24.1834 97.8879 24.2166 98.1051 24.2048L96.2 12.176Z" fill="#F0F0F0"/>
<path d="M110.641 29.621L110.208 29.8327L102.157 25.1824L102.591 24.9741L110.641 29.621Z" fill="#FAFAFA"/>
<path d="M102.591 24.9743L110.248 29.396L111.364 17.9384L103.703 13.52L102.591 24.9743Z" fill="white"/>
<path d="M101.337 25.5657L110.87 31.0694L112.184 17.5521L102.651 12.0518L101.337 25.5657ZM103.313 13.2882L111.377 17.9385L110.221 29.8329L102.157 25.1826L103.313 13.2882Z" fill="#F0F0F0"/>
<path d="M102.157 25.1825L102.591 24.9742L103.703 13.5199L103.313 13.2881L102.157 25.1825Z" fill="#E0E0E0"/>
<path d="M102.651 12.0517L103.091 11.8501L112.624 17.3538L112.184 17.5554L102.651 12.0517Z" fill="#FAFAFA"/>
<path d="M112.624 17.354L112.184 17.5556L110.87 31.0695L111.31 30.8646L112.624 17.354Z" fill="#E0E0E0"/>
<path d="M102.927 24.7558L109.989 28.8315L110.178 26.9029L108.864 21.2312L107.611 23.1665L107.869 24.7961L105.783 18.7817L103.115 22.8272L102.927 24.7558Z" fill="#F0F0F0"/>
<path d="M108.971 18.8458C109.118 18.9389 109.238 19.0682 109.32 19.2212C109.401 19.3743 109.442 19.5459 109.438 19.7194C109.408 20.0318 109.149 20.1528 108.86 19.9882C108.714 19.8951 108.594 19.7657 108.512 19.6127C108.43 19.4597 108.39 19.2881 108.393 19.1146C108.424 18.7987 108.682 18.6778 108.971 18.8458Z" fill="#F0F0F0"/>
<path opacity="0.05" d="M114.609 28.8282C113.302 29.5808 113.302 30.8039 114.609 31.5599C115.343 31.931 116.153 32.1244 116.975 32.1244C117.797 32.1244 118.607 31.931 119.34 31.5599C120.647 30.8039 120.644 29.5808 119.34 28.8282C118.608 28.4555 117.797 28.2612 116.975 28.2612C116.153 28.2612 115.342 28.4555 114.609 28.8282Z" fill="black"/>
<path d="M119.102 30.73C120.237 29.5674 120.906 26.6711 119.797 25.7505H114.152C113.04 26.6711 113.709 29.5674 114.845 30.73L114.878 30.7602L114.915 30.7972L115.019 30.8913L115.046 30.9114C115.074 30.9346 115.103 30.9559 115.134 30.9753C115.179 31.0101 115.228 31.0416 115.278 31.0694C115.803 31.3362 116.384 31.4752 116.973 31.4752C117.562 31.4752 118.143 31.3362 118.668 31.0694C118.72 31.0412 118.769 31.0098 118.816 30.9753L118.897 30.9148L118.93 30.8879L119.028 30.8006L119.075 30.7569L119.102 30.73Z" fill="#F5F5F5"/>
<path d="M114.64 25.3069C113.353 26.0528 113.353 27.2557 114.64 27.9949C115.363 28.361 116.162 28.5517 116.973 28.5517C117.784 28.5517 118.583 28.361 119.307 27.9949C120.594 27.2523 120.594 26.0461 119.307 25.3069C118.583 24.9408 117.784 24.75 116.973 24.75C116.162 24.75 115.363 24.9408 114.64 25.3069Z" fill="white"/>
<path d="M115.554 25.8344C114.771 26.288 114.771 27.0205 115.554 27.4741C115.993 27.6977 116.48 27.8143 116.973 27.8143C117.467 27.8143 117.953 27.6977 118.393 27.4741C119.176 27.0205 119.176 26.288 118.393 25.8344C117.953 25.6107 117.467 25.4941 116.973 25.4941C116.48 25.4941 115.993 25.6107 115.554 25.8344Z" fill="#EBEBEB"/>
<path d="M118.393 26.6239C117.953 26.4003 117.467 26.2837 116.973 26.2837C116.48 26.2837 115.993 26.4003 115.554 26.6239C115.364 26.7256 115.203 26.8735 115.087 27.054C115.204 27.2338 115.365 27.3815 115.554 27.4841C115.993 27.7078 116.48 27.8244 116.973 27.8244C117.467 27.8244 117.953 27.7078 118.393 27.4841C118.583 27.3815 118.744 27.2338 118.863 27.054C118.745 26.8734 118.583 26.7255 118.393 26.6239Z" fill="#E0E0E0"/>
<path d="M115.728 27.044C115.327 26.637 114.981 26.1782 114.7 25.6799C114.226 24.8399 114.139 23.7176 114.384 23.5799C114.63 23.4421 115.628 24.561 115.628 24.561C115.535 24.0899 115.498 23.6093 115.52 23.1296C115.56 22.3837 115.742 21.705 115.957 21.5672C116.172 21.4295 116.649 22.3736 116.854 23.0557C117.059 23.7378 117.19 24.2989 117.19 24.2989C117.271 23.766 117.393 23.2403 117.556 22.7264C117.805 22.0175 118.03 21.8596 118.205 21.9301C118.379 22.0007 118.497 22.33 118.541 23.2741C118.559 23.7226 118.545 24.1718 118.497 24.6181C118.497 24.6181 118.85 24.2317 119.24 23.8554C119.629 23.4791 119.854 23.3884 119.975 23.4656C120.096 23.5429 120.133 24.1847 119.468 25.3876C119.138 25.9991 118.715 26.5557 118.215 27.0373C118.215 27.0373 117.297 27.632 115.728 27.044Z" fill="#EBEBEB"/>
<path opacity="0.99" d="M109.314 117.576L124.179 109.011C124.255 108.986 124.321 108.937 124.367 108.872C124.414 108.807 124.439 108.728 124.439 108.648C124.439 108.568 124.414 108.49 124.367 108.425C124.321 108.36 124.255 108.311 124.179 108.285L92.2184 89.792C92.0248 89.6935 91.8107 89.6421 91.5935 89.6421C91.3762 89.6421 91.1621 89.6935 90.9685 89.792L76.1072 98.3398C76.0313 98.3655 75.9654 98.4143 75.9186 98.4794C75.8719 98.5445 75.8468 98.6226 75.8468 98.7027C75.8468 98.7828 75.8719 98.861 75.9186 98.926C75.9654 98.9911 76.0313 99.04 76.1072 99.0656L108.068 117.576C108.261 117.674 108.474 117.725 108.691 117.725C108.907 117.725 109.121 117.674 109.314 117.576Z" fill="#E0E0E0"/>
<path d="M-15.856 115.664C-19.4277 111.968 -21.5243 102.668 -18.04 99.7446H-0.332814C3.14815 102.668 1.05151 111.972 -2.51681 115.658C-2.54705 115.695 -2.58065 115.728 -2.61425 115.762L-2.73521 115.883C-2.83601 115.98 -2.94353 116.078 -3.07121 116.172L-3.15857 116.239C-3.24593 116.309 -3.33329 116.38 -3.42737 116.447C-3.57564 116.554 -3.72928 116.652 -3.88769 116.743C-6.82769 118.46 -11.5888 118.46 -14.5255 116.743C-14.6868 116.652 -14.8428 116.553 -14.9925 116.444C-15.0799 116.38 -15.1605 116.316 -15.2411 116.252L-15.3487 116.168C-15.4595 116.078 -15.5603 115.984 -15.6578 115.889L-15.8023 115.748L-15.856 115.664Z" fill="#EBEBEB"/>
<path d="M-1.8717 98.5584C2.1603 100.91 2.1603 104.748 -1.8717 107.106C-5.9037 109.465 -12.4725 109.458 -16.5146 107.106C-20.5567 104.754 -20.5466 100.917 -16.5146 98.5584C-12.4826 96.1997 -5.91714 96.1963 -1.8717 98.5584Z" fill="#FAFAFA"/>
<path d="M-7.81216 87.6756C-9.59296 87.269 -9.68369 85.1287 -7.45601 82.5012C-5.22833 79.8737 0.386233 78.7279 0.651673 79.8333C1.89823 79.8333 1.89824 83.741 -0.863685 87.3329C-3.62561 90.9247 -7.64416 90.0881 -7.81216 87.6756Z" fill="#E0E0E0"/>
<path d="M-5.77599 100.712C-8.24559 101.72 -7.18719 104.654 -4.76799 106.885C-2.34879 109.116 1.08849 109.707 2.74497 109.589C4.40145 109.472 4.82817 109.253 4.82817 109.253C4.82817 109.253 5.09361 106.713 4.82817 105.168C4.56157 103.675 3.87115 102.29 2.83927 101.179C1.80739 100.068 0.477627 99.2773 -0.991354 98.9012C-4.85199 97.8563 -5.77599 99.2439 -5.77599 100.712Z" fill="#F0F0F0"/>
<path d="M1.05823 105.054C-0.0841746 103.777 -1.29377 102.507 -2.72177 101.556C-4.14977 100.605 -6.00113 99.8422 -7.68785 100.42C-8.33969 100.642 -9.36785 101.294 -9.23345 102.1C-9.23345 102.181 -9.07889 102.379 -8.98145 102.268C-8.7218 101.893 -8.42458 101.545 -8.09441 101.23C-7.70134 100.942 -7.23609 100.769 -6.75041 100.729C-5.54453 100.644 -4.34049 100.918 -3.28961 101.515C-1.60961 102.399 -0.265613 103.773 1.05487 105.09C1.05487 105.107 1.06831 105.067 1.05823 105.054Z" fill="#E0E0E0"/>
<path opacity="0.1" d="M1.05823 105.054C-0.0841746 103.777 -1.29377 102.507 -2.72177 101.556C-4.14977 100.605 -6.00113 99.8422 -7.68785 100.42C-8.33969 100.642 -9.36785 101.294 -9.23345 102.1C-9.23345 102.181 -9.07889 102.379 -8.98145 102.268C-8.7218 101.893 -8.42458 101.545 -8.09441 101.23C-7.70134 100.942 -7.23609 100.769 -6.75041 100.729C-5.54453 100.644 -4.34049 100.918 -3.28961 101.515C-1.60961 102.399 -0.265613 103.773 1.05487 105.09C1.05487 105.107 1.06831 105.067 1.05823 105.054Z" fill="black"/>
<path d="M-3.38367 82.1648C-3.44751 83.9355 -0.95775 84.9637 1.45473 83.4315C3.86721 81.8994 6.39057 80.4075 8.62497 79.833C10.8594 79.2584 11.9178 77.4339 11.2122 76.5536C10.5066 75.6733 9.38433 73.4456 3.51105 74.1714C-2.36223 74.8971 -4.44207 77.5314 -5.24847 79.413C-6.05487 81.2946 -4.26735 82.6755 -3.38367 82.1648Z" fill="#F0F0F0"/>
<path d="M6.17553 76.5471C5.32646 76.466 4.46975 76.5551 3.65553 76.8092C2.91468 77.0013 2.1927 77.2599 1.49841 77.582C0.115161 78.2257 -1.13158 79.1291 -2.17407 80.2431C-2.47069 80.5612 -2.74676 80.8979 -3.00063 81.2511C-3.25768 81.5623 -3.46923 81.9085 -3.62895 82.2793C-3.66927 82.3935 -3.49791 82.585 -3.39711 82.4641C-3.10479 82.1281 -2.88639 81.7215 -2.61423 81.3653C-2.32049 80.9869 -2.00525 80.6257 -1.67007 80.2834C-0.989625 79.6008 -0.229241 79.0029 0.594571 78.5026C1.38722 78.0133 2.22694 77.6047 3.10113 77.2829C3.5805 77.1114 4.06833 76.9644 4.56273 76.8428C5.07939 76.6837 5.61828 76.6089 6.15873 76.621C6.18897 76.6143 6.20241 76.5505 6.17553 76.5471Z" fill="#E0E0E0"/>
<path opacity="0.1" d="M6.17553 76.5471C5.32646 76.466 4.46975 76.5551 3.65553 76.8092C2.91468 77.0013 2.1927 77.2599 1.49841 77.582C0.115161 78.2257 -1.13158 79.1291 -2.17407 80.2431C-2.47069 80.5612 -2.74676 80.8979 -3.00063 81.2511C-3.25768 81.5623 -3.46923 81.9085 -3.62895 82.2793C-3.66927 82.3935 -3.49791 82.585 -3.39711 82.4641C-3.10479 82.1281 -2.88639 81.7215 -2.61423 81.3653C-2.32049 80.9869 -2.00525 80.6257 -1.67007 80.2834C-0.989625 79.6008 -0.229241 79.0029 0.594571 78.5026C1.38722 78.0133 2.22694 77.6047 3.10113 77.2829C3.5805 77.1114 4.06833 76.9644 4.56273 76.8428C5.07939 76.6837 5.61828 76.6089 6.15873 76.621C6.18897 76.6143 6.20241 76.5505 6.17553 76.5471Z" fill="black"/>
<path d="M-5.71217 93.952C-7.708 92.3661 -7.05617 88.576 -0.0572874 88.3609C6.94159 88.1459 11.911 89.9771 11.7027 92.2249C12.8283 93.3505 12.2571 96.4989 6.60559 97.48C0.954074 98.4611 -7.1536 97.9739 -5.71217 93.952Z" fill="#E0E0E0"/>
<path d="M8.40655 92.2518C6.34508 91.9133 4.25395 91.7906 2.16703 91.8856C0.251831 91.9394 -1.73729 92.0301 -3.59201 92.5576C-4.07486 92.6901 -4.54489 92.8655 -4.99649 93.0818C-5.2064 93.1823 -5.41055 93.2945 -5.60801 93.4178C-5.76593 93.5152 -5.94401 93.5992 -6.00113 93.784C-6.00666 93.8131 -6.00522 93.8432 -5.99692 93.8717C-5.98863 93.9002 -5.97372 93.9263 -5.95341 93.9479C-5.93309 93.9695 -5.90796 93.986 -5.88005 93.9961C-5.85214 94.0061 -5.82225 94.0095 -5.79281 94.0058C-5.36945 93.9083 -4.97297 93.579 -4.57313 93.401C-4.17998 93.228 -3.77591 93.0809 -3.36353 92.9608C-2.56969 92.7333 -1.75822 92.5726 -0.937609 92.4803C1.01675 92.2323 2.98595 92.12 4.95583 92.1443C6.10495 92.1443 7.24735 92.2485 8.39311 92.3392C8.42671 92.3358 8.44015 92.2586 8.40655 92.2518Z" fill="#E0E0E0"/>
<path opacity="0.1" d="M8.40655 92.2518C6.34508 91.9133 4.25395 91.7906 2.16703 91.8856C0.251831 91.9394 -1.73729 92.0301 -3.59201 92.5576C-4.07486 92.6901 -4.54489 92.8655 -4.99649 93.0818C-5.2064 93.1823 -5.41055 93.2945 -5.60801 93.4178C-5.76593 93.5152 -5.94401 93.5992 -6.00113 93.784C-6.00666 93.8131 -6.00522 93.8432 -5.99692 93.8717C-5.98863 93.9002 -5.97372 93.9263 -5.95341 93.9479C-5.93309 93.9695 -5.90796 93.986 -5.88005 93.9961C-5.85214 94.0061 -5.82225 94.0095 -5.79281 94.0058C-5.36945 93.9083 -4.97297 93.579 -4.57313 93.401C-4.17998 93.228 -3.77591 93.0809 -3.36353 92.9608C-2.56969 92.7333 -1.75822 92.5726 -0.937609 92.4803C1.01675 92.2323 2.98595 92.12 4.95583 92.1443C6.10495 92.1443 7.24735 92.2485 8.39311 92.3392C8.42671 92.3358 8.44015 92.2586 8.40655 92.2518Z" fill="black"/>
<path d="M78.5902 93.4744L79.867 99.808L81.1069 100.524L82.3366 99.8147L83.6235 93.4744L81.1069 92.0195L78.5902 93.4744Z" fill="#EBEBEB"/>
<path opacity="0.05" d="M78.5902 93.4744L79.867 99.808L81.1069 100.524L82.3366 99.8147L83.6235 93.4744L81.1069 92.0195L78.5902 93.4744Z" fill="black"/>
<path d="M81.1069 100.523V94.929L78.5902 93.4741L79.867 99.8077L81.1069 100.523Z" fill="#EBEBEB"/>
<path opacity="0.05" d="M78.5902 93.4744L79.4168 97.5635L81.1069 98.5413L82.7936 97.5669L83.6235 93.4744L81.1069 92.0195L78.5902 93.4744Z" fill="black"/>
<path d="M108.192 113.15L121.907 105.228V75.5386L108.192 83.4581V113.15Z" fill="#E0E0E0"/>
<path d="M108.192 83.458L77.8779 65.9658V95.6548L108.192 113.15V83.458Z" fill="#EBEBEB"/>
<path d="M77.8779 65.9659L108.192 83.4581L121.907 75.5385L91.5968 58.0464L77.8779 65.9659Z" fill="#F5F5F5"/>
<path d="M106.233 98.1683L79.8368 82.9341V93.8306L79.4773 94.0389L105.87 109.27L106.233 109.061V98.1683Z" fill="#E0E0E0"/>
<path d="M105.87 98.3763L79.4773 83.1421V94.0386L105.87 109.269V98.3763Z" fill="#F5F5F5"/>
<path d="M93.7842 94.2L91.1163 92.6611C90.7803 92.4595 90.4914 92.5502 90.4914 92.8627C90.5164 93.0552 90.5859 93.2392 90.6943 93.4001C90.8028 93.5611 90.9473 93.6946 91.1163 93.79L93.7842 95.3289C94.1202 95.5305 94.4091 95.4398 94.4091 95.1273C94.3841 94.9348 94.3146 94.7508 94.2061 94.5898C94.0977 94.4289 93.9532 94.2954 93.7842 94.2Z" fill="#E0E0E0"/>
<path d="M106.233 85.0102L79.8368 69.7793V80.6758L79.4773 80.8841L105.873 96.115L106.233 95.9067V85.0102Z" fill="#E0E0E0"/>
<path d="M105.873 85.2187L79.4773 69.9878V80.8843L105.873 96.1152V85.2187Z" fill="#F5F5F5"/>
<path d="M93.7842 81.0559L91.1163 79.517C90.7803 79.3188 90.4914 79.4095 90.4914 79.722C90.5169 79.9143 90.5866 80.0981 90.695 80.259C90.8034 80.4199 90.9476 80.5535 91.1163 80.6493L93.7842 82.1882C94.1202 82.3864 94.4091 82.2957 94.4091 81.9832C94.3836 81.7909 94.3139 81.6071 94.2055 81.4462C94.0971 81.2853 93.9528 81.1517 93.7842 81.0559Z" fill="#E0E0E0"/>
<path d="M104.593 71.6478C103.075 72.5248 103.075 73.9461 104.593 74.823C106.112 75.7 108.572 75.7 110.09 74.823C111.609 73.9461 111.609 72.5248 110.09 71.6478C108.572 70.7709 106.112 70.7608 104.593 71.6478Z" fill="#E0E0E0"/>
<path d="M109.758 73.4221C111.081 72.0781 111.858 68.7181 110.567 67.6328H104.005C102.718 68.7047 103.495 72.0714 104.815 73.4187C104.826 73.4327 104.838 73.4451 104.852 73.4557L104.896 73.5027C104.933 73.5363 104.973 73.5733 105.017 73.6069L105.047 73.6338C105.08 73.6573 105.111 73.6842 105.148 73.7077L105.319 73.8186C105.929 74.1285 106.604 74.29 107.288 74.29C107.972 74.29 108.647 74.1285 109.257 73.8186L109.428 73.7077L109.522 73.6371L109.559 73.6069C109.6 73.5733 109.64 73.5397 109.677 73.5027L109.727 73.4523L109.758 73.4221Z" fill="#EBEBEB"/>
<path d="M104.576 67.2028C103.081 68.0663 103.081 69.4708 104.576 70.3343C106.072 71.1979 108.501 71.1979 109.996 70.3343C111.491 69.4708 111.495 68.0663 109.996 67.2028C108.498 66.3393 106.075 66.3393 104.576 67.2028Z" fill="#FAFAFA"/>
<path d="M105.638 67.8173C104.728 68.3415 104.728 69.1949 105.638 69.7191C106.149 69.9791 106.715 70.1146 107.288 70.1146C107.861 70.1146 108.427 69.9791 108.938 69.7191C109.848 69.1949 109.848 68.3415 108.938 67.8173C108.427 67.5574 107.861 67.4219 107.288 67.4219C106.715 67.4219 106.149 67.5574 105.638 67.8173Z" fill="#F5F5F5"/>
<path d="M108.938 68.7211C108.427 68.4612 107.861 68.3257 107.288 68.3257C106.715 68.3257 106.149 68.4612 105.638 68.7211C105.418 68.8388 105.231 69.0097 105.094 69.2184C105.23 69.4289 105.417 69.6012 105.638 69.7191C106.149 69.979 106.715 70.1145 107.288 70.1145C107.861 70.1145 108.427 69.979 108.938 69.7191C109.158 69.6003 109.345 69.4282 109.482 69.2184C109.344 69.0106 109.157 68.8398 108.938 68.7211Z" fill="#EBEBEB"/>
<path d="M105.84 69.2186C105.374 68.7453 104.972 68.212 104.647 67.6327C104.096 66.6617 103.995 65.3546 104.277 65.1934C104.56 65.0321 105.722 66.3358 105.722 66.3358C105.616 65.7882 105.575 65.2298 105.601 64.6726C105.648 63.8057 105.86 63.0161 106.109 62.8582C106.357 62.7002 106.912 63.7922 107.15 64.5852C107.389 65.3782 107.533 66.03 107.533 66.03C107.628 65.4117 107.771 64.8017 107.96 64.2055C108.249 63.3823 108.511 63.1975 108.716 63.2782C108.921 63.3588 109.052 63.7418 109.112 64.8406C109.133 65.3641 109.116 65.8885 109.062 66.4097C109.062 66.4097 109.472 65.9594 109.926 65.5226C110.379 65.0858 110.638 64.9783 110.779 65.069C110.92 65.1598 110.961 65.9057 110.188 67.3034C109.805 68.0136 109.314 68.6598 108.733 69.2186C108.733 69.2186 107.664 69.9074 105.84 69.2186Z" fill="#E0E0E0"/>
<path d="M98.3975 70.7676L97.9136 71.0062L88.845 65.8553L89.3322 65.6201L98.3975 70.7676Z" fill="#FAFAFA"/>
<path d="M89.3322 65.62L97.9573 70.5155L99.1165 57.6568L90.4914 52.7612L89.3322 65.62Z" fill="white"/>
<path d="M87.9277 66.292L98.6629 72.3904L100.034 57.2234L89.2818 51.125L87.9277 66.292ZM90.0479 52.516L99.1199 57.6669L97.917 71.0162L88.845 65.8687L90.0479 52.516Z" fill="#F0F0F0"/>
<path d="M88.845 65.8551L89.3322 65.6199L90.4914 52.7612L90.0479 52.5059L88.845 65.8551Z" fill="#E0E0E0"/>
<path d="M89.2952 51.1249L89.7891 50.8931L100.524 56.9915L100.03 57.2233L89.2952 51.1249Z" fill="#FAFAFA"/>
<path d="M100.524 56.9917L100.03 57.2235L98.6629 72.3906L99.1568 72.1587L100.524 56.9917Z" fill="#E0E0E0"/>
<path d="M89.7085 65.3713L97.6583 69.8871L97.8565 67.7233L96.3378 61.3729L94.9467 63.5536L95.2525 65.378L92.8635 58.6479L89.9034 63.2041L89.7085 65.3713Z" fill="#F0F0F0"/>
<path d="M96.4386 58.6949C96.6049 58.7964 96.7415 58.9399 96.8347 59.1109C96.9279 59.282 96.9744 59.4746 96.9695 59.6693C96.9392 60.0221 96.6335 60.1599 96.3243 59.9751C96.1581 59.8736 96.0214 59.7301 95.9282 59.5591C95.8351 59.388 95.7886 59.1954 95.7935 59.0007C95.8271 58.6479 96.116 58.5101 96.4386 58.6949Z" fill="#F0F0F0"/>
<path d="M59.9994 54.6597C57.6843 58.3187 55.5608 62.2062 55.2954 70.5827C54.9594 81.6169 56.1152 91.4147 56.011 92.7587C55.9069 94.1027 55.3222 96.28 54.3075 102.876C53.2928 109.471 54.4486 122.27 54.4486 122.27C54.4486 122.27 55.1979 123.785 57.8321 124.124C60.2648 124.437 61.424 123.362 61.424 123.362C61.424 123.362 65.577 105.735 66.679 101.784C67.7811 97.8323 69.4443 83.6901 69.4443 83.6901L69.8576 91.193C69.8576 91.193 68.9504 94.8184 69.4309 100.658C69.9113 106.498 71.6552 117.794 71.6552 117.794C71.6552 117.794 72.7405 118.93 75.3344 118.876C77.7032 118.826 78.9195 117.589 78.9195 117.589C78.9195 117.589 81.5605 95.4131 81.8561 88.8376C82.1518 82.2621 82.2325 65.7947 80.5121 55.9533L59.9994 54.6597Z" fill="#37474F"/>
<path d="M71.0369 69.968L69.4443 83.6868L69.8576 91.1897L70.0625 83.4382L72.344 71.0331C74.024 70.7206 78.3584 68.0091 78.7683 65.3379C76.3928 68.7886 71.0369 69.968 71.0369 69.968ZM60.6478 110.036C60.1013 113.486 59.6006 116.943 59.1459 120.408C59.8806 116.988 60.5694 113.561 61.2123 110.127C61.8641 106.689 62.4723 103.262 63.0737 99.8081C63.6752 96.354 64.2128 88.5421 64.4681 85.0611C64.7235 81.5801 64.8915 78.0925 65.0125 74.6048C64.6093 78.0757 64.2531 81.5465 63.8969 85.0208C63.5408 88.495 62.9158 96.2768 62.3513 99.7107C61.7869 103.145 61.1821 106.592 60.6478 110.036ZM78.7414 85.0208C78.7414 86.5328 78.7717 88.0448 78.6776 89.55C78.5835 91.0553 78.4155 92.574 78.2677 94.0726L77.8241 98.6053C77.5262 101.629 77.2641 104.653 77.0379 107.677C77.5441 104.678 77.9921 101.671 78.3819 98.6557C78.7784 95.6317 79.1547 92.6345 79.3899 89.5837C79.5176 86.5126 79.3899 83.4852 79.2353 80.4444C79.0808 77.4036 78.8321 74.3729 78.4793 71.3523L78.6641 80.4613C78.7045 81.9867 78.7381 83.5054 78.7414 85.0208Z" fill="#263238"/>
<path d="M61.8642 15.5023C59.156 16.4095 58.5781 19.0672 58.5042 23.62C58.4806 25.3874 58.5478 26.9531 57.0526 28.156C56.2563 28.8011 55.3088 29.2749 54.6301 30.0443C53.5045 31.3178 53.407 33.5018 54.667 34.6442C54.1977 34.8355 53.7895 35.1513 53.4864 35.5574C53.1832 35.9636 52.9966 36.4448 52.9467 36.9491C52.8615 37.9663 53.1559 38.9789 53.7733 39.7917C54.9896 41.4919 57.355 42.1437 59.3643 41.7607C59.8582 43.1047 61.2963 43.9648 62.7243 44.0555C64.1523 44.1463 65.5669 43.5717 66.7563 42.7619C67.5123 44.1933 69.4074 44.657 70.8958 44.4218C71.6601 44.3052 72.3904 44.0262 73.0378 43.6037C73.6852 43.1812 74.2346 42.6249 74.649 41.9723C74.6979 41.8776 74.7724 41.7985 74.864 41.7439C74.9363 41.7137 75.0143 41.7 75.0925 41.7035C76.1173 41.68 77.0917 41.6767 78.0123 41.1995C78.8497 40.8221 79.5687 40.2239 80.0922 39.4691C80.4332 38.9324 80.6299 38.3167 80.6634 37.6816C80.7205 37.1496 80.6286 36.6121 80.3979 36.1293C81.2648 35.4573 81.3454 33.4413 81.0699 32.3594C80.7944 31.2775 80.0854 30.3803 79.3194 29.5807C78.5533 28.781 77.7066 28.0485 77.0547 27.1514C76.5083 26.4063 76.2407 25.4931 76.2987 24.5709C76.2987 24.0299 76.0467 23.0387 76.423 22.5717C76.423 22.5717 78.0694 20.5288 77.972 18.3482C77.9229 16.8305 77.3693 15.3725 76.3987 14.2048C75.4281 13.037 74.0959 12.2261 72.6128 11.9003C69.273 11.0637 63.2149 11.4098 61.8642 15.5023Z" fill="#263238"/>
<path d="M75.0656 33.5654C77.1421 33.7435 80.3946 34.0224 82.3434 38.2392C84.6584 43.2456 86.6475 47.9597 88.3275 54.6427L83.348 54.9585L78.9229 47.8656L75.0656 33.5654Z" fill="#FFBDA7"/>
<path d="M84.3594 48.7661C83.5414 47.9357 82.8282 47.0081 82.2358 46.0042C83.3346 43.3162 82.3736 38.5416 78.1837 36.1157L77.3269 41.9453L78.9229 47.8656L83.348 54.9586C83.348 54.9586 88.0251 58.3186 88.1931 55.9935C88.1931 55.8792 88.1931 55.7717 88.1931 55.6575C88.1494 55.1501 88.0822 54.6495 88.005 54.1354C87.4976 51.5415 85.3875 49.7607 84.3594 48.7661Z" fill="#F0997A"/>
<path d="M57.2005 59.9045C56.253 57.8381 58.3026 55.8725 58.6285 52.7981C58.8536 50.6947 57.4794 45.5371 57.4794 45.5371C57.4794 45.5371 61.0847 42.4459 59.8314 34.3584L66.7059 33.1623C71.9307 32.8599 75.0656 33.5655 75.0656 33.5655C76.4735 34.6474 78.8658 36.3139 80.4786 38.8675C82.9045 42.7047 81.8998 45.8126 79.6722 48.4099C79.652 48.9072 79.5949 51.5381 80.9926 56.8637C81.1909 57.6197 81.7016 58.9536 81.08 59.6626C77.5856 63.6341 63.3963 65.089 57.2005 59.9045Z" fill="#57AE8F"/>
<path d="M61.0174 23.146C61.5987 22.4539 62.805 22.138 63.4198 23.0587C63.7995 23.6265 63.9171 24.5908 64.4715 24.4329C64.8075 24.3388 64.9218 23.9323 64.7773 23.1964C64.7773 23.2368 65.2174 22.9612 65.2477 22.9344C65.6643 22.5648 65.5602 22.0238 65.6912 21.54C65.8357 21.0024 66.2557 20.5958 66.5043 20.112C66.8974 19.3526 66.7294 18.432 66.5614 17.6188C66.4875 17.2828 66.4371 16.8595 66.6858 16.6108C66.8888 16.4493 67.1464 16.3722 67.4048 16.3958C68.2129 16.4574 69.0131 16.5981 69.7938 16.8158C70.5796 17.0321 71.4125 17.0051 72.1827 16.7385C72.5187 16.6008 72.7842 16.4025 73.0933 16.2379C73.3966 16.0578 73.7514 15.9845 74.1013 16.0296C74.3912 16.1087 74.6546 16.2642 74.864 16.4798C75.9224 17.4576 76.2752 19.0132 76.544 20.3808C76.6985 21.4126 76.7659 22.4557 76.7456 23.4988C76.8834 27.9508 76.1106 29.0596 75.1899 29.8425C74.4003 30.5145 73.1739 30.8841 71.7022 30.9009L71.7493 33.431C71.7493 33.431 73.9165 37.3824 72.9253 39.7142C72.9253 39.7142 69.5216 38.34 67.4418 36.66C64.8882 34.5969 64.4547 33.5889 64.4547 33.5889L64.3506 26.5732C64.3506 26.5732 63.3157 28.1356 61.76 26.9596C60.4496 26.0088 60.1539 24.1809 61.0174 23.146Z" fill="#FFBDA7"/>
<path d="M71.7258 30.9009C68.9302 30.948 66.1985 29.7888 65.1603 27.2822C65.1603 27.2822 65.2779 28.9622 66.3464 29.9702C68.48 31.9862 71.7425 31.7846 71.7425 31.7846L71.7258 30.9009Z" fill="#F0997A"/>
<path d="M68.5371 21.9198C68.5264 22.0509 68.5543 22.1823 68.6176 22.2977C68.6808 22.4131 68.7765 22.5074 68.8928 22.5688C69.0092 22.6303 69.141 22.6563 69.2719 22.6436C69.4029 22.6308 69.5272 22.5799 69.6295 22.4972C69.7318 22.4145 69.8075 22.3035 69.8474 22.1781C69.8872 22.0527 69.8893 21.9184 69.8535 21.7918C69.8177 21.6652 69.7455 21.5519 69.6459 21.4659C69.5463 21.38 69.4236 21.3252 69.2931 21.3083C69.203 21.2966 69.1114 21.3034 69.0239 21.3281C68.9365 21.3529 68.8549 21.3951 68.7843 21.4523C68.7136 21.5094 68.6552 21.5803 68.6128 21.6607C68.5703 21.7411 68.5446 21.8292 68.5371 21.9198Z" fill="#263238"/>
<path d="M73.856 22.0977C73.8962 22.2235 73.9726 22.3347 74.0757 22.4174C74.1787 22.5001 74.3038 22.5505 74.4354 22.5624C74.567 22.5744 74.6991 22.5473 74.8154 22.4845C74.9316 22.4217 75.0268 22.3261 75.089 22.2095C75.1512 22.093 75.1777 21.9607 75.1651 21.8292C75.1525 21.6977 75.1014 21.5728 75.0183 21.4701C74.9351 21.3675 74.8235 21.2916 74.6975 21.2521C74.5714 21.2125 74.4365 21.2109 74.3096 21.2476C74.2233 21.2725 74.1429 21.3145 74.0731 21.3711C74.0033 21.4276 73.9455 21.4976 73.9033 21.5768C73.861 21.6561 73.835 21.743 73.8269 21.8325C73.8188 21.9219 73.8287 22.0121 73.856 22.0977Z" fill="#263238"/>
<path d="M68.3322 19.3661L69.9214 18.5967C70.0207 18.8143 70.0317 19.062 69.9521 19.2876C69.8726 19.5132 69.7086 19.6991 69.4947 19.8063C69.39 19.8568 69.276 19.8855 69.1598 19.8906C69.0437 19.8958 68.9276 19.8771 68.8189 19.836C68.7101 19.7948 68.6109 19.7319 68.5272 19.6511C68.4435 19.5703 68.3771 19.4734 68.3322 19.3661Z" fill="#263238"/>
<path d="M75.3243 18.9831L73.6678 18.3716C73.5909 18.5977 73.6042 18.8448 73.705 19.0614C73.8058 19.278 73.9862 19.4473 74.2088 19.5341C74.318 19.574 74.4343 19.5913 74.5504 19.5849C74.6665 19.5786 74.7801 19.5487 74.8844 19.4972C74.9887 19.4457 75.0814 19.3736 75.157 19.2852C75.2326 19.1969 75.2895 19.0941 75.3243 18.9831Z" fill="#263238"/>
<path d="M72.848 26.4117L70.3818 25.7397C70.2994 26.0758 70.3499 26.4307 70.5227 26.7305C70.6954 27.0302 70.9771 27.2519 71.3091 27.3492C71.4718 27.3926 71.6416 27.4026 71.8083 27.3785C71.975 27.3545 72.1351 27.2969 72.2789 27.2093C72.4227 27.1217 72.5473 27.0059 72.6451 26.8688C72.7429 26.7317 72.8119 26.5762 72.848 26.4117Z" fill="#B16668"/>
<path d="M72.0752 27.2956C71.9869 26.9616 71.785 26.6688 71.5041 26.4676C71.2232 26.2665 70.881 26.1695 70.5363 26.1935C70.4742 26.2001 70.4125 26.2101 70.3515 26.2238C70.3844 26.4824 70.4918 26.7259 70.6607 26.9245C70.8295 27.1232 71.0525 27.2685 71.3024 27.3426C71.5584 27.4103 71.8293 27.3938 72.0752 27.2956Z" fill="#F0997A"/>
<path d="M67.2435 20.542L62.9394 22.6218C63.1953 22.7522 63.4009 22.9637 63.524 23.2233L67.472 21.2745L67.2435 20.542Z" fill="#263238"/>
<path d="M76.9942 19.8567L76.7187 19.8365C75.8249 19.7827 74.6657 19.813 73.9702 20.0616C73.0966 20.3775 72.7909 20.7 72.2902 20.7336C71.7896 20.7672 71.4435 20.4615 70.496 20.2397C69.7467 20.0616 68.4968 20.1523 67.5392 20.2968L67.2401 20.3472C67.1354 20.385 67.0458 20.4561 66.9852 20.5495C66.9245 20.6429 66.8961 20.7536 66.9041 20.8647C66.9354 21.0788 67.0316 21.2781 67.1797 21.4359C67.2268 21.5058 67.2588 21.5847 67.2737 21.6677C67.3712 22.0709 67.4249 22.8571 67.6097 23.2906C67.7027 23.5041 67.8324 23.6997 67.9928 23.8685C68.053 23.9287 68.1182 23.9838 68.1877 24.0331L68.3019 24.1071C68.4076 24.1705 68.5204 24.2212 68.6379 24.2583H68.695L68.7857 24.2818L68.8798 24.3019C68.9788 24.3191 69.0786 24.3303 69.1789 24.3355H69.488C69.9269 24.3478 70.359 24.2257 70.7266 23.9855C71.0941 23.7453 71.3794 23.3985 71.5443 22.9915C71.8433 22.3531 71.7526 21.4863 72.3137 21.4594H72.3675H72.4179C72.8379 21.5367 72.8009 22.3397 73.0899 22.9075C73.195 23.1345 73.3357 23.3432 73.5065 23.5258C73.5374 23.5588 73.5699 23.5902 73.604 23.6199L73.6577 23.6669L73.7115 23.7072L73.7619 23.7442L73.8157 23.7778L73.8594 23.8047H73.8896C74.0453 23.8897 74.213 23.9508 74.3869 23.9861H74.4339C74.6334 24.0221 74.8365 24.0334 75.0387 24.0197C75.4144 24.0193 75.7801 23.8988 76.0823 23.6757C76.3846 23.4526 76.6076 23.1387 76.7187 22.7799C76.8542 22.238 76.9475 21.6864 76.9976 21.1301C77.0117 21.0521 77.0439 20.9784 77.0917 20.9151C77.2246 20.7398 77.304 20.5297 77.3201 20.3103C77.3189 20.2104 77.2869 20.1133 77.2286 20.0321C77.1703 19.951 77.0885 19.8897 76.9942 19.8567ZM71.215 22.4338C71.1531 22.7615 71.0085 23.068 70.795 23.3242C70.6244 23.5093 70.4163 23.656 70.1845 23.7545C69.9528 23.853 69.7028 23.901 69.451 23.8954C69.2018 23.9238 68.9495 23.8856 68.7199 23.7846C68.4903 23.6837 68.2916 23.5236 68.144 23.3208L68.1104 23.2637C68.0969 23.2443 68.0845 23.2241 68.0734 23.2032L68.0432 23.1461C68.0329 23.13 68.0239 23.1132 68.0163 23.0957L67.9961 23.0554C67.9912 23.0428 67.9856 23.0304 67.9794 23.0184L67.9558 22.9546C67.9306 22.8967 67.9093 22.8372 67.892 22.7765L67.8617 22.669C67.8617 22.6085 67.8315 22.548 67.8214 22.4976C67.8233 22.4865 67.8233 22.4751 67.8214 22.464C67.8214 22.464 67.8214 22.4405 67.8214 22.4304C67.7307 22.0037 67.6299 21.1637 67.8416 20.9621C68.0533 20.7605 68.6077 20.5387 69.5216 20.5858H69.619C69.7578 20.5952 69.8958 20.6132 70.0323 20.6395C70.0894 20.6395 70.1398 20.6597 70.1936 20.6698C70.3302 20.6994 70.4649 20.7376 70.5968 20.784L70.7211 20.8311L70.8555 20.8882H70.8824L70.9328 20.9151C71.0379 20.9634 71.1309 21.0345 71.2049 21.1234C71.3629 21.3855 71.3158 21.9466 71.215 22.4338ZM76.544 21.9802C76.4869 22.3162 76.3659 23.0621 75.7342 23.4183C75.5274 23.5311 75.2976 23.5954 75.0622 23.6064C74.7987 23.6459 74.5294 23.6119 74.284 23.5081C74.0386 23.4044 73.8265 23.2349 73.6712 23.0184C73.6611 23.0058 73.6521 22.9923 73.6443 22.9781L73.6141 22.9344C73.6147 22.9266 73.6147 22.9187 73.6141 22.9109L73.5771 22.8437C73.5634 22.8175 73.5511 22.7906 73.5401 22.7631L73.52 22.7261C73.52 22.7261 73.52 22.7261 73.52 22.7026C73.5187 22.6925 73.5187 22.6824 73.52 22.6723V22.6455C73.4797 22.5362 73.4483 22.4238 73.4259 22.3095C73.3217 21.8323 73.2579 21.2779 73.4259 21.0091C73.5939 20.7403 74.2491 20.4178 74.8875 20.3069C75.0243 20.282 75.1622 20.2641 75.3008 20.2531H75.667H75.7813C75.8512 20.2581 75.9207 20.2671 75.9896 20.28H76.04H76.0736H76.124H76.1845L76.2853 20.3136H76.3021C76.3857 20.3444 76.4631 20.3899 76.5305 20.448C76.675 20.7 76.6011 21.5434 76.544 21.9802Z" fill="#37474F"/>
<path d="M71.7056 22.5011L72.5422 25.1891L74.7027 24.1072C74.6187 23.9829 72.5691 21.6443 72.4045 21.483C72.326 21.4664 72.2444 21.4731 72.1698 21.5024C72.0951 21.5317 72.0307 21.5822 71.9845 21.6477C71.8395 21.9125 71.745 22.2018 71.7056 22.5011Z" fill="#F0997A"/>
<path d="M76.9741 48.6455C76.3827 47.7407 75.503 47.0623 74.4776 46.7202C73.3249 46.2677 72.2026 45.7413 71.1176 45.1444C70.6604 44.9342 70.2305 44.669 69.8374 44.3548C69.6343 44.1815 69.4802 43.9579 69.3906 43.7063C69.3347 43.48 69.3634 43.241 69.4712 43.0343C69.2094 42.9107 68.9863 42.7178 68.8261 42.4766C68.6968 42.2408 68.6597 41.9654 68.7219 41.7038C68.7463 41.6212 68.7872 41.5443 68.842 41.4779C68.8969 41.4115 68.9646 41.3569 69.0411 41.3174C68.8933 41.0687 68.4464 40.353 68.9202 39.8222C69.0848 39.6978 69.3334 39.755 69.5384 39.765C69.7434 39.7751 70.2104 39.8558 70.3112 39.8759C70.3585 39.8077 70.422 39.7523 70.496 39.7147C70.9526 39.4852 71.4709 39.4086 71.9744 39.4962C72.5253 39.6085 73.0634 39.7762 73.5805 39.9969C74.145 40.1985 74.7363 40.3329 75.3109 40.5042C75.4311 40.5421 75.555 40.5668 75.6805 40.5782C75.9661 40.5782 76.245 40.4639 76.5306 40.4975C76.7758 40.5358 77.0144 40.6081 77.2395 40.7126C77.7341 40.9398 78.1445 41.3172 78.4122 41.7911C79.1648 43.0847 79.6386 44.4791 80.529 45.6921C81.3023 46.7129 82.1635 47.664 83.1027 48.5346C84.5677 49.9526 87.3666 51.2226 88.1696 54.0249C88.7072 55.883 88.6736 58.487 87.3934 59.589C86.5534 60.3148 83.4118 59.7302 81.6814 57.8553C79.6554 55.641 77.7267 49.9055 76.9741 48.6455Z" fill="#FFBDA7"/>
<path d="M70.3885 39.8657C72.1496 40.2081 73.8648 40.755 75.4991 41.4953C73.9523 40.547 72.1987 39.9878 70.3885 39.8657ZM72.1693 41.6734C71.1815 41.4214 70.1331 41.1694 69.1117 41.3374C71.1546 41.3374 73.1437 42.0867 75.0219 42.8292C74.1257 42.3258 73.1695 41.9375 72.176 41.6734H72.1693ZM69.8643 42.715C69.7294 42.7388 69.608 42.8116 69.5236 42.9196C69.4392 43.0276 69.3978 43.1629 69.4074 43.2996C69.4511 42.6512 70.1936 42.7688 70.6405 42.8763C72.1675 43.209 73.6544 43.7046 75.0757 44.3547C73.7163 43.551 72.2191 43.0074 70.6606 42.752C70.3988 42.6977 70.1301 42.6852 69.8643 42.715Z" fill="#F0997A"/>
<path d="M59.8314 34.3521C57.3517 35.098 54.2067 36.993 54.9829 41.9423C55.712 46.5992 58.7528 56.8909 59.791 59.458C60.967 62.3745 62.1733 63.3993 63.7357 63.742C65.0797 64.0343 66.5816 63.1607 67.7038 62.3644C70.916 60.0896 73.0093 55.5234 75.2806 50.7455C76.3414 48.4919 77.1211 46.1165 77.6024 43.6727C77.6935 43.1074 77.7195 42.5336 77.6797 41.9624C77.6331 41.4225 77.4956 40.8943 77.2731 40.4001C77.2365 40.3292 77.2039 40.2563 77.1757 40.1817C77.1477 40.0537 77.1364 39.9227 77.1421 39.7919C77.1496 39.4694 77.0371 39.1557 76.8262 38.9116C76.723 38.8136 76.6105 38.7258 76.4902 38.6495C76.4526 38.6214 76.4188 38.5887 76.3894 38.5521C76.3054 38.4311 76.3491 38.2732 76.3357 38.1287C76.3059 37.9749 76.2214 37.8371 76.0979 37.7407C75.9743 37.6444 75.8201 37.596 75.6637 37.6045C75.4889 37.628 75.3218 37.6911 75.1751 37.7889C75.0283 37.8867 74.9059 38.0167 74.817 38.169C74.802 38.1929 74.7812 38.2126 74.7565 38.2261C74.7277 38.2329 74.6979 38.2329 74.6691 38.2261C74.5272 38.2071 74.3829 38.2186 74.2458 38.2597C74.1183 38.2987 74.0028 38.3692 73.9098 38.4647C73.7117 38.7085 73.586 39.0031 73.5469 39.3148C73.4394 39.8188 73.3621 40.3228 73.2512 40.8335C73.0328 41.8415 72.9454 42.8495 72.4112 43.7466C72.3642 43.8273 72.2869 43.918 72.1928 43.8978C72.0987 43.8777 72.0752 43.7735 72.0618 43.6861C71.924 42.7823 72.4515 41.8348 71.7459 41.0452C71.1344 40.3732 71.0403 41.7172 70.9429 42.0532L70.5498 43.4644C70.2941 44.2352 70.1493 45.0384 70.1197 45.85C70.1197 46.6161 70.3414 47.3687 70.3112 48.1348C70.308 48.8956 70.012 49.6259 69.4846 50.1743C67.3981 52.2844 66.4606 53.121 66.4606 53.121L64.8344 45.3292C64.8344 45.3292 64.5891 40.857 62.8184 37.3223C61.6155 35.024 59.8314 34.3521 59.8314 34.3521Z" fill="#FFBDA7"/>
<path d="M74.864 38.3265C75.0858 38.7062 75.0018 39.1833 75.0018 39.6067C74.9376 40.9 74.721 42.1811 74.3566 43.4237C74.4742 42.6878 74.6187 41.616 74.7296 40.8667C74.8203 40.235 74.8841 39.5865 74.9345 38.9481C74.9626 38.7366 74.9407 38.5214 74.8707 38.3198L74.864 38.3265Z" fill="#F0997A"/>
<path d="M76.3424 38.6123C76.4112 40.367 76.1841 42.1209 75.6704 43.8001C76.0333 42.1201 76.1139 40.3192 76.3424 38.6123Z" fill="#F0997A"/>
<path d="M77.1757 40.2417C77.2811 41.5538 77.1375 42.8739 76.7523 44.1326C76.8834 42.9835 77.0883 41.3807 77.1757 40.2417Z" fill="#F0997A"/>
<path d="M67.7038 62.3711C71.3058 59.6226 73.0294 55.2277 74.985 51.2831C75.9609 49.2749 76.7277 47.1717 77.2731 45.0066C77.5952 43.9396 77.7092 42.8206 77.6091 41.7105C77.5142 41.1604 77.3482 40.6251 77.1152 40.1178C77.1152 39.5433 77.0312 39.0124 76.4902 38.7066C76.424 38.6626 76.3716 38.6007 76.3389 38.5282C76.3062 38.4557 76.2946 38.3755 76.3054 38.2967C76.3124 38.2009 76.2958 38.1048 76.2573 38.0168C76.2188 37.9289 76.1594 37.8516 76.0843 37.7917C76.0092 37.7318 75.9206 37.6911 75.8263 37.6731C75.7319 37.6552 75.6346 37.6605 75.5427 37.6885C75.252 37.7878 75.0057 37.9865 74.8472 38.2497C74.8283 38.2668 74.8059 38.2796 74.7815 38.2872C74.7571 38.2947 74.7314 38.2968 74.7061 38.2933C74.5087 38.2604 74.306 38.2923 74.1282 38.3841C73.6376 38.6697 73.6342 39.3349 73.5099 39.8356C73.2949 40.8066 73.1134 42.1876 72.7808 43.1116C72.6853 43.3803 72.5554 43.6356 72.3944 43.8709C72.0214 44.1901 71.9912 43.5349 72.0046 43.3031C72.0349 42.5001 72.3138 41.5492 71.6082 40.9713C71.1109 40.6353 71.0806 41.9053 70.9597 42.1842L70.7346 42.9906C70.4422 44.0591 70.0626 45.1444 70.1835 46.2633C70.3045 47.3821 70.5598 48.5447 69.9853 49.5594C69.6798 50.0308 69.3087 50.4562 68.8832 50.8228C68.0902 51.609 67.2906 52.3919 66.4606 53.1378C67.2838 52.3852 68.0768 51.5956 68.863 50.8026C69.2836 50.4368 69.6481 50.0111 69.945 49.5393C70.1929 49.0416 70.3087 48.4885 70.281 47.9332C70.281 47.3788 70.1566 46.8277 70.1062 46.27C69.9886 45.141 70.3582 44.0457 70.6506 42.9705L70.8723 42.1641C70.9966 41.7676 70.9832 41.314 71.2083 40.9477C71.5678 40.5345 72.0046 41.314 72.0853 41.6197C72.2331 42.1876 72.0853 42.7521 72.0651 43.2997C72.0651 44.4253 72.4818 43.582 72.6666 43.0746C73.0026 42.1674 73.1739 40.7663 73.3822 39.8121C73.4998 39.1569 73.6174 38.1925 74.4742 38.169C74.5515 38.1522 74.6926 38.2026 74.743 38.169C74.9133 37.8893 75.1778 37.6796 75.489 37.5777C75.5978 37.545 75.713 37.5391 75.8246 37.5604C75.9363 37.5818 76.0411 37.6299 76.1302 37.7005C76.2193 37.7711 76.2899 37.8622 76.3363 37.966C76.3826 38.0698 76.4031 38.1832 76.3962 38.2967C76.385 38.3566 76.3921 38.4185 76.4167 38.4743C76.4413 38.53 76.4821 38.577 76.5339 38.6092C76.7852 38.7582 76.9801 38.9862 77.0883 39.2577C77.1682 39.5292 77.2056 39.8114 77.1992 40.0943C77.4345 40.6027 77.5995 41.1408 77.6898 41.6937C77.7907 42.816 77.6767 43.9472 77.3538 45.0268C76.7991 47.1959 76.0233 49.3025 75.0387 51.3133C73.0798 55.2546 71.3192 59.6529 67.687 62.3677L67.7038 62.3711Z" fill="#F0997A"/>
<path d="M66.464 53.1377C64.9285 53.8601 63.6248 55.3082 63.3728 56.1314C63.3728 56.1314 63.235 53.6484 66.2523 52.2305L66.464 53.1377Z" fill="#F0997A"/>
<path d="M43.0549 55.8928C43.6026 61.3427 43.7907 62.6834 44.1704 74.7895C44.5434 86.5495 44.5467 88.253 44.6106 89.6675C44.7618 92.9133 46.6266 94.2103 46.7643 101.864C46.8987 108.877 46.6568 117.465 46.6568 117.465C46.6568 117.465 45.3767 118.648 42.7122 118.792C41.2671 118.879 39.824 118.592 38.5223 117.959C38.5223 117.959 34.9573 102.241 33.8384 97.409C32.5213 91.7239 30.381 81.8219 30.381 81.8219C30.381 81.8219 29.3058 90.6554 28.9026 93.5013C28.5195 96.2162 29.4503 97.2746 28.8656 103.353C28.3986 108.201 27.0176 116.302 27.0176 116.302C25.7897 116.945 24.4219 117.274 23.036 117.26C19.9885 117.119 19.0275 116.074 19.0275 116.074C19.0275 116.074 17.3207 97.9298 17.3072 91.0149C17.3072 83.6767 17.7373 65.8149 18.5235 55.0293L43.0549 55.8928Z" fill="#455A64"/>
<path d="M30.381 81.822L28.832 69.6319C28.832 69.6319 24.8739 68.4291 22.4043 65.647C22.5219 67.663 25.9861 70.351 27.6358 70.8214L29.4771 81.6439L28.9026 93.4879L30.381 81.822Z" fill="#37474F"/>
<path d="M35.888 57.5356C36.4635 58.5617 36.9276 59.6465 37.2723 60.7713C37.631 61.8891 37.9249 63.0267 38.1526 64.1784C38.3744 65.3275 38.5525 66.4867 38.6634 67.6526C38.7882 68.8197 38.8242 69.9946 38.7709 71.1672C38.5323 70.018 38.3139 68.879 38.0989 67.7366C37.8838 66.5942 37.6688 65.4552 37.4269 64.3228C37.185 63.1905 36.9666 62.0548 36.7179 60.9225C36.4693 59.7902 36.1904 58.6512 35.888 57.5356Z" fill="#37474F"/>
<path d="M37.3899 57.9961C37.9521 58.5581 38.4595 59.1724 38.9053 59.8307C39.3568 60.4843 39.7632 61.168 40.1216 61.8769C40.4769 62.5905 40.7758 63.3308 41.0154 64.0911C41.2674 64.8523 41.4199 65.6428 41.469 66.4431L40.4811 64.3062C40.1451 63.6073 39.8091 62.9051 39.4731 62.2163C39.1371 61.5275 38.7742 60.8319 38.4248 60.1331C38.0754 59.4342 37.7091 58.7286 37.3899 57.9961Z" fill="#37474F"/>
<path d="M34.9573 71.4697C35.3336 75.122 35.6562 78.7744 35.9854 82.4267C36.3147 86.079 37.0539 90.1177 37.5915 93.7297C38.1291 97.3417 40.7197 111.538 41.1464 115.2C40.4374 111.598 37.4504 97.4761 36.8658 93.8373C36.2811 90.1984 35.636 86.1328 35.4142 82.4704C35.1925 78.808 35.048 75.1388 34.9573 71.4697Z" fill="#37474F"/>
<path d="M21.3022 71.312L20.9226 80.888C20.8722 82.484 20.805 84.08 20.768 85.6726C20.731 87.2653 20.6739 88.8647 20.7378 90.4371C20.8016 92.0096 21.2485 107.284 21.1074 110.483C20.6538 106.931 20.18 93.6829 20.0019 90.4674C19.9381 87.2351 20.1397 84.0531 20.3379 80.8578C20.5362 77.6624 20.8822 74.4839 21.3022 71.312Z" fill="#37474F"/>
<path d="M23.9566 29.7725C21.8768 29.7254 18.5806 30.804 16.5848 35.0644C14.2328 40.0406 13.2584 41.7845 10.8728 48.2289L15.5298 49.9929L19.8373 44.2305L23.9566 29.7725Z" fill="#C8856A"/>
<path d="M19.8339 44.2306L21.0469 39.7651C19.7466 40.6589 17.2064 42.4061 16.2757 43.068C15.0023 43.9752 13.0232 44.7648 12.1227 46.6397L17.5424 47.3117L19.8339 44.2306Z" fill="#AF6152"/>
<path d="M24.4842 29.4497C19.6357 29.9907 18.3219 30.8172 16.101 35.3095C14.636 38.2764 12.8115 43.1283 12.8115 43.1283C12.8115 43.1283 13.759 44.0153 15.8758 44.5899C18.5638 45.3156 20.1598 44.6335 20.1598 44.6335L24.4842 29.4497Z" fill="#263238"/>
<path d="M43.0616 30.8646C43.0616 30.8646 44.8693 33.7004 44.7416 41.0924C44.6811 44.5599 43.5555 47.5839 43.4615 51.626C43.3707 55.4867 43.9789 61.4406 43.9789 61.4406C39.9066 64.6695 22.0952 65.4726 18.2144 60.2713C18.2144 60.2713 18.3791 54.1561 18.6008 47.6142C18.7655 42.7355 19.2728 38.9723 19.844 36.6707C20.768 32.9545 23.4056 30.2027 24.4909 29.45C27.4324 28.7517 30.4662 28.5249 33.4789 28.778C37.2858 29.1812 41.1229 30.3203 43.0616 30.8646Z" fill="#F5F5F5"/>
<path d="M31.1605 28.6704V29.0064C31.9202 29.0058 32.6794 29.044 33.4352 29.1207C36.8624 29.4768 40.3131 30.4445 42.3728 31.0224L42.8264 31.1468C43.1389 31.7381 44.5064 34.6882 44.3821 41.0688C44.3157 42.6974 44.1168 44.3178 43.7874 45.914C43.4136 47.7894 43.1889 49.6915 43.1154 51.6024C43.0347 55.0431 43.5085 60.1906 43.6127 61.2624C41.6471 62.6703 36.6843 63.6447 31.4024 63.6447C25.1024 63.6447 20.3144 62.3343 18.5773 60.1368C18.6008 59.2296 18.7587 53.5647 18.9603 47.6108C19.1048 43.2629 19.555 39.3015 20.1934 36.7412C21.0637 33.2468 23.5266 30.5688 24.6421 29.7624C26.7856 29.2747 28.9757 29.0213 31.1739 29.0064V28.6704M31.1739 28.6704C28.9267 28.6861 26.688 28.9475 24.4976 29.45C23.4123 30.2026 20.7747 32.9544 19.8507 36.6706C19.2795 38.9722 18.7722 42.7186 18.6075 47.6141C18.3858 54.156 18.2211 60.2712 18.2211 60.2712C20.2035 62.9256 25.8315 64.0143 31.4024 64.0143C36.7246 64.0143 41.9965 63.0063 43.9856 61.4405C43.9856 61.4405 43.3774 55.4866 43.4682 51.626C43.5622 47.594 44.6878 44.57 44.7483 41.0924C44.8827 33.7004 43.0683 30.8645 43.0683 30.8645C41.1296 30.3269 37.2925 29.1845 33.4789 28.7847C32.7108 28.7072 31.9392 28.6691 31.1672 28.6704H31.1739Z" fill="#E0E0E0"/>
<path d="M37.3328 11.9106C37.3328 11.9106 38.5928 11.9644 39.4698 13.4865C39.9133 14.2492 40.2594 15.6604 39.2749 19.7596C38.897 21.3601 38.2784 22.8941 37.4403 24.309C37.191 24.768 36.7767 25.1151 36.2811 25.2801L36.2543 22.1553L36.2946 19.9746C36.2946 19.9746 34.4466 18.4458 34.2349 16.8868C33.9627 14.8708 34.7255 13.715 34.7255 13.715L37.3328 11.9106Z" fill="#37474F"/>
<path d="M37.7696 12.0013C37.3967 10.2575 35.048 8.24145 30.6565 8.15745C29.1643 8.11064 27.6867 8.46234 26.3756 9.17633C25.0646 9.89033 23.9675 10.9408 23.1973 12.2197C22.0213 14.313 23.8693 16.0098 23.8693 16.0098L34.8431 15.0858L37.7696 12.0013Z" fill="#37474F"/>
<path d="M39.201 22.9716C37.5747 23.8116 36.7751 22.5583 36.7751 22.5583L36.5365 30.0007C33.5125 34.2612 25.0352 32.3527 28.3919 29.1305L28.4322 27.3564C27.9826 27.3555 27.5335 27.3241 27.0882 27.2623C26.3419 27.1932 25.6318 26.9086 25.0442 26.4434C24.4567 25.9781 24.017 25.3521 23.7786 24.6415C23.4941 23.8022 23.3224 22.9288 23.2679 22.0443C23.1723 20.4968 23.2421 18.9435 23.4762 17.4108C23.6576 16.1945 23.6139 15.5662 23.8122 14.5716C23.9533 13.8123 24.2557 12.9756 24.9512 12.6094C26.6783 11.7022 28.3448 12.8715 30.8211 13.7249C31.8493 14.0609 34.3122 14.1651 34.9472 13.8459C34.1274 14.7967 34.2383 17.7099 35.5386 18.8489C35.7106 19.1503 35.9387 19.416 36.2106 19.6318C36.7616 20.0686 37.1581 18.8791 37.5915 18.402C38.025 17.9249 39.6983 17.4612 40.4811 18.9531C40.671 19.2988 40.7886 19.6796 40.8268 20.0722C40.865 20.4648 40.8229 20.8611 40.7032 21.237C40.5835 21.6128 40.3885 21.9604 40.1303 22.2586C39.8721 22.5568 39.5559 22.7994 39.201 22.9716Z" fill="#C8856A"/>
<path d="M28.4322 27.3565C30.3507 27.2826 32.1483 26.9869 33.2638 26.4795C34.3794 25.9722 35.3269 24.4434 35.6158 22.9448C35.6595 24.141 35.1992 26.2813 33.5158 27.2221C31.8325 28.1629 29.6787 28.2637 28.4254 28.3309L28.4322 27.3565Z" fill="#AF6152"/>
<path d="M32.3399 15.9831L30.7405 15.2573C30.6467 15.472 30.6405 15.7148 30.7234 15.934C30.8063 16.1531 30.9716 16.3311 31.184 16.43C31.289 16.4783 31.4026 16.505 31.5181 16.5086C31.6336 16.5122 31.7487 16.4926 31.8564 16.451C31.9642 16.4093 32.0625 16.3464 32.1456 16.266C32.2286 16.1857 32.2947 16.0895 32.3399 15.9831Z" fill="#37474F"/>
<path d="M26.3725 14.9448L24.7295 15.5967C24.7696 15.7045 24.8309 15.8031 24.9098 15.8868C24.9887 15.9705 25.0836 16.0375 25.1889 16.0838C25.2941 16.1302 25.4076 16.155 25.5226 16.1567C25.6376 16.1585 25.7518 16.1371 25.8584 16.0939C26.0772 16.0075 26.2535 15.8389 26.3496 15.6241C26.4457 15.4094 26.4539 15.1656 26.3725 14.9448Z" fill="#37474F"/>
<path d="M31.7115 17.9248C31.7149 18.0751 31.6733 18.223 31.5921 18.3496C31.511 18.4762 31.3939 18.5757 31.2559 18.6354C31.1179 18.6951 30.9652 18.7123 30.8174 18.6848C30.6695 18.6573 30.5333 18.5863 30.426 18.4809C30.3187 18.3756 30.2453 18.2406 30.2151 18.0933C30.1849 17.946 30.1993 17.793 30.2566 17.6539C30.3138 17.5149 30.4112 17.396 30.5363 17.3126C30.6614 17.2292 30.8085 17.1849 30.9589 17.1856C31.0568 17.1847 31.154 17.2031 31.2448 17.2398C31.3357 17.2764 31.4184 17.3306 31.4883 17.3993C31.5582 17.4679 31.6139 17.5497 31.6522 17.6398C31.6905 17.73 31.7106 17.8268 31.7115 17.9248Z" fill="#263238"/>
<path d="M26.4296 17.7031C26.4329 17.8534 26.3914 18.0014 26.3102 18.1279C26.229 18.2545 26.112 18.354 25.974 18.4137C25.836 18.4734 25.6833 18.4906 25.5354 18.4631C25.3876 18.4356 25.2513 18.3646 25.144 18.2593C25.0368 18.1539 24.9633 18.0189 24.9332 17.8716C24.903 17.7243 24.9174 17.5713 24.9746 17.4323C25.0318 17.2932 25.1292 17.1744 25.2543 17.0909C25.3794 17.0075 25.5266 16.9633 25.677 16.9639C25.7749 16.963 25.8721 16.9814 25.9629 17.0181C26.0538 17.0548 26.1365 17.109 26.2064 17.1776C26.2763 17.2463 26.332 17.328 26.3703 17.4182C26.4086 17.5083 26.4287 17.6051 26.4296 17.7031Z" fill="#263238"/>
<path d="M28.9664 16.729L28.533 21.218L26.0902 20.4284C26.7575 18.994 27.7407 17.7292 28.9664 16.729Z" fill="#AF6152"/>
<path d="M30.512 21.3689C30.512 21.3386 30.4717 21.305 30.4381 21.3185C30.3416 21.3597 30.2605 21.4302 30.2062 21.5201C30.1528 21.5914 30.0956 21.6598 30.0349 21.725C29.9073 21.8615 29.7573 21.9751 29.5914 22.061C29.4126 22.154 29.2195 22.2165 29.0202 22.2458C28.9059 22.2458 28.7883 22.2828 28.6842 22.2895C28.5848 22.285 28.4854 22.294 28.3885 22.3164C28.3179 22.3433 28.3885 22.4542 28.4221 22.4743C28.5371 22.5223 28.6604 22.5474 28.785 22.5482C28.91 22.5634 29.0363 22.5634 29.1613 22.5482C29.403 22.507 29.6367 22.4277 29.8534 22.313C30.0309 22.2158 30.19 22.0884 30.3238 21.9367C30.3936 21.8606 30.4535 21.7759 30.5019 21.6847C30.5294 21.6369 30.5447 21.5831 30.5464 21.5281C30.5482 21.473 30.5364 21.4183 30.512 21.3689Z" fill="#AF6152"/>
<path d="M24.4304 45.5139C25.2452 44.7586 26.2383 44.2222 27.3166 43.9548C28.543 43.6188 29.2285 43.1753 30.4179 42.8964C30.9143 42.8092 31.3976 42.6591 31.856 42.4496C32.096 42.3364 32.3005 42.1598 32.4474 41.9388C32.5614 41.7345 32.5961 41.4952 32.5448 41.2668C32.8281 41.2128 33.0909 41.0814 33.3042 40.8872C33.4889 40.693 33.5933 40.4361 33.5965 40.1681C33.5944 40.082 33.5745 39.9973 33.538 39.9192C33.5016 39.8411 33.4494 39.7715 33.3848 39.7145C33.5898 39.5096 34.1979 38.9316 33.872 38.3C33.7477 38.1387 33.4923 38.132 33.2941 38.0916C33.0958 38.0513 32.6221 38.011 32.5179 38.0043C32.4864 37.9265 32.4383 37.8565 32.3768 37.7993C31.9923 37.4652 31.5105 37.2638 31.0026 37.2248C30.4412 37.1936 29.8781 37.2217 29.3226 37.3088C28.7278 37.3592 28.1197 37.3558 27.525 37.3659C27.3992 37.3728 27.273 37.366 27.1486 37.3457C26.8698 37.2886 26.6278 37.0971 26.3456 37.0568C26.099 37.0332 25.8503 37.0434 25.6064 37.087C25.072 37.1827 24.5816 37.445 24.2053 37.8363C23.1536 38.9014 22.3506 40.1211 21.1813 41.082C20.1783 41.8759 19.108 42.5809 17.9826 43.1888C16.2152 44.1968 12.8048 44.7243 11.3331 47.2208C10.352 48.884 10.1202 51.4241 11.0811 52.8084C11.7162 53.7156 14.8947 53.9374 17.035 52.5531C19.555 50.9201 23.3922 46.5454 24.4304 45.5139Z" fill="#C8856A"/>
<path d="M27.0982 38.2767C28.8614 37.9697 30.6541 37.8682 32.4406 37.9743C30.6615 37.6438 28.8288 37.7475 27.0982 38.2767ZM27.2192 39.7013C29.2352 39.4527 31.3318 39.2209 33.3042 39.7282C32.3634 39.2981 31.2882 39.2847 30.2802 39.2813C29.2461 39.2905 28.2175 39.4316 27.2192 39.7013ZM31.4595 40.7093C29.889 40.5714 28.3064 40.7263 26.7925 41.1663C28.3284 40.8884 29.8896 40.7758 31.4494 40.8303C31.9098 40.8303 32.6557 40.9076 32.5347 41.546C32.5759 41.4172 32.5685 41.2778 32.5141 41.154C32.4596 41.0303 32.3618 40.9307 32.239 40.874C31.9897 40.7749 31.727 40.7138 31.4595 40.6925V40.7093Z" fill="#AF6152"/>
<path d="M43.0986 31.0493C45.5816 31.765 48.4947 33.6197 47.7791 38.5724C47.1071 43.2293 44.4392 53.5378 43.4346 56.1116C42.2922 59.0348 41.0826 60.073 39.5437 60.4325C38.1997 60.7416 36.6978 59.8882 35.5655 59.1087C32.3331 56.8709 30.1895 52.3383 27.8677 47.594C26.7843 45.3567 25.9797 42.9949 25.472 40.5615C25.3753 39.998 25.3437 39.4253 25.3779 38.8546C25.4184 38.3148 25.549 37.7855 25.7643 37.2888C25.8025 37.2192 25.834 37.146 25.8584 37.0704C25.8853 36.9435 25.8955 36.8136 25.8887 36.684C25.8779 36.3608 25.9868 36.045 26.1944 35.797C26.2985 35.6999 26.4109 35.6122 26.5304 35.5349C26.5689 35.5066 26.6029 35.4726 26.6312 35.4341C26.7119 35.3165 26.6648 35.1552 26.6783 35.0141C26.7059 34.8587 26.7896 34.7189 26.9135 34.6211C27.0373 34.5233 27.1927 34.4742 27.3503 34.4832C27.5246 34.504 27.6919 34.5645 27.8393 34.66C27.9867 34.7555 28.1102 34.8836 28.2003 35.0343C28.2152 35.0583 28.236 35.078 28.2608 35.0914C28.2907 35.0981 28.3217 35.0981 28.3515 35.0914C28.4918 35.07 28.6351 35.0791 28.7715 35.1183C28.898 35.1577 29.0132 35.2268 29.1075 35.3199C29.3069 35.5611 29.4349 35.8532 29.4771 36.1632C29.5914 36.6672 29.6754 37.1712 29.793 37.6786C30.0215 38.6631 30.129 39.6946 30.6632 40.5749C30.7136 40.6556 30.7909 40.7463 30.885 40.7228C30.9791 40.6992 30.9992 40.5984 31.0127 40.5111C31.1403 39.6072 30.6027 38.6664 31.2949 37.8701C31.8997 37.178 32.0106 38.522 32.1114 38.8781C32.2491 39.3485 32.3835 39.8189 32.5213 40.286C32.7834 41.0525 32.9361 41.8522 32.9749 42.6615C32.9749 43.4242 32.7733 44.1802 32.8103 44.9429C32.8287 45.6989 33.1338 46.4195 33.6637 46.9589C35.7671 49.0421 36.7247 49.8653 36.7247 49.8653L38.24 42.0802C38.24 42.0802 38.4349 37.6114 40.1754 34.0632C41.3245 31.728 43.0986 31.0493 43.0986 31.0493Z" fill="#C8856A"/>
<path d="M28.1331 35.1851C27.9181 35.5681 28.0055 36.0452 28.0088 36.4652C28.0904 37.7582 28.3238 39.0371 28.7043 40.2755C28.58 39.5396 28.4221 38.4745 28.3011 37.7286C28.2037 37.0969 28.1331 36.4518 28.076 35.8134C28.0461 35.6023 28.0656 35.3872 28.1331 35.1851Z" fill="#AF6152"/>
<path d="M26.6682 35.4878C26.6173 37.2411 26.8627 38.9905 27.3939 40.6622C27.0109 38.9822 26.9101 37.1913 26.6682 35.4878Z" fill="#AF6152"/>
<path d="M25.855 37.1274C25.7647 38.4376 25.922 39.753 26.3187 41.0049C26.1776 39.8591 25.9659 38.2598 25.855 37.1274Z" fill="#AF6152"/>
<path d="M35.552 59.1085C31.9266 56.4037 30.1525 52.0357 28.16 48.1213C27.1648 46.1273 26.3766 44.0366 25.808 41.8818C25.4801 40.8193 25.3581 39.704 25.4485 38.5957C25.5374 38.0456 25.6966 37.5092 25.9222 36.9997C25.9222 36.4285 25.9928 35.8976 26.5304 35.5851C26.5966 35.5404 26.6487 35.4778 26.6808 35.4047C26.7129 35.3316 26.7237 35.2508 26.7119 35.1719C26.7035 35.0764 26.7187 34.9804 26.7559 34.8921C26.7932 34.8039 26.8514 34.7261 26.9256 34.6655C26.9998 34.6048 27.0877 34.5633 27.1816 34.5444C27.2755 34.5255 27.3726 34.5298 27.4645 34.557C27.7543 34.654 28.0014 34.8488 28.1634 35.108C28.182 35.1256 28.2044 35.1386 28.2289 35.1462C28.2533 35.1538 28.2792 35.1557 28.3045 35.1517C28.5011 35.1165 28.7039 35.146 28.8824 35.2357C29.3763 35.5146 29.3898 36.1799 29.5174 36.6771C29.7459 37.6448 29.9408 39.0291 30.2835 39.9397C30.3827 40.2066 30.5159 40.4596 30.68 40.6923C31.0563 41.0048 31.0765 40.3563 31.063 40.1178C31.0227 39.3181 30.7271 38.3739 31.4327 37.7893C31.9232 37.4533 31.9669 38.7167 32.1047 38.9922L32.3399 39.7952C32.6456 40.857 33.0287 41.9355 32.9279 43.0544C32.8271 44.1733 32.5918 45.3359 33.1664 46.3439C33.4749 46.811 33.8495 47.2309 34.2786 47.5904C35.0816 48.3666 35.8847 49.1394 36.7247 49.8752C35.8914 49.1327 35.0917 48.3531 34.2987 47.5703C33.8761 47.209 33.5073 46.7892 33.2034 46.3237C32.9466 45.8294 32.8205 45.2777 32.8371 44.721C32.8371 44.1666 32.948 43.6189 32.9917 43.0611C33.0959 41.9322 32.7128 40.8402 32.4104 39.7751L32.1786 38.972C32.0509 38.5755 32.0576 38.1219 31.8157 37.7624C31.4528 37.3491 31.0261 38.1354 30.9488 38.4344C30.8077 39.0023 30.979 39.5634 30.9891 40.1144C31.0093 41.2367 30.5725 40.4 30.3843 39.8994C30.0483 38.9955 29.8535 37.5978 29.6317 36.6469C29.5074 35.9984 29.3763 35.0341 28.5229 35.024C28.4456 35.0072 28.3078 35.0576 28.2541 35.024C28.0804 34.7469 27.8135 34.5408 27.5014 34.4427C27.3925 34.4115 27.2776 34.4071 27.1666 34.4299C27.0556 34.4527 26.9518 34.502 26.8639 34.5736C26.7761 34.6453 26.707 34.7371 26.6623 34.8413C26.6177 34.9454 26.599 35.0589 26.6077 35.1719C26.6197 35.2314 26.6133 35.2932 26.5893 35.3491C26.5652 35.4049 26.5248 35.4521 26.4733 35.4843C26.2215 35.6417 26.0289 35.878 25.9256 36.1563C25.8489 36.4283 25.8149 36.7106 25.8248 36.993C25.5965 37.5024 25.4383 38.0404 25.3544 38.5923C25.2658 39.7148 25.3923 40.8438 25.7274 41.9187C26.3062 44.0777 27.1045 46.1718 28.1096 48.1683C30.1256 52.0794 31.9199 56.4474 35.5755 59.1186L35.552 59.1085Z" fill="#AF6152"/>
<path d="M36.7146 49.875C38.2568 50.5772 39.5739 52.0052 39.836 52.8284C39.836 52.8284 39.9435 50.3454 36.9128 48.9678L36.7146 49.875Z" fill="#AF6152"/>
<path d="M43.0213 30.7974C46.8618 31.8054 48.0613 33.7004 48.0411 36.6505C48.0411 40.7362 46.1494 47.8695 45.4573 50.3358C41.4454 51.8242 36.896 48.2761 36.896 48.2761L37.9645 42.0802C37.9645 42.0802 38.4987 32.5479 43.0213 30.7974Z" fill="#263238"/>
<path d="M88.64 11.5344C86.8947 12.5407 85.5993 14.1751 85.0179 16.104L84.8029 16.9877C84.4643 18.9386 84.8675 20.9455 85.9333 22.6142C86.999 24.283 88.6503 25.4928 90.5627 26.0061C92.475 26.5193 94.5102 26.2988 96.2683 25.388C98.0264 24.4772 99.3803 22.9418 100.064 21.0835L100.319 20.2133C100.67 18.708 100.574 17.1331 100.042 15.6819C99.5101 14.2306 98.5658 12.9664 97.3252 12.0446C96.0846 11.1227 94.6017 10.5833 93.0588 10.4927C91.5158 10.402 89.98 10.7641 88.64 11.5344Z" fill="white"/>
<path d="M88.304 10.9464C86.5415 11.9623 85.1951 13.5688 84.5027 15.4817C83.8104 17.3946 83.8167 19.4907 84.5206 21.3993L82.8406 23.4825C82.7781 23.5613 82.7407 23.657 82.7333 23.7573C82.726 23.8576 82.749 23.9578 82.7994 24.0448C82.8498 24.1319 82.9253 24.2017 83.0159 24.2452C83.1066 24.2888 83.2082 24.304 83.3077 24.2889L85.952 23.8857C86.996 25.1532 88.3806 26.0957 89.9426 26.6022C91.5046 27.1088 93.1789 27.1581 94.768 26.7446C96.3572 26.331 97.795 25.4717 98.9119 24.2679C100.029 23.0642 100.778 21.5662 101.072 19.9506C101.366 18.335 101.191 16.6691 100.569 15.1493C99.9475 13.6296 98.9041 12.3193 97.5622 11.3729C96.2202 10.4265 94.6357 9.88352 92.9954 9.80795C91.355 9.73238 89.7273 10.1274 88.304 10.9464ZM99.4794 14.4576C100.486 16.2075 100.786 18.2765 100.316 20.2401L100.064 21.0969C99.3914 22.9737 98.0367 24.5284 96.2697 25.4516C94.5027 26.3748 92.4529 26.5989 90.5281 26.0791C88.6034 25.5594 86.9449 24.334 85.8828 22.6468C84.8206 20.9597 84.4327 18.9344 84.7962 16.9742L85.0112 16.0905C85.4623 14.6094 86.337 13.2927 87.5274 12.3027C88.7178 11.3127 90.1719 10.6927 91.7104 10.5191C93.2489 10.3455 94.8046 10.6259 96.1857 11.3257C97.5668 12.0256 98.7129 13.1142 99.4827 14.4576H99.4794Z" fill="#455A64"/>
<path d="M91.3885 23.3213C91.2178 23.3217 91.0489 23.2871 90.8923 23.2194C90.7356 23.1518 90.5946 23.0527 90.4779 22.9282L87.6555 19.9042C87.5264 19.7887 87.4229 19.6475 87.3516 19.4897C87.2802 19.3319 87.2427 19.1609 87.2413 18.9877C87.2398 18.8145 87.2746 18.6429 87.3434 18.484C87.4122 18.325 87.5134 18.1822 87.6406 18.0646C87.7678 17.9471 87.9182 17.8574 88.082 17.8013C88.2459 17.7453 88.4197 17.7241 88.5922 17.7391C88.7648 17.7541 88.9323 17.805 89.084 17.8886C89.2357 17.9721 89.3683 18.0864 89.4733 18.2242L91.3078 20.1797L95.6422 14.6861C95.7424 14.5538 95.8679 14.4429 96.0114 14.3597C96.155 14.2766 96.3137 14.2229 96.4782 14.2019C96.6428 14.1809 96.8099 14.193 96.9697 14.2374C97.1296 14.2818 97.2789 14.3576 97.4091 14.4605C97.5392 14.5633 97.6475 14.6912 97.7277 14.8364C97.8078 14.9817 97.8581 15.1415 97.8757 15.3064C97.8932 15.4714 97.8777 15.6382 97.83 15.7971C97.7823 15.9559 97.7033 16.1037 97.5977 16.2317L92.3629 22.8475C92.2523 22.9886 92.1124 23.104 91.9528 23.1858C91.7933 23.2676 91.618 23.3138 91.4389 23.3213H91.3885Z" fill="#57AE8F"/>
<path d="M12.8787 12.2168C14.6231 13.2242 15.9182 14.8581 16.5008 16.7864L16.7158 17.6701C17.075 19.6306 16.683 21.6544 15.6179 23.3391C14.5528 25.0237 12.8925 26.2457 10.9674 26.7619C9.04225 27.2781 6.99335 27.0508 5.22824 26.125C3.46313 25.1993 2.11116 23.6431 1.44127 21.7659L1.18255 20.9125C0.830377 19.4052 0.926637 17.8279 1.45948 16.3747C1.99232 14.9214 2.93849 13.6557 4.18151 12.7334C5.42452 11.811 6.91011 11.2723 8.45541 11.1835C10.0007 11.0947 11.5382 11.4597 12.8787 12.2336V12.2168Z" fill="white"/>
<path d="M1.44463 14.8038C0.373119 16.6756 0.0430293 18.8814 0.519633 20.9849C0.996236 23.0885 2.24483 24.9366 4.01851 26.1638C5.79218 27.391 7.9618 27.908 10.0983 27.6125C12.2348 27.317 14.1826 26.2305 15.5566 24.5679L18.2009 24.9711C18.3006 24.9872 18.4029 24.9726 18.494 24.9292C18.5852 24.8858 18.661 24.8156 18.7113 24.7281C18.7617 24.6405 18.7842 24.5397 18.7758 24.4391C18.7675 24.3385 18.7287 24.2428 18.6646 24.1647L16.9846 22.0815C17.7331 20.0563 17.6936 17.8239 16.8739 15.8265C16.0542 13.8291 14.5141 12.2125 12.5587 11.297C10.6034 10.3814 8.37548 10.2338 6.31642 10.8833C4.25737 11.5328 2.51741 12.932 1.44127 14.8038H1.44463ZM12.8686 12.2098C14.6149 13.2135 15.9126 14.8453 16.4974 16.7727L16.7125 17.6564C17.0759 19.6166 16.688 21.6419 15.6258 23.329C14.5637 25.0162 12.9052 26.2416 10.9805 26.7613C9.05577 27.2811 7.00592 27.057 5.2389 26.1338C3.47188 25.2106 2.11725 23.6559 1.44463 21.7791L1.18927 20.9122C0.832316 19.4053 0.924232 17.8269 1.45368 16.3715C1.98314 14.9162 2.92697 13.6477 4.16877 12.7224C5.41058 11.7972 6.89606 11.2556 8.44201 11.1645C9.98795 11.0734 11.5268 11.4368 12.8686 12.2098Z" fill="#455A64"/>
<path d="M7.70431 24.0032C7.53421 24.0034 7.3659 23.9686 7.20983 23.901C7.05375 23.8334 6.91327 23.7344 6.79711 23.6101L3.97471 20.5861C3.8522 20.469 3.75492 20.3282 3.68884 20.1721C3.62275 20.0161 3.58926 19.8482 3.59042 19.6788C3.59158 19.5094 3.62736 19.3419 3.69557 19.1868C3.76378 19.0317 3.86298 18.8922 3.98707 18.7768C4.11117 18.6614 4.25754 18.5727 4.41719 18.5159C4.57685 18.4592 4.74642 18.4356 4.9155 18.4468C5.08457 18.458 5.24958 18.5036 5.40039 18.5808C5.5512 18.6581 5.68462 18.7653 5.79247 18.896L7.62703 20.8515L11.9614 15.3579C12.0615 15.2257 12.1871 15.1147 12.3306 15.0316C12.4742 14.9485 12.6329 14.8948 12.7974 14.8738C12.962 14.8528 13.1291 14.8648 13.2889 14.9092C13.4488 14.9536 13.5981 15.0295 13.7283 15.1324C13.8584 15.2352 13.9667 15.363 14.0469 15.5083C14.127 15.6536 14.1773 15.8133 14.1949 15.9783C14.2124 16.1433 14.1969 16.3101 14.1492 16.4689C14.1015 16.6278 14.0225 16.7756 13.9169 16.9035L8.67199 23.5295C8.56107 23.6702 8.42112 23.7854 8.26166 23.8671C8.10221 23.9489 7.927 23.9953 7.74799 24.0032H7.70431Z" fill="#57AE8F"/>
</g>
<defs>
<clipPath id="clip0_1825_4722">
<rect width="126" height="101" fill="white" transform="translate(-2)"/>
</clipPath>
</defs>
</svg>
