<svg width="110" height="100" viewBox="0 0 110 100" fill="none" xmlns="http://www.w3.org/2000/svg">
<g clip-path="url(#clip0_1825_5004)">
<path d="M46 143.515C82.964 143.515 112.929 126.214 112.929 104.872C112.929 83.5297 82.964 66.2285 46 66.2285C9.03595 66.2285 -20.9293 83.5297 -20.9293 104.872C-20.9293 126.214 9.03595 143.515 46 143.515Z" fill="#FAFAFA"/>
<path d="M96.224 93.6677C93.2164 95.4022 93.2164 98.22 96.224 99.9544C99.2316 101.689 104.108 101.692 107.116 99.9544C110.123 98.217 110.123 95.4022 107.116 93.6677C104.108 91.9332 99.2433 91.9303 96.224 93.6677Z" fill="#EBEBEB"/>
<path d="M-10.8962 106.732L-23.0171 99.747C-23.0763 99.7245 -23.1273 99.6845 -23.1632 99.6323C-23.1992 99.5802 -23.2184 99.5183 -23.2184 99.455C-23.2184 99.3917 -23.1992 99.3298 -23.1632 99.2777C-23.1273 99.2255 -23.0763 99.1855 -23.0171 99.163L6.94207 81.8036C7.09986 81.7231 7.27448 81.6812 7.45161 81.6812C7.62875 81.6812 7.80336 81.7231 7.96115 81.8036L20.0821 88.7883C20.1425 88.8095 20.1949 88.849 20.232 88.9013C20.269 88.9536 20.2889 89.0162 20.2889 89.0803C20.2889 89.1444 20.269 89.2069 20.232 89.2592C20.1949 89.3115 20.1425 89.351 20.0821 89.3723L-9.87713 106.732C-10.0349 106.812 -10.2095 106.854 -10.3867 106.854C-10.5638 106.854 -10.7384 106.812 -10.8962 106.732Z" fill="#EBEBEB"/>
<path d="M13.9559 22.3818L5.02657 17.2251L-23.4551 33.6647V34.6429L-14.5257 39.7996L13.9559 23.3629V22.3818Z" fill="#EBEBEB"/>
<path d="M-14.5257 38.8185L13.9559 22.3818L5.02657 17.2251L-23.4551 33.6647L-14.5257 38.8185Z" fill="#FAFAFA"/>
<path d="M5.50253 8.28418L11.2929 11.6276V22.6447L5.50253 19.2984V8.28418Z" fill="#E0E0E0"/>
<path d="M11.1089 11.8116L5.50252 8.59961C5.16114 8.96425 4.71187 9.20987 4.22064 9.30041L9.76864 12.5124C10.2446 12.3396 10.6954 12.1039 11.1089 11.8116Z" fill="white"/>
<path d="M9.24012 12.4803C9.40743 12.5638 9.59186 12.6073 9.77886 12.6073C9.96586 12.6073 10.1503 12.5638 10.3176 12.4803L11.252 11.9371C11.3166 11.9151 11.3727 11.8734 11.4124 11.8179C11.4521 11.7624 11.4734 11.6959 11.4734 11.6276C11.4734 11.5594 11.4521 11.4928 11.4124 11.4373C11.3727 11.3818 11.3166 11.3401 11.252 11.3181L5.73612 8.1499L5.50252 8.28422L10.9366 11.4203C10.9755 11.4334 11.0092 11.4583 11.0331 11.4916C11.057 11.5248 11.0699 11.5648 11.0699 11.6057C11.0699 11.6467 11.057 11.6866 11.0331 11.7199C11.0092 11.7532 10.9755 11.7781 10.9366 11.7911L10.0606 12.2875C9.96053 12.3379 9.85004 12.3641 9.73798 12.3641C9.62593 12.3641 9.51543 12.3379 9.41532 12.2875L3.9812 9.1573L3.71548 9.30914L9.24012 12.4803Z" fill="#FAFAFA"/>
<path d="M3.71841 9.30908V20.3233L9.24014 23.4944C9.40744 23.578 9.59188 23.6215 9.77888 23.6215C9.96588 23.6215 10.1503 23.578 10.3176 23.4944L11.252 22.9513C11.3111 22.9261 11.3627 22.8859 11.4016 22.8347C11.4405 22.7835 11.4654 22.7231 11.4739 22.6593V11.6276C11.4684 11.6944 11.4448 11.7585 11.4057 11.813C11.3667 11.8675 11.3135 11.9104 11.252 11.9371L10.3089 12.4802C10.1416 12.5637 9.95712 12.6072 9.77012 12.6072C9.58312 12.6072 9.39868 12.5637 9.23138 12.4802L3.71841 9.30908Z" fill="#E0E0E0"/>
<path d="M9.79201 12.6086C9.98001 12.6118 10.1658 12.5676 10.3322 12.4801L11.252 11.937C11.3135 11.9103 11.3667 11.8674 11.4057 11.8129C11.4448 11.7584 11.4684 11.6943 11.4739 11.6274V22.6446C11.4654 22.7083 11.4405 22.7688 11.4016 22.82C11.3627 22.8711 11.3111 22.9113 11.252 22.9366L10.3088 23.4797C10.1424 23.5673 9.95665 23.6115 9.76865 23.6082L9.79201 12.6086Z" fill="#F0F0F0"/>
<path d="M3.1344 9.64209L8.92476 12.9884V24.0026L3.1344 20.6592V9.64209Z" fill="#EBEBEB"/>
<path d="M8.7408 13.1695L3.1344 9.95752C2.79266 10.3202 2.345 10.5655 1.85544 10.6583L7.40344 13.8703C7.87855 13.6976 8.32835 13.4619 8.7408 13.1695Z" fill="white"/>
<path d="M6.87201 13.8382C7.03891 13.9231 7.22351 13.9673 7.41075 13.9673C7.598 13.9673 7.78259 13.9231 7.94949 13.8382L8.89265 13.298C8.95724 13.2759 9.01332 13.2342 9.05303 13.1787C9.09274 13.1232 9.11409 13.0567 9.11409 12.9885C9.11409 12.9202 9.09274 12.8537 9.05303 12.7982C9.01332 12.7427 8.95724 12.701 8.89265 12.6789L3.36801 9.50781L3.13149 9.64213L8.56561 12.7811C8.60482 12.7934 8.63909 12.8178 8.66343 12.8509C8.68776 12.884 8.70089 12.924 8.70089 12.9651C8.70089 13.0062 8.68776 13.0462 8.66343 13.0793C8.63909 13.1124 8.60482 13.1368 8.56561 13.1491L7.68961 13.6484C7.5895 13.6987 7.479 13.7249 7.36695 13.7249C7.2549 13.7249 7.1444 13.6987 7.04429 13.6484L1.61601 10.5123L1.35321 10.6671L6.87201 13.8382Z" fill="#FAFAFA"/>
<path d="M1.35028 10.667V21.6842L6.872 24.8524C7.0389 24.9372 7.2235 24.9815 7.41074 24.9815C7.59799 24.9815 7.78258 24.9372 7.94948 24.8524L8.89264 24.3122C8.95416 24.2854 9.00729 24.2426 9.04637 24.1881C9.08545 24.1336 9.10902 24.0695 9.11456 24.0026V12.9884C9.10851 13.0547 9.08471 13.1182 9.04566 13.1721C9.00661 13.2261 8.95375 13.2685 8.89264 13.295L7.94948 13.8381C7.78258 13.923 7.59799 13.9672 7.41074 13.9672C7.2235 13.9672 7.0389 13.923 6.872 13.8381L1.35028 10.667Z" fill="#E0E0E0"/>
<path d="M7.4093 13.9665C7.59731 13.9697 7.7831 13.9256 7.9495 13.838L8.89266 13.2949C8.95378 13.2684 9.00663 13.226 9.04568 13.172C9.08473 13.1181 9.10853 13.0546 9.11458 12.9883V24.0025C9.10904 24.0694 9.08547 24.1334 9.04639 24.1879C9.00731 24.2424 8.95418 24.2853 8.89266 24.312L7.9495 24.8522C7.78361 24.9411 7.59746 24.9854 7.4093 24.9807V13.9665Z" fill="#F0F0F0"/>
<path d="M-0.81926 12.5708L4.9711 15.9142L3.17238 27.2642L-2.61798 23.9208L-0.81926 12.5708Z" fill="#EBEBEB"/>
<path d="M4.74333 16.0747L-0.863074 12.8481C-1.30103 13.1696 -1.81541 13.3709 -2.35519 13.4321L3.19281 16.6441C3.72948 16.5135 4.24963 16.3225 4.74333 16.0747Z" fill="white"/>
<path d="M2.6205 16.5947C2.8021 16.68 2.99879 16.7286 3.19925 16.7376C3.3997 16.7467 3.59996 16.7159 3.7885 16.6472L4.88934 16.1976C5.23682 16.0545 5.2777 15.8004 4.97986 15.6311L-0.544784 12.46L-0.819262 12.5709L4.61486 15.707C4.79298 15.8092 4.7667 15.961 4.55938 16.0457L3.53446 16.4604C3.42187 16.5018 3.30212 16.5204 3.18227 16.5148C3.06242 16.5093 2.94488 16.4799 2.83658 16.4282L-2.59462 13.298L-2.90414 13.4323L2.6205 16.5947Z" fill="#FAFAFA"/>
<path d="M-2.90416 13.4321L-4.70288 24.7705L0.821759 27.9416C1.00293 28.0284 1.19973 28.0778 1.40041 28.0868C1.60109 28.0958 1.80153 28.0643 1.98976 27.9942L3.09352 27.5445C3.2658 27.4744 3.36216 27.3751 3.38552 27.2729L5.18424 15.9229C5.16672 16.028 5.07036 16.1244 4.89224 16.1974L3.78848 16.6441C3.60025 16.7143 3.39981 16.7458 3.19913 16.7368C2.99845 16.7277 2.80165 16.6783 2.62048 16.5916L-2.90416 13.4321Z" fill="#E0E0E0"/>
<path d="M3.18697 16.7375C3.39156 16.7491 3.59634 16.7182 3.78849 16.647L4.89225 16.1973C5.06453 16.1243 5.16089 16.028 5.18425 15.9229L3.36801 27.2729C3.35049 27.3751 3.25413 27.4744 3.07601 27.5445L1.97225 27.9941C1.78083 28.0682 1.57545 28.0991 1.37073 28.0847L3.18697 16.7375Z" fill="#F0F0F0"/>
<path d="M107.819 95.4516C107.819 94.5464 107.235 93.6383 106.029 92.9463C103.632 91.5622 99.7455 91.5622 97.3482 92.9463C96.151 93.6383 95.5553 94.5464 95.5553 95.4516V96.3013C95.5699 97.1949 96.1714 98.0884 97.354 98.7687C99.7514 100.153 103.638 100.153 106.035 98.7687C107.218 98.0884 107.816 97.1949 107.831 96.3013L107.819 95.4516Z" fill="#EBEBEB"/>
<path d="M97.3424 92.9463C94.945 94.3303 94.945 96.5729 97.3424 97.957C99.7397 99.3411 103.626 99.3411 106.024 97.957C108.421 96.5729 108.418 94.3303 106.024 92.9463C103.629 91.5622 99.728 91.5622 97.3424 92.9463Z" fill="#F5F5F5"/>
<path d="M102.356 31.4717H101.033V95.0547C101.029 95.1169 101.045 95.1789 101.079 95.2314C101.112 95.284 101.162 95.3244 101.22 95.3467C101.365 95.4201 101.525 95.4583 101.687 95.4583C101.85 95.4583 102.01 95.4201 102.155 95.3467C102.212 95.3227 102.261 95.282 102.294 95.2299C102.328 95.1778 102.346 95.1168 102.344 95.0547L102.356 31.4717Z" fill="#E0E0E0"/>
<path d="M110.287 29.2261L107.075 17.3008H96.2386L93.0733 29.2261C92.4893 30.8029 93.2894 32.5081 95.4619 33.7316C98.8929 35.6676 104.458 35.6676 107.892 33.7316C110.071 32.5081 110.865 30.8029 110.287 29.2261Z" fill="#EBEBEB"/>
<path d="M97.8329 19.8558C99.9587 21.053 103.404 21.053 105.53 19.8558C107.656 18.6586 107.656 16.7168 105.53 15.5196C103.404 14.3224 99.9587 14.3195 97.8329 15.5196C95.7072 16.7197 95.7101 18.6498 97.8329 19.8558Z" fill="#F5F5F5"/>
<path d="M101.681 19.99C100.524 20.0172 99.3784 19.7531 98.3498 19.222C97.5701 18.784 97.1409 18.2351 97.1409 17.6773C97.1409 17.1196 97.5701 16.5736 98.3498 16.1356C99.3877 15.6284 100.528 15.3647 101.683 15.3647C102.838 15.3647 103.978 15.6284 105.016 16.1356C105.796 16.5736 106.222 17.1225 106.222 17.6773C106.222 18.2321 105.796 18.784 105.016 19.222C103.986 19.7531 102.84 20.0172 101.681 19.99Z" fill="#E0E0E0"/>
<path opacity="0.05" d="M18.371 84.5576L17.3285 89.7231L16.3182 90.3071L15.3137 89.7289L14.2654 84.5605L16.3182 83.375L18.371 84.5576Z" fill="black"/>
<path d="M16.3182 90.3071V85.7431L18.371 84.5576L17.3285 89.7231L16.3182 90.3071Z" fill="#EBEBEB"/>
<path opacity="0.05" d="M18.371 84.5576L17.6964 87.8952L16.3182 88.6923L14.9429 87.8981L14.2654 84.5605L16.3182 83.375L18.371 84.5576Z" fill="black"/>
<path d="M-10.3852 79.062L18.952 62.123V86.3357L-10.3852 103.275V79.062Z" fill="#EBEBEB"/>
<path d="M18.952 62.1231L-10.3852 79.062L-21.5717 72.603L7.76553 55.6641L18.952 62.1231Z" fill="#F5F5F5"/>
<path d="M-8.78796 91.0573L17.3548 75.9639V84.8494L17.6468 85.0188L-8.49304 100.112L-8.78796 99.9429V91.0573Z" fill="#E0E0E0"/>
<path d="M-8.49304 91.2268L17.6468 76.1333V85.0189L-8.49304 100.112V91.2268Z" fill="#F5F5F5"/>
<path d="M4.07463 85.6496L6.24711 84.394C6.53911 84.2305 6.75811 84.3064 6.75811 84.5604C6.73737 84.7175 6.68041 84.8675 6.59173 84.9988C6.50304 85.13 6.38507 85.2389 6.24711 85.3167L4.07463 86.5723C3.78263 86.7358 3.56363 86.6599 3.56363 86.4059C3.58437 86.2488 3.64133 86.0988 3.73001 85.9675C3.8187 85.8363 3.93667 85.7274 4.07463 85.6496Z" fill="#E0E0E0"/>
<path d="M-8.78796 80.3264L17.3548 65.2358L17.3519 74.1214L17.6468 74.2908L-8.49304 89.3842L-8.78796 89.212V80.3264Z" fill="#E0E0E0"/>
<path d="M-8.49304 80.4987L17.6468 65.4053V74.2908L-8.49304 89.3843V80.4987Z" fill="#F5F5F5"/>
<path d="M4.07463 74.9213L6.24711 73.6657C6.53911 73.5022 6.75811 73.5752 6.75811 73.8321C6.73737 73.9892 6.68041 74.1393 6.59173 74.2705C6.50304 74.4018 6.38507 74.5106 6.24711 74.5884L4.07463 75.844C3.78263 76.0046 3.56363 75.9316 3.56363 75.6776C3.58393 75.5204 3.64071 75.3702 3.72944 75.2388C3.81817 75.1075 3.93638 74.9988 4.07463 74.9213Z" fill="#E0E0E0"/>
<path d="M6.92455 62.8505C8.28235 63.633 8.28235 64.8945 6.92455 65.6858C5.56675 66.4771 3.37091 66.4683 2.01603 65.6858C0.661155 64.9032 0.658235 63.6418 2.01603 62.8505C3.37383 62.0591 5.56967 62.0679 6.92455 62.8505Z" fill="#E0E0E0"/>
<path d="M2.31096 64.4448C1.14296 63.2388 0.43632 60.2283 1.5868 59.2734H7.456C8.60648 60.2283 7.91444 63.2359 6.73184 64.4418L6.69972 64.4769L6.65884 64.5148L6.55372 64.6112L6.52452 64.6316C6.49659 64.6556 6.46734 64.6781 6.43692 64.6988C6.38737 64.735 6.33569 64.7681 6.28216 64.7981C5.73896 65.0727 5.13882 65.2157 4.53016 65.2157C3.9215 65.2157 3.32136 65.0727 2.77816 64.7981C2.72487 64.7677 2.67321 64.7346 2.6234 64.6988L2.53872 64.6375C2.52869 64.627 2.51796 64.6173 2.5066 64.6083C2.46963 64.5804 2.43452 64.5502 2.40148 64.5178L2.35476 64.471L2.31096 64.4448Z" fill="#EBEBEB"/>
<path d="M6.93917 58.8877C8.27653 59.6615 8.27653 60.9113 6.93917 61.6851C5.60181 62.4589 3.43517 62.456 2.09781 61.6851C0.760448 60.9142 0.760448 59.6615 2.09781 58.8877C3.43517 58.1139 5.60181 58.1081 6.93917 58.8877Z" fill="#FAFAFA"/>
<path d="M5.99601 59.4369C6.80777 59.907 6.80777 60.6662 5.99601 61.1364C5.53904 61.3682 5.03384 61.4891 4.52141 61.4891C4.00898 61.4891 3.50377 61.3682 3.04681 61.1364C2.23505 60.6662 2.23505 59.907 3.04681 59.4369C3.50364 59.2046 4.00889 59.0835 4.52141 59.0835C5.03392 59.0835 5.53918 59.2046 5.99601 59.4369Z" fill="#F5F5F5"/>
<path d="M3.04678 60.2428C3.50323 60.011 4.00796 59.8901 4.51992 59.8901C5.03188 59.8901 5.53661 60.011 5.99306 60.2428C6.18924 60.3492 6.35583 60.5027 6.47778 60.6896C6.3566 60.8771 6.18982 61.0308 5.99306 61.1363C5.53661 61.3682 5.03188 61.489 4.51992 61.489C4.00796 61.489 3.50323 61.3682 3.04678 61.1363C2.84865 61.0317 2.68074 60.8778 2.55914 60.6896C2.68153 60.502 2.84925 60.3484 3.04678 60.2428Z" fill="#EBEBEB"/>
<path d="M5.81202 60.6895C6.22698 60.268 6.58348 59.7926 6.87198 59.2762C7.36546 58.4002 7.45598 57.2322 7.20194 57.095C6.9479 56.9578 5.9113 58.1141 5.9113 58.1141C6.00577 57.6256 6.04204 57.1277 6.01934 56.6307C5.97554 55.854 5.78866 55.1503 5.56674 55.0072C5.34482 54.8641 4.8455 55.8452 4.63234 56.5519C4.41918 57.2585 4.29362 57.8425 4.29362 57.8425C4.20785 57.2904 4.07997 56.7457 3.9111 56.2132C3.65414 55.4773 3.41762 55.3109 3.23658 55.3839C3.05554 55.4569 2.94458 55.7985 2.88326 56.7796C2.86358 57.2473 2.87822 57.7157 2.92706 58.1812C2.92706 58.1812 2.56206 57.7812 2.15618 57.3899C1.7503 56.9986 1.51962 56.9052 1.39406 56.987C1.2685 57.0687 1.23054 57.7316 1.91966 58.9813C2.26343 59.6151 2.70268 60.1922 3.22198 60.6924C3.22198 60.6924 4.18266 61.3202 5.81202 60.6895Z" fill="#E0E0E0"/>
<path d="M58.6377 103.149C58.544 103.605 58.3582 104.037 58.0917 104.419C57.5586 105.174 56.8593 105.796 56.0477 106.238C52.4999 108.282 46.7475 108.282 43.1997 106.238C42.3881 105.796 41.6888 105.174 41.1557 104.419C40.8913 104.037 40.7066 103.605 40.6126 103.149C40.2972 101.61 41.1645 100.004 43.2085 98.8245C46.7533 96.7805 52.5057 96.7805 56.0565 98.8245C58.0859 100.004 58.9531 101.616 58.6377 103.149Z" fill="#455A64"/>
<path d="M54.9731 99.4408C52.0152 97.7326 47.2235 97.7326 44.2684 99.4408C42.5953 100.407 41.8711 101.713 42.0901 102.971C42.2595 103.941 42.9865 104.881 44.2684 105.62C47.2235 107.328 52.0152 107.328 54.9731 105.62C56.2521 104.881 56.9792 103.941 57.1485 102.974C57.3705 101.713 56.6463 100.407 54.9731 99.4408Z" fill="#263238"/>
<path d="M42.5894 104.142C43.0328 104.753 43.6062 105.257 44.2684 105.619C47.2235 107.327 52.0152 107.327 54.9731 105.619C55.6345 105.257 56.207 104.752 56.6492 104.142C56.6288 103.12 55.9426 102.098 54.6052 101.321C51.8575 99.7354 47.4045 99.7354 44.6597 101.321C43.2961 102.104 42.6128 103.12 42.5894 104.142Z" fill="#FAFAFA"/>
<path d="M50.1844 100.965C48.8266 100.597 48.5959 97.6536 49.358 94.5408C50.0968 91.5186 52.4678 86.9897 52.973 87.089C53.4781 87.1883 54.103 92.1114 53.7497 95.3643C53.3205 99.3121 51.548 101.324 50.1844 100.965Z" fill="#57AE8F"/>
<path opacity="0.3" d="M50.1844 100.965C48.8266 100.597 48.5959 97.6536 49.358 94.5408C50.0968 91.5186 52.4678 86.9897 52.973 87.089C53.4781 87.1883 54.103 92.1114 53.7497 95.3643C53.3205 99.3121 51.548 101.324 50.1844 100.965Z" fill="black"/>
<path opacity="0.5" d="M50.8472 91.4516C51.0896 91.837 51.2414 92.4882 51.8108 92.4911C52.2692 92.4911 52.5087 92.0093 52.9204 91.9071C53.0834 91.882 53.2498 91.8934 53.4079 91.9403C53.5659 91.9873 53.7116 92.0687 53.8344 92.1787L53.8168 91.8254C53.5899 91.6541 53.3155 91.5572 53.0314 91.548C52.7854 91.5708 52.5537 91.6733 52.3714 91.84C52.1612 92.0035 51.9013 92.2517 51.6093 92.132C51.3173 92.0122 51.1859 91.5801 51.0253 91.3027C50.9367 91.1514 50.8124 91.0241 50.6632 90.9318C50.6253 91.0136 50.5902 91.0983 50.5523 91.183C50.6724 91.2452 50.7741 91.3378 50.8472 91.4516ZM52.459 90.2369C52.6547 90.1464 52.7656 89.9449 52.9175 89.8047C53.0089 89.7181 53.1231 89.6594 53.2468 89.6356C53.3705 89.6118 53.4983 89.6239 53.6154 89.6704H53.6417C53.6271 89.5653 53.6154 89.4631 53.6008 89.3638C53.5592 89.3487 53.5161 89.3379 53.4723 89.3317C53.2738 89.2981 53.07 89.342 52.9029 89.4543C52.716 89.5886 52.6109 89.8193 52.4152 89.939C52.059 90.1522 51.7758 89.7638 51.6707 89.4748C51.6239 89.3434 51.586 89.209 51.5422 89.0776L51.4341 89.285C51.4575 89.3784 51.4808 89.4718 51.51 89.5624C51.6298 89.9566 51.9918 90.4588 52.459 90.2281V90.2369ZM52.424 94.1672C52.2002 94.3628 51.9507 94.5269 51.6823 94.6548C50.9815 94.8534 50.8209 93.7788 50.3771 93.4547C50.1922 93.3236 49.9659 93.2645 49.7405 93.2883C49.7113 93.37 49.685 93.4547 49.6588 93.5365C49.7763 93.5121 49.8975 93.5121 50.015 93.5365C50.1508 93.5766 50.276 93.646 50.382 93.7399C50.4879 93.8337 50.572 93.9497 50.6282 94.0796C50.8501 94.4796 51.1363 95.0549 51.694 94.9556C51.9345 94.8815 52.1564 94.757 52.3452 94.5906C52.4748 94.4818 52.6266 94.4024 52.7899 94.3581C52.9533 94.3137 53.1244 94.3054 53.2912 94.3336C53.4903 94.3864 53.6737 94.4866 53.8256 94.6256L53.8431 94.3074C53.6571 94.1537 53.4332 94.0528 53.1949 94.0154C52.9282 93.979 52.657 94.0324 52.424 94.1672ZM52.8503 96.5412C52.5369 96.4728 52.2095 96.5162 51.9247 96.6638C51.6006 96.8244 51.367 97.1368 51.0282 97.2653C50.2866 97.5573 50.1727 96.474 49.6325 96.2112C49.4585 96.126 49.265 96.0887 49.0718 96.1032L49.0368 96.3543C49.1077 96.347 49.1791 96.347 49.25 96.3543C49.4165 96.3788 49.5742 96.4452 49.708 96.5474C49.8418 96.6495 49.9475 96.7841 50.015 96.9383C50.2778 97.4259 50.6194 97.8143 51.218 97.5223C51.5392 97.3675 51.767 97.0755 52.094 96.9383C52.2688 96.8497 52.465 96.8121 52.6602 96.8296C52.8553 96.8472 53.0416 96.9192 53.1978 97.0376C53.2755 97.1159 53.345 97.202 53.4051 97.2945C53.4343 97.1894 53.4577 97.0784 53.484 96.9704C53.3227 96.7594 53.0956 96.6083 52.8387 96.5412H52.8503Z" fill="#57AE8F"/>
<path opacity="0.1" d="M50.1844 100.965C51.5451 101.333 53.3205 99.312 53.7497 95.3729C53.8567 94.2501 53.8821 93.1209 53.8256 91.9944C52.716 92.9055 51.6035 94.7655 51.6035 94.7655C51.2175 93.7516 50.7769 92.7593 50.2837 91.793C49.9108 92.6889 49.6015 93.61 49.358 94.5494C48.5959 97.6534 48.8266 100.597 50.1844 100.965Z" fill="black"/>
<path d="M49.0777 102.597C47.2906 103.745 45.6233 99.677 44.7356 96.5847C43.848 93.4925 44.4436 85.4595 45.3196 85.0186C45.9562 84.7062 49.3317 91.9186 49.9916 95.4313C50.4851 97.9688 50.4997 101.686 49.0777 102.597Z" fill="#57AE8F"/>
<path opacity="0.1" d="M49.0777 102.597C47.2906 103.745 45.6233 99.677 44.7356 96.5847C43.848 93.4925 44.4436 85.4595 45.3196 85.0186C45.9562 84.7062 49.3317 91.9186 49.9916 95.4313C50.4851 97.9688 50.4997 101.686 49.0777 102.597Z" fill="black"/>
<path d="M45.2233 90.7011C45.7839 90.9785 46.2307 90.9931 46.6658 90.5055C47.1008 90.0179 47.3753 89.5127 48.009 89.5828C47.9476 89.4426 47.8863 89.2908 47.8221 89.1623C47.7188 89.1556 47.6151 89.1665 47.5155 89.1944C46.9607 89.3404 46.7125 89.9186 46.3212 90.2836C45.7372 90.8442 45.0831 90.1055 44.4057 90.1493H44.3444L44.3268 90.5201C44.6364 90.5 44.9458 90.5625 45.2233 90.7011ZM50.1347 96.2491C50.0397 96.2136 49.942 96.1853 49.8427 96.1645C49.6966 96.1366 49.5462 96.1391 49.4011 96.1717C49.2559 96.2044 49.119 96.2665 48.9988 96.3543C48.4586 96.7514 48.4324 97.6332 47.5593 97.4025C46.8935 97.2273 46.3913 96.7893 45.6963 97.1397C45.4574 97.2655 45.2404 97.4292 45.0539 97.6245C45.089 97.7267 45.1211 97.8259 45.1561 97.9311C45.3943 97.6756 45.6969 97.489 46.0321 97.3909C46.7855 97.1952 47.352 97.9573 48.1024 97.8318C48.7127 97.7325 48.7798 97.0609 49.2032 96.7309C49.3464 96.6303 49.5145 96.571 49.6891 96.5597C49.8638 96.5484 50.0382 96.5854 50.1931 96.6667C50.1698 96.5178 50.1522 96.3776 50.1347 96.2404V96.2491ZM45.2525 87.7811C45.4627 88.0731 45.7547 88.3856 46.1431 88.187C46.5314 87.9885 46.5898 87.4687 46.8556 87.1417L46.7125 86.8643C46.4526 87.2117 46.3241 87.9651 45.8365 87.9359C45.4481 87.9155 45.2963 87.3519 44.9605 87.1738C44.8606 87.1226 44.748 87.1013 44.6364 87.1125C44.6364 87.1913 44.613 87.2672 44.6013 87.349H44.6772C44.9517 87.3519 45.124 87.5826 45.2525 87.7811ZM46.5986 93.8898C47.3052 94.0416 47.6498 93.2007 47.9681 92.7218C48.1997 92.3501 48.5417 92.0601 48.9463 91.8925C48.8996 91.7669 48.8528 91.6414 48.8032 91.5129C48.6747 91.541 48.5508 91.5872 48.4353 91.6501C48.1241 91.8469 47.8623 92.1127 47.6702 92.4269C47.4571 92.7451 47.2819 93.1715 46.9519 93.3846C46.5752 93.6299 46.1314 93.2474 45.7401 93.1744C45.3766 93.1081 45.0021 93.1384 44.6539 93.262C44.5387 93.3042 44.4282 93.358 44.3239 93.4226C44.3239 93.5978 44.3327 93.7701 44.3502 93.9394C44.6702 93.6724 45.0785 93.5349 45.4948 93.554C45.9095 93.5773 46.2132 93.8051 46.5986 93.8898Z" fill="#57AE8F"/>
<path opacity="0.1" d="M49.066 92.2339C48.472 92.953 47.9807 93.7509 47.606 94.605C47.606 94.605 45.6671 91.977 44.3035 90.7798C44.2305 92.9669 44.3385 95.2474 44.724 96.5847C45.6 99.6653 47.279 103.745 49.066 102.597C50.488 101.686 50.4734 97.9688 49.9916 95.4313C49.7647 94.3436 49.4552 93.2747 49.066 92.2339Z" fill="black"/>
<path d="M48.955 104.694C45.6876 104.872 42.6332 102.892 40.6535 100.398C38.6737 97.9046 37.1261 92.7508 37.5758 92.4355C38.0255 92.1201 43.2932 95.3555 45.2729 97.7148C47.8688 100.79 48.955 104.694 48.955 104.694Z" fill="#57AE8F"/>
<path opacity="0.2" d="M48.955 104.694C45.6876 104.872 42.6332 102.892 40.6535 100.398C38.6737 97.9046 37.1261 92.7508 37.5758 92.4355C38.0255 92.1201 43.2932 95.3555 45.2729 97.7148C47.8688 100.79 48.955 104.694 48.955 104.694Z" fill="black"/>
<path d="M41.8244 96.5089C42.0142 96.2023 41.9061 95.8314 41.8653 95.4986C41.8311 95.2784 41.8778 95.0534 41.9967 94.8649L41.62 94.608C41.4744 94.8754 41.4269 95.1852 41.4857 95.484C41.5382 95.8606 41.6287 96.3308 41.1265 96.4008C40.5746 96.4738 39.8154 95.9833 39.3745 96.5264C39.1613 96.7921 39.2431 97.1279 39.2343 97.4374C39.2277 97.5772 39.1876 97.7134 39.1175 97.8346C39.1759 97.9572 39.2373 98.0828 39.2986 98.2025C39.4298 98.0451 39.5138 97.8537 39.5409 97.6506C39.5877 97.271 39.4387 96.7746 39.9527 96.6987C40.306 96.6432 40.6476 96.8067 40.998 96.8301C41.152 96.8602 41.3115 96.846 41.4577 96.7892C41.604 96.7323 41.7312 96.6351 41.8244 96.5089ZM39.9994 93.7816C40.0395 93.7226 40.0888 93.6703 40.1454 93.6268L39.8534 93.4458C39.6139 93.7612 39.6139 94.1933 39.3716 94.5087C39.2999 94.5983 39.202 94.6634 39.0915 94.6948C38.9811 94.7262 38.8636 94.7224 38.7555 94.6839C38.5326 94.6139 38.2926 94.6222 38.0751 94.7072C38.0269 94.7289 37.9809 94.7553 37.9379 94.7861C37.9612 94.862 37.9875 94.9408 38.0109 95.0226C38.1157 94.9618 38.2343 94.9287 38.3554 94.9262C38.6007 94.9262 38.8314 95.0489 39.0825 95.0314C39.1656 95.0246 39.2465 95.0015 39.3207 94.9635C39.3949 94.9254 39.4608 94.873 39.5147 94.8094C39.7804 94.5174 39.7921 94.1057 39.9994 93.7816ZM43.6202 98.1616C43.8689 97.9396 44.0424 97.6457 44.1166 97.3206C44.1595 97.091 44.1878 96.8589 44.2013 96.6257L43.8917 96.3512C43.8246 96.7337 43.8625 97.1192 43.664 97.4812C43.5669 97.661 43.4183 97.8077 43.2372 97.9024C43.0561 97.9971 42.8509 98.0355 42.6478 98.0127C42.4893 97.993 42.3283 98.009 42.1768 98.0595C42.0252 98.11 41.8868 98.1938 41.7718 98.3047C41.5806 98.5588 41.4679 98.8633 41.4477 99.1807C41.3805 99.6362 41.3105 100.057 40.8871 100.314C40.8153 100.355 40.7401 100.39 40.6622 100.419C40.7381 100.515 40.8199 100.609 40.8987 100.711C41.0796 100.632 41.2402 100.513 41.3689 100.363C41.9149 99.715 41.4711 98.4273 42.6332 98.4273C42.9838 98.465 43.3359 98.3702 43.6202 98.1616ZM45.3722 98.4886C45.4391 98.3648 45.5216 98.25 45.6175 98.147C45.524 98.0302 45.4306 97.9105 45.3255 97.7966C45.0603 98.0837 44.8795 98.4383 44.8028 98.8215C44.75 99.2534 44.6046 99.6687 44.3765 100.039C44.0845 100.404 43.6406 100.366 43.2639 100.576C42.9449 100.758 42.6991 101.045 42.569 101.388C42.48 101.656 42.4213 101.933 42.3938 102.215L42.7383 102.507V102.457C42.8143 101.993 42.8668 101.52 43.2289 101.181C43.591 100.842 44.0494 100.889 44.4173 100.644C45.1444 100.138 45.0218 99.1836 45.378 98.4886H45.3722ZM46.7884 99.8523C46.6937 99.9261 46.6048 100.007 46.5227 100.095C45.9649 100.708 46.035 101.502 45.8306 102.253C45.7936 102.451 45.7116 102.637 45.5912 102.799C45.4707 102.96 45.3149 103.092 45.1357 103.184C44.8232 103.312 44.4728 103.184 44.2013 103.435C44.1917 103.444 44.1829 103.454 44.175 103.464C44.3356 103.558 44.4991 103.642 44.6626 103.727C44.7528 103.707 44.8448 103.697 44.9371 103.695C45.1133 103.691 45.2865 103.649 45.4452 103.572C45.7201 103.419 45.9382 103.182 46.0671 102.895C46.4059 102.194 46.254 101.339 46.6774 100.673C46.7729 100.519 46.8921 100.381 47.0307 100.264C46.9577 100.127 46.876 99.9895 46.7942 99.864L46.7884 99.8523Z" fill="#57AE8F"/>
<path opacity="0.2" d="M41.5966 94.5845C41.9032 97.2884 43.3486 104.568 48.955 104.694C48.955 104.694 47.8688 100.789 45.2729 97.7147C44.4349 96.719 43.0012 95.5627 41.5966 94.5845Z" fill="black"/>
<path d="M48.955 104.694C46.3854 104.32 44.1808 102.694 43.0479 97.8523C41.9149 93.0109 41.7397 90.8238 42.5194 90.342C43.4158 89.7901 46.9227 94.6695 48.0528 96.8157C50.8881 102.2 48.955 104.694 48.955 104.694Z" fill="#57AE8F"/>
<path opacity="0.2" d="M44.1867 95.7494C44.8262 95.948 45.6613 96.1641 46.1431 95.5304C46.3767 95.2209 46.4351 94.8033 46.6044 94.4763L46.2599 93.9799C45.9679 94.4384 45.9854 95.11 45.489 95.3728C45.1182 95.5684 44.6743 95.4399 44.3006 95.326C43.9236 95.183 43.5203 95.1223 43.118 95.1479C42.9005 95.1791 42.6912 95.2525 42.5018 95.364C42.531 95.5071 42.5632 95.656 42.5924 95.8049C42.6754 95.7587 42.7612 95.7178 42.8493 95.6823C43.2893 95.5479 43.7624 95.5717 44.1867 95.7494ZM43.4275 93.2412C43.6108 93.3391 43.8196 93.3788 44.0261 93.355C44.4144 93.2762 44.6101 92.8995 44.8174 92.5929C44.8754 92.5021 44.9418 92.417 45.016 92.3389L44.7736 92.0469L44.724 92.0965C44.4816 92.3885 44.2772 92.9929 43.8246 92.9988C43.6048 92.9621 43.3901 92.8994 43.1851 92.8119C43.0017 92.7784 42.8137 92.7784 42.6303 92.8119C42.4474 92.8428 42.2726 92.9104 42.1164 93.0105C42.1164 93.1214 42.1427 93.2382 42.1602 93.355C42.3696 93.2304 42.606 93.1582 42.8493 93.1448C43.0467 93.1359 43.2437 93.1687 43.4275 93.2412ZM46.2336 98.6198C46.4789 98.2606 46.657 97.8548 47.0191 97.5949C47.2107 97.4712 47.4252 97.387 47.6499 97.3474C47.8745 97.3078 48.1048 97.3135 48.3272 97.3642C48.2426 97.1832 48.1491 97.0021 48.0528 96.8182C47.7601 96.7758 47.4618 96.7947 47.1768 96.8736C46.7793 96.9964 46.4341 97.2482 46.1956 97.589C46.0106 97.9276 45.7904 98.2456 45.5386 98.538C45.016 99.0169 44.3093 98.5993 43.7224 98.4825C43.5543 98.4487 43.3827 98.4349 43.2114 98.4417C43.2552 98.611 43.3019 98.7775 43.3516 98.9381C43.5804 98.9365 43.808 98.971 44.0261 99.0403C44.8875 99.3118 45.6496 99.4724 46.2336 98.6198ZM49.1916 99.5717C49.1507 99.5863 49.1069 99.5922 49.0631 99.6097C48.7158 99.7417 48.4123 99.9683 48.1871 100.264C47.9389 100.585 47.8046 100.976 47.571 101.306C47.4728 101.479 47.3139 101.61 47.1251 101.672C46.9363 101.735 46.731 101.725 46.549 101.645C46.1914 101.495 45.7944 101.466 45.4189 101.563C45.1493 101.655 44.9045 101.808 44.7035 102.01C44.7882 102.141 44.8787 102.261 44.9692 102.381C45.13 102.236 45.3189 102.127 45.524 102.06C45.8194 101.988 46.131 102.026 46.4 102.168C46.7164 102.325 47.0811 102.356 47.4194 102.253C47.7576 102.151 48.0438 101.923 48.2192 101.616C48.4382 101.295 48.5667 100.912 48.8032 100.608C48.9458 100.433 49.1279 100.294 49.3346 100.202C49.3113 99.9864 49.2558 99.779 49.1916 99.5717Z" fill="white"/>
<path opacity="0.15" d="M48.044 96.8152C47.8396 96.4269 47.5564 95.9392 47.2264 95.4282C46.1139 98.8651 45.7664 103.879 48.9463 104.693C48.955 104.693 50.8881 102.2 48.044 96.8152Z" fill="black"/>
<path d="M50.2836 104.694C53.5511 104.872 56.6054 102.892 58.5852 100.398C60.5649 97.9046 62.1125 92.7508 61.6658 92.4355C61.219 92.1201 55.9455 95.3555 53.9657 97.7148C51.3699 100.79 50.2836 104.694 50.2836 104.694Z" fill="#57AE8F"/>
<path opacity="0.2" d="M50.2836 104.694C53.5511 104.872 56.6054 102.892 58.5852 100.398C60.5649 97.9046 62.1125 92.7508 61.6658 92.4355C61.219 92.1201 55.9455 95.3555 53.9657 97.7148C51.3699 100.79 50.2836 104.694 50.2836 104.694Z" fill="black"/>
<path d="M58.2319 96.8359C58.5823 96.8126 58.9239 96.649 59.2773 96.7045C59.7912 96.7863 59.6423 97.2885 59.689 97.6564C59.7161 97.8596 59.8001 98.0509 59.9313 98.2083C59.9926 98.0886 60.054 97.963 60.1124 97.8404C60.0423 97.7193 60.0022 97.5831 59.9956 97.4433C59.9956 97.1338 60.0686 96.798 59.8554 96.5322C59.4145 95.9891 58.6553 96.4797 58.1034 96.4067C57.5983 96.3366 57.6888 95.8665 57.7413 95.4898C57.7995 95.1914 57.7531 94.882 57.6099 94.6138L57.2391 94.8737C57.3575 95.0623 57.4051 95.2869 57.3734 95.5073C57.3296 95.8402 57.2216 96.211 57.4114 96.5176C57.5045 96.6423 57.6308 96.7383 57.7759 96.7946C57.921 96.8509 58.079 96.8652 58.2319 96.8359ZM59.7269 94.8094C59.7812 94.8734 59.8475 94.9259 59.9222 94.964C59.9969 95.0021 60.0784 95.025 60.162 95.0314C60.4102 95.0489 60.6409 94.9204 60.8862 94.9262C61.0074 94.9283 61.126 94.9615 61.2307 95.0226C61.257 94.9408 61.2804 94.862 61.3037 94.7861C61.2617 94.7553 61.2167 94.7289 61.1694 94.7072C60.9509 94.6222 60.7099 94.6139 60.4861 94.6839C60.3779 94.722 60.2606 94.7256 60.1502 94.6942C60.0399 94.6628 59.942 94.598 59.87 94.5087C59.6277 94.1933 59.6277 93.7612 59.3882 93.4458L59.0962 93.6268C59.1528 93.6703 59.2021 93.7226 59.2422 93.7816C59.4466 94.1057 59.4583 94.5174 59.724 94.8094H59.7269ZM56.6055 98.404C57.7735 98.404 57.3238 99.6917 57.8727 100.34C57.9998 100.49 58.1596 100.609 58.3399 100.687C58.4188 100.594 58.5005 100.501 58.5765 100.395C58.4986 100.367 58.4233 100.332 58.3516 100.29C57.9282 100.033 57.8581 99.6128 57.7939 99.1573C57.7712 98.84 57.6576 98.5359 57.4668 98.2813C57.3521 98.1701 57.2137 98.0861 57.0621 98.0355C56.9105 97.985 56.7494 97.9692 56.5908 97.9893C56.3874 98.0123 56.1817 97.974 56.0001 97.8794C55.8185 97.7847 55.6694 97.6379 55.5718 97.4579C55.3761 97.0958 55.4112 96.7104 55.344 96.3278L55.0345 96.6023C55.0479 96.8355 55.0762 97.0677 55.1192 97.2973C55.1956 97.6214 55.3687 97.9147 55.6156 98.1382C55.9007 98.3476 56.2539 98.4424 56.6055 98.404ZM54.798 100.632C55.1659 100.892 55.6419 100.842 55.9864 101.169C56.331 101.496 56.404 101.981 56.477 102.445V102.495L56.8215 102.203C56.7937 101.922 56.736 101.645 56.6493 101.377C56.518 101.033 56.2712 100.746 55.9514 100.565C55.5747 100.355 55.1221 100.392 54.8388 100.027C54.5556 99.6625 54.5147 99.2274 54.4125 98.8098C54.3371 98.4262 54.1561 98.0712 53.8898 97.7849C53.7935 97.8988 53.7 98.0185 53.5978 98.1353C53.6947 98.2376 53.7772 98.3525 53.8431 98.477C54.2169 99.1836 54.0943 100.138 54.798 100.635V100.632ZM52.2021 100.261C52.3408 100.379 52.461 100.516 52.5583 100.67C52.9788 101.336 52.8299 102.191 53.1686 102.892C53.2955 103.179 53.5129 103.417 53.7877 103.569C53.9464 103.646 54.1196 103.688 54.2957 103.692C54.3881 103.694 54.48 103.705 54.5702 103.724C54.7337 103.64 54.8972 103.555 55.0578 103.461C55.0499 103.451 55.0411 103.441 55.0316 103.432C54.7629 103.187 54.4096 103.31 54.0972 103.181C53.9179 103.089 53.7621 102.957 53.6416 102.796C53.5212 102.634 53.4393 102.448 53.4022 102.25C53.1978 101.499 53.2679 100.705 52.7102 100.092C52.6287 100.003 52.5398 99.9224 52.4445 99.8494C52.3627 99.9895 52.2809 100.127 52.2021 100.264V100.261Z" fill="#57AE8F"/>
<path opacity="0.2" d="M57.642 94.5845C57.3354 97.2884 55.89 104.568 50.2836 104.694C50.2836 104.694 51.3699 100.789 53.9657 97.7147C54.8067 96.719 56.2375 95.5627 57.642 94.5845Z" fill="black"/>
<path d="M50.2836 104.694C52.8532 104.32 55.0578 102.694 56.1937 97.8523C57.3296 93.0109 57.4989 90.8238 56.7193 90.342C55.8229 89.7901 52.316 94.6695 51.1859 96.8157C48.3535 102.2 50.2836 104.694 50.2836 104.694Z" fill="#57AE8F"/>
<path opacity="0.2" d="M56.3893 95.6822C56.4775 95.7177 56.5633 95.7587 56.6463 95.8049C56.6755 95.656 56.7076 95.5129 56.7368 95.364C56.5475 95.2524 56.3382 95.179 56.1207 95.1479C55.7232 95.124 55.3251 95.1847 54.9527 95.326C54.576 95.4399 54.1351 95.5684 53.7613 95.3727C53.2649 95.1099 53.2737 94.4383 52.9905 93.9799L52.6459 94.4763C52.8094 94.8033 52.8737 95.2209 53.1102 95.5304C53.5891 96.164 54.4242 95.948 55.0637 95.7494C55.4845 95.5744 55.953 95.5507 56.3893 95.6822ZM56.3893 93.1331C56.6327 93.1465 56.8691 93.2186 57.0785 93.3433C57.096 93.2265 57.1106 93.1097 57.1223 92.9988C56.9661 92.8987 56.7913 92.8311 56.6083 92.8002C56.4259 92.7666 56.2389 92.7666 56.0565 92.8002C55.8503 92.8873 55.6347 92.95 55.4141 92.9871C54.9615 92.9871 54.7571 92.3797 54.5147 92.0848L54.4651 92.0352L54.2227 92.3272C54.2977 92.4046 54.3642 92.4897 54.4213 92.5812C54.6198 92.8732 54.8242 93.2645 55.2126 93.3433C55.4191 93.3673 55.6279 93.3276 55.8112 93.2294C55.9961 93.162 56.193 93.1341 56.3893 93.1477V93.1331ZM55.2213 99.0402C55.4404 98.9707 55.669 98.9363 55.8988 98.938C55.9455 98.7774 55.9922 98.611 56.036 98.4416C55.8647 98.4349 55.6931 98.4486 55.525 98.4825C54.941 98.5993 54.2315 99.0169 53.7088 98.538C53.458 98.2449 53.2379 97.9269 53.0518 97.589C52.814 97.2475 52.4685 96.9956 52.0707 96.8736C51.7857 96.7945 51.4874 96.7756 51.1947 96.8181C51.0983 97.0021 51.0078 97.1831 50.9202 97.3642C51.1431 97.3136 51.3738 97.3079 51.5989 97.3475C51.8241 97.3871 52.039 97.4712 52.2313 97.5948C52.5933 97.8547 52.7685 98.2606 53.0138 98.6198C53.592 99.4724 54.3512 99.3118 55.2243 99.0402H55.2213ZM49.8777 100.191C50.0849 100.281 50.2672 100.421 50.4092 100.597C50.6574 100.889 50.7829 101.283 50.9932 101.604C51.168 101.911 51.4537 102.139 51.7915 102.241C52.1293 102.344 52.4935 102.313 52.8094 102.156C53.0787 102.015 53.39 101.976 53.6854 102.048C53.8897 102.115 54.0777 102.225 54.2373 102.369C54.3278 102.249 54.4183 102.13 54.5059 101.998C54.305 101.796 54.0602 101.643 53.7905 101.551C53.4151 101.454 53.018 101.483 52.6605 101.633C52.4779 101.713 52.2724 101.722 52.0833 101.66C51.8942 101.597 51.7347 101.467 51.6356 101.294C51.402 100.965 51.2706 100.573 51.0195 100.252C50.7942 99.9566 50.4908 99.73 50.1435 99.598C50.0997 99.5804 50.0588 99.5746 50.015 99.56C49.9829 99.779 49.9274 99.9863 49.8807 100.191H49.8777Z" fill="white"/>
<path opacity="0.15" d="M51.1859 96.8152C51.3903 96.4269 51.6735 95.9392 52.0035 95.4282C53.116 98.8651 53.4635 103.879 50.2836 104.693C50.2836 104.693 48.3535 102.2 51.1859 96.8152Z" fill="black"/>
<path d="M49.6208 105.228C51.7874 105.228 52.5087 102.276 52.2926 99.9019C52.0765 97.528 50.5727 93.0107 49.6208 93.0107C48.6689 93.0107 47.168 97.528 46.949 99.9019C46.73 102.276 47.46 105.228 49.6208 105.228Z" fill="#57AE8F"/>
<path opacity="0.3" d="M49.6208 105.228C51.7874 105.228 52.5087 102.276 52.2926 99.9019C52.0765 97.528 50.5727 93.0107 49.6208 93.0107C48.6689 93.0107 47.168 97.528 46.949 99.9019C46.73 102.276 47.46 105.228 49.6208 105.228Z" fill="white"/>
<path opacity="0.2" d="M49.6062 96.1C49.9257 95.986 50.2062 95.7834 50.415 95.516C50.6018 95.3411 50.8332 95.2209 51.0837 95.1686C51.0282 95.0284 50.9727 94.8912 50.9143 94.7598C50.5649 94.8628 50.2494 95.0574 50.0004 95.3233C49.8764 95.4683 49.7218 95.584 49.5478 95.662C49.285 95.7526 49.1244 95.6124 48.9638 95.4401C48.774 95.2303 48.5259 95.0819 48.2513 95.0138H48.2309C48.1842 95.1248 48.1403 95.2416 48.0965 95.3554C48.3885 95.411 48.6542 95.5607 48.8528 95.7818C48.9388 95.897 49.0539 95.9872 49.1863 96.0431C49.3187 96.0991 49.4637 96.1187 49.6062 96.1ZM47.9885 98.6959C48.7127 99.2624 49.3084 98.4594 49.7697 97.9805C50.1552 97.5805 50.564 97.5017 51.002 97.8696C51.2401 98.1161 51.5199 98.3187 51.8283 98.4682C51.9093 98.4951 51.9923 98.5156 52.0765 98.5295C52.0502 98.3922 52.021 98.2579 51.9889 98.1178C51.6581 97.9887 51.3593 97.7895 51.1129 97.5338C50.4676 97.0052 49.8865 97.2418 49.3755 97.8258C49.0835 98.1645 48.6046 98.7456 48.1199 98.3806C47.8279 98.1674 47.6994 97.7966 47.4016 97.598C47.3695 97.7177 47.3403 97.8345 47.314 97.9542C47.5768 98.1294 47.7199 98.4915 47.9885 98.6959ZM48.8003 101.295C49.2091 101.835 49.7201 101.969 50.2749 101.505C50.5087 101.242 50.7563 100.991 51.0165 100.755C51.4283 100.477 51.8926 100.623 52.3276 100.79C52.3276 100.658 52.3276 100.533 52.3276 100.404C52.1342 100.32 51.9326 100.257 51.7261 100.214C51.5656 100.182 51.4002 100.182 51.2397 100.215C51.0792 100.247 50.9269 100.312 50.7917 100.404C50.4851 100.623 50.2982 100.962 50.0004 101.193C49.8398 101.315 49.5857 101.47 49.3755 101.391C49.1653 101.312 48.9784 100.991 48.7915 100.807C48.5613 100.574 48.2714 100.408 47.9535 100.328C47.6065 100.241 47.2402 100.278 46.9169 100.43C46.9169 100.553 46.9169 100.676 46.9169 100.801C47.2399 100.653 47.6046 100.621 47.9483 100.712C48.292 100.803 48.5933 101.011 48.8003 101.301V101.295ZM50.8443 103.502C50.499 103.778 50.0608 103.909 49.6208 103.87C49.3903 103.856 49.1722 103.761 49.0047 103.602C48.885 103.479 48.7974 103.327 48.6747 103.204C48.4547 102.984 48.1686 102.841 47.86 102.799C47.6317 102.769 47.3997 102.789 47.1797 102.857C47.2176 102.991 47.2585 103.12 47.3052 103.245C47.4834 103.178 47.6757 103.156 47.8644 103.182C48.0532 103.208 48.2324 103.281 48.3856 103.394C48.6455 103.587 48.7681 103.905 49.0455 104.086C49.2996 104.24 49.5928 104.316 49.8894 104.305C50.2026 104.304 50.511 104.228 50.7888 104.083C51.1012 103.92 51.3232 103.637 51.6239 103.461C51.7042 103.416 51.7882 103.378 51.875 103.347C51.9368 103.187 51.9905 103.023 52.0356 102.857C51.9364 102.869 51.8386 102.89 51.7436 102.921C51.4158 103.064 51.1154 103.262 50.856 103.508L50.8443 103.502Z" fill="white"/>
<path d="M4.35498 123.478C4.37719 123.482 4.39992 123.482 4.42214 123.478L5.59014 122.982C5.61319 122.972 5.63351 122.957 5.6493 122.938C5.66509 122.918 5.67586 122.895 5.68066 122.871C5.68066 122.798 7.14066 115.594 4.56814 106.349C3.28042 101.631 0.00418091 97.236 -3.20782 95.9103C-4.7525 95.2708 -6.1979 95.3263 -7.50898 96.0592C-8.25066 96.4768 -8.67698 97.0229 -8.79962 97.6857C-9.12082 99.5195 -6.99798 101.978 -4.7525 104.58C-3.18154 106.402 -1.5405 108.282 -0.72582 110.008C-0.707558 110.046 -0.67518 110.074 -0.635777 110.088C-0.596373 110.102 -0.553154 110.099 -0.515581 110.081C-0.47934 110.062 -0.451619 110.03 -0.438059 109.992C-0.424499 109.953 -0.426116 109.911 -0.442581 109.874C-1.2923 108.122 -2.93042 106.212 -4.53058 104.375C-6.72642 101.829 -8.80254 99.426 -8.50762 97.7412C-8.40834 97.1572 -8.03458 96.7046 -7.37174 96.3308C-6.14826 95.6417 -4.79338 95.595 -3.34214 96.1994C-0.211902 97.4988 2.98842 101.8 4.26738 106.419C6.65886 115.066 5.53758 121.895 5.39158 122.713L4.28782 123.174C4.25972 123.191 4.23732 123.215 4.22366 123.245C4.21001 123.274 4.20576 123.307 4.21151 123.339C4.21726 123.371 4.23272 123.4 4.25578 123.423C4.27884 123.446 4.30839 123.461 4.34038 123.466L4.35498 123.478Z" fill="#57AE8F"/>
<path d="M4.19728 118.999C4.23859 118.997 4.27765 118.98 4.30605 118.95C4.33445 118.919 4.34992 118.879 4.34912 118.838C4.10093 107.45 -3.14359 99.0377 -5.17007 97.6769C-5.18695 97.6654 -5.20592 97.6574 -5.22591 97.6532C-5.2459 97.649 -5.26652 97.6488 -5.28658 97.6526C-5.3271 97.6603 -5.36292 97.6837 -5.38616 97.7178C-5.40939 97.7519 -5.41813 97.7938 -5.41047 97.8343C-5.4028 97.8748 -5.37935 97.9107 -5.34527 97.9339C-3.34799 99.2771 3.79141 107.57 4.03668 118.847C4.03706 118.868 4.04153 118.888 4.04984 118.907C4.05816 118.925 4.07014 118.942 4.0851 118.957C4.10005 118.971 4.11768 118.982 4.13694 118.989C4.1562 118.996 4.17672 119 4.19728 118.999Z" fill="#57AE8F"/>
<path d="M88.4948 122.894C88.4726 122.898 88.4498 122.898 88.4276 122.894L87.2596 122.398C87.2359 122.389 87.2148 122.374 87.1985 122.354C87.1821 122.335 87.171 122.312 87.1662 122.287C87.1516 122.214 85.7208 115.01 88.2787 105.765C89.581 101.058 92.8573 96.6725 96.0693 95.3381C97.6139 94.6986 99.0593 94.7541 100.37 95.487C101.112 95.9045 101.538 96.4506 101.661 97.1134C101.982 98.9472 99.8594 101.406 97.6139 104.008C96.043 105.83 94.4019 107.71 93.5873 109.436C93.5784 109.455 93.5659 109.472 93.5504 109.487C93.535 109.501 93.5168 109.512 93.497 109.519C93.4772 109.527 93.4562 109.53 93.4351 109.529C93.414 109.528 93.3933 109.523 93.3741 109.515C93.3549 109.506 93.3377 109.493 93.3233 109.478C93.309 109.462 93.2979 109.444 93.2905 109.424C93.2832 109.405 93.2799 109.384 93.2807 109.362C93.2815 109.341 93.2864 109.321 93.2953 109.302C94.1421 107.55 95.7802 105.64 97.3657 103.803C99.5616 101.257 101.638 98.8537 101.343 97.1689C101.243 96.5849 100.87 96.1323 100.207 95.7585C98.9834 95.0694 97.6285 95.0227 96.1773 95.6271C93.0471 96.9265 89.8467 101.228 88.5678 105.847C86.1763 114.493 87.2976 121.323 87.4436 122.141L88.5473 122.602C88.5667 122.609 88.5844 122.621 88.5993 122.635C88.6142 122.65 88.6259 122.667 88.6339 122.686C88.6418 122.705 88.6457 122.726 88.6454 122.746C88.6451 122.767 88.6405 122.788 88.632 122.807C88.6195 122.832 88.6001 122.854 88.5758 122.87C88.5516 122.885 88.5235 122.894 88.4948 122.894Z" fill="#57AE8F"/>
<path d="M88.6525 118.415C88.6111 118.413 88.5721 118.396 88.5437 118.366C88.5153 118.335 88.4998 118.296 88.5006 118.254C88.7517 106.866 95.9933 98.4537 98.0198 97.0929C98.0367 97.0814 98.0557 97.0734 98.0756 97.0692C98.0956 97.065 98.1163 97.0648 98.1363 97.0686C98.1564 97.0724 98.1755 97.0801 98.1926 97.0913C98.2097 97.1025 98.2244 97.1169 98.2359 97.1338C98.2474 97.1507 98.2555 97.1697 98.2596 97.1897C98.2638 97.2096 98.264 97.2303 98.2602 97.2503C98.2564 97.2704 98.2487 97.2895 98.2375 97.3066C98.2263 97.3237 98.2119 97.3384 98.195 97.3499C96.1977 98.6931 89.0613 106.986 88.8131 118.263C88.8127 118.284 88.8082 118.304 88.7999 118.323C88.7916 118.341 88.7796 118.358 88.7646 118.373C88.7497 118.387 88.7321 118.398 88.7128 118.405C88.6935 118.412 88.673 118.416 88.6525 118.415Z" fill="#57AE8F"/>
<path d="M95.932 127.356C95.3918 127.334 94.867 127.17 94.4107 126.88L74.8934 115.612C73.1852 114.625 71.5325 112.338 71.1295 110.405L59.5984 54.8667C59.581 54.7837 59.5801 54.6981 59.5957 54.6147C59.6114 54.5313 59.6433 54.4518 59.6897 54.3808C59.736 54.3098 59.7959 54.2486 59.8659 54.2007C59.936 54.1528 60.0147 54.1191 60.0978 54.1017C60.1808 54.0843 60.2664 54.0833 60.3498 54.099C60.4332 54.1146 60.5126 54.1465 60.5837 54.1929C60.6547 54.2393 60.7159 54.2992 60.7638 54.3692C60.8117 54.4392 60.8453 54.518 60.8628 54.601L72.3822 110.139C72.7063 111.702 74.1342 113.696 75.53 114.493L95.056 125.761C95.6049 126.077 95.9962 126.115 96.1422 126.013C96.2882 125.91 96.3758 125.525 96.2473 124.9L84.8593 69.4463C84.8249 69.2786 84.8584 69.1042 84.9526 68.9612C85.0468 68.8183 85.1939 68.7186 85.3616 68.6842C85.5293 68.6497 85.7037 68.6833 85.8467 68.7775C85.9896 68.8716 86.0893 69.0188 86.1237 69.1864L97.5117 124.64C97.8212 126.138 97.2606 126.798 96.8985 127.061C96.6152 127.258 96.2771 127.361 95.932 127.356Z" fill="#455A64"/>
<path d="M53.8168 118.552L82.6927 135.222L87.9429 44.2875L59.067 27.6172L53.8168 118.552Z" fill="#57AE8F"/>
<path opacity="0.45" d="M53.8168 118.552L82.6927 135.222L87.9429 44.2875L59.067 27.6172L53.8168 118.552Z" fill="white"/>
<path d="M89.2744 43.5195L87.9429 44.2875L82.6927 135.222L84.0272 134.451L89.2744 43.5195Z" fill="#57AE8F"/>
<path d="M54.9878 98.2637L83.8636 114.937L89.1138 24.0023L60.2379 7.33203L54.9878 98.2637Z" fill="#57AE8F"/>
<path d="M56.9909 97.1805L61.9987 10.585L87.1107 25.0857L82.1029 111.681L56.9909 97.1805Z" fill="#FAFAFA"/>
<path d="M90.4453 23.2314L89.1138 24.0023L83.8636 114.937L85.1981 114.166L90.4453 23.2314Z" fill="#57AE8F"/>
<path opacity="0.2" d="M90.4453 23.2314L89.1138 24.0023L83.8636 114.937L85.1981 114.166L90.4453 23.2314Z" fill="black"/>
<path d="M61.5723 6.56104L60.2379 7.33192L89.1138 24.0022L90.4453 23.2313L61.5723 6.56104Z" fill="#57AE8F"/>
<path opacity="0.2" d="M61.5723 6.56104L60.2379 7.33192L89.1138 24.0022L90.4453 23.2313L61.5723 6.56104Z" fill="white"/>
<g opacity="0.55">
<path d="M81.4021 70.6198C80.9728 80.5711 80.6692 85.065 80.7772 86.1746C80.8385 86.7966 81.2502 88.096 81.4517 89.3691C81.6532 90.6422 81.7204 92.8176 81.7204 92.8176L81.2794 100.41L80.8677 107.549C80.0868 107.814 79.2608 107.92 78.4383 107.861L75.1766 105.996L75.0014 105.893C74.4671 102.877 73.1881 95.6967 72.6654 93.1096C71.88 89.3311 70.3995 78.6293 70.3995 78.6293L68.23 86.3352C68.5393 88.6561 68.4544 91.0126 67.9788 93.3053C67.4328 95.7581 66.7729 98.6401 66.2648 100.848L60.6701 97.6152L60.4978 97.5159L59.3298 96.8414C59.2977 92.6804 59.2772 87.4244 59.2977 84.4489C59.2977 83.8649 59.3152 83.1991 59.3269 82.475L60.5182 61.851C60.708 60.099 60.9212 58.3967 61.1694 56.8315L78.0499 57.2841C79.8019 59.7661 81.7379 62.8321 81.4021 70.6198Z" fill="#37474F"/>
<path d="M61.768 65.0659C62.7345 67.2588 65.818 68.6342 67.1496 68.8619L69.652 78.5476L68.2154 86.3235L70.3849 78.6176L67.5642 67.072C67.5642 67.072 63.9171 67.0486 61.768 65.0659Z" fill="#263238"/>
<path d="M73.118 77.5604C72.7443 74.7047 72.3734 71.846 71.95 68.9932C72.1369 71.8694 72.3588 74.7426 72.6567 77.613C72.9545 80.4834 73.4743 86.7701 74.9197 94.7446C75.4307 97.58 76.2074 101.794 76.879 104.6C76.4293 101.753 75.8599 97.4953 75.3635 94.657C73.9006 86.2533 73.5006 80.4133 73.118 77.5604Z" fill="#263238"/>
<path d="M62.3082 69.7378L61.4497 77.2159C61.3154 78.4598 61.1577 79.7067 61.0497 80.9535C60.9417 82.2003 60.7898 83.4501 60.7577 84.6824C60.7256 85.9146 60.7314 87.1848 60.7285 88.4345V92.1984C60.7285 93.9991 60.711 95.7998 60.6759 97.6004L60.5037 97.5012C60.4044 95.7375 60.3275 93.9718 60.273 92.2043C60.197 89.6931 60.1357 87.1936 60.1795 84.6619C60.3197 82.1303 60.6642 79.6483 61.0176 77.1546C61.3709 74.6609 61.7943 72.1964 62.3082 69.7378Z" fill="#263238"/>
<path d="M68.5015 38.9901L67.0795 46.1354C67.0795 46.1354 66.9539 46.2376 66.7379 46.4274L66.0721 46.9734C64.9742 47.8698 63.1755 49.3357 61.6687 50.5212C61.5227 50.6351 61.2833 50.8132 61.1461 50.9212L61.2629 48.8772L61.5286 44.2928L61.7534 40.3917C62.5598 39.5573 63.6004 38.9871 64.7377 38.7565C65.9845 38.5434 66.9773 38.9726 68.5015 38.9901Z" fill="#E0E0E0"/>
<path d="M61.6512 58.0548C60.8599 57.1438 61.149 55.7188 61.7476 54.4077C61.8761 52.3637 61.8498 50.4395 61.8498 50.4395L77.3842 53.2894C76.8323 55.4735 76.9228 55.1085 78.0528 57.2693C74.6598 61.6493 63.1609 60.3879 61.6512 58.0548Z" fill="#B16668"/>
<path d="M79.8253 47.4612C79.5567 48.0452 79.2793 48.6817 79.0048 49.3592C78.8588 49.7183 78.7128 50.0892 78.5785 50.46C78.5171 50.6264 78.4529 50.7958 78.3945 50.9593C77.92 52.2281 77.5355 53.5288 77.244 54.8517C77.1819 54.894 77.1176 54.933 77.0513 54.9685C77.0017 55.0006 76.9433 55.0298 76.8907 55.059C73.2261 56.9979 63.8529 56.5453 61.7622 54.0837C61.7271 54.0428 61.695 54.002 61.6658 53.9611C61.5403 53.3566 61.5578 51.7623 61.6658 50.5038C61.695 50.1651 61.7271 49.8526 61.768 49.5898C61.6425 49.3913 61.3767 49.0964 61.2599 48.8628L61.5257 44.2784C62.1097 43.4024 63.2426 42.4972 64.7581 41.3146C65.9296 40.4198 67.183 39.6377 68.5015 38.9786L70.4813 38.9085L72.2771 38.8442L75.9505 39.2472C75.9505 39.2472 76.3155 39.3757 77.5798 39.8925C77.9536 40.0473 78.3916 40.2137 78.815 40.3948C79.1841 40.5456 79.5422 40.7222 79.8866 40.9233C80.5874 41.3554 81.04 44.8565 79.8253 47.4612Z" fill="#455A64"/>
<path d="M65.6779 49.9785C66.5743 51.2808 70.2565 53.2956 73.1911 51.3305C72.2275 53.9351 66.2561 53.4095 65.6779 49.9785Z" fill="#37474F"/>
<path d="M67.4299 28.4988C67.1711 28.7243 66.8465 28.8605 66.5043 28.8871C66.1597 28.9134 65.7626 28.8375 65.5027 29.0682C65.4327 29.1301 65.3804 29.2094 65.3511 29.2981C65.3218 29.3868 65.3165 29.4817 65.3358 29.5731C65.3551 29.6645 65.3983 29.7491 65.4609 29.8184C65.5236 29.8877 65.6035 29.9392 65.6925 29.9675C65.4962 29.9531 65.3075 29.8857 65.1466 29.7725C64.9857 29.6592 64.8586 29.5043 64.7788 29.3244C64.699 29.1445 64.6696 28.9463 64.6938 28.751C64.7179 28.5557 64.7946 28.3706 64.9158 28.2155C65.0865 28.048 65.2483 27.8715 65.4005 27.687C65.4642 27.5843 65.5048 27.4689 65.5195 27.3489C65.5341 27.2288 65.5224 27.1071 65.4852 26.992C65.3684 26.6416 65.126 26.4723 64.9888 26.116C64.8738 25.8526 64.8276 25.5642 64.8545 25.278C64.9071 24.9329 65.0513 24.6082 65.272 24.3378C65.7655 23.7684 66.8079 23.5464 67.5233 23.491C67.4007 23.0121 67.462 22.1682 68.4986 21.4966C68.9187 21.2476 69.401 21.1234 69.8892 21.1384C70.3773 21.1534 70.8511 21.307 71.2551 21.5813C71.2879 21.2795 71.4061 20.9933 71.5959 20.7564C71.7858 20.5195 72.0393 20.3417 72.3267 20.2439C72.9061 20.0567 73.5264 20.0365 74.1167 20.1855C75.0745 20.3753 76.0994 20.8805 76.3739 21.8178C76.9202 21.6852 77.493 21.7106 78.0255 21.8911C78.558 22.0715 79.0282 22.3995 79.3815 22.8369C79.7123 23.2932 79.8949 23.8403 79.9043 24.4039C79.9137 24.9676 79.7495 25.5204 79.434 25.9876C81.3641 27.1964 81.3933 29.7281 80.7305 31.4538C80.1611 32.943 79.0603 33.4978 77.7667 34.8468C77.5214 35.1067 76.3067 36.2864 76.2512 36.6426L67.4299 28.4988Z" fill="#263238"/>
<path d="M70.7412 24.2852C74.8292 23.5143 78.8354 27.103 78.7829 31.7808C79.3669 28.9893 78.9493 27.3161 77.5331 25.7773C75.2613 23.307 72.1428 23.3917 70.7412 24.2852Z" fill="#57AE8F"/>
<path d="M68.776 25.9087C68.776 25.9087 67.2664 27.0767 66.8955 31.7487C66.6269 35.1096 67.1875 36.4207 68.1716 37.0047C68.7556 37.3668 69.5382 37.5391 70.5923 37.6208L70.4755 39.0954C70.4755 39.0954 66.7904 42.3074 69.4739 42.9498C70.9018 43.2885 72.3939 42.7133 73.7167 42.0738C74.6069 41.5816 75.3536 40.8661 75.8833 39.9977L76.3125 35.9564C76.3125 35.9564 77.1886 36.7945 78.377 35.9564C79.4457 35.2089 79.7873 33.7839 79.2033 32.8641C78.6193 31.9443 77.4893 32.029 76.7272 32.9985C76.7272 32.9985 75.6088 33.2642 75.9008 31.8305C75.9008 31.8305 75.0978 31.4129 74.8263 29.9266C74.6861 29.1674 75.5446 27.7425 75.0102 27.138C74.178 26.4372 72.4728 27.3307 70.9222 27.2139C70.1192 27.173 69.3308 26.081 68.776 25.9087Z" fill="#B16668"/>
<path d="M71.7953 33.6323L70.236 34.4032C70.2819 34.5103 70.3491 34.6069 70.4336 34.6872C70.518 34.7675 70.6179 34.8297 70.7272 34.8702C70.8365 34.9106 70.9528 34.9284 71.0692 34.9224C71.1855 34.9164 71.2995 34.8868 71.404 34.8354C71.6108 34.723 71.7665 34.5356 71.8393 34.3118C71.9121 34.088 71.8964 33.8448 71.7953 33.6323Z" fill="#9A4A4D"/>
<path d="M71.6785 34.0876C71.482 34.0996 71.2982 34.189 71.1674 34.3362C71.0366 34.4834 70.9694 34.6764 70.9806 34.873C70.9806 34.873 70.9806 34.9022 70.9806 34.9168C71.1176 34.921 71.2536 34.893 71.3777 34.8351C71.5161 34.7671 71.634 34.6637 71.7196 34.5356C71.8052 34.4074 71.8555 34.2589 71.8654 34.1051C71.8039 34.0922 71.7413 34.0863 71.6785 34.0876Z" fill="#F28F8F"/>
<path d="M67.9993 29.2873L69.1673 28.9281C69.1472 28.8522 69.1119 28.781 69.0637 28.719C69.0154 28.657 68.9551 28.6053 68.8864 28.5671C68.8177 28.529 68.742 28.5051 68.6638 28.4969C68.5856 28.4886 68.5066 28.4963 68.4315 28.5193C68.2739 28.5663 68.1407 28.6726 68.06 28.8159C67.9794 28.9592 67.9576 29.1282 67.9993 29.2873Z" fill="#263238"/>
<path d="M72.5107 28.928L73.7021 29.8945C73.7691 29.8202 73.8202 29.733 73.8524 29.6382C73.8846 29.5435 73.8971 29.4431 73.8892 29.3434C73.8813 29.2436 73.8531 29.1465 73.8063 29.058C73.7596 28.9695 73.6953 28.8915 73.6174 28.8287C73.4557 28.6994 73.2503 28.6375 73.0441 28.656C72.8379 28.6745 72.6468 28.772 72.5107 28.928Z" fill="#263238"/>
<path d="M70.8288 29.9473L69.9966 33.3987L68.2796 32.3066L70.8288 29.9473Z" fill="#9A4A4D"/>
<path d="M70.5835 37.6324C73.3487 37.6324 74.7357 37.101 75.3431 36.187C75.3431 36.187 74.9752 37.4193 74.0379 37.8105C72.9195 38.2289 71.7258 38.408 70.5339 38.3361L70.5835 37.6324Z" fill="#9A4A4D"/>
<path d="M68.9687 30.3177C68.965 30.4616 68.9058 30.5984 68.8035 30.6997C68.7012 30.8009 68.5637 30.8586 68.4198 30.8608C68.3497 30.8624 68.28 30.8499 68.2148 30.8239C68.1496 30.798 68.0904 30.7592 68.0405 30.7099C67.9907 30.6606 67.9512 30.6017 67.9246 30.5369C67.8979 30.472 67.8846 30.4024 67.8854 30.3323C67.8892 30.1879 67.9488 30.0507 68.0518 29.9494C68.1547 29.8481 68.2929 29.7907 68.4373 29.7892C68.5073 29.7876 68.5769 29.8002 68.6419 29.8261C68.7069 29.8521 68.7659 29.8909 68.8156 29.9403C68.8652 29.9896 68.9043 30.0485 68.9307 30.1134C68.957 30.1782 68.9699 30.2477 68.9687 30.3177Z" fill="#263238"/>
<path d="M72.9137 31.3516C72.8757 31.6436 72.6538 31.1384 72.3005 31.0216C71.9471 30.9048 71.4975 31.1939 71.6347 30.9223C71.7071 30.7855 71.8291 30.6815 71.9756 30.6316C72.1221 30.5816 72.2822 30.5896 72.4231 30.6537C72.5748 30.6921 72.7078 30.7836 72.7978 30.9117C72.8878 31.0397 72.9289 31.1958 72.9137 31.3516Z" fill="#263238"/>
<path d="M71.7865 30.493C71.8237 30.4335 71.8761 30.3851 71.9384 30.3529C72.0325 30.2871 72.1387 30.2405 72.2508 30.2156C72.3459 30.1896 72.4443 30.1778 72.5428 30.1806C72.6776 30.1922 72.8058 30.2441 72.9107 30.3295C72.9689 30.3774 73.0209 30.4323 73.0655 30.493C73.0943 30.5228 73.1168 30.558 73.1319 30.5966C73.1469 30.6352 73.1541 30.6765 73.1531 30.7179C73.1531 30.7179 73.1531 30.7383 73.1327 30.7179C73.1122 30.6974 73.0918 30.7179 73.0684 30.6974C73.0427 30.6766 73.0183 30.6542 72.9954 30.6303C72.9543 30.5966 72.9092 30.5682 72.8611 30.5456C72.7527 30.4896 72.6349 30.4539 72.5136 30.4405C72.3396 30.4175 72.1627 30.4397 71.9997 30.5047C71.953 30.5251 71.8187 30.6157 71.7749 30.5631C71.7705 30.555 71.7682 30.546 71.7682 30.5368C71.7682 30.5277 71.7705 30.5186 71.7749 30.5105L71.7865 30.493Z" fill="#9A4A4D"/>
<path d="M76.3855 36.882C76.3636 37.1695 76.4193 37.4576 76.5468 37.7162C76.6743 37.9748 76.869 38.1943 77.1104 38.3519C77.3519 38.5095 77.6313 38.5993 77.9193 38.6119C78.2073 38.6246 78.4935 38.5595 78.7478 38.4237C79.0021 38.2879 79.2153 38.0862 79.3649 37.8397C79.5146 37.5933 79.5953 37.3112 79.5986 37.0229C79.6019 36.7346 79.5276 36.4507 79.3836 36.2009C79.2396 35.9511 79.0311 35.7446 78.7799 35.603C78.711 35.6792 78.6369 35.7504 78.558 35.8162C78.7737 35.9194 78.9572 36.0796 79.0886 36.2794C79.22 36.4792 79.2944 36.7111 79.3037 36.9501C79.3131 37.1891 79.257 37.4261 79.1416 37.6356C79.0261 37.845 78.8557 38.019 78.6487 38.1388C78.4417 38.2585 78.206 38.3195 77.9668 38.3152C77.7277 38.3108 77.4943 38.2413 77.2918 38.1141C77.0893 37.9869 76.9253 37.8068 76.8176 37.5933C76.7099 37.3798 76.6624 37.1409 76.6805 36.9024C76.6973 36.6767 76.7728 36.4593 76.8995 36.2717C77.0343 36.0633 77.2272 35.8989 77.4543 35.7987C77.4719 35.791 77.4879 35.78 77.5013 35.7662C77.5147 35.7523 77.5253 35.736 77.5323 35.7181C77.5394 35.7002 77.5428 35.6811 77.5424 35.6618C77.5421 35.6426 77.5379 35.6236 77.5302 35.6059C77.5142 35.57 77.4847 35.5419 77.448 35.5277C77.4114 35.5134 77.3706 35.5143 77.3345 35.53C77.0685 35.648 76.8397 35.8362 76.6725 36.0744C76.5053 36.3125 76.4061 36.5917 76.3855 36.882Z" fill="#57AE8F"/>
<path d="M75.3635 49.2513C74.6248 48.5388 73.3195 47.3066 72.7122 47.3737C72.1048 47.4409 70.9397 47.6657 70.9397 47.6657L75.3635 49.2513Z" fill="#9A4A4D"/>
<path d="M76.2541 49.7799C73.4393 48.1418 73.8335 48.1301 71.9121 47.6366C69.9907 47.1432 68.5804 46.8512 67.5087 46.5854C66.4371 46.3197 66.0487 46.238 66.0225 46.7081C65.9962 47.1782 66.6736 47.6366 67.4825 47.9929L69.6637 48.9652C69.6637 48.9652 69.0797 49.5814 68.7381 49.9785C68.649 50.0659 68.5813 50.1726 68.54 50.2903C68.4987 50.408 68.485 50.5336 68.5 50.6575C68.5149 50.7814 68.5581 50.9001 68.6262 51.0047C68.6943 51.1092 68.7856 51.1967 68.8928 51.2604C68.6008 51.6779 68.5599 52.3904 69.0943 52.5919C69.141 53.3482 69.3863 53.5234 69.8185 53.6314C70.23 53.7624 70.67 53.7756 71.0887 53.6694C71.3279 53.5648 71.5567 53.4377 71.7719 53.2898C72.4114 53.8387 73.4422 54.7498 75.019 54.3964C75.9242 54.1599 78.6544 56.2127 78.6544 56.2127C80.3188 55.5469 80.4064 53.8446 79.8224 51.7188C79.8078 51.7188 77.5039 50.5158 76.2541 49.7799Z" fill="#B16668"/>
<path d="M69.0447 48.5181C69.4622 48.6349 69.7338 48.5385 70.1805 48.7605C70.0828 48.7536 69.9848 48.7683 69.8934 48.8036C69.8021 48.839 69.7197 48.894 69.652 48.9649L67.7102 48.0889C67.7102 48.0889 68.6242 48.4013 69.0447 48.5181Z" fill="#9A4A4D"/>
<path d="M68.8811 51.2601C69.0002 50.9247 69.1749 50.6117 69.398 50.3344C69.5087 50.1921 69.6361 50.0637 69.7776 49.9519C69.8452 49.8879 69.9259 49.8393 70.0141 49.8095C70.1024 49.7798 70.196 49.7696 70.2886 49.7796C70.2052 49.7984 70.1292 49.841 70.0696 49.9023C70.0076 49.9569 69.9491 50.0155 69.8944 50.0775C69.7834 50.204 69.6754 50.3354 69.5703 50.4717C69.3584 50.7495 69.1282 51.0129 68.8811 51.2601Z" fill="#9A4A4D"/>
<path d="M69.0826 52.5918C69.0933 52.4099 69.1506 52.234 69.2491 52.0808C69.3332 51.9246 69.431 51.7761 69.5411 51.6369C69.653 51.4987 69.7761 51.3698 69.909 51.2515C70.0394 51.1213 70.1969 51.0216 70.3703 50.9595C70.2504 51.0849 70.1382 51.2175 70.0345 51.3566L69.7104 51.7625L69.3805 52.1625C69.2675 52.2956 69.1678 52.4394 69.0826 52.5918Z" fill="#9A4A4D"/>
<path d="M71.7603 53.2897C71.6266 53.2169 71.4987 53.1339 71.3777 53.0415C71.2779 52.9583 71.1563 52.9056 71.0273 52.8896C70.9676 52.8883 70.9082 52.8982 70.8521 52.9188C70.785 52.9422 70.7149 52.9743 70.6448 52.9977C70.5007 53.0506 70.3522 53.0906 70.201 53.1174C70.3164 53.0153 70.4404 52.9234 70.5718 52.8429C70.6361 52.802 70.7032 52.767 70.7733 52.7261C70.8569 52.6892 70.9476 52.6712 71.039 52.6735C71.1261 52.6818 71.2106 52.7072 71.2878 52.7483C71.365 52.7894 71.4332 52.8454 71.4887 52.913C71.592 53.0288 71.683 53.155 71.7603 53.2897Z" fill="#9A4A4D"/>
<path d="M70.82 52.2676C70.8442 52.3408 70.8888 52.4056 70.9485 52.4545C70.9981 52.4983 71.0624 52.545 71.1266 52.5946C71.266 52.6976 71.3782 52.8329 71.4537 52.9888C71.2834 52.9513 71.1244 52.8743 70.9894 52.764C70.92 52.7076 70.8625 52.6382 70.82 52.5596C70.7944 52.5152 70.7809 52.4648 70.7809 52.4136C70.7809 52.3623 70.7944 52.312 70.82 52.2676Z" fill="#9A4A4D"/>
<path d="M84.544 43.8377L84.0768 52.0342L84.0301 52.881L83.6826 58.8816C82.8073 58.6988 81.9538 58.4237 81.1364 58.0611C78.7653 57.0741 77.9594 56.6332 77.5827 56.1835C77.3654 55.9286 77.2463 55.6045 77.247 55.2695L77.4309 55.3951H77.4455L77.6528 55.5265C77.6937 55.5265 79.2471 55.5119 79.2793 53.3015C79.2997 51.6896 78.4938 51.0443 78.4033 50.9655L78.3682 50.945L78.2543 50.8808L78.05 50.7727H78.0266L77.7871 50.6443L77.7492 50.6238C77.7492 50.6238 77.8426 50.2588 78.5872 50.472L78.7303 50.5187C79.0919 50.6352 79.4467 50.7717 79.7932 50.9275L79.3464 50.0281L78.996 49.3624L78.5872 48.5506C78.5872 48.5506 76.4527 44.4013 78.8091 40.4097C79.9012 40.7688 82.8972 39.8257 84.2199 43.0377C84.328 43.2508 84.436 43.5253 84.544 43.8377Z" fill="#E0E0E0"/>
<path opacity="0.1" d="M84.0768 52.0339L84.0301 52.8807C82.7161 51.8733 81.5306 51.5141 79.7873 50.9213L79.3406 50.022C79.3406 50.022 80.5086 50.3373 81.5131 50.6936C82.4201 51.0319 83.2813 51.4821 84.0768 52.0339Z" fill="black"/>
</g>
<g opacity="0.1">
<path d="M59.1867 59.2114L58.9765 62.8263L86.5208 35.282L86.7311 31.667L59.1867 59.2114Z" fill="#57AE8F"/>
<path d="M61.5402 18.4804L61.3329 22.0954L68.8723 14.5559L66.7145 13.3091L61.5402 18.4804Z" fill="#57AE8F"/>
<path d="M77.7199 19.663L72.3355 16.5532L60.9971 27.8916L60.4744 36.9056L77.7199 19.663Z" fill="#57AE8F"/>
<path d="M86.2259 40.3774L58.6816 67.9218L58.3078 74.3984L85.8522 46.8569L86.2259 40.3774Z" fill="#57AE8F"/>
<path d="M83.2096 92.5668L83.7293 83.5498L65.3012 101.981L70.6857 105.091L83.2096 92.5668Z" fill="#57AE8F"/>
<path d="M84.0943 77.2658L84.3016 73.6479L59.3853 98.5643L61.5461 99.8112L84.0943 77.2658Z" fill="#57AE8F"/>
<path d="M85.4258 54.2097L85.6361 50.5918L58.0917 78.1362L57.8815 81.7511L85.4258 54.2097Z" fill="#57AE8F"/>
</g>
<path d="M27.9778 114.549C27.7266 114.242 27.4989 114.085 27.3675 113.007C27.1748 111.463 27.35 107.953 27.5427 99.5898L20.0967 101.377C20.0967 101.377 21.4107 107.199 21.9392 109.845C22.1524 110.914 22.4006 112.33 22.3947 112.525C22.413 112.622 22.4228 112.719 22.4239 112.817C22.3538 114.412 24.4329 115.153 25.7878 116.278C26.9343 117.271 28.1654 118.162 29.467 118.941C30.4656 119.504 32.5359 119.65 32.822 119.005C31.1752 117.627 29.2655 116.105 27.9778 114.549Z" fill="#B16668"/>
<path d="M8.79335 55.416C6.85447 58.044 4.70535 61.256 4.83091 69.6043C5.00319 80.2652 5.19883 85.0803 5.04991 86.2658C4.90099 87.4513 4.24691 87.4922 3.63371 93.3556C3.10519 98.3984 3.75635 108.446 3.75635 108.446C3.75635 108.446 4.45423 109.322 6.69972 109.515C9.09412 109.719 10.3702 108.96 10.3702 108.96C10.3702 108.96 12.7062 97.4231 13.5442 93.8987C14.4874 89.8808 16.3795 78.4723 16.3795 78.4723L18.4819 86.7827C18.0834 89.2545 18.1061 91.776 18.5491 94.2403C19.539 99.327 20.9318 106.128 20.9318 106.128C21.9457 106.412 22.9984 106.533 24.0504 106.487C26.8098 106.376 27.4755 104.872 27.4755 104.872C27.4755 104.872 27.9748 90.8561 28.0858 85.0161C28.2055 78.814 28.1208 64.9673 26.8798 55.416H8.79335Z" fill="#37474F"/>
<path d="M19.72 66.2053L16.3708 78.4694L18.4732 86.7797L17.1592 78.4168L20.1259 68.1325C21.5567 67.9252 24.8972 66.5411 25.9951 64.2256C23.6357 66.2842 19.72 66.2053 19.72 66.2053Z" fill="#263238"/>
<path d="M10.5862 95.4844C9.97303 98.5066 9.24303 103.044 8.67947 106.078C9.47955 103.097 10.4315 98.6088 11.0593 95.5925C12.8317 87.1011 13.5763 80.388 13.9793 77.3279C14.3822 74.2677 14.7005 71.1959 14.9838 68.127C14.4611 71.1667 13.9822 74.2151 13.5033 77.2578C13.0244 80.3004 12.42 86.5434 10.5862 95.4844Z" fill="#263238"/>
<path d="M26.3046 81.2433C26.401 82.5806 26.5119 83.9209 26.5236 85.2437C26.5353 86.5664 26.4827 87.9184 26.4477 89.2587L26.3455 93.2854C26.2754 95.9679 26.2355 98.6543 26.2258 101.345C26.4749 98.6659 26.6764 95.9854 26.8302 93.3029C26.9821 90.6194 27.1222 87.9447 27.1456 85.2378C27.0696 82.5222 26.7718 79.8592 26.4652 77.1845C26.1586 74.5097 25.7615 71.8526 25.2972 69.207L25.998 77.2341C26.0914 78.5715 26.2112 79.9059 26.3046 81.2433Z" fill="#263238"/>
<path d="M50.8092 41.2507C50.5377 40.7046 50.196 41.0579 50.0121 41.0171C50.0121 41.0171 50.8005 40.7893 50.3362 39.8491C50.0442 39.2651 49.3989 39.7731 49.4456 39.6797C49.466 39.6388 50.5844 38.903 51.7816 38.0737C52.9145 37.2882 52.6576 37.005 52.5262 36.8064C52.3948 36.6079 52.2721 36.2954 51.3582 36.8064C50.4442 37.3174 48.044 38.6635 47.46 38.9731C46.876 39.2826 46.5314 39.3819 46.7709 38.6402C47.0103 37.8985 47.2089 37.2882 47.1008 36.7042C46.9169 35.7289 46.2978 35.7027 46.0876 36.2224C45.7956 36.9583 45.2875 37.7145 44.686 38.8504C44.3735 39.4344 44.102 40.0184 43.8655 40.3893C43.3311 41.2069 42.4055 41.6419 40.8111 42.0858C39.4492 42.5212 38.0615 42.8713 36.656 43.1341C33.9433 43.6947 31.4 47.6542 32.7052 49.3128C33.4557 50.2705 35.4646 50.8049 38.1715 49.6048C40.4666 48.5945 42.4668 46.8249 43.3778 46.3636C44.2889 45.9022 44.7444 45.5518 45.5795 45.5752C46.7125 45.6073 47.4191 45.3124 48.3769 44.8218C48.8353 44.5853 49.6938 44.1619 50.3216 43.7765C50.9494 43.391 51.2355 43.0114 51.072 42.5647C50.8501 41.9573 50.4092 42.3573 50.3975 42.2727C50.3858 42.188 51.1917 42.0274 50.8092 41.2507Z" fill="#B16668"/>
<path d="M48.3769 43.6537C48.3769 43.3442 48.7681 43.0493 48.7681 43.0493C48.5967 43.132 48.4029 43.1566 48.2163 43.1193C48.0772 43.072 47.9583 42.979 47.8788 42.8554C47.7992 42.7319 47.7638 42.5852 47.7783 42.439C47.8337 42.1879 48.1987 41.9864 48.1987 41.9864C48.0267 42.0156 47.8501 42.0016 47.6848 41.9455C47.6165 41.9178 47.5544 41.8767 47.5025 41.8244C47.4505 41.7721 47.4096 41.7099 47.3823 41.6414C47.355 41.5729 47.3419 41.4996 47.3437 41.4259C47.3455 41.3522 47.3622 41.2796 47.3928 41.2126C47.4921 40.8651 48.3039 40.3658 49.0835 39.9395C48.7305 40.0204 48.3904 40.1502 48.0732 40.3249C47.7161 40.4682 47.4058 40.7077 47.1767 41.0169C47.1564 40.653 47.046 40.2998 46.8555 39.9891C47.0745 40.979 46.4584 42.8653 45.5065 43.7588C45.9086 43.5815 46.2633 43.312 46.5418 42.9721C46.8203 42.6322 47.0148 42.2315 47.1096 41.8024C47.1621 41.9097 47.2462 41.9982 47.3507 42.0562C47.4551 42.1142 47.5748 42.1387 47.6936 42.1265C47.5981 42.2377 47.5409 42.3766 47.5303 42.5228C47.5198 42.6689 47.5566 42.8146 47.6352 42.9383C47.6852 43.0601 47.7701 43.1644 47.8792 43.2382C47.9883 43.312 48.1167 43.3519 48.2484 43.3529C48.2484 43.3529 48.0148 43.5427 48.225 43.9136C48.4353 44.2844 48.809 44.2727 49.1769 44.08C49.0969 44.1138 49.0104 44.1292 48.9236 44.1253C48.8369 44.1214 48.7521 44.0981 48.6754 44.0573C48.5988 44.0164 48.5322 43.959 48.4806 43.8892C48.4289 43.8194 48.3935 43.7389 48.3769 43.6537Z" fill="#9A4A4D"/>
<path d="M19.536 36.1349C21.1712 36.1641 22.2458 35.7232 23.5744 35.9802C25.5074 36.351 25.9483 37.0869 27.5105 38.7425C29.4903 40.842 32.4045 43.8087 32.4045 43.8087C32.4045 43.8087 35.1025 43.032 37.3217 42.4159C39.5409 41.7997 41.2871 41.0843 41.4944 41.8727L40.452 42.1823C40.452 42.1823 39.211 43.0583 39.6402 45.4293C39.9994 47.4149 41.6025 47.5521 41.6025 47.5521L42.6069 46.8747C42.6886 47.198 42.6627 47.5391 42.5331 47.8463C42.4034 48.1535 42.1772 48.41 41.8886 48.5771C40.8579 49.1932 34.9828 51.1321 33.0702 51.6752C31.1576 52.2183 30.6495 51.8562 28.5501 50.2707C26.4506 48.6851 20.8529 43.7999 20.8529 43.7999L19.536 36.1349Z" fill="#E0E0E0"/>
<path opacity="0.1" d="M32.4045 43.8C31.0437 44.2234 29.721 45.7418 29.6392 46.9098C29.026 44.5738 31.8789 43.2656 31.8789 43.2656L32.4045 43.8Z" fill="black"/>
<path d="M26.3221 56.7298C27.1981 55.7779 26.9236 54.2595 26.3221 52.8257C26.2403 50.6503 26.3221 48.5771 26.3221 48.5771L9.61679 51.1818C10.1453 53.5178 10.0606 53.1382 8.78751 55.4158C12.3003 60.2017 24.6373 59.1826 26.3221 56.7298Z" fill="#B16668"/>
<path d="M26.4156 52.3497C26.6083 51.535 26.6024 49.0092 26.4389 47.6777C27.1514 46.5973 27.9398 45.0497 27.2361 43.2656C26.6024 41.6479 25.7761 40.6376 23.4751 38.7396C22.2474 37.7513 20.9284 36.8821 19.536 36.1437L15.5035 35.8955L11.5615 36.2079C11.5615 36.2079 11.1673 36.3335 9.80951 36.8503C8.9511 37.1378 8.11393 37.4852 7.30415 37.8899C6.54787 38.3162 5.95511 42.0509 7.18735 44.8716C8.22395 47.2426 9.39195 50.7758 9.73359 52.8519C13.3252 55.3135 24.2548 55.1325 26.4156 52.3497Z" fill="#455A64"/>
<path d="M22.2458 47.9727C21.2501 49.348 17.2526 51.392 14.172 49.202C15.1239 52.0169 21.5275 51.6285 22.2458 47.9727Z" fill="#37474F"/>
<path d="M20.9844 24.9427C21.2556 25.1917 21.5994 25.3472 21.9655 25.3865C22.3334 25.4216 22.7597 25.3544 23.0313 25.6084C23.1043 25.6769 23.1579 25.7635 23.1866 25.8594C23.2153 25.9553 23.2181 26.0571 23.1947 26.1545C23.1712 26.2518 23.1224 26.3412 23.0532 26.4135C22.984 26.4858 22.8968 26.5385 22.8006 26.5662C23.0115 26.5551 23.2155 26.4869 23.3908 26.3691C23.5661 26.2512 23.7061 26.088 23.796 25.8968C23.8859 25.7057 23.9223 25.4937 23.9012 25.2835C23.8802 25.0734 23.8026 24.8728 23.6766 24.7032C23.5218 24.4959 23.3028 24.3441 23.1714 24.1192C23.1055 24.008 23.065 23.8835 23.0529 23.7548C23.0408 23.6261 23.0574 23.4962 23.1014 23.3746C23.2386 23.0009 23.5014 22.8286 23.6561 22.4636C23.7882 22.1852 23.8465 21.8775 23.8255 21.5701C23.7828 21.1991 23.6417 20.8462 23.4167 20.5481C22.9057 19.9261 21.799 19.6721 21.0311 19.5786C21.18 19.0706 21.1362 18.1654 20.05 17.4178C19.6089 17.1369 19.0968 16.9877 18.5739 16.9877C18.051 16.9877 17.5389 17.1369 17.0978 17.4178C17.0708 17.0942 16.9521 16.7849 16.7556 16.5263C16.559 16.2677 16.2928 16.0705 15.9882 15.9578C15.3741 15.7406 14.7112 15.7011 14.0756 15.844C13.0449 16.0192 11.9324 16.5302 11.6141 17.5259C11.0336 17.3676 10.42 17.3777 9.84508 17.555C9.27012 17.7324 8.75748 18.0697 8.36703 18.5274C7.99744 19.0052 7.78378 19.5851 7.75505 20.1884C7.72632 20.7918 7.88391 21.3893 8.20643 21.9C6.10695 23.141 6.00475 25.8479 6.66175 27.7108C7.24575 29.3198 8.39039 29.9446 9.73651 31.428C9.99347 31.72 11.2695 33.0106 11.3075 33.3902L20.9844 24.9427Z" fill="#263238"/>
<path d="M17.565 20.341C13.185 19.3978 8.82547 23.1237 8.74663 28.1286C8.20643 25.1269 8.69699 23.3457 10.2563 21.7397C12.7587 19.1642 16.0933 19.3423 17.565 20.341Z" fill="#57AE8F"/>
<path d="M19.6295 22.1338C19.6295 22.1338 21.2121 23.4215 21.4749 28.441C21.6647 32.0443 21.0369 33.405 19.9594 34.0357C19.317 34.4065 18.479 34.5671 17.3519 34.6197L17.4336 36.1994C17.4336 36.1994 21.2822 39.7443 18.3943 40.3517C16.8584 40.6729 15.2816 40.0129 13.8829 39.2771C12.9438 38.7254 12.1648 37.9384 11.6228 36.9937L11.2812 32.6575C11.2812 32.6575 10.3117 33.5335 9.06781 32.6078C7.94945 31.7785 7.60781 30.2426 8.27649 29.2761C8.94517 28.3096 10.1307 28.4322 10.9191 29.4893C10.9191 29.4893 12.1105 29.8075 11.8389 28.2804C11.8389 28.2804 12.7149 27.857 13.0419 26.2743C13.2113 25.4655 12.3353 23.9179 12.9251 23.2872C13.8362 22.5601 15.6349 23.5792 17.3051 23.4857C18.1461 23.4478 19.025 22.3031 19.6295 22.1338Z" fill="#B16668"/>
<path d="M16.1693 30.3096L17.8278 31.1856C17.7756 31.2976 17.7012 31.3979 17.6092 31.4804C17.5171 31.5629 17.4094 31.626 17.2924 31.6658C17.1754 31.7056 17.0515 31.7214 16.9283 31.7121C16.805 31.7028 16.6849 31.6688 16.5751 31.6119C16.3512 31.4904 16.1835 31.2864 16.1078 31.0431C16.032 30.7999 16.054 30.5368 16.1693 30.3096Z" fill="#9A4A4D"/>
<path d="M16.2802 30.8003C16.3858 30.809 16.4885 30.8388 16.5824 30.8878C16.6762 30.9368 16.7593 31.0042 16.8268 31.0858C16.8943 31.1674 16.9448 31.2617 16.9752 31.3631C17.0057 31.4645 17.0156 31.571 17.0044 31.6763C17.0058 31.6909 17.0058 31.7055 17.0044 31.7201C16.858 31.7242 16.713 31.69 16.5839 31.6208C16.4392 31.5432 16.317 31.4296 16.229 31.291C16.141 31.1524 16.0903 30.9934 16.0817 30.8295C16.1464 30.8116 16.2131 30.8018 16.2802 30.8003Z" fill="#F28F8F"/>
<path d="M20.3536 25.7688L19.136 25.3542C19.1592 25.2733 19.1986 25.198 19.2517 25.1328C19.3049 25.0676 19.3707 25.0139 19.4452 24.9748C19.5197 24.9358 19.6014 24.9123 19.6853 24.9057C19.7691 24.8991 19.8535 24.9097 19.9331 24.9366C20.0965 24.9951 20.2311 25.114 20.3093 25.2689C20.3876 25.4237 20.4034 25.6026 20.3536 25.7688Z" fill="#263238"/>
<path d="M15.5385 25.255L14.2362 26.2565C14.1665 26.1751 14.1142 26.0803 14.0823 25.978C14.0505 25.8757 14.0398 25.7679 14.051 25.6614C14.0622 25.5548 14.0951 25.4516 14.1475 25.3581C14.1999 25.2647 14.2708 25.1829 14.3559 25.1177C14.5341 24.9874 14.7549 24.9291 14.9741 24.9546C15.1934 24.98 15.395 25.0873 15.5385 25.255Z" fill="#263238"/>
<path d="M17.3081 26.394L18.1023 30.1141L19.9682 28.9958L17.3081 26.394Z" fill="#9A4A4D"/>
<path d="M17.3519 34.6253C14.391 34.5581 12.9222 33.9362 12.3003 32.9434C12.3003 32.9434 12.6594 34.269 13.6493 34.7158C14.8347 35.1972 16.1083 35.4231 17.3869 35.3786L17.3519 34.6253Z" fill="#9A4A4D"/>
<path d="M19.2878 26.8466C19.2878 27.0015 19.3494 27.15 19.4589 27.2595C19.5684 27.3691 19.717 27.4306 19.8718 27.4306C19.9467 27.4337 20.0214 27.4218 20.0915 27.3956C20.1617 27.3694 20.2259 27.3294 20.2803 27.2779C20.3348 27.2265 20.3783 27.1646 20.4085 27.0961C20.4386 27.0275 20.4547 26.9536 20.4558 26.8787C20.4558 26.7238 20.3943 26.5753 20.2848 26.4658C20.1753 26.3562 20.0267 26.2947 19.8718 26.2947C19.7968 26.2908 19.7218 26.3021 19.6512 26.328C19.5807 26.3539 19.5162 26.3939 19.4616 26.4455C19.407 26.4971 19.3634 26.5593 19.3335 26.6282C19.3037 26.6972 19.2881 26.7715 19.2878 26.8466Z" fill="#263238"/>
<path d="M15.048 27.8363C15.0801 28.1575 15.34 27.6173 15.7167 27.5005C16.0934 27.3837 16.5693 27.7078 16.4321 27.4158C16.3577 27.2676 16.2297 27.1532 16.0741 27.0957C15.9185 27.0382 15.7469 27.042 15.594 27.1063C15.4309 27.1428 15.2862 27.2365 15.1861 27.3704C15.086 27.5042 15.037 27.6695 15.048 27.8363Z" fill="#263238"/>
<path d="M16.2686 26.9515C16.2299 26.8874 16.1756 26.8342 16.1109 26.7967C16.0107 26.7257 15.8991 26.6723 15.7809 26.639C15.6783 26.6101 15.5722 26.5954 15.4656 26.5952C15.3212 26.6039 15.1829 26.6558 15.0684 26.7441C15.004 26.793 14.9461 26.8499 14.8962 26.9135C14.8339 26.9778 14.7984 27.0634 14.7969 27.1529C14.7969 27.1675 14.7969 27.1734 14.8173 27.1675C14.8378 27.1617 14.8611 27.1675 14.8874 27.15C14.915 27.1282 14.9413 27.1048 14.9662 27.0799C15.0124 27.0452 15.0624 27.0158 15.1152 26.9923C15.2328 26.9367 15.3593 26.9021 15.4889 26.8901C15.6761 26.871 15.8651 26.9001 16.0379 26.9748C16.0846 26.9953 16.2248 27.0975 16.2773 27.0449C16.2817 27.0363 16.2839 27.0268 16.2839 27.0172C16.2839 27.0075 16.2817 26.998 16.2773 26.9894C16.2761 26.9764 16.2732 26.9637 16.2686 26.9515Z" fill="#9A4A4D"/>
<path d="M11.1644 33.6533C11.1804 33.9618 11.1132 34.2689 10.9697 34.5425C10.8263 34.8161 10.6119 35.0461 10.3491 35.2084C10.0862 35.3707 9.78455 35.4594 9.47568 35.4651C9.16682 35.4708 8.8621 35.3933 8.59344 35.2408C8.32479 35.0883 8.10208 34.8664 7.94864 34.5983C7.7952 34.3302 7.71668 34.0257 7.72129 33.7168C7.72591 33.4079 7.81349 33.106 7.97487 32.8426C8.13625 32.5791 8.36549 32.364 8.63859 32.2196C8.71126 32.3025 8.78929 32.3805 8.87218 32.4532C8.63785 32.5572 8.43639 32.7233 8.28957 32.9335C8.14274 33.1437 8.05613 33.3901 8.03908 33.6459C8.02203 33.9017 8.0752 34.1574 8.19283 34.3852C8.31047 34.613 8.48811 34.8044 8.70656 34.9386C8.92502 35.0729 9.176 35.1449 9.43239 35.1469C9.68879 35.1489 9.94086 35.0808 10.1614 34.95C10.3819 34.8192 10.5625 34.6306 10.6837 34.4047C10.8049 34.1787 10.8621 33.924 10.849 33.6679C10.835 33.415 10.754 33.1704 10.6145 32.959C10.4749 32.7477 10.2818 32.5771 10.0548 32.4648C10.0358 32.4567 10.0187 32.4447 10.0045 32.4297C9.99025 32.4147 9.97925 32.397 9.97214 32.3775C9.96503 32.3581 9.96196 32.3375 9.96312 32.3168C9.96428 32.2962 9.96963 32.276 9.97887 32.2575C9.98765 32.2387 10.0001 32.2218 10.0154 32.2078C10.0307 32.1938 10.0487 32.1829 10.0682 32.1759C10.0877 32.1688 10.1085 32.1657 10.1292 32.1667C10.15 32.1677 10.1703 32.1727 10.1891 32.1816C10.4674 32.3154 10.7048 32.5215 10.8763 32.7783C11.0478 33.0351 11.1473 33.3332 11.1644 33.6416V33.6533Z" fill="#57AE8F"/>
<path d="M11.9031 46.9185C12.7149 46.1769 14.1369 44.895 14.7939 44.9855C15.4509 45.076 16.6803 45.3417 16.6803 45.3417L11.9031 46.9185Z" fill="#9A4A4D"/>
<path d="M10.9366 47.4559C13.9939 45.7857 13.5646 45.7594 15.6407 45.2863C17.7169 44.8133 19.2294 44.5447 20.3828 44.2906C21.5362 44.0366 21.9538 43.9607 21.9713 44.4658C21.9888 44.971 21.2471 45.4382 20.3828 45.7973C19.5185 46.1565 18.0205 46.7755 18.0205 46.7755C18.0205 46.7755 18.625 47.4501 18.9841 47.8851C19.076 47.9817 19.1445 48.0979 19.1846 48.225C19.2248 48.352 19.2354 48.4866 19.2157 48.6183C19.196 48.7501 19.1465 48.8756 19.0709 48.9854C18.9954 49.0952 18.8958 49.1862 18.7797 49.2517C19.0717 49.7072 19.1039 50.4693 18.5257 50.6737C18.4556 51.4797 18.1753 51.6607 17.7227 51.76C17.278 51.887 16.8067 51.887 16.362 51.76C16.1093 51.6398 15.8679 51.4971 15.6407 51.3337C14.9429 51.9001 13.8128 52.8491 12.1367 52.4228C11.1761 52.1454 8.19767 54.2595 8.19767 54.2595C6.44567 53.5003 6.40479 51.6782 7.08223 49.4211C7.07931 49.4298 9.57591 48.2005 10.9366 47.4559Z" fill="#B16668"/>
<path d="M18.6863 46.3141C18.2337 46.4279 17.9446 46.3141 17.4628 46.5418C17.5673 46.5369 17.6716 46.5552 17.7681 46.5957C17.8645 46.6361 17.9508 46.6975 18.0205 46.7754L20.1259 45.8994C20.1259 45.8994 19.136 46.2031 18.6863 46.3141Z" fill="#9A4A4D"/>
<path d="M18.7798 49.2518C18.5276 48.9736 18.2916 48.6812 18.0731 48.3758C17.9651 48.2269 17.8512 48.0838 17.7344 47.9466C17.6784 47.8775 17.6169 47.813 17.5504 47.7539C17.4861 47.6889 17.4054 47.6425 17.3168 47.6195C17.4158 47.6133 17.5149 47.6283 17.6076 47.6636C17.7003 47.6988 17.7843 47.7535 17.8541 47.8239C18.0009 47.9477 18.1332 48.0878 18.2483 48.2415C18.4783 48.5477 18.6577 48.8888 18.7798 49.2518Z" fill="#9A4A4D"/>
<path d="M18.5257 50.6738C18.4393 50.5094 18.3355 50.3547 18.2162 50.2124L17.8745 49.7744L17.5387 49.3306C17.4309 49.1796 17.3129 49.0362 17.1854 48.9014C17.3671 48.97 17.5316 49.0777 17.6672 49.2167C17.9457 49.4787 18.1795 49.7845 18.3593 50.1219C18.46 50.2891 18.5172 50.4788 18.5257 50.6738Z" fill="#9A4A4D"/>
<path d="M15.632 51.3426C15.72 51.2017 15.8228 51.0705 15.9386 50.9513C16.0627 50.8109 16.2365 50.724 16.4233 50.709C16.5242 50.7089 16.6238 50.7308 16.7153 50.7732C16.7883 50.817 16.8584 50.8579 16.9255 50.9046C17.0653 50.9902 17.1972 51.0879 17.3197 51.1966C17.1592 51.1612 17.002 51.1123 16.8496 51.0506C16.7737 51.0243 16.7007 50.9864 16.6306 50.9572C16.5693 50.9329 16.5038 50.921 16.4379 50.9221C16.2992 50.9364 16.1675 50.9901 16.0583 51.0769C15.9221 51.1747 15.7797 51.2634 15.632 51.3426Z" fill="#9A4A4D"/>
<path d="M16.6803 50.271C16.7059 50.3154 16.7194 50.3657 16.7194 50.417C16.7194 50.4683 16.7059 50.5186 16.6803 50.563C16.6298 50.648 16.5622 50.7216 16.4817 50.7791C16.3344 50.8926 16.1639 50.9723 15.9824 51.0127C16.0703 50.8505 16.1954 50.7114 16.3474 50.6068C16.4175 50.5542 16.4876 50.5075 16.543 50.4608C16.6054 50.4114 16.6529 50.3457 16.6803 50.271Z" fill="#9A4A4D"/>
<path d="M8.46339 37.3555C7.29539 37.7175 4.08339 36.6196 2.59127 40.001C1.50211 42.4538 -1.22517 50.0516 -1.91429 54.2681C-2.22381 56.1457 -0.974052 57.0246 0.0275077 57.083C1.91091 57.194 3.16651 57.0684 5.47039 56.1778C8.03707 55.1879 8.91599 54.7411 9.32771 54.2681C9.57168 54 9.70972 53.6523 9.71607 53.2899L9.25763 53.5819C9.25763 53.5819 7.55527 53.5498 7.58739 51.1495C7.61367 49.3129 8.61231 48.6734 8.61231 48.6734L9.32187 48.3142C9.32187 48.3142 9.21967 47.8733 8.27067 48.177C7.87917 48.2866 7.49574 48.4232 7.12311 48.5858L8.46339 46.0804C8.46339 46.0804 10.8665 41.6946 8.46339 37.3555Z" fill="#E0E0E0"/>
<path opacity="0.1" d="M7.12311 48.5769C5.20467 49.1609 3.91111 49.523 2.45111 50.6209C1.20135 51.5466 0.588152 52.262 -0.00460815 53.6052C0.0800719 52.5598 0.655313 51.386 1.72111 50.2793C2.45111 49.5201 4.20603 48.6383 5.29519 48.2879C6.38435 47.9375 7.63119 47.6338 7.63119 47.6338L7.12311 48.5769Z" fill="black"/>
<path d="M44.5663 29.1417C43.2356 30.3514 41.4938 31.0082 39.6957 30.9784L38.884 30.92C37.1176 30.6932 35.5014 29.8094 34.3573 28.4447C33.2132 27.0799 32.6251 25.3343 32.7101 23.5554C32.7952 21.7765 33.5472 20.095 34.8163 18.8456C36.0854 17.5962 37.7785 16.8707 39.5585 16.8135L40.3702 16.8339C41.7481 16.944 43.0637 17.4547 44.1549 18.3033C45.2461 19.1518 46.0652 20.3011 46.5112 21.6095C46.9573 22.9178 47.0108 24.3281 46.6652 25.6665C46.3196 27.0049 45.59 28.2129 44.5663 29.1417Z" fill="white"/>
<path d="M45.4802 18.7115C44.1793 17.2925 42.3936 16.413 40.4757 16.2466C38.5578 16.0802 36.6473 16.639 35.1214 17.8128C33.5956 18.9865 32.5653 20.6898 32.2342 22.5862C31.9031 24.4826 32.2952 26.4342 33.333 28.0555L32.276 30.1959C32.2358 30.2765 32.2209 30.3674 32.2333 30.4566C32.2457 30.5459 32.2848 30.6293 32.3454 30.6959C32.406 30.7625 32.4854 30.8093 32.573 30.83C32.6607 30.8507 32.7526 30.8444 32.8366 30.812L35.0646 29.936C36.5836 31.1218 38.4924 31.6942 40.4132 31.5399C42.3341 31.3857 44.127 30.516 45.4373 29.1029C46.7475 27.6899 47.4796 25.8364 47.4886 23.9094C47.4977 21.9824 46.783 20.1222 45.4861 18.6969L45.4802 18.7115ZM44.575 29.133C43.2472 30.3465 41.5059 31.0066 39.7074 30.9785L38.8985 30.923C37.1296 30.7019 35.509 29.8221 34.3601 28.4589C33.2112 27.0957 32.6186 25.3495 32.7004 23.5686C32.7822 21.7878 33.5325 20.1032 34.8015 18.8511C36.0705 17.599 37.765 16.8715 39.5468 16.8135L40.3585 16.834C41.7369 16.9408 43.0539 17.4488 44.147 18.2952C45.2401 19.1417 46.0614 20.2897 46.5098 21.5974C46.9581 22.9052 47.0138 24.3157 46.67 25.6548C46.3262 26.9938 45.5979 28.203 44.575 29.133Z" fill="#455A64"/>
<path d="M39.7833 27.3928C35.8325 25.27 35.523 23.0128 36.6764 21.9061C37.7101 20.9192 39.5964 21.5791 39.7979 22.9953C40.0111 21.582 41.9003 20.9338 42.9281 21.9295C44.0728 23.0391 43.7457 25.2992 39.7833 27.3928Z" fill="#57AE8F"/>
<path d="M93.3945 52.0521C94.9801 51.7601 96.2211 53.2551 95.894 55.3225C96.9452 53.5121 98.8578 53.1267 99.8974 54.3647C100.937 55.6028 99.3864 59.2032 94.0749 60.4383C90.7344 56.1284 91.806 52.3558 93.3945 52.0521Z" fill="#57AE8F"/>
<path d="M93.8471 42.6466C94.837 41.9341 96.1685 42.5707 96.6007 44.092C96.7467 42.5152 97.9351 41.645 99.0418 42.1619C100.148 42.6787 100.233 45.6425 96.9978 48.18C93.3215 46.2878 92.8543 43.3591 93.8471 42.6466Z" fill="#57AE8F"/>
<path opacity="0.3" d="M93.8471 42.6466C94.837 41.9341 96.1685 42.5707 96.6007 44.092C96.7467 42.5152 97.9351 41.645 99.0418 42.1619C100.148 42.6787 100.233 45.6425 96.9978 48.18C93.3215 46.2878 92.8543 43.3591 93.8471 42.6466Z" fill="white"/>
<path d="M105.06 48.4017C106.056 48.4514 106.584 49.5376 106.085 50.7377C106.981 49.8033 108.187 49.8617 108.631 50.7377C109.075 51.6137 107.621 53.5731 104.251 53.5409C102.867 50.4633 104.061 48.3521 105.06 48.4017Z" fill="#57AE8F"/>
<path opacity="0.6" d="M105.06 48.4017C106.056 48.4514 106.584 49.5376 106.085 50.7377C106.981 49.8033 108.187 49.8617 108.631 50.7377C109.075 51.6137 107.621 53.5731 104.251 53.5409C102.867 50.4633 104.061 48.3521 105.06 48.4017Z" fill="white"/>
</g>
<defs>
<clipPath id="clip0_1825_5004">
<rect width="112" height="101" fill="white" transform="translate(-2)"/>
</clipPath>
</defs>
</svg>
