<svg width="375" height="479" viewBox="0 0 375 479" fill="none" xmlns="http://www.w3.org/2000/svg">
<g filter="url(#filter0_d_5813_1488)">
<circle cx="188" cy="151" r="267" fill="white"/>
</g>
<path d="M93.7257 244.465C41.6564 274.516 41.6564 323.259 93.7257 353.323C145.795 383.387 230.211 383.387 282.281 353.323C334.35 323.259 334.344 274.522 282.281 244.465C230.218 214.408 145.789 214.401 93.7257 244.465Z" fill="#FAFAFA"/>
<path d="M53.6068 140.409C53.6068 123.396 64.8131 103.139 78.608 95.164C85.922 90.941 92.5046 91.0046 97.052 94.528C102.776 96.8876 106.388 103.432 106.388 113.125V193.197L56.3353 222.091L53.6068 220.456V140.409Z" fill="#E6E6E6"/>
<path d="M56.3861 222.091V142.012C56.3861 125.005 67.5924 104.742 81.4127 96.7667C95.233 88.7913 106.439 96.1307 106.439 113.118V193.197L56.3861 222.091Z" fill="#F5F5F5"/>
<path d="M59.121 142.012V217.346L103.698 191.607V113.125C103.698 104.621 100.709 98.7511 95.6782 96.9067C94.5096 96.4765 93.2729 96.261 92.0276 96.2707C89.1783 96.2707 86.0746 97.2311 82.7802 99.1327C69.7358 106.669 59.121 125.902 59.121 142.012Z" fill="#E0E0E0"/>
<path d="M103.698 191.607L100.874 189.979L59.1273 214.09V217.346L103.698 191.607Z" fill="#EBEBEB"/>
<path d="M59.121 142.012V214.096L100.868 189.979V111.484C100.868 104.704 98.96 99.6161 95.6782 96.9067C94.5096 96.4765 93.2729 96.261 92.0276 96.2707C89.1783 96.2707 86.0746 97.2311 82.7802 99.1327C69.7358 106.669 59.121 125.902 59.121 142.012Z" fill="white"/>
<path d="M80.0453 205.268L82.7801 203.685V98.1469H80.0453V205.268Z" fill="#F5F5F5"/>
<path d="M77.3359 103.095V203.691L80.0771 205.268V100.888C79.1104 101.581 78.2009 102.306 77.3359 103.095Z" fill="#E0E0E0"/>
<path d="M103.698 166.103L82.7802 178.181V181.393L103.698 169.315V166.103Z" fill="#F5F5F5"/>
<path d="M100.874 164.475L103.698 166.104L82.7802 178.181V174.969L100.874 164.475Z" fill="#EBEBEB"/>
<path d="M80.0454 179.758L59.1273 191.836V195.048L80.0454 182.97V179.758Z" fill="#F5F5F5"/>
<path d="M77.2152 178.13L80.0454 179.758L59.1273 191.836V188.624L77.2152 178.13Z" fill="#EBEBEB"/>
<path d="M103.698 119.218L82.7802 131.295V134.507L103.698 122.429V119.218Z" fill="#F5F5F5"/>
<path d="M100.874 117.589L103.698 119.218L82.7802 131.295V128.083L100.874 117.589Z" fill="#EBEBEB"/>
<path d="M80.0454 132.872L59.1273 144.95V148.162L80.0454 136.084V132.872Z" fill="#F5F5F5"/>
<path d="M77.2152 131.244L80.0454 132.872L59.1273 144.95V141.738L77.2152 131.244Z" fill="#EBEBEB"/>
<path d="M263.811 161.899L281.727 151.558L328.899 178.76V180.731L310.983 191.073L263.811 163.865V161.899Z" fill="#EBEBEB"/>
<path d="M310.983 189.108L263.811 161.899L281.727 151.558L328.899 178.76L310.983 189.108Z" fill="#FAFAFA"/>
<path d="M310.983 189.107V191.073L328.899 180.731V178.76L310.983 189.107Z" fill="#E6E6E6"/>
<path d="M276.334 134.507L265.827 140.581V160.57L276.334 154.503V134.507Z" fill="#EBEBEB"/>
<path d="M266.164 140.911L276.34 135.073C276.963 135.732 277.777 136.177 278.668 136.345L268.581 142.158C267.724 141.852 266.911 141.432 266.164 140.911Z" fill="white"/>
<path d="M269.554 142.12C269.252 142.273 268.917 142.354 268.578 142.354C268.239 142.354 267.904 142.273 267.602 142.12L265.884 141.14C265.768 141.099 265.668 141.022 265.597 140.922C265.526 140.821 265.488 140.701 265.488 140.578C265.488 140.454 265.526 140.334 265.597 140.233C265.668 140.133 265.768 140.056 265.884 140.015L275.914 134.291L276.334 134.532L266.476 140.256C266.406 140.28 266.345 140.326 266.301 140.386C266.258 140.447 266.235 140.519 266.235 140.593C266.235 140.668 266.258 140.74 266.301 140.801C266.345 140.861 266.406 140.906 266.476 140.93L268.072 141.834C268.254 141.925 268.454 141.972 268.657 141.972C268.861 141.972 269.061 141.925 269.243 141.834L279.101 136.148L279.578 136.428L269.554 142.12Z" fill="#FAFAFA"/>
<path d="M279.584 136.37V156.36L269.561 162.116C269.258 162.269 268.924 162.349 268.584 162.349C268.245 162.349 267.911 162.269 267.608 162.116L265.891 161.13C265.78 161.081 265.685 161.003 265.615 160.904C265.544 160.806 265.501 160.691 265.49 160.57V140.574C265.501 140.696 265.543 140.812 265.614 140.912C265.684 141.011 265.78 141.09 265.891 141.14L267.608 142.12C267.911 142.273 268.245 142.353 268.584 142.353C268.924 142.353 269.258 142.273 269.561 142.12L279.584 136.37Z" fill="#E0E0E0"/>
<path d="M268.575 142.355C268.235 142.363 267.9 142.281 267.602 142.12L265.884 141.14C265.773 141.09 265.678 141.011 265.607 140.912C265.537 140.812 265.494 140.696 265.484 140.574V160.57C265.495 160.691 265.538 160.806 265.608 160.904C265.679 161.003 265.774 161.081 265.884 161.13L267.602 162.116C267.902 162.272 268.236 162.351 268.575 162.345V142.355Z" fill="#F0F0F0"/>
<path d="M280.741 137.534L270.235 143.608L273.497 164.202L284.011 158.134L280.741 137.534Z" fill="#EBEBEB"/>
<path d="M270.68 143.894L280.856 138.056C281.651 138.637 282.586 138.999 283.565 139.105L273.478 144.918C272.51 144.682 271.572 144.338 270.68 143.894Z" fill="white"/>
<path d="M274.496 144.836C274.167 144.993 273.811 145.083 273.447 145.099C273.083 145.115 272.719 145.058 272.378 144.931L270.381 144.136C269.745 143.875 269.675 143.417 270.216 143.106L280.245 137.382L280.741 137.585L270.883 143.277C270.559 143.468 270.604 143.742 270.985 143.913L272.842 144.664C273.048 144.738 273.266 144.772 273.484 144.762C273.702 144.752 273.916 144.699 274.114 144.607L283.966 138.921L284.532 139.15L274.496 144.836Z" fill="#FAFAFA"/>
<path d="M284.532 139.08L287.795 159.68L277.765 165.436C277.436 165.592 277.079 165.68 276.716 165.697C276.352 165.713 275.989 165.657 275.647 165.531L273.644 164.717C273.332 164.583 273.154 164.405 273.129 164.221L269.859 143.621C269.891 143.805 270.069 143.99 270.381 144.117L272.384 144.937C272.726 145.061 273.089 145.117 273.453 145.1C273.816 145.084 274.173 144.996 274.502 144.842L284.532 139.08Z" fill="#E0E0E0"/>
<path d="M273.478 145.096C273.107 145.121 272.734 145.067 272.384 144.937L270.381 144.136C270.069 144.009 269.891 143.824 269.859 143.64L273.129 164.24C273.129 164.424 273.332 164.602 273.644 164.736L275.647 165.55C275.996 165.682 276.369 165.738 276.741 165.715L273.478 145.096Z" fill="#F0F0F0"/>
<path opacity="0.05" d="M284.576 163.852C282.109 165.283 282.109 167.598 284.576 169.023C285.964 169.728 287.498 170.096 289.054 170.096C290.61 170.096 292.144 169.728 293.531 169.023C296.005 167.598 296.005 165.283 293.531 163.852C292.143 163.149 290.61 162.783 289.054 162.783C287.498 162.783 285.964 163.149 284.576 163.852Z" fill="#1E1E1E"/>
<path d="M293.08 167.471C295.236 165.27 296.502 159.781 294.403 158.039H283.712C281.613 159.781 282.878 165.27 285.028 167.464L285.085 167.528L285.162 167.598C285.224 167.658 285.29 167.716 285.359 167.77C285.373 167.788 285.39 167.803 285.41 167.814L285.569 167.935C285.664 167.999 285.753 168.062 285.849 168.113C286.843 168.618 287.942 168.881 289.057 168.881C290.172 168.881 291.272 168.618 292.266 168.113C292.361 168.062 292.45 167.999 292.546 167.935L292.698 167.821L292.762 167.77L292.946 167.604L293.035 167.522L293.08 167.471Z" fill="#F5F5F5"/>
<path d="M284.672 157.206C282.236 158.611 282.236 160.894 284.672 162.294C286.041 162.987 287.554 163.348 289.089 163.348C290.624 163.348 292.137 162.987 293.506 162.294C295.942 160.882 295.942 158.599 293.506 157.206C292.137 156.513 290.624 156.152 289.089 156.152C287.554 156.152 286.041 156.513 284.672 157.206Z" fill="white"/>
<path d="M286.37 158.204C284.888 159.063 284.888 160.449 286.37 161.308C287.203 161.728 288.124 161.947 289.057 161.947C289.991 161.947 290.911 161.728 291.744 161.308C293.226 160.449 293.226 159.063 291.744 158.204C290.912 157.781 289.991 157.56 289.057 157.56C288.123 157.56 287.203 157.781 286.37 158.204Z" fill="#EBEBEB"/>
<path d="M291.744 159.673C290.911 159.253 289.991 159.034 289.057 159.034C288.124 159.034 287.203 159.253 286.37 159.673C286.012 159.869 285.707 160.149 285.48 160.487C285.705 160.83 286.01 161.112 286.37 161.308C287.203 161.728 288.124 161.947 289.057 161.947C289.991 161.947 290.911 161.728 291.744 161.308C292.103 161.113 292.407 160.831 292.628 160.487C292.405 160.147 292.101 159.868 291.744 159.673Z" fill="#E0E0E0"/>
<path d="M286.694 160.487C285.935 159.717 285.283 158.849 284.755 157.905C283.858 156.322 283.693 154.197 284.157 153.93C284.621 153.663 286.51 155.787 286.51 155.787C286.335 154.898 286.267 153.99 286.306 153.084C286.389 151.666 286.733 150.381 287.14 150.127C287.547 149.873 288.45 151.647 288.838 152.938C289.226 154.229 289.474 155.298 289.474 155.298C289.631 154.289 289.865 153.294 290.173 152.321C290.644 150.979 291.07 150.674 291.401 150.808C291.732 150.941 291.948 151.571 292.037 153.352C292.068 154.2 292.041 155.05 291.954 155.896C291.954 155.896 292.622 155.158 293.36 154.452C294.097 153.746 294.517 153.561 294.753 153.714C294.988 153.867 295.045 155.075 293.792 157.346C293.168 158.503 292.367 159.556 291.42 160.468C291.42 160.468 289.671 161.613 286.694 160.487Z" fill="#EBEBEB"/>
<path d="M305.73 149.676L295.223 155.743V175.739L305.73 169.671V149.676Z" fill="#E0E0E0"/>
<path d="M295.56 156.08L305.736 150.242C306.361 150.898 307.174 151.343 308.064 151.514L297.977 157.327C297.12 157.02 296.307 156.601 295.56 156.08Z" fill="white"/>
<path d="M298.95 157.288C298.648 157.442 298.313 157.522 297.974 157.522C297.635 157.522 297.3 157.442 296.998 157.288L295.28 156.309C295.161 156.271 295.058 156.195 294.984 156.094C294.91 155.993 294.871 155.871 294.871 155.746C294.871 155.621 294.91 155.499 294.984 155.398C295.058 155.297 295.161 155.222 295.28 155.183L305.304 149.459L305.73 149.701L295.872 155.393C295.802 155.417 295.741 155.463 295.697 155.523C295.654 155.583 295.631 155.656 295.631 155.73C295.631 155.805 295.654 155.877 295.697 155.937C295.741 155.998 295.802 156.043 295.872 156.067L297.462 156.97C297.645 157.061 297.846 157.108 298.05 157.108C298.254 157.108 298.456 157.061 298.639 156.97L308.49 151.285L308.974 151.564L298.95 157.288Z" fill="#FAFAFA"/>
<path d="M308.974 151.533V171.528L298.95 177.284C298.647 177.435 298.313 177.513 297.974 177.513C297.635 177.513 297.301 177.435 296.998 177.284L295.28 176.298C295.17 176.249 295.075 176.171 295.004 176.073C294.934 175.975 294.891 175.859 294.88 175.739V155.743C294.891 155.863 294.934 155.979 295.004 156.077C295.075 156.176 295.17 156.253 295.28 156.303L296.998 157.288C297.3 157.442 297.635 157.522 297.974 157.522C298.313 157.522 298.648 157.442 298.95 157.288L308.974 151.533Z" fill="#E0E0E0"/>
<path d="M297.971 157.524C297.631 157.531 297.296 157.45 296.998 157.288L295.28 156.303C295.17 156.253 295.075 156.176 295.004 156.077C294.934 155.979 294.891 155.863 294.88 155.743V175.739C294.891 175.859 294.934 175.975 295.004 176.073C295.075 176.171 295.17 176.249 295.28 176.298L296.998 177.284C297.298 177.441 297.632 177.52 297.971 177.513V157.524Z" fill="#F0F0F0"/>
<path d="M310.029 152.143L299.523 158.211V178.206L310.029 172.139V152.143Z" fill="#EBEBEB"/>
<path d="M299.86 158.548L310.036 152.709C310.659 153.367 311.473 153.812 312.363 153.981L302.276 159.794C301.419 159.488 300.606 159.069 299.86 158.548Z" fill="white"/>
<path d="M303.249 159.756C302.946 159.91 302.61 159.99 302.27 159.99C301.93 159.99 301.594 159.91 301.291 159.756L299.58 158.764C299.461 158.725 299.357 158.65 299.283 158.549C299.21 158.448 299.17 158.326 299.17 158.201C299.17 158.076 299.21 157.954 299.283 157.853C299.357 157.752 299.461 157.677 299.58 157.638L309.603 151.914L310.029 152.156L300.171 157.848C300.101 157.872 300.04 157.917 299.997 157.978C299.953 158.038 299.93 158.111 299.93 158.185C299.93 158.259 299.953 158.332 299.997 158.392C300.04 158.453 300.101 158.498 300.171 158.522L301.761 159.425C301.944 159.516 302.145 159.563 302.35 159.563C302.554 159.563 302.755 159.516 302.938 159.425L312.789 153.74L313.273 154.019L303.249 159.756Z" fill="#FAFAFA"/>
<path d="M313.292 154V174.028L303.249 179.752C302.945 179.903 302.61 179.981 302.27 179.981C301.93 179.981 301.595 179.903 301.291 179.752L299.58 178.766C299.468 178.717 299.372 178.64 299.301 178.541C299.229 178.443 299.185 178.327 299.173 178.206V158.211C299.185 158.332 299.229 158.447 299.301 158.545C299.372 158.644 299.468 158.721 299.58 158.77L301.291 159.756C301.594 159.91 301.93 159.99 302.27 159.99C302.61 159.99 302.946 159.91 303.249 159.756L313.292 154Z" fill="#E0E0E0"/>
<path d="M302.27 159.991C301.929 159.999 301.591 159.918 301.291 159.756L299.58 158.764C299.468 158.715 299.372 158.637 299.301 158.539C299.229 158.441 299.185 158.325 299.173 158.204V178.2C299.185 178.321 299.229 178.437 299.301 178.535C299.372 178.633 299.468 178.711 299.58 178.76L301.291 179.746C301.593 179.902 301.93 179.981 302.27 179.975V159.991Z" fill="#F0F0F0"/>
<path d="M314.271 156.385L303.765 162.453L307.027 183.053L317.54 176.985L314.271 156.385Z" fill="#EBEBEB"/>
<path d="M304.178 162.739L314.354 156.901C315.149 157.482 316.084 157.844 317.063 157.95L306.976 163.763C306.009 163.526 305.07 163.183 304.178 162.739Z" fill="white"/>
<path d="M308.032 163.687C307.703 163.843 307.347 163.931 306.983 163.948C306.619 163.964 306.256 163.908 305.914 163.782L303.911 162.962C303.275 162.707 303.205 162.249 303.746 161.938L313.775 156.182L314.271 156.385L304.413 162.109C304.089 162.294 304.134 162.567 304.515 162.745L306.372 163.496C306.578 163.57 306.796 163.604 307.014 163.594C307.232 163.584 307.447 163.531 307.644 163.439L317.496 157.753L318.062 157.982L308.032 163.687Z" fill="#FAFAFA"/>
<path d="M318.062 157.931L321.325 178.531L311.295 184.255C310.966 184.41 310.609 184.498 310.245 184.513C309.881 184.528 309.518 184.471 309.177 184.344L307.174 183.568C306.862 183.441 306.684 183.263 306.658 183.072L303.389 162.478C303.421 162.663 303.599 162.841 303.911 162.968L305.914 163.788C306.256 163.914 306.619 163.971 306.983 163.954C307.347 163.938 307.703 163.849 308.032 163.693L318.062 157.931Z" fill="#E0E0E0"/>
<path d="M307.008 163.947C306.636 163.97 306.263 163.914 305.914 163.782L303.911 162.962C303.599 162.834 303.421 162.656 303.389 162.472L306.658 183.065C306.658 183.256 306.862 183.434 307.174 183.562L309.177 184.376C309.525 184.51 309.899 184.567 310.271 184.541L307.008 163.947Z" fill="#F0F0F0"/>
<path d="M263.811 123.097L281.727 112.756L328.899 139.957V141.923L310.983 152.27L263.811 125.062V123.097Z" fill="#EBEBEB"/>
<path d="M310.983 150.299L263.811 123.097L281.727 112.756L328.899 139.957L310.983 150.299Z" fill="#FAFAFA"/>
<path d="M310.983 150.299V152.27L328.899 141.923V139.958L310.983 150.299Z" fill="#E6E6E6"/>
<path d="M278.973 93.803L267.354 100.513V122.614L278.973 115.904V93.803Z" fill="#EBEBEB"/>
<path d="M267.729 100.888L278.948 94.4263C279.626 95.1525 280.516 95.6447 281.492 95.8318L270.394 102.262C269.449 101.923 268.553 101.461 267.729 100.888Z" fill="white"/>
<path d="M271.475 102.224C271.14 102.39 270.771 102.477 270.397 102.477C270.023 102.477 269.654 102.39 269.319 102.224L267.411 101.136C267.242 101.136 267.08 101.069 266.961 100.95C266.842 100.83 266.775 100.669 266.775 100.5C266.775 100.331 266.842 100.17 266.961 100.05C267.08 99.931 267.242 99.864 267.411 99.864L278.49 93.504L278.961 93.7711L268.066 100.068C267.703 100.271 267.703 100.602 268.066 100.812L269.821 101.804C270.019 101.903 270.237 101.954 270.457 101.954C270.678 101.954 270.896 101.903 271.093 101.804L281.988 95.5265L282.516 95.8318L271.475 102.224Z" fill="#FAFAFA"/>
<path d="M282.554 95.8636V117.958L271.475 124.318C271.141 124.488 270.771 124.576 270.397 124.576C270.022 124.576 269.653 124.488 269.319 124.318L267.411 123.231C267.286 123.175 267.178 123.087 267.1 122.975C267.021 122.863 266.975 122.731 266.966 122.595V100.513C266.975 100.649 267.021 100.781 267.1 100.893C267.178 101.005 267.286 101.093 267.411 101.149L269.319 102.236C269.654 102.403 270.023 102.489 270.397 102.489C270.771 102.489 271.14 102.403 271.475 102.236L282.554 95.8636Z" fill="#E0E0E0"/>
<path d="M270.394 102.478C270.02 102.487 269.649 102.399 269.319 102.224L267.411 101.136C267.286 101.081 267.178 100.992 267.1 100.88C267.021 100.768 266.975 100.637 266.966 100.5V122.614C266.975 122.75 267.021 122.882 267.1 122.994C267.178 123.106 267.286 123.194 267.411 123.25L269.319 124.337C269.649 124.513 270.02 124.6 270.394 124.592V102.478Z" fill="#F0F0F0"/>
<path d="M283.483 97.6444L271.869 104.354L275.475 127.123L287.095 120.413L283.483 97.6444Z" fill="#EBEBEB"/>
<path d="M272.327 104.704L283.578 98.2168C284.455 98.8601 285.486 99.2595 286.567 99.3743L275.418 105.804C274.351 105.552 273.314 105.183 272.327 104.704Z" fill="white"/>
<path d="M276.582 105.715C276.219 105.888 275.824 105.986 275.422 106.003C275.02 106.021 274.619 105.957 274.242 105.817L272.028 104.914C271.335 104.634 271.252 104.125 271.85 103.782L282.936 97.4218L283.483 97.6444L272.588 103.934C272.232 104.138 272.276 104.443 272.696 104.615L274.75 105.442C274.977 105.526 275.218 105.564 275.46 105.553C275.701 105.543 275.938 105.483 276.156 105.378L287.051 99.1008L287.687 99.3552L276.582 105.715Z" fill="#FAFAFA"/>
<path d="M287.668 99.3552L291.274 122.118L280.195 128.478C279.83 128.649 279.434 128.746 279.031 128.764C278.628 128.781 278.226 128.719 277.848 128.579L275.641 127.676C275.291 127.536 275.094 127.339 275.062 127.129L271.456 104.361C271.456 104.57 271.685 104.768 272.028 104.908L274.242 105.817C274.619 105.955 275.021 106.017 275.423 105.998C275.825 105.979 276.219 105.881 276.582 105.709L287.668 99.3552Z" fill="#E0E0E0"/>
<path d="M275.45 105.976C275.039 106.001 274.628 105.94 274.242 105.798L272.028 104.888C271.685 104.748 271.488 104.551 271.456 104.341L275.062 127.11C275.094 127.32 275.291 127.517 275.641 127.657L277.848 128.56C278.234 128.704 278.645 128.767 279.056 128.745L275.45 105.976Z" fill="#F0F0F0"/>
<path d="M302.785 138.997L301.965 139.398L286.726 130.595L287.547 130.201L302.785 138.997Z" fill="#FAFAFA"/>
<path d="M287.547 130.201L302.041 138.571L304.153 116.883L289.652 108.52L287.547 130.201Z" fill="white"/>
<path d="M285.174 131.321L303.218 141.738L305.705 116.152L287.661 105.741L285.174 131.321ZM288.914 108.081L304.178 116.883L301.99 139.398L286.726 130.595L288.914 108.081Z" fill="#F0F0F0"/>
<path d="M286.726 130.595L287.547 130.201L289.652 108.52L288.914 108.081L286.726 130.595Z" fill="#E0E0E0"/>
<path d="M287.661 105.741L288.494 105.359L306.538 115.777L305.705 116.158L287.661 105.741Z" fill="#FAFAFA"/>
<path d="M306.538 115.777L305.705 116.158L303.218 141.738L304.051 141.35L306.538 115.777Z" fill="#E0E0E0"/>
<path d="M288.183 129.788L301.551 137.502L301.908 133.852L299.421 123.116L297.049 126.78L297.538 129.864L293.589 118.48L288.539 126.137L288.183 129.788Z" fill="#F0F0F0"/>
<path d="M299.624 118.601C299.902 118.777 300.129 119.022 300.284 119.311C300.438 119.601 300.516 119.926 300.508 120.254C300.451 120.846 299.962 121.075 299.415 120.763C299.137 120.587 298.91 120.342 298.755 120.052C298.601 119.763 298.523 119.438 298.531 119.109C298.588 118.511 299.077 118.283 299.624 118.601Z" fill="#F0F0F0"/>
<path opacity="0.05" d="M310.296 137.496C307.822 138.921 307.822 141.236 310.296 142.667C311.684 143.369 313.218 143.735 314.774 143.735C316.33 143.735 317.863 143.369 319.251 142.667C321.725 141.236 321.719 138.921 319.251 137.496C317.864 136.791 316.33 136.423 314.774 136.423C313.218 136.423 311.684 136.791 310.296 137.496Z" fill="#1E1E1E"/>
<path d="M318.8 141.096C320.949 138.895 322.215 133.413 320.116 131.67H309.431C307.326 133.413 308.592 138.895 310.742 141.096L310.805 141.153L310.875 141.223L311.072 141.401L311.123 141.439C311.176 141.483 311.231 141.524 311.289 141.56C311.375 141.626 311.467 141.686 311.562 141.738C312.556 142.243 313.656 142.506 314.771 142.506C315.886 142.506 316.985 142.243 317.979 141.738C318.076 141.685 318.17 141.625 318.259 141.56L318.412 141.446L318.475 141.395L318.66 141.229L318.749 141.147L318.8 141.096Z" fill="#F5F5F5"/>
<path d="M310.354 130.831C307.918 132.243 307.918 134.52 310.354 135.919C311.723 136.612 313.236 136.973 314.771 136.973C316.305 136.973 317.818 136.612 319.188 135.919C321.624 134.513 321.624 132.23 319.188 130.831C317.818 130.138 316.305 129.777 314.771 129.777C313.236 129.777 311.723 130.138 310.354 130.831Z" fill="white"/>
<path d="M312.084 131.829C310.602 132.688 310.602 134.074 312.084 134.933C312.916 135.356 313.837 135.577 314.771 135.577C315.705 135.577 316.625 135.356 317.458 134.933C318.94 134.074 318.94 132.688 317.458 131.829C316.625 131.406 315.705 131.185 314.771 131.185C313.837 131.185 312.916 131.406 312.084 131.829Z" fill="#EBEBEB"/>
<path d="M317.458 133.324C316.625 132.901 315.705 132.68 314.771 132.68C313.837 132.68 312.916 132.901 312.084 133.324C311.725 133.516 311.421 133.796 311.2 134.138C311.422 134.478 311.726 134.758 312.084 134.952C312.916 135.376 313.837 135.596 314.771 135.596C315.705 135.596 316.625 135.376 317.458 134.952C317.817 134.758 318.123 134.478 318.348 134.138C318.125 133.796 317.818 133.516 317.458 133.324Z" fill="#E0E0E0"/>
<path d="M312.414 134.119C311.654 133.348 310.999 132.48 310.468 131.537C309.571 129.947 309.406 127.823 309.87 127.562C310.335 127.301 312.223 129.419 312.223 129.419C312.047 128.527 311.979 127.618 312.02 126.71C312.096 125.298 312.44 124.013 312.847 123.752C313.254 123.491 314.157 125.279 314.545 126.57C314.933 127.861 315.181 128.923 315.181 128.923C315.334 127.914 315.566 126.919 315.874 125.946C316.345 124.604 316.771 124.305 317.102 124.439C317.432 124.573 317.655 125.196 317.738 126.983C317.773 127.832 317.745 128.682 317.655 129.527C317.655 129.527 318.323 128.796 319.06 128.083C319.798 127.371 320.224 127.199 320.453 127.346C320.682 127.492 320.752 128.707 319.493 130.983C318.869 132.141 318.069 133.195 317.121 134.106C317.121 134.106 315.384 135.232 312.414 134.119Z" fill="#EBEBEB"/>
<path opacity="0.99" d="M60.164 289.43C51.26 294.563 51.26 302.882 60.164 308.014C69.068 313.147 83.4606 313.14 92.3456 308.014C101.23 302.888 101.25 294.563 92.3456 289.43C83.4416 284.298 69.068 284.298 60.164 289.43Z" fill="#E0E0E0"/>
<path d="M224.805 361.006C249.586 361.006 269.675 349.408 269.675 335.101C269.675 320.795 249.586 309.197 224.805 309.197C200.024 309.197 179.936 320.795 179.936 335.101C179.936 349.408 200.024 361.006 224.805 361.006Z" fill="#E0E0E0"/>
<path d="M149.096 361.813C174.646 361.813 195.359 349.854 195.359 335.101C195.359 320.349 174.646 308.389 149.096 308.389C123.546 308.389 102.833 320.349 102.833 335.101C102.833 349.854 123.546 361.813 149.096 361.813Z" fill="#E0E0E0"/>
<path opacity="0.99" d="M300.273 305.483L328.41 289.271C328.553 289.223 328.678 289.13 328.767 289.007C328.855 288.884 328.903 288.736 328.903 288.584C328.903 288.433 328.855 288.285 328.767 288.162C328.678 288.038 328.553 287.946 328.41 287.897L267.913 252.892C267.547 252.705 267.142 252.608 266.73 252.608C266.319 252.608 265.914 252.705 265.547 252.892L237.417 269.072C237.273 269.12 237.149 269.213 237.06 269.336C236.972 269.459 236.924 269.607 236.924 269.759C236.924 269.91 236.972 270.058 237.06 270.181C237.149 270.305 237.273 270.397 237.417 270.446L297.913 305.483C298.279 305.668 298.683 305.765 299.093 305.765C299.503 305.765 299.907 305.668 300.273 305.483Z" fill="#E0E0E0"/>
<path d="M63.3441 301.864C56.5834 294.868 52.6148 277.264 59.2101 271.73H92.7273C99.3162 277.264 95.3476 294.874 88.5933 301.851C88.536 301.921 88.4724 301.985 88.4088 302.048L88.1799 302.277C87.9891 302.462 87.7856 302.646 87.5439 302.824L87.3785 302.952C87.2132 303.085 87.0478 303.219 86.8697 303.346C86.5891 303.547 86.2982 303.734 85.9984 303.906C80.4334 307.156 71.4213 307.156 65.8626 303.906C65.5572 303.734 65.262 303.545 64.9786 303.34C64.8132 303.219 64.6606 303.098 64.508 302.977L64.3044 302.818C64.0946 302.646 63.9038 302.468 63.7193 302.29L63.4458 302.023L63.3441 301.864Z" fill="#EBEBEB"/>
<path d="M89.8144 269.485C97.4464 273.937 97.4464 281.2 89.8144 285.665C82.1824 290.13 69.7486 290.117 62.0975 285.665C54.4464 281.213 54.4655 273.95 62.0975 269.485C69.7295 265.021 82.1569 265.014 89.8144 269.485Z" fill="#FAFAFA"/>
<path d="M86.132 271.635C91.7542 274.917 91.7542 280.234 86.132 283.515C80.5097 286.797 71.3958 286.797 65.78 283.515C60.1641 280.234 60.1577 274.917 65.78 271.635C71.4022 268.353 80.5161 268.353 86.132 271.635Z" fill="#EBEBEB"/>
<path d="M65.78 277.276C71.3959 273.995 80.5097 273.995 86.132 277.276C87.4945 278.02 88.6507 279.091 89.4964 280.393C88.6511 281.696 87.4949 282.769 86.132 283.515C80.5097 286.797 71.3959 286.797 65.78 283.515C64.4139 282.771 63.2553 281.698 62.4092 280.393C63.2559 279.09 64.4145 278.018 65.78 277.276Z" fill="white"/>
<path d="M71.364 235.612C69.0998 238.474 62.2947 239.733 58.9048 232.724C55.7121 226.18 52.3603 219.947 51.3555 217.524C50.3506 215.101 52.7419 214.09 52.7419 214.09C52.7419 214.09 52.6529 210.356 59.1528 212.392C65.6527 214.427 70.3973 217.925 73.6218 223.91C76.8463 229.894 75.5235 234.448 71.364 235.612Z" fill="#F0F0F0"/>
<path d="M74.8238 244.955C74.6148 243.697 74.3345 242.453 73.9842 241.228C73.2751 238.797 72.3909 236.42 71.3385 234.117C69.195 229.427 66.3868 225.07 63.0005 221.181C61.113 218.964 59.0221 216.928 56.755 215.101C56.6914 215.05 56.6469 215.196 56.6978 215.241C60.5253 218.69 63.871 222.639 66.6448 226.981C69.3222 231.259 71.4324 235.866 72.9221 240.687C73.3461 242.035 73.7383 243.392 74.0987 244.758C74.4612 246.144 74.7347 247.556 75.0591 248.949C75.0972 249.089 75.3198 249.152 75.3135 248.949C75.2516 247.607 75.0879 246.272 74.8238 244.955Z" fill="#E0E0E0"/>
<path opacity="0.1" d="M74.8238 244.955C74.6148 243.697 74.3345 242.453 73.9842 241.228C73.2751 238.797 72.3909 236.42 71.3385 234.117C69.195 229.427 66.3868 225.07 63.0005 221.181C61.113 218.964 59.0221 216.928 56.755 215.101C56.6914 215.05 56.6469 215.196 56.6978 215.241C60.5253 218.69 63.871 222.639 66.6448 226.981C69.3222 231.259 71.4324 235.866 72.9221 240.687C73.3461 242.035 73.7383 243.392 74.0987 244.758C74.4612 246.144 74.7347 247.556 75.0591 248.949C75.0972 249.089 75.3198 249.152 75.3135 248.949C75.2516 247.607 75.0879 246.272 74.8238 244.955Z" fill="#1E1E1E"/>
<path d="M78.7352 230.587C72.8331 232.413 68.432 227.808 69.9711 220.583C71.5103 213.358 79.0787 205.319 81.9407 207.494C83.7342 205.701 87.6647 206.343 89.5345 212.213C91.4043 218.084 89.6999 233.176 78.7352 230.587Z" fill="#E0E0E0"/>
<path d="M82.2014 211.889C80.5252 216.096 79.2124 220.439 78.2773 224.87C77.2709 229.355 76.5108 233.893 76.0004 238.461C75.0383 247.306 74.6347 256.202 74.792 265.097C74.792 267.558 74.8429 270.013 74.8874 272.474C74.9319 274.936 74.8874 277.562 75.11 280.106C75.1927 281.073 76.5665 280.812 76.5855 279.928C76.6746 275.476 76.4329 271.063 76.3884 266.636C76.3439 262.209 76.3884 257.885 76.4711 253.509C76.6189 244.595 77.4161 235.703 78.8561 226.905C79.2758 224.456 79.7465 222.008 80.3189 219.591C80.9167 217.047 81.6544 214.535 82.3222 212.01C82.3731 211.883 82.2587 211.749 82.2014 211.889Z" fill="#E0E0E0"/>
<path opacity="0.1" d="M82.2014 211.889C80.5252 216.096 79.2124 220.439 78.2773 224.87C77.2709 229.355 76.5108 233.893 76.0004 238.461C75.0383 247.306 74.6347 256.202 74.792 265.097C74.792 267.558 74.8429 270.013 74.8874 272.474C74.9319 274.936 74.8874 277.562 75.11 280.106C75.1927 281.073 76.5665 280.812 76.5855 279.928C76.6746 275.476 76.4329 271.063 76.3884 266.636C76.3439 262.209 76.3884 257.885 76.4711 253.509C76.6189 244.595 77.4161 235.703 78.8561 226.905C79.2758 224.456 79.7465 222.008 80.3189 219.591C80.9167 217.047 81.6544 214.535 82.3222 212.01C82.3731 211.883 82.2587 211.749 82.2014 211.889Z" fill="#1E1E1E"/>
<path d="M67.7578 250.348C66.0533 253.852 60.2912 255.188 55.0823 251.226C49.8735 247.263 42.3623 229.036 48.0355 228.743C48.4743 225.907 65.0103 227.834 70.3336 239.619C74.2069 248.198 67.7578 250.348 67.7578 250.348Z" fill="#E0E0E0"/>
<path d="M74.6776 258.05C74.1876 256.931 73.6246 255.845 72.9922 254.8C71.7202 252.657 70.3528 250.59 68.8836 248.58C65.8549 244.516 62.4197 240.772 58.6313 237.405C56.5608 235.486 54.3707 233.699 52.0742 232.057C52.0106 232.012 51.9978 232.158 52.036 232.19C53.8995 233.755 55.7757 235.294 57.531 236.986C59.3452 238.741 61.0688 240.588 62.6954 242.519C65.8502 246.216 68.7103 250.154 71.2496 254.298C71.9682 255.474 72.6233 256.689 73.3547 257.859C74.0861 259.029 74.9702 260.231 75.6761 261.478C75.7779 261.662 76.045 261.662 75.9496 261.414C75.5108 260.308 75.1546 259.157 74.6776 258.05Z" fill="#E0E0E0"/>
<path opacity="0.1" d="M74.6776 258.05C74.1876 256.931 73.6246 255.845 72.9922 254.8C71.7202 252.657 70.3528 250.59 68.8836 248.58C65.8549 244.516 62.4197 240.772 58.6313 237.405C56.5608 235.486 54.3707 233.699 52.0742 232.057C52.0106 232.012 51.9978 232.158 52.036 232.19C53.8995 233.755 55.7757 235.294 57.531 236.986C59.3452 238.741 61.0688 240.588 62.6954 242.519C65.8502 246.216 68.7103 250.154 71.2496 254.298C71.9682 255.474 72.6233 256.689 73.3547 257.859C74.0861 259.029 74.9702 260.231 75.6761 261.478C75.7779 261.662 76.045 261.662 75.9496 261.414C75.5108 260.308 75.1546 259.157 74.6776 258.05Z" fill="#1E1E1E"/>
<path d="M78.5698 248.885C75.199 248.116 75.0273 244.064 79.244 239.091C83.4607 234.117 94.0882 231.949 94.5907 234.041C96.9502 234.041 96.9502 241.438 91.7223 248.236C86.4944 255.035 78.8878 253.452 78.5698 248.885Z" fill="#E0E0E0"/>
<path d="M85.1779 241.654C80.717 244.759 77.3144 249.156 75.428 254.253C75.3199 254.546 75.816 254.965 75.9368 254.654C77.8505 249.609 81.0466 245.15 85.2097 241.717C85.2097 241.717 85.2224 241.622 85.1779 241.654Z" fill="#E0E0E0"/>
<path opacity="0.1" d="M85.1779 241.654C80.717 244.759 77.3144 249.156 75.428 254.253C75.3199 254.546 75.816 254.965 75.9368 254.654C77.8505 249.609 81.0466 245.15 85.2097 241.717C85.2097 241.717 85.2224 241.622 85.1779 241.654Z" fill="#1E1E1E"/>
<path d="M82.424 273.562C77.7494 275.47 79.7528 281.022 84.332 285.245C88.9112 289.468 95.4174 290.588 98.5529 290.365C101.688 290.143 102.496 289.729 102.496 289.729C102.496 289.729 102.999 284.921 102.496 281.995C101.992 279.17 100.685 276.549 98.7314 274.446C96.7782 272.343 94.2612 270.846 91.4806 270.134C84.173 268.156 82.424 270.783 82.424 273.562Z" fill="#F0F0F0"/>
<path d="M95.3603 281.779C93.1979 279.362 90.9083 276.958 88.2053 275.158C85.5023 273.358 81.9979 271.915 78.8052 273.009C77.5713 273.428 75.6252 274.662 75.8796 276.189C75.8796 276.341 76.1721 276.717 76.3566 276.507C76.8481 275.796 77.4107 275.138 78.0356 274.541C78.7797 273.996 79.6603 273.668 80.5796 273.594C82.8622 273.433 85.1413 273.951 87.1304 275.082C90.3104 276.755 92.8544 279.356 95.3539 281.849C95.3539 281.881 95.3793 281.805 95.3603 281.779Z" fill="#E0E0E0"/>
<path opacity="0.1" d="M95.3603 281.779C93.1979 279.362 90.9083 276.958 88.2053 275.158C85.5023 273.358 81.9979 271.915 78.8052 273.009C77.5713 273.428 75.6252 274.662 75.8796 276.189C75.8796 276.341 76.1721 276.717 76.3566 276.507C76.8481 275.796 77.4107 275.138 78.0356 274.541C78.7797 273.996 79.6603 273.668 80.5796 273.594C82.8622 273.433 85.1413 273.951 87.1304 275.082C90.3104 276.755 92.8544 279.356 95.3539 281.849C95.3539 281.881 95.3793 281.805 95.3603 281.779Z" fill="#1E1E1E"/>
<path d="M64.6605 255.296C64.7114 253.312 61.118 249.241 52.3603 249.941C48.3599 250.259 44.7283 251.34 41.7582 254.164C40.744 255.088 40.0716 256.327 39.8502 257.681C39.7647 258.208 39.8378 258.748 40.0601 259.233C40.2502 259.57 40.5079 259.865 40.8169 260.098C42.9157 261.783 45.6441 261.338 48.1055 261.968C51.9215 262.941 59.9796 266.42 64.6415 264.105C69.3033 261.79 67.4399 256.746 64.6605 255.296Z" fill="#F0F0F0"/>
<path d="M72.4134 260.753C67.4144 253.929 57.6518 253.356 50.0198 254.8C47.5085 255.271 45.0663 256.055 42.7503 257.134C42.7185 257.134 42.7503 257.23 42.7503 257.217C46.7435 255.76 50.9422 254.944 55.1905 254.8C59.369 254.717 63.5793 255.245 67.3635 257.102C69.235 258.037 70.9019 259.334 72.2671 260.918C72.407 261.09 72.5151 260.893 72.4134 260.753Z" fill="#E0E0E0"/>
<path opacity="0.1" d="M72.4134 260.753C67.4144 253.929 57.6518 253.356 50.0198 254.8C47.5085 255.271 45.0663 256.055 42.7503 257.134C42.7185 257.134 42.7503 257.23 42.7503 257.217C46.7435 255.76 50.9422 254.944 55.1905 254.8C59.369 254.717 63.5793 255.245 67.3635 257.102C69.235 258.037 70.9019 259.334 72.2671 260.918C72.407 261.09 72.5151 260.893 72.4134 260.753Z" fill="#1E1E1E"/>
<path d="M86.9523 238.455C86.8315 241.807 91.5442 243.753 96.1107 240.853C100.677 237.952 105.454 235.129 109.683 234.041C113.912 232.953 115.916 229.5 114.58 227.834C113.245 226.167 111.12 221.951 100.003 223.324C88.8858 224.698 84.9489 229.684 83.4225 233.246C81.8961 236.808 85.2796 239.422 86.9523 238.455Z" fill="#F0F0F0"/>
<path d="M105.047 227.821C103.439 227.667 101.818 227.836 100.277 228.317C98.8742 228.681 97.5076 229.17 96.1935 229.78C93.5752 230.998 91.2153 232.708 89.242 234.817C88.6805 235.419 88.1579 236.056 87.6774 236.725C87.1909 237.314 86.7904 237.969 86.4881 238.671C86.4118 238.887 86.7361 239.25 86.9269 239.021C87.4803 238.385 87.8937 237.615 88.4088 236.941C88.9648 236.225 89.5615 235.541 90.196 234.893C91.484 233.601 92.9233 232.469 94.4826 231.522C95.983 230.596 97.5725 229.823 99.2272 229.214C100.135 228.889 101.058 228.611 101.994 228.381C102.972 228.08 103.992 227.938 105.015 227.961C105.072 227.948 105.097 227.827 105.047 227.821Z" fill="#E0E0E0"/>
<path opacity="0.1" d="M105.047 227.821C103.439 227.667 101.818 227.836 100.277 228.317C98.8742 228.681 97.5076 229.17 96.1935 229.78C93.5752 230.998 91.2153 232.708 89.242 234.817C88.6805 235.419 88.1579 236.056 87.6774 236.725C87.1909 237.314 86.7904 237.969 86.4881 238.671C86.4118 238.887 86.7361 239.25 86.9269 239.021C87.4803 238.385 87.8937 237.615 88.4088 236.941C88.9648 236.225 89.5615 235.541 90.196 234.893C91.484 233.601 92.9233 232.469 94.4826 231.522C95.983 230.596 97.5725 229.823 99.2272 229.214C100.135 228.889 101.058 228.611 101.994 228.381C102.972 228.08 103.992 227.938 105.015 227.961C105.072 227.948 105.097 227.827 105.047 227.821Z" fill="#1E1E1E"/>
<path d="M78.9769 256.543C77.4187 254.984 73.1893 255.347 71.1859 259.945C69.1825 264.544 73.3865 269.587 73.8571 271.005C75.7651 269.892 77.2915 270.554 80.6941 269.892C82.5852 269.439 84.2635 268.35 85.4488 266.808C86.6341 265.267 87.2546 263.365 87.2068 261.421C86.9842 257.21 85.2034 254.425 78.9769 256.543Z" fill="#F0F0F0"/>
<path d="M78.9133 256.072C78.0664 256.611 77.36 257.343 76.8527 258.209C76.2982 259.006 75.8493 259.872 75.5171 260.785C74.79 262.649 74.5855 264.677 74.9256 266.649C74.9256 266.725 75.0019 266.649 75.0019 266.611C74.8424 264.628 75.179 262.637 75.9813 260.817C76.5637 259.553 77.3573 258.398 78.3282 257.401C78.6559 257.137 78.9544 256.839 79.2186 256.511C79.3331 256.339 79.155 255.964 78.9133 256.072Z" fill="#E0E0E0"/>
<path opacity="0.1" d="M78.9133 256.072C78.0664 256.611 77.36 257.343 76.8527 258.209C76.2982 259.006 75.8493 259.872 75.5171 260.785C74.79 262.649 74.5855 264.677 74.9256 266.649C74.9256 266.725 75.0019 266.649 75.0019 266.611C74.8424 264.628 75.179 262.637 75.9813 260.817C76.5637 259.553 77.3573 258.398 78.3282 257.401C78.6559 257.137 78.9544 256.839 79.2186 256.511C79.3331 256.339 79.155 255.964 78.9133 256.072Z" fill="#1E1E1E"/>
<path d="M72.5469 268.913C71.6819 265.593 67.4589 263.729 61.9766 263.322C59.2691 263.077 56.5475 263.604 54.1273 264.842C51.7071 266.08 49.6874 267.979 48.3026 270.318C45.4279 275.235 44.2385 279.146 45.9812 279.788C47.7238 280.431 55.1141 281.455 59.8841 281.881C64.6541 282.307 70.6071 281.442 74.5121 277.823C78.4172 274.204 77.1007 269.67 72.5469 268.913Z" fill="#E0E0E0"/>
<path d="M72.7504 268.474C70.8869 267.87 68.7436 267.978 66.8165 268.194C64.9083 268.414 63.0295 268.841 61.2134 269.466C59.2955 270.144 57.4382 270.982 55.6611 271.972C54.7325 272.489 53.8188 273.03 52.9199 273.594C52.0625 274.101 51.2421 274.669 50.465 275.292C50.465 275.292 50.465 275.432 50.465 275.413C51.3681 275.006 52.214 274.433 53.0726 273.95C53.9312 273.467 54.9424 272.913 55.89 272.436C57.6767 271.52 59.5308 270.742 61.436 270.109C63.325 269.463 65.2818 269.036 67.2681 268.837C69.122 268.742 70.9804 268.791 72.8267 268.983C73.202 269.027 72.9857 268.544 72.7504 268.474Z" fill="#E0E0E0"/>
<path opacity="0.1" d="M72.7504 268.474C70.8869 267.87 68.7436 267.978 66.8165 268.194C64.9083 268.414 63.0295 268.841 61.2134 269.466C59.2955 270.144 57.4382 270.982 55.6611 271.972C54.7325 272.489 53.8188 273.03 52.9199 273.594C52.0625 274.101 51.2421 274.669 50.465 275.292C50.465 275.292 50.465 275.432 50.465 275.413C51.3681 275.006 52.214 274.433 53.0726 273.95C53.9312 273.467 54.9424 272.913 55.89 272.436C57.6767 271.52 59.5308 270.742 61.436 270.109C63.325 269.463 65.2818 269.036 67.2681 268.837C69.122 268.742 70.9804 268.791 72.8267 268.983C73.202 269.027 72.9857 268.544 72.7504 268.474Z" fill="#1E1E1E"/>
<path d="M82.5449 260.766C78.767 257.764 80.0009 250.59 93.2487 250.183C106.497 249.776 115.903 253.242 115.509 257.497C117.639 259.627 116.558 265.587 105.861 267.444C95.1631 269.301 79.8164 268.379 82.5449 260.766Z" fill="#E0E0E0"/>
<path d="M109.27 257.548C105.368 256.907 101.409 256.674 97.4591 256.854C93.8339 256.956 90.0688 257.128 86.5581 258.126C85.6441 258.377 84.7544 258.709 83.8996 259.118C83.5023 259.309 83.1158 259.521 82.7421 259.754C82.4431 259.939 82.1061 260.098 81.9979 260.448C81.9875 260.503 81.9902 260.56 82.0059 260.614C82.0216 260.668 82.0498 260.717 82.0883 260.758C82.1267 260.799 82.1743 260.83 82.2271 260.849C82.28 260.868 82.3365 260.874 82.3923 260.867C83.1936 260.683 83.9441 260.06 84.7009 259.723C85.4451 259.395 86.21 259.117 86.9905 258.889C88.4932 258.459 90.0292 258.155 91.5825 257.98C95.2818 257.511 99.0092 257.298 102.738 257.344C104.913 257.344 107.075 257.541 109.244 257.713C109.308 257.707 109.333 257.56 109.27 257.548Z" fill="#E0E0E0"/>
<path opacity="0.1" d="M109.27 257.548C105.368 256.907 101.409 256.674 97.4591 256.854C93.8339 256.956 90.0688 257.128 86.5581 258.126C85.6441 258.377 84.7544 258.709 83.8996 259.118C83.5023 259.309 83.1158 259.521 82.7421 259.754C82.4431 259.939 82.1061 260.098 81.9979 260.448C81.9875 260.503 81.9902 260.56 82.0059 260.614C82.0216 260.668 82.0498 260.717 82.0883 260.758C82.1267 260.799 82.1743 260.83 82.2271 260.849C82.28 260.868 82.3365 260.874 82.3923 260.867C83.1936 260.683 83.9441 260.06 84.7009 259.723C85.4451 259.395 86.21 259.117 86.9905 258.889C88.4932 258.459 90.0292 258.155 91.5825 257.98C95.2818 257.511 99.0092 257.298 102.738 257.344C104.913 257.344 107.075 257.541 109.244 257.713C109.308 257.707 109.333 257.56 109.27 257.548Z" fill="#1E1E1E"/>
<path d="M293.385 289.449L295.802 301.432L298.149 302.786L300.477 301.444L302.913 289.449L298.149 286.695L293.385 289.449Z" fill="#E0E0E0"/>
<path opacity="0.05" d="M293.385 289.449L295.802 301.432L298.149 302.786L300.477 301.444L302.913 289.449L298.149 286.695L293.385 289.449Z" fill="#1E1E1E"/>
<path d="M298.149 302.786V292.197L293.385 289.449L295.802 301.432L298.149 302.786Z" fill="#EBEBEB"/>
<path opacity="0.05" d="M293.385 289.449L294.943 297.189L298.149 299.04L301.335 297.196L302.913 289.449L298.149 286.695L293.385 289.449Z" fill="#1E1E1E"/>
<path d="M314.335 277.353L316.752 289.335L319.099 290.696L321.426 289.348L323.862 277.353L319.099 274.599L314.335 277.353Z" fill="#E0E0E0"/>
<path opacity="0.05" d="M314.335 277.353L316.752 289.335L319.099 290.696L321.426 289.348L323.862 277.353L319.099 274.599L314.335 277.353Z" fill="#1E1E1E"/>
<path d="M319.099 290.696V280.1L314.335 277.353L316.752 289.335L319.099 290.696Z" fill="#EBEBEB"/>
<path opacity="0.05" d="M314.335 277.353L315.893 285.093L319.099 286.943L322.291 285.099L323.862 277.353L319.099 274.599L314.335 277.353Z" fill="#1E1E1E"/>
<path d="M242.117 259.863L244.534 271.851L246.881 273.206L249.209 271.864L251.644 259.863L246.881 257.109L242.117 259.863Z" fill="#EBEBEB"/>
<path opacity="0.05" d="M242.117 259.863L244.534 271.851L246.881 273.206L249.209 271.864L251.644 259.863L246.881 257.109L242.117 259.863Z" fill="#1E1E1E"/>
<path d="M246.881 273.206V262.616L242.117 259.863L244.534 271.851L246.881 273.206Z" fill="#EBEBEB"/>
<path opacity="0.05" d="M242.117 259.863L243.682 267.603L246.881 269.453L250.074 267.609L251.644 259.863L246.881 257.109L242.117 259.863Z" fill="#1E1E1E"/>
<path d="M298.149 297.107L324.11 282.11V225.913L298.149 240.903V297.107Z" fill="#E0E0E0"/>
<path d="M298.149 240.903L240.769 207.793V263.99L298.149 297.107V240.903Z" fill="#EBEBEB"/>
<path d="M240.769 207.793L298.149 240.903L324.11 225.913L266.737 192.803L240.769 207.793Z" fill="#F5F5F5"/>
<path d="M294.441 268.747L244.477 239.911V260.537L243.796 260.931L293.754 289.761L294.441 289.367V268.747Z" fill="#E0E0E0"/>
<path d="M293.754 269.142L243.796 240.306V260.931L293.754 289.761V269.142Z" fill="#F5F5F5"/>
<path d="M270.877 261.236L265.827 258.323C265.191 257.942 264.644 258.114 264.644 258.705C264.692 259.069 264.823 259.418 265.029 259.722C265.234 260.027 265.507 260.28 265.827 260.46L270.877 263.373C271.513 263.755 272.06 263.583 272.06 262.992C272.013 262.627 271.881 262.279 271.676 261.974C271.471 261.67 271.197 261.417 270.877 261.236Z" fill="#E0E0E0"/>
<path d="M294.441 243.842L244.477 215.012V235.637L243.796 236.032L293.76 264.862L294.441 264.467V243.842Z" fill="#E0E0E0"/>
<path d="M293.76 244.236L243.796 215.406V236.032L293.76 264.862V244.236Z" fill="#F5F5F5"/>
<path d="M270.877 236.356L265.827 233.443C265.191 233.068 264.644 233.24 264.644 233.831C264.693 234.195 264.825 234.543 265.03 234.848C265.235 235.152 265.508 235.405 265.827 235.586L270.877 238.499C271.513 238.875 272.06 238.703 272.06 238.111C272.012 237.747 271.88 237.399 271.675 237.095C271.469 236.79 271.197 236.537 270.877 236.356Z" fill="#E0E0E0"/>
<path d="M291.337 218.548C288.462 220.208 288.462 222.898 291.337 224.558C294.212 226.218 298.867 226.218 301.742 224.558C304.617 222.898 304.617 220.208 301.742 218.548C298.867 216.888 294.212 216.869 291.337 218.548Z" fill="#E0E0E0"/>
<path d="M301.113 221.906C303.618 219.362 305.088 213.002 302.645 210.948H290.224C287.788 212.977 289.258 219.349 291.757 221.9C291.777 221.926 291.801 221.95 291.827 221.97L291.91 222.059C291.98 222.122 292.056 222.192 292.139 222.256L292.196 222.307C292.259 222.351 292.317 222.402 292.387 222.447L292.711 222.657C293.866 223.243 295.143 223.549 296.438 223.549C297.733 223.549 299.01 223.243 300.165 222.657L300.489 222.447L300.667 222.313L300.737 222.256C300.814 222.192 300.89 222.129 300.96 222.059L301.055 221.963L301.113 221.906Z" fill="#EBEBEB"/>
<path d="M291.305 210.134C288.475 211.768 288.475 214.427 291.305 216.061C294.136 217.696 298.734 217.696 301.564 216.061C304.394 214.427 304.401 211.768 301.564 210.134C298.728 208.499 294.142 208.499 291.305 210.134Z" fill="#FAFAFA"/>
<path d="M293.315 211.298C291.592 212.29 291.592 213.905 293.315 214.897C294.283 215.389 295.353 215.646 296.438 215.646C297.523 215.646 298.593 215.389 299.561 214.897C301.284 213.905 301.284 212.29 299.561 211.298C298.593 210.806 297.523 210.549 296.438 210.549C295.353 210.549 294.283 210.806 293.315 211.298Z" fill="#F5F5F5"/>
<path d="M299.561 213.008C298.593 212.516 297.523 212.26 296.438 212.26C295.353 212.26 294.283 212.516 293.315 213.008C292.898 213.231 292.544 213.555 292.285 213.95C292.542 214.348 292.897 214.674 293.315 214.897C294.283 215.389 295.353 215.646 296.438 215.646C297.523 215.646 298.593 215.389 299.561 214.897C299.978 214.673 300.332 214.347 300.591 213.95C300.33 213.556 299.976 213.233 299.561 213.008Z" fill="#EBEBEB"/>
<path d="M293.697 213.95C292.814 213.054 292.055 212.044 291.439 210.948C290.396 209.11 290.205 206.636 290.739 206.33C291.274 206.025 293.474 208.493 293.474 208.493C293.273 207.456 293.196 206.399 293.245 205.345C293.334 203.704 293.735 202.209 294.206 201.91C294.676 201.611 295.726 203.678 296.177 205.179C296.629 206.68 296.902 207.914 296.902 207.914C297.082 206.744 297.352 205.589 297.71 204.461C298.257 202.902 298.753 202.553 299.141 202.705C299.529 202.858 299.777 203.583 299.891 205.663C299.93 206.654 299.899 207.646 299.796 208.633C299.796 208.633 300.572 207.78 301.431 206.954C302.289 206.127 302.779 205.923 303.046 206.095C303.313 206.267 303.389 207.679 301.927 210.325C301.203 211.669 300.274 212.892 299.173 213.95C299.173 213.95 297.15 215.253 293.697 213.95Z" fill="#E0E0E0"/>
<path d="M279.609 216.882L278.694 217.333L261.528 207.583L262.45 207.138L279.609 216.882Z" fill="#FAFAFA"/>
<path d="M262.45 207.138L278.776 216.405L280.97 192.065L264.644 182.798L262.45 207.138Z" fill="white"/>
<path d="M259.792 208.41L280.112 219.954L282.707 191.245L262.355 179.701L259.792 208.41ZM263.805 182.334L280.977 192.084L278.7 217.352L261.528 207.609L263.805 182.334Z" fill="#F0F0F0"/>
<path d="M261.528 207.583L262.45 207.138L264.644 182.798L263.805 182.315L261.528 207.583Z" fill="#E0E0E0"/>
<path d="M262.38 179.701L263.315 179.262L283.635 190.806L282.7 191.245L262.38 179.701Z" fill="#FAFAFA"/>
<path d="M283.635 190.806L282.7 191.245L280.112 219.954L281.047 219.515L283.635 190.806Z" fill="#E0E0E0"/>
<path d="M263.162 206.667L278.21 215.215L278.585 211.119L275.711 199.099L273.078 203.227L273.656 206.68L269.135 193.941L263.531 202.565L263.162 206.667Z" fill="#F0F0F0"/>
<path d="M275.902 194.03C276.216 194.222 276.475 194.494 276.651 194.818C276.828 195.141 276.916 195.506 276.906 195.875C276.849 196.542 276.27 196.803 275.685 196.453C275.371 196.261 275.112 195.99 274.936 195.666C274.759 195.342 274.671 194.978 274.68 194.609C274.744 193.941 275.291 193.68 275.902 194.03Z" fill="#F0F0F0"/>
<path d="M232.634 324.334L235.458 322.998L232.673 322.248L232.634 324.334Z" fill="#1E1E1E"/>
<path d="M260.657 329.39C260.657 329.39 227.318 314.845 226.904 317.007C226.808 317.436 226.808 317.882 226.904 318.311L226.809 318.19L227.445 322.229C228.942 323.405 230.741 324.135 232.634 324.334C232.634 324.137 232.634 322.935 232.673 322.248C233.697 322.656 234.681 323.161 235.611 323.755C237.748 325.122 239.122 327.507 241.392 330.28C243.046 332.297 245.99 333.244 250.353 333.848C255.053 334.484 259.194 333.638 260.358 332.424C261.293 331.457 260.822 329.67 260.657 329.39Z" fill="#1E1E1E"/>
<path d="M259.734 328.64C259.416 328.315 258.227 327.05 256.618 325.676C255.206 324.467 253.572 322.947 251.804 321.713C250.957 321.145 250.159 320.506 249.419 319.805C248.833 319.169 248.28 318.578 247.759 317.897C246.178 315.858 244.828 313.651 243.733 311.315C243.211 310.215 242.264 307.798 242.531 303.32C242.944 296.534 243.516 294.086 243.542 289.678L227.642 291.745C228.106 294.187 228.602 299.644 228.844 302.424C229.219 306.653 229.862 307.054 228.151 311.264C227.648 312.536 226.879 313.7 226.828 315.029C226.726 317.192 228.488 319.061 230.459 320.117C232.094 321.001 233.97 321.389 235.547 322.311C237.154 323.367 238.561 324.7 239.7 326.248C240.82 327.635 241.723 329.269 243.294 330.242C245.043 331.323 246.703 331.661 248.725 332.061C251.136 332.475 253.587 332.597 256.027 332.424C259.493 332.207 262.069 330.999 259.734 328.64Z" fill="#FFBDA7"/>
<path d="M257.82 326.274C256.389 325.11 254.354 323.437 251.893 321.561C251.046 321.275 250.151 321.167 249.261 321.244C248.371 321.321 247.507 321.58 246.722 322.006C241.767 324.506 240.922 328.061 240.922 328.061C241.774 329.682 243.225 330.907 244.967 331.476C250.691 333.893 260.93 333.142 261.032 330.605C261.095 328.983 259.569 327.692 257.82 326.274ZM228.469 310.374C228.469 310.374 228.132 311.207 227.26 312.841C226.389 314.476 226.224 316.104 227.311 317.739C228.749 319.901 230.491 320.569 232.329 321.027C233.913 316.225 230.453 311.404 228.469 310.386V310.374Z" fill="#37474F"/>
<path d="M207.951 321.675C208.066 323.323 207.894 328.232 208.244 331.909C208.568 335.248 209.516 340.431 208.734 344.387C207.913 348.445 204.243 352.846 198.837 349.392C195.486 347.255 194.067 344.565 193.451 339.77C193.024 336.437 194.392 331.743 195.556 327.584C196.923 322.725 197.413 320.136 197.413 320.136L207.951 321.675Z" fill="#1E1E1E"/>
<path d="M196.268 297.444C196.268 301.959 196.828 309.432 197.069 314.431C197.069 316.759 197.139 320.022 196.65 322.502C196.014 325.72 195.314 330.185 194.85 332.271C194.214 335.19 193.699 337.035 194.958 340.227C195.065 340.479 195.2 340.718 195.358 340.94C197.05 343.547 201.184 345.392 202.469 345.017C202.768 345.311 203.139 345.522 203.546 345.628C203.952 345.734 204.379 345.732 204.784 345.621C204.928 345.593 205.07 345.557 205.21 345.513C205.357 345.468 205.499 345.41 205.636 345.341C206.141 345.085 206.587 344.727 206.945 344.289C207.303 343.851 207.566 343.343 207.716 342.797C207.791 342.564 207.85 342.326 207.894 342.085C208.41 339.487 208.493 336.823 208.142 334.198C208.028 332.29 207.958 329.555 208.04 326.617C208.123 323.679 210.902 308.307 211.977 299.072L196.268 297.444Z" fill="#FFBDA7"/>
<path d="M194.163 336.062C197.343 334.701 206.883 334.3 208.524 338.186C208.695 341.894 208.524 344.26 205.935 347.599C202.513 352.051 197.667 347.675 195.804 344.864C193.94 342.053 193.8 338.078 194.163 336.062Z" fill="#37474F"/>
<path d="M206.927 186.392C202.545 193.318 198.526 200.676 198.023 216.532C197.387 237.418 199.575 255.964 199.378 258.508C199.181 261.052 198.074 265.173 196.154 277.658C194.233 290.142 196.421 314.368 196.421 314.368C196.421 314.368 197.839 317.236 202.825 317.878C207.43 318.47 209.624 316.435 209.624 316.435C209.624 316.435 217.485 283.07 219.571 275.591C221.657 268.111 224.805 241.342 224.805 241.342L225.588 255.544C225.588 255.544 223.87 262.407 224.78 273.46C225.689 284.514 228.99 305.896 228.99 305.896C228.99 305.896 231.044 308.046 235.954 307.944C240.438 307.849 242.741 305.508 242.741 305.508C242.741 305.508 247.739 263.532 248.299 251.086C248.859 238.639 249.011 207.469 245.755 188.84L206.927 186.392Z" fill="#37474F"/>
<path d="M227.82 215.368L224.805 241.336L225.588 255.538L225.976 240.865L230.294 217.384C233.474 216.793 241.678 211.66 242.454 206.604C237.958 213.136 227.82 215.368 227.82 215.368ZM208.155 291.211C207.12 297.741 206.173 304.285 205.312 310.844C206.703 304.37 208.006 297.883 209.223 291.383C210.457 284.876 211.608 278.389 212.747 271.851C213.885 265.313 214.903 250.526 215.386 243.937C215.869 237.348 216.187 230.746 216.416 224.145C215.653 230.715 214.979 237.285 214.305 243.861C213.631 250.437 212.448 265.167 211.379 271.667C210.311 278.167 209.166 284.692 208.155 291.211ZM242.403 243.861C242.403 246.723 242.461 249.585 242.283 252.434C242.104 255.283 241.786 258.158 241.507 260.995L240.667 269.574C240.103 275.298 239.607 281.022 239.179 286.746C240.137 281.069 240.985 275.377 241.723 269.67C242.473 263.946 243.186 258.273 243.631 252.498C243.873 246.685 243.631 240.954 243.338 235.198C243.046 229.443 242.575 223.706 241.907 217.988L242.257 235.23C242.333 238.118 242.397 240.992 242.403 243.861Z" fill="#1E1E1E"/>
<path d="M210.457 112.272C205.331 113.99 204.237 119.02 204.097 127.638C204.053 130.983 204.18 133.947 201.35 136.224C199.842 137.445 198.049 138.342 196.764 139.798C194.634 142.209 194.449 146.343 196.834 148.505C195.946 148.867 195.173 149.465 194.599 150.234C194.025 151.003 193.672 151.914 193.578 152.868C193.416 154.793 193.974 156.71 195.142 158.249C197.445 161.467 201.922 162.701 205.725 161.976C206.66 164.52 209.382 166.148 212.085 166.32C214.788 166.491 217.466 165.404 219.717 163.871C221.148 166.58 224.735 167.458 227.553 167.013C228.999 166.792 230.382 166.264 231.607 165.464C232.833 164.665 233.873 163.612 234.657 162.376C234.75 162.197 234.891 162.047 235.064 161.944C235.201 161.887 235.348 161.861 235.496 161.868C237.436 161.823 239.281 161.817 241.023 160.914C242.608 160.199 243.969 159.067 244.96 157.638C245.606 156.622 245.978 155.457 246.041 154.255C246.15 153.248 245.976 152.23 245.539 151.316C247.18 150.044 247.332 146.228 246.811 144.18C246.289 142.133 244.947 140.434 243.497 138.921C242.047 137.407 240.445 136.021 239.211 134.322C238.176 132.912 237.67 131.184 237.78 129.438C237.78 128.414 237.303 126.538 238.015 125.654C238.015 125.654 241.131 121.787 240.947 117.659C240.854 114.787 239.806 112.027 237.969 109.816C236.132 107.606 233.61 106.071 230.803 105.454C224.481 103.871 213.014 104.526 210.457 112.272Z" fill="#1E1E1E"/>
<path d="M235.446 146.464C239.376 146.801 245.533 147.329 249.221 155.311C253.603 164.787 257.369 173.71 260.549 186.36L251.123 186.958L242.747 173.532L235.446 146.464Z" fill="#FFBDA7"/>
<path d="M253.037 175.236C251.489 173.664 250.139 171.909 249.018 170.008C251.098 164.92 249.279 155.883 241.348 151.291L239.726 162.325L242.747 173.532L251.123 186.958C251.123 186.958 259.976 193.318 260.294 188.917C260.294 188.7 260.294 188.497 260.294 188.281C260.212 187.32 260.084 186.373 259.938 185.4C258.978 180.49 254.984 177.119 253.037 175.236Z" fill="#F0997A"/>
<path d="M201.63 196.32C199.836 192.408 203.716 188.688 204.333 182.868C204.759 178.887 202.157 169.124 202.157 169.124C202.157 169.124 208.982 163.273 206.609 147.965L219.622 145.7C229.512 145.128 235.446 146.464 235.446 146.464C238.11 148.512 242.639 151.666 245.692 156.5C250.284 163.763 248.382 169.646 244.165 174.562C244.127 175.503 244.019 180.483 246.665 190.564C247.04 191.995 248.007 194.52 246.83 195.862C240.216 203.379 213.357 206.133 201.63 196.32Z" fill="#57AE8F"/>
<path d="M208.854 126.741C209.955 125.431 212.238 124.833 213.402 126.576C214.121 127.651 214.343 129.476 215.393 129.177C216.029 128.999 216.245 128.23 215.971 126.837C215.971 126.913 216.804 126.392 216.862 126.341C217.65 125.641 217.453 124.617 217.701 123.701C217.975 122.684 218.77 121.914 219.24 120.998C219.984 119.561 219.666 117.818 219.348 116.279C219.209 115.643 219.113 114.842 219.584 114.371C219.968 114.065 220.456 113.92 220.945 113.964C222.474 114.081 223.989 114.347 225.467 114.759C226.954 115.169 228.531 115.118 229.989 114.613C230.625 114.352 231.127 113.977 231.712 113.665C232.286 113.324 232.958 113.186 233.62 113.271C234.169 113.421 234.668 113.715 235.064 114.123C237.067 115.974 237.735 118.919 238.244 121.507C238.537 123.46 238.664 125.435 238.626 127.409C238.886 135.836 237.424 137.935 235.681 139.417C234.186 140.689 231.865 141.388 229.079 141.42L229.168 146.209C229.168 146.209 233.271 153.689 231.394 158.103C231.394 158.103 224.952 155.501 221.015 152.321C216.181 148.416 215.361 146.508 215.361 146.508L215.164 133.229C215.164 133.229 213.205 136.186 210.26 133.96C207.78 132.16 207.22 128.7 208.854 126.741Z" fill="#FFBDA7"/>
<path d="M229.124 141.42C223.832 141.509 218.662 139.315 216.696 134.571C216.696 134.571 216.919 137.751 218.941 139.659C222.98 143.475 229.156 143.093 229.156 143.093L229.124 141.42Z" fill="#F0997A"/>
<path d="M223.088 124.42C223.068 124.668 223.121 124.917 223.241 125.135C223.36 125.354 223.541 125.532 223.762 125.649C223.982 125.765 224.231 125.814 224.479 125.79C224.727 125.766 224.962 125.67 225.156 125.513C225.35 125.356 225.493 125.146 225.568 124.909C225.644 124.672 225.648 124.417 225.58 124.178C225.512 123.938 225.375 123.724 225.187 123.561C224.998 123.398 224.766 123.294 224.519 123.262C224.349 123.24 224.175 123.253 224.01 123.3C223.844 123.347 223.69 123.427 223.556 123.535C223.422 123.643 223.312 123.777 223.231 123.93C223.151 124.082 223.102 124.249 223.088 124.42Z" fill="#1E1E1E"/>
<path d="M233.156 124.757C233.232 124.995 233.377 125.206 233.572 125.362C233.767 125.519 234.004 125.614 234.253 125.637C234.502 125.659 234.752 125.608 234.972 125.489C235.192 125.37 235.372 125.189 235.49 124.969C235.608 124.748 235.658 124.498 235.634 124.249C235.61 124 235.513 123.763 235.356 123.569C235.199 123.375 234.987 123.231 234.749 123.156C234.51 123.081 234.255 123.078 234.015 123.148C233.851 123.195 233.699 123.275 233.567 123.382C233.435 123.489 233.326 123.621 233.245 123.771C233.165 123.921 233.116 124.086 233.101 124.255C233.086 124.424 233.104 124.595 233.156 124.757Z" fill="#1E1E1E"/>
<path d="M222.7 119.586L225.708 118.13C225.896 118.542 225.917 119.011 225.767 119.438C225.616 119.865 225.306 120.217 224.901 120.419C224.702 120.515 224.487 120.57 224.267 120.579C224.047 120.589 223.827 120.554 223.621 120.476C223.416 120.398 223.228 120.279 223.069 120.126C222.911 119.973 222.785 119.789 222.7 119.586Z" fill="#1E1E1E"/>
<path d="M235.935 118.861L232.8 117.704C232.654 118.132 232.68 118.6 232.87 119.01C233.061 119.419 233.403 119.74 233.824 119.904C234.031 119.98 234.251 120.012 234.47 120C234.69 119.988 234.905 119.932 235.103 119.834C235.3 119.737 235.476 119.6 235.619 119.433C235.762 119.266 235.87 119.071 235.935 118.861Z" fill="#1E1E1E"/>
<path d="M231.248 132.923L226.58 131.651C226.424 132.287 226.519 132.959 226.846 133.527C227.173 134.094 227.707 134.513 228.335 134.698C228.643 134.78 228.965 134.799 229.28 134.753C229.596 134.708 229.899 134.599 230.171 134.433C230.443 134.267 230.679 134.048 230.864 133.788C231.049 133.529 231.18 133.235 231.248 132.923Z" fill="#B16668"/>
<path d="M229.785 134.596C229.618 133.964 229.236 133.409 228.704 133.029C228.173 132.648 227.525 132.464 226.872 132.51C226.755 132.522 226.638 132.541 226.523 132.567C226.585 133.057 226.788 133.517 227.108 133.894C227.427 134.27 227.849 134.545 228.322 134.685C228.807 134.813 229.32 134.782 229.785 134.596Z" fill="#F0997A"/>
<path d="M220.64 121.812L212.492 125.749C212.977 125.996 213.366 126.396 213.599 126.888L221.072 123.199L220.64 121.812Z" fill="#1E1E1E"/>
<path d="M239.096 120.515L238.575 120.477C236.883 120.375 234.689 120.432 233.372 120.903C231.719 121.501 231.14 122.111 230.192 122.175C229.245 122.238 228.59 121.66 226.796 121.24C225.378 120.903 223.012 121.075 221.199 121.348L220.633 121.443C220.435 121.515 220.265 121.649 220.151 121.826C220.036 122.003 219.982 122.213 219.997 122.423C220.056 122.828 220.238 123.205 220.519 123.504C220.608 123.636 220.668 123.786 220.697 123.943C220.881 124.706 220.983 126.194 221.333 127.015C221.509 127.419 221.754 127.789 222.058 128.109C222.172 128.223 222.295 128.327 222.427 128.42L222.643 128.56C222.843 128.68 223.056 128.776 223.279 128.847H223.387L223.559 128.891L223.737 128.929C223.924 128.962 224.113 128.983 224.303 128.993H224.888C225.719 129.016 226.537 128.785 227.232 128.33C227.928 127.875 228.468 127.219 228.78 126.449C229.346 125.24 229.175 123.6 230.237 123.549H230.339H230.434C231.229 123.695 231.159 125.215 231.706 126.29C231.905 126.719 232.171 127.114 232.495 127.46C232.553 127.523 232.614 127.582 232.679 127.638L232.781 127.727L232.883 127.803L232.978 127.873L233.08 127.937L233.162 127.988H233.22C233.514 128.149 233.832 128.265 234.161 128.331H234.25C234.627 128.399 235.012 128.421 235.395 128.395C236.106 128.394 236.798 128.166 237.37 127.744C237.942 127.322 238.364 126.727 238.575 126.048C238.831 125.022 239.008 123.978 239.103 122.925C239.129 122.778 239.19 122.638 239.281 122.518C239.532 122.186 239.683 121.789 239.713 121.374C239.711 121.184 239.65 121.001 239.54 120.847C239.43 120.693 239.275 120.577 239.096 120.515ZM228.157 125.393C228.04 126.013 227.766 126.593 227.362 127.078C227.039 127.429 226.645 127.707 226.206 127.893C225.768 128.079 225.295 128.17 224.818 128.16C224.346 128.213 223.869 128.141 223.434 127.95C223 127.759 222.623 127.456 222.344 127.072L222.28 126.964C222.255 126.927 222.231 126.889 222.21 126.849L222.153 126.741C222.134 126.711 222.117 126.679 222.102 126.646L222.064 126.57C222.055 126.546 222.044 126.522 222.032 126.5L221.988 126.379C221.94 126.269 221.9 126.157 221.867 126.042L221.81 125.838C221.81 125.724 221.753 125.609 221.733 125.514C221.737 125.493 221.737 125.471 221.733 125.45C221.733 125.45 221.733 125.406 221.733 125.387C221.562 124.579 221.371 122.989 221.772 122.607C222.172 122.226 223.222 121.806 224.952 121.895H225.136C225.399 121.913 225.66 121.947 225.918 121.997C226.026 121.997 226.122 122.035 226.224 122.054C226.482 122.11 226.737 122.182 226.987 122.27L227.222 122.359L227.477 122.467H227.527L227.623 122.518C227.822 122.61 227.998 122.744 228.138 122.913C228.437 123.409 228.348 124.471 228.157 125.393ZM238.244 124.534C238.136 125.17 237.907 126.582 236.711 127.257C236.32 127.47 235.885 127.592 235.439 127.613C234.94 127.687 234.431 127.623 233.966 127.427C233.502 127.23 233.1 126.909 232.806 126.5C232.787 126.476 232.77 126.45 232.755 126.423L232.698 126.341C232.699 126.326 232.699 126.311 232.698 126.296L232.628 126.169C232.602 126.119 232.579 126.068 232.558 126.016L232.52 125.946C232.52 125.946 232.52 125.946 232.52 125.902C232.518 125.883 232.518 125.864 232.52 125.845V125.794C232.444 125.587 232.384 125.374 232.342 125.158C232.145 124.255 232.024 123.205 232.342 122.696C232.66 122.188 233.9 121.577 235.109 121.367C235.367 121.32 235.628 121.286 235.891 121.265H236.584H236.8C236.933 121.275 237.064 121.292 237.195 121.316H237.29H237.354H237.449H237.563L237.754 121.38H237.786C237.944 121.438 238.091 121.524 238.219 121.634C238.492 122.111 238.352 123.708 238.244 124.534Z" fill="#37474F"/>
<path d="M229.086 125.52L230.669 130.608L234.759 128.56C234.6 128.325 230.72 123.898 230.409 123.593C230.26 123.562 230.106 123.574 229.964 123.63C229.823 123.685 229.701 123.781 229.614 123.905C229.339 124.406 229.16 124.954 229.086 125.52Z" fill="#F0997A"/>
<path d="M239.058 175.007C237.939 173.295 236.274 172.011 234.333 171.363C232.151 170.506 230.026 169.51 227.973 168.38C227.107 167.982 226.294 167.48 225.549 166.886C225.165 166.558 224.873 166.134 224.704 165.658C224.598 165.23 224.652 164.778 224.856 164.386C224.361 164.152 223.938 163.787 223.635 163.33C223.39 162.884 223.32 162.363 223.438 161.868C223.484 161.711 223.561 161.566 223.665 161.44C223.769 161.315 223.897 161.211 224.042 161.136C223.762 160.666 222.916 159.311 223.813 158.306C224.125 158.071 224.595 158.179 224.983 158.198C225.371 158.217 226.255 158.37 226.446 158.408C226.536 158.279 226.656 158.174 226.796 158.103C227.66 157.668 228.641 157.523 229.594 157.689C230.637 157.902 231.656 158.219 232.635 158.637C233.703 159.018 234.822 159.273 235.91 159.597C236.137 159.669 236.372 159.716 236.61 159.737C237.15 159.737 237.678 159.521 238.219 159.584C238.683 159.657 239.134 159.794 239.561 159.991C240.497 160.422 241.273 161.136 241.78 162.033C243.205 164.482 244.102 167.121 245.787 169.417C247.251 171.349 248.881 173.15 250.659 174.798C253.432 177.481 258.73 179.886 260.25 185.19C261.267 188.707 261.204 193.636 258.78 195.722C257.19 197.096 251.244 195.989 247.968 192.44C244.133 188.249 240.483 177.392 239.058 175.007Z" fill="#FFBDA7"/>
<path d="M226.592 158.389C229.926 159.037 233.173 160.072 236.266 161.473C233.338 159.678 230.019 158.62 226.592 158.389ZM229.963 161.81C228.093 161.333 226.109 160.856 224.176 161.174C228.043 161.174 231.808 162.593 235.363 163.998C233.666 163.045 231.856 162.31 229.976 161.81H229.963ZM225.6 163.782C225.345 163.827 225.115 163.965 224.955 164.169C224.796 164.374 224.717 164.63 224.735 164.889C224.818 163.661 226.224 163.884 227.069 164.087C229.96 164.717 232.774 165.655 235.465 166.886C232.892 165.364 230.057 164.336 227.108 163.852C226.612 163.749 226.103 163.726 225.6 163.782Z" fill="#F0997A"/>
<path d="M206.609 147.952C201.916 149.364 195.963 152.951 197.432 162.319C198.812 171.134 204.568 190.615 206.533 195.474C208.759 200.994 211.042 202.934 214 203.583C216.544 204.136 219.387 202.483 221.511 200.975C227.591 196.67 231.553 188.026 235.853 178.982C237.861 174.717 239.337 170.22 240.247 165.595C240.42 164.525 240.469 163.438 240.394 162.357C240.306 161.335 240.045 160.335 239.624 159.4C239.555 159.266 239.493 159.128 239.44 158.987C239.387 158.744 239.365 158.496 239.376 158.249C239.39 157.638 239.177 157.044 238.778 156.582C238.583 156.397 238.37 156.231 238.142 156.086C238.071 156.033 238.007 155.971 237.952 155.902C237.793 155.673 237.875 155.374 237.85 155.101C237.793 154.809 237.633 154.549 237.4 154.366C237.166 154.184 236.874 154.092 236.578 154.108C236.247 154.153 235.931 154.272 235.653 154.457C235.375 154.643 235.143 154.889 234.975 155.177C234.947 155.222 234.907 155.259 234.861 155.285C234.806 155.298 234.75 155.298 234.695 155.285C234.427 155.249 234.153 155.271 233.894 155.349C233.653 155.422 233.434 155.556 233.258 155.737C232.883 156.198 232.645 156.756 232.571 157.346C232.367 158.3 232.221 159.254 232.011 160.22C231.598 162.128 231.433 164.036 230.421 165.734C230.332 165.887 230.186 166.059 230.008 166.021C229.83 165.983 229.785 165.785 229.76 165.62C229.499 163.909 230.498 162.116 229.162 160.621C228.004 159.349 227.826 161.893 227.642 162.529L226.898 165.2C226.414 166.659 226.14 168.18 226.084 169.716C226.084 171.166 226.504 172.591 226.446 174.041C226.44 175.481 225.88 176.863 224.882 177.901C220.932 181.895 219.158 183.479 219.158 183.479L216.079 168.73C216.079 168.73 215.615 160.265 212.263 153.574C209.987 149.224 206.609 147.952 206.609 147.952Z" fill="#FFBDA7"/>
<path d="M235.064 155.476C235.484 156.195 235.325 157.098 235.325 157.899C235.203 160.347 234.793 162.772 234.104 165.124C234.326 163.731 234.6 161.702 234.81 160.284C234.981 159.088 235.102 157.861 235.198 156.652C235.251 156.252 235.209 155.845 235.077 155.463L235.064 155.476Z" fill="#F0997A"/>
<path d="M237.862 156.016C237.993 159.338 237.563 162.658 236.59 165.836C237.277 162.656 237.43 159.247 237.862 156.016Z" fill="#F0997A"/>
<path d="M239.44 159.101C239.639 161.585 239.367 164.083 238.638 166.466C238.886 164.291 239.274 161.257 239.44 159.101Z" fill="#F0997A"/>
<path d="M221.511 200.988C228.329 195.785 231.592 187.467 235.293 180C237.14 176.199 238.592 172.218 239.624 168.119C240.234 166.1 240.45 163.982 240.26 161.88C240.081 160.839 239.766 159.826 239.325 158.866C239.325 157.778 239.166 156.773 238.142 156.194C238.017 156.111 237.918 155.994 237.856 155.857C237.794 155.72 237.772 155.568 237.793 155.419C237.806 155.237 237.774 155.055 237.701 154.889C237.629 154.722 237.516 154.576 237.374 154.463C237.232 154.349 237.064 154.272 236.885 154.238C236.707 154.204 236.523 154.214 236.349 154.267C235.799 154.455 235.332 154.831 235.032 155.33C234.997 155.362 234.954 155.386 234.908 155.4C234.862 155.415 234.813 155.419 234.765 155.412C234.392 155.35 234.008 155.41 233.671 155.584C232.743 156.125 232.736 157.384 232.501 158.331C232.094 160.169 231.751 162.783 231.121 164.532C230.94 165.041 230.694 165.524 230.389 165.97C229.684 166.574 229.626 165.334 229.652 164.895C229.709 163.375 230.237 161.575 228.901 160.481C227.96 159.845 227.903 162.249 227.674 162.777L227.248 164.303C226.694 166.326 225.976 168.38 226.205 170.498C226.434 172.616 226.917 174.817 225.829 176.737C225.251 177.629 224.549 178.435 223.743 179.129C222.242 180.617 220.729 182.099 219.158 183.511C220.716 182.086 222.217 180.591 223.705 179.09C224.501 178.398 225.191 177.592 225.753 176.699C226.222 175.757 226.441 174.71 226.389 173.659C226.389 172.61 226.154 171.567 226.058 170.511C225.836 168.374 226.535 166.301 227.089 164.265L227.508 162.739C227.744 161.988 227.718 161.13 228.144 160.437C228.825 159.654 229.652 161.13 229.804 161.709C230.084 162.783 229.804 163.852 229.766 164.889C229.766 167.019 230.555 165.423 230.905 164.462C231.541 162.745 231.865 160.093 232.259 158.287C232.482 157.047 232.705 155.221 234.326 155.177C234.473 155.145 234.74 155.24 234.835 155.177C235.157 154.647 235.658 154.251 236.247 154.058C236.453 153.996 236.671 153.984 236.882 154.025C237.094 154.065 237.292 154.156 237.461 154.29C237.629 154.424 237.763 154.596 237.851 154.793C237.939 154.989 237.977 155.204 237.964 155.419C237.943 155.532 237.957 155.649 238.003 155.755C238.05 155.86 238.127 155.949 238.225 156.01C238.701 156.292 239.07 156.724 239.274 157.238C239.426 157.751 239.496 158.286 239.484 158.821C239.93 159.784 240.242 160.802 240.413 161.849C240.604 163.973 240.388 166.114 239.777 168.158C238.727 172.264 237.259 176.251 235.395 180.057C231.687 187.517 228.354 195.843 221.479 200.982L221.511 200.988Z" fill="#F0997A"/>
<path d="M219.164 183.511C216.258 184.878 213.79 187.619 213.313 189.177C213.313 189.177 213.052 184.477 218.763 181.794L219.164 183.511Z" fill="#F0997A"/>
<path d="M129.393 300.382C129.92 306.971 130.264 311.862 130.169 312.988C129.819 317.09 127.688 319.627 126.041 321.313C122.594 324.843 120.152 326.248 115.865 329.288C116.431 330.923 125.246 331.082 127.777 329.924C131.46 328.181 135.025 326.198 138.449 323.99C141.966 321.51 142.812 319.977 142.971 316.072C142.971 315.582 143.346 312.409 143.315 312.193C143.366 311.277 143.912 306.329 144.631 300.236L129.393 300.382Z" fill="#C8856A"/>
<path d="M181.233 313.407L181.57 297.895L164.939 299.46L168.468 314.317C168.468 314.317 170.217 335.305 171.012 338.739C173.671 349.755 182.607 345.309 183.669 339.471C184.4 335.572 181.233 313.407 181.233 313.407Z" fill="#C8856A"/>
<path d="M108.85 335.496C108.621 335.496 108.443 338.04 109.747 339.045C111.254 340.189 115.579 341.945 121.074 340.863C126.569 339.782 129.456 337.862 131.555 335.852C133.654 333.842 136.586 331.018 139.053 330.293C141.349 329.625 145.051 328.061 145.75 327.291C146.45 326.522 146.138 323.31 146.138 323.31L108.85 335.496Z" fill="#1E1E1E"/>
<path d="M143.321 312.186C143.545 312.279 143.747 312.419 143.913 312.597C144.079 312.775 144.204 312.986 144.281 313.217C144.51 314.094 144.593 315.226 145.051 316.657C145.687 318.642 146.323 322.757 146.107 324.423C145.89 326.089 140.942 327.825 138.576 328.913C136.211 330.001 133.425 332.163 131.046 334.408C128.668 336.653 123.242 339.254 119.636 339.547C114.129 339.986 110.459 338.72 109.231 336.806C107.705 334.433 108.22 331.832 114.364 328.468C115.521 327.832 119.573 325.053 120.953 324.054C122.413 323.001 123.783 321.829 125.049 320.55C125.69 319.9 126.295 319.217 126.861 318.502C127.458 317.859 127.953 317.13 128.33 316.339C128.394 316.168 128.432 315.964 128.483 315.786C128.63 315.291 128.736 314.785 128.801 314.272C128.865 313.732 128.877 312.956 129.361 312.606C129.844 312.256 137.813 313.299 138.424 314.145C138.825 314.836 139.044 315.617 139.06 316.416C139.098 316.784 139.117 317.16 139.142 317.529C139.142 317.688 139.142 317.98 139.327 317.897C139.511 317.815 139.728 317.262 139.798 317.058C139.944 316.632 140.033 316.174 140.198 315.754C140.33 315.243 140.568 314.767 140.898 314.355C141.896 313.401 142.927 313.503 143.207 313.178C143.238 313.178 143.308 312.504 143.321 312.186Z" fill="#37474F"/>
<path d="M114.027 328.659C122.04 328.659 124.686 334.936 125.227 337.982C123.455 338.789 121.569 339.317 119.636 339.547C114.129 339.986 110.236 338.739 109.002 336.819C107.565 334.58 108.5 331.184 114.027 328.659Z" fill="#FAFAFA"/>
<path d="M125.806 329.422C125.895 329.416 125.981 329.381 126.047 329.32C126.12 329.245 126.161 329.145 126.161 329.04C126.161 328.936 126.12 328.835 126.047 328.76C124.845 327.488 121.061 324.773 118.18 325.275C118.082 325.298 117.996 325.357 117.941 325.441C117.885 325.525 117.863 325.627 117.88 325.726C117.898 325.825 117.952 325.914 118.032 325.975C118.113 326.035 118.213 326.062 118.313 326.051C121.004 325.587 124.521 328.271 125.475 329.301C125.517 329.346 125.568 329.38 125.626 329.401C125.683 329.422 125.745 329.429 125.806 329.422Z" fill="#F5F5F5"/>
<path d="M129.113 327.183C129.203 327.181 129.289 327.144 129.354 327.081C129.427 327.008 129.468 326.908 129.468 326.805C129.468 326.701 129.427 326.602 129.354 326.528C128.152 325.256 124.362 322.528 121.487 323.043C121.436 323.051 121.388 323.07 121.344 323.097C121.301 323.124 121.263 323.16 121.234 323.202C121.204 323.244 121.183 323.291 121.172 323.342C121.161 323.392 121.16 323.444 121.169 323.494C121.177 323.545 121.195 323.594 121.222 323.638C121.249 323.682 121.285 323.72 121.327 323.75C121.369 323.78 121.417 323.801 121.467 323.811C121.518 323.822 121.57 323.822 121.621 323.812C124.311 323.348 127.828 326.038 128.782 327.062C128.823 327.108 128.874 327.144 128.932 327.165C128.99 327.186 129.052 327.192 129.113 327.183Z" fill="#F5F5F5"/>
<path d="M132.146 324.684C132.237 324.676 132.322 324.638 132.388 324.576C132.461 324.502 132.501 324.402 132.501 324.299C132.501 324.195 132.461 324.096 132.388 324.022C131.186 322.75 127.389 320.028 124.521 320.537C124.419 320.556 124.329 320.613 124.27 320.698C124.21 320.782 124.186 320.887 124.203 320.988C124.211 321.039 124.23 321.088 124.257 321.131C124.284 321.175 124.32 321.212 124.362 321.242C124.404 321.271 124.452 321.292 124.502 321.303C124.552 321.315 124.604 321.316 124.654 321.306C127.338 320.842 130.868 323.532 131.816 324.556C131.857 324.602 131.909 324.637 131.966 324.659C132.023 324.681 132.085 324.69 132.146 324.684Z" fill="#F5F5F5"/>
<path d="M135.117 322.178C135.205 322.174 135.288 322.137 135.352 322.076C135.429 322.007 135.475 321.909 135.481 321.806C135.487 321.702 135.452 321.601 135.384 321.523C133.73 319.685 129.723 317.535 126.849 318.044C126.798 318.053 126.75 318.071 126.706 318.099C126.663 318.126 126.626 318.162 126.596 318.204C126.536 318.288 126.513 318.393 126.531 318.495C126.548 318.597 126.606 318.688 126.69 318.748C126.775 318.807 126.88 318.831 126.982 318.813C129.571 318.362 133.342 320.422 134.805 322.051C134.843 322.095 134.892 322.129 134.946 322.151C135 322.173 135.058 322.182 135.117 322.178Z" fill="#F5F5F5"/>
<path d="M169.766 339.846C170.014 343.497 170.605 345.913 171.916 348.044C173.226 350.174 175.674 350.817 178.136 350.162C180.597 349.507 183.739 347.79 184.407 344.635C185.074 341.48 185.475 339.305 184.877 335.928L169.766 339.846Z" fill="#1E1E1E"/>
<path d="M181.233 313.407C182.25 313.293 182.034 318.324 182.67 323.227C183.351 328.487 184.133 330.567 184.737 334.879C185.43 339.801 184.642 342.015 182.95 345.017C181.258 348.018 175.204 351.008 172.138 346.772C169.651 343.318 169.511 339.458 169.683 334.529C169.855 329.441 169.327 326.026 168.875 322.184C168.405 318.209 167.572 314.737 168.449 314.317C168.681 315.604 168.983 316.878 169.352 318.133C169.461 318.406 169.861 319.087 169.988 318.056C170.033 317.751 169.931 317.045 169.95 316.74C169.957 316.471 170.048 316.211 170.211 315.997C170.375 315.784 170.602 315.627 170.86 315.551C172.205 314.887 173.685 314.543 175.185 314.546C177.169 314.546 178.886 314.431 179.999 314.985C180.667 315.322 180.635 315.958 180.737 316.581C180.832 317.319 180.845 317.777 181.023 317.63C181.424 317.338 181.233 313.407 181.233 313.407Z" fill="#37474F"/>
<path d="M185.049 337.728C185.265 340.364 184.628 343 183.23 345.245C181.538 348.247 174.962 351.256 171.941 347.02C170.427 344.915 169.995 342.403 169.766 339.846C171.528 336.532 182.181 334.936 185.049 337.728Z" fill="#FAFAFA"/>
<path d="M171.928 334.453C171.97 334.451 172.012 334.44 172.049 334.421C172.094 334.421 176.775 332.392 181.36 333.41C181.459 333.429 181.561 333.409 181.645 333.354C181.729 333.3 181.789 333.215 181.812 333.117C181.832 333.018 181.813 332.915 181.759 332.831C181.704 332.746 181.618 332.687 181.519 332.665C176.666 331.597 171.896 333.651 171.718 333.74C171.673 333.762 171.633 333.792 171.6 333.83C171.567 333.867 171.541 333.911 171.525 333.958C171.509 334.006 171.503 334.056 171.507 334.106C171.51 334.156 171.524 334.204 171.547 334.249C171.581 334.319 171.636 334.376 171.704 334.413C171.773 334.449 171.851 334.463 171.928 334.453Z" fill="#F5F5F5"/>
<path d="M181.093 329.733C181.178 329.722 181.256 329.682 181.316 329.621C181.375 329.559 181.412 329.48 181.421 329.395C181.43 329.31 181.41 329.224 181.364 329.152C181.319 329.079 181.25 329.024 181.169 328.996C176.597 327.501 171.566 329.88 171.375 329.982C171.287 330.03 171.221 330.111 171.193 330.208C171.164 330.304 171.175 330.408 171.222 330.497C171.271 330.583 171.351 330.648 171.446 330.676C171.541 330.705 171.643 330.695 171.731 330.649C171.776 330.649 176.679 328.315 180.934 329.714C180.985 329.733 181.039 329.739 181.093 329.733Z" fill="#F5F5F5"/>
<path d="M180.896 326.267C180.967 326.26 181.034 326.233 181.09 326.189C181.146 326.145 181.189 326.086 181.214 326.019C181.246 325.924 181.24 325.82 181.196 325.729C181.152 325.639 181.074 325.569 180.979 325.536C175.948 323.787 171.178 326.382 171 326.496C170.948 326.517 170.902 326.549 170.864 326.59C170.826 326.631 170.798 326.68 170.781 326.733C170.764 326.786 170.759 326.842 170.766 326.897C170.773 326.953 170.792 327.006 170.821 327.053C170.851 327.1 170.891 327.14 170.937 327.17C170.984 327.2 171.037 327.22 171.092 327.227C171.148 327.235 171.204 327.23 171.257 327.214C171.31 327.198 171.359 327.17 171.4 327.132C171.439 327.132 176.05 324.62 180.73 326.242C180.783 326.262 180.84 326.271 180.896 326.267Z" fill="#F5F5F5"/>
<path d="M180.61 322.852C180.697 322.846 180.779 322.81 180.842 322.75C180.905 322.69 180.945 322.609 180.956 322.523C180.966 322.436 180.946 322.349 180.9 322.276C180.853 322.202 180.782 322.147 180.699 322.121C175.986 320.41 170.847 323.075 170.656 323.189C170.606 323.209 170.561 323.24 170.524 323.28C170.487 323.319 170.459 323.367 170.442 323.418C170.425 323.469 170.419 323.524 170.425 323.577C170.431 323.631 170.448 323.683 170.476 323.73C170.504 323.776 170.542 323.816 170.586 323.846C170.631 323.877 170.682 323.897 170.735 323.906C170.788 323.915 170.843 323.913 170.895 323.899C170.948 323.885 170.996 323.86 171.038 323.825C171.082 323.825 176.062 321.23 180.444 322.82C180.496 322.843 180.553 322.854 180.61 322.852Z" fill="#EBEBEB"/>
<path d="M174.854 188.726C175.891 199.042 176.247 201.579 176.965 224.495C177.671 246.755 177.678 249.979 177.799 252.657C178.085 258.8 181.615 261.255 181.875 275.743C182.13 289.017 181.672 305.273 181.672 305.273C181.672 305.273 179.249 307.512 174.205 307.785C171.47 307.95 168.738 307.407 166.274 306.208C166.274 306.208 159.526 276.456 157.408 267.31C154.915 256.549 150.864 237.806 150.864 237.806C150.864 237.806 148.829 254.526 148.066 259.913C147.341 265.052 149.102 267.056 147.996 278.561C147.112 287.738 144.498 303.072 144.498 303.072C142.173 304.289 139.584 304.912 136.961 304.885C131.192 304.618 129.374 302.64 129.374 302.64C129.374 302.64 126.143 268.296 126.117 255.207C126.117 241.317 126.931 207.507 128.42 187.091L174.854 188.726Z" fill="#455A64"/>
<path d="M150.864 237.806L147.932 214.732C147.932 214.732 140.44 212.455 135.765 207.189C135.988 211.005 142.545 216.093 145.668 216.983L149.153 237.469L148.066 259.888L150.864 237.806Z" fill="#37474F"/>
<path d="M161.288 191.836C162.377 193.778 163.256 195.831 163.908 197.961C164.587 200.076 165.144 202.23 165.575 204.41C165.994 206.585 166.331 208.779 166.541 210.986C166.778 213.195 166.846 215.419 166.745 217.638C166.293 215.463 165.88 213.307 165.473 211.145C165.066 208.982 164.659 206.826 164.201 204.683C163.743 202.54 163.33 200.39 162.859 198.247C162.388 196.103 161.86 193.947 161.288 191.836Z" fill="#37474F"/>
<path d="M164.131 192.707C165.195 193.771 166.155 194.934 166.999 196.18C167.854 197.417 168.623 198.711 169.302 200.053C169.974 201.404 170.54 202.805 170.993 204.244C171.47 205.685 171.759 207.181 171.852 208.696L169.982 204.651C169.346 203.328 168.71 201.999 168.074 200.695C167.438 199.392 166.751 198.075 166.09 196.752C165.428 195.429 164.735 194.094 164.131 192.707Z" fill="#37474F"/>
<path d="M159.526 218.211C160.239 225.124 160.849 232.038 161.472 238.951C162.096 245.864 163.495 253.509 164.512 260.346C165.53 267.183 170.434 294.054 171.241 300.986C169.899 294.168 164.245 267.437 163.139 260.549C162.032 253.662 160.811 245.966 160.391 239.034C159.971 232.101 159.698 225.156 159.526 218.211Z" fill="#37474F"/>
<path d="M133.679 217.912L132.96 236.038C132.865 239.059 132.738 242.08 132.668 245.095C132.598 248.109 132.49 251.137 132.611 254.113C132.732 257.09 133.577 286.002 133.31 292.057C132.452 285.334 131.555 260.257 131.218 254.17C131.097 248.052 131.479 242.029 131.854 235.981C132.229 229.932 132.884 223.916 133.679 217.912Z" fill="#37474F"/>
<path d="M145.178 299.543L144.319 305.903C144.319 305.903 141.139 307.461 135.88 307.124C130.62 306.787 129.373 304.974 129.373 304.974L128.852 298.957C128.852 298.957 130.843 300.516 135.676 300.725C141.928 300.986 145.178 299.543 145.178 299.543Z" fill="#37474F"/>
<path d="M181.952 300.808L181.754 307.168C181.754 307.168 179.255 309.197 173.989 309.712C168.723 310.227 166.376 308.319 166.376 308.319L165.288 302.716C165.288 302.716 167.928 303.842 172.755 303.416C175.943 303.06 179.051 302.179 181.952 300.808Z" fill="#37474F"/>
<path d="M138.704 139.283C134.767 139.194 128.528 141.236 124.75 149.3C120.298 158.719 118.453 162.02 113.938 174.219L122.753 177.558L130.906 166.65L138.704 139.283Z" fill="#C8856A"/>
<path d="M130.9 166.65L133.196 158.198C130.735 159.89 125.926 163.197 124.165 164.45C121.754 166.167 118.008 167.662 116.304 171.21L126.562 172.482L130.9 166.65Z" fill="#AF6152"/>
<path d="M139.702 138.673C130.525 139.697 128.038 141.261 123.834 149.765C121.061 155.38 117.608 164.564 117.608 164.564C117.608 164.564 119.401 166.243 123.408 167.331C128.496 168.705 131.517 167.414 131.517 167.414L139.702 138.673Z" fill="#1E1E1E"/>
<path d="M174.867 141.35C174.867 141.35 178.288 146.718 178.047 160.71C177.932 167.274 175.801 172.998 175.623 180.649C175.452 187.956 176.603 199.226 176.603 199.226C168.895 205.338 135.18 206.858 127.834 197.013C127.834 197.013 128.146 185.438 128.566 173.055C128.877 163.82 129.838 156.697 130.919 152.34C132.668 145.306 137.661 140.097 139.715 138.673C145.283 137.351 151.025 136.922 156.728 137.401C163.934 138.164 171.197 140.32 174.867 141.35Z" fill="#F5F5F5"/>
<path d="M152.339 137.197V137.833C153.777 137.832 155.214 137.904 156.645 138.049C163.132 138.724 169.664 140.555 173.563 141.649L174.421 141.885C175.013 143.004 177.601 148.588 177.366 160.666C177.24 163.748 176.864 166.815 176.24 169.837C175.533 173.387 175.107 176.987 174.968 180.604C174.816 187.117 175.712 196.86 175.91 198.889C172.189 201.554 162.795 203.398 152.797 203.398C140.872 203.398 131.809 200.918 128.521 196.759C128.566 195.041 128.865 184.318 129.246 173.049C129.52 164.819 130.372 157.32 131.58 152.474C133.228 145.86 137.889 140.791 140.001 139.264C144.058 138.341 148.204 137.861 152.365 137.833V137.197M152.365 137.197C148.111 137.227 143.874 137.722 139.728 138.673C137.673 140.097 132.681 145.306 130.932 152.34C129.85 156.697 128.89 163.788 128.578 173.055C128.159 185.438 127.847 197.013 127.847 197.013C131.599 202.037 142.252 204.098 152.797 204.098C162.872 204.098 172.85 202.19 176.616 199.226C176.616 199.226 175.464 187.956 175.636 180.649C175.814 173.017 177.945 167.293 178.059 160.71C178.314 146.718 174.879 141.35 174.879 141.35C171.21 140.333 163.946 138.17 156.728 137.413C155.274 137.267 153.813 137.195 152.352 137.197H152.365Z" fill="#E0E0E0"/>
<path d="M164.023 105.474C164.023 105.474 166.408 105.575 168.068 108.456C168.907 109.9 169.562 112.571 167.699 120.33C166.983 123.36 165.813 126.264 164.226 128.942C163.754 129.811 162.97 130.468 162.032 130.78L161.981 124.865L162.058 120.738C162.058 120.738 158.559 117.844 158.159 114.893C157.644 111.077 159.087 108.889 159.087 108.889L164.023 105.474Z" fill="#37474F"/>
<path d="M164.85 105.645C164.144 102.344 159.698 98.5284 151.385 98.3694C148.561 98.2808 145.764 98.9465 143.282 100.298C140.801 101.649 138.724 103.638 137.266 106.059C135.04 110.021 138.538 113.233 138.538 113.233L159.31 111.484L164.85 105.645Z" fill="#37474F"/>
<path d="M167.559 126.411C164.481 128.001 162.967 125.628 162.967 125.628L162.516 139.716C156.792 147.78 140.745 144.168 147.099 138.068L147.175 134.71C146.324 134.709 145.474 134.649 144.631 134.532C143.219 134.401 141.874 133.863 140.762 132.982C139.65 132.101 138.818 130.916 138.367 129.571C137.828 127.983 137.503 126.33 137.4 124.655C137.219 121.726 137.351 118.786 137.794 115.885C138.138 113.582 138.055 112.393 138.43 110.511C138.697 109.073 139.27 107.49 140.586 106.796C143.855 105.079 147.01 107.292 151.697 108.908C153.643 109.544 158.305 109.741 159.507 109.137C157.955 110.937 158.165 116.451 160.627 118.607C160.952 119.177 161.384 119.68 161.899 120.089C162.942 120.916 163.692 118.664 164.513 117.761C165.333 116.858 168.5 115.98 169.982 118.804C170.342 119.458 170.564 120.179 170.636 120.922C170.709 121.666 170.629 122.416 170.402 123.127C170.176 123.839 169.807 124.497 169.318 125.061C168.829 125.625 168.231 126.085 167.559 126.411Z" fill="#C8856A"/>
<path d="M147.175 134.71C150.807 134.57 154.209 134.011 156.321 133.05C158.432 132.09 160.226 129.196 160.773 126.36C160.856 128.624 159.984 132.675 156.798 134.456C153.612 136.237 149.535 136.428 147.162 136.555L147.175 134.71Z" fill="#AF6152"/>
<path d="M154.572 113.182L151.544 111.808C151.367 112.214 151.355 112.674 151.512 113.089C151.669 113.504 151.982 113.841 152.384 114.028C152.583 114.119 152.798 114.17 153.016 114.177C153.235 114.183 153.453 114.146 153.657 114.067C153.861 113.989 154.047 113.87 154.204 113.717C154.361 113.565 154.486 113.383 154.572 113.182Z" fill="#37474F"/>
<path d="M143.276 111.217L140.166 112.45C140.242 112.654 140.358 112.841 140.508 113C140.657 113.158 140.837 113.285 141.036 113.373C141.235 113.46 141.45 113.507 141.668 113.51C141.885 113.514 142.102 113.473 142.303 113.392C142.718 113.228 143.051 112.909 143.233 112.502C143.415 112.096 143.431 111.634 143.276 111.217Z" fill="#37474F"/>
<path d="M153.383 116.858C153.389 117.142 153.31 117.422 153.157 117.662C153.003 117.902 152.781 118.09 152.52 118.203C152.259 118.316 151.97 118.349 151.69 118.296C151.41 118.244 151.152 118.11 150.949 117.911C150.746 117.711 150.607 117.456 150.55 117.177C150.493 116.898 150.52 116.608 150.628 116.345C150.737 116.082 150.921 115.857 151.158 115.699C151.395 115.541 151.673 115.457 151.958 115.459C152.143 115.457 152.327 115.492 152.499 115.561C152.671 115.631 152.828 115.733 152.96 115.863C153.092 115.993 153.198 116.148 153.27 116.319C153.343 116.489 153.381 116.672 153.383 116.858Z" fill="#1E1E1E"/>
<path d="M143.385 116.438C143.391 116.723 143.312 117.003 143.159 117.242C143.005 117.482 142.783 117.67 142.522 117.783C142.261 117.896 141.972 117.929 141.692 117.877C141.412 117.825 141.154 117.69 140.951 117.491C140.748 117.291 140.609 117.036 140.552 116.757C140.495 116.478 140.522 116.189 140.631 115.926C140.739 115.662 140.923 115.437 141.16 115.279C141.397 115.122 141.675 115.038 141.96 115.039C142.145 115.037 142.329 115.072 142.501 115.142C142.673 115.211 142.83 115.314 142.962 115.444C143.094 115.573 143.2 115.728 143.272 115.899C143.345 116.07 143.383 116.253 143.385 116.438Z" fill="#1E1E1E"/>
<path d="M148.186 114.594L147.366 123.091L142.742 121.596C144.005 118.881 145.866 116.487 148.186 114.594Z" fill="#AF6152"/>
<path d="M151.112 123.377C151.112 123.32 151.036 123.256 150.972 123.282C150.789 123.36 150.636 123.493 150.533 123.663C150.432 123.798 150.324 123.928 150.209 124.051C149.967 124.309 149.683 124.524 149.369 124.687C149.031 124.863 148.666 124.981 148.288 125.037C148.072 125.037 147.849 125.107 147.652 125.12C147.464 125.111 147.276 125.128 147.093 125.17C146.959 125.221 147.093 125.431 147.156 125.469C147.374 125.56 147.607 125.608 147.843 125.609C148.08 125.638 148.319 125.638 148.555 125.609C149.013 125.531 149.455 125.381 149.865 125.164C150.201 124.98 150.503 124.739 150.756 124.452C150.888 124.308 151.001 124.147 151.093 123.975C151.145 123.884 151.174 123.782 151.177 123.678C151.18 123.574 151.158 123.47 151.112 123.377Z" fill="#AF6152"/>
<path d="M139.6 169.08C141.143 167.65 143.022 166.635 145.064 166.129C147.385 165.493 148.682 164.653 150.934 164.125C151.874 163.96 152.788 163.676 153.656 163.28C154.11 163.065 154.497 162.731 154.775 162.313C154.991 161.926 155.057 161.473 154.96 161.041C155.496 160.939 155.994 160.69 156.397 160.322C156.747 159.955 156.944 159.468 156.95 158.961C156.946 158.798 156.909 158.638 156.84 158.49C156.771 158.342 156.672 158.21 156.55 158.103C156.938 157.715 158.089 156.621 157.472 155.425C157.237 155.12 156.753 155.107 156.378 155.031C156.003 154.954 155.106 154.878 154.909 154.865C154.849 154.718 154.758 154.586 154.642 154.477C153.914 153.845 153.002 153.464 152.041 153.39C150.978 153.331 149.912 153.384 148.861 153.549C147.735 153.644 146.584 153.638 145.458 153.657C145.22 153.67 144.981 153.657 144.746 153.619C144.218 153.511 143.76 153.148 143.226 153.072C142.759 153.027 142.288 153.047 141.826 153.129C140.815 153.31 139.887 153.807 139.174 154.547C137.184 156.563 135.664 158.872 133.45 160.691C131.552 162.194 129.526 163.528 127.396 164.679C124.05 166.587 117.595 167.585 114.809 172.311C112.952 175.459 112.513 180.267 114.332 182.887C115.534 184.605 121.551 185.024 125.602 182.404C130.372 179.313 137.635 171.032 139.6 169.08Z" fill="#C8856A"/>
<path d="M144.65 155.38C147.988 154.799 151.381 154.607 154.763 154.808C151.395 154.182 147.926 154.379 144.65 155.38ZM144.879 158.077C148.695 157.606 152.664 157.168 156.397 158.128C154.616 157.314 152.581 157.288 150.673 157.282C148.716 157.299 146.769 157.566 144.879 158.077ZM152.906 159.985C149.933 159.724 146.937 160.017 144.072 160.85C146.979 160.324 149.934 160.111 152.886 160.214C153.758 160.214 155.17 160.36 154.941 161.569C155.019 161.325 155.005 161.061 154.902 160.827C154.799 160.592 154.613 160.404 154.381 160.297C153.909 160.109 153.412 159.993 152.906 159.953V159.985Z" fill="#AF6152"/>
<path d="M174.937 141.7C179.637 143.055 185.151 146.565 183.796 155.94C182.524 164.755 177.474 184.268 175.573 189.139C173.41 194.673 171.121 196.638 168.208 197.318C165.664 197.903 162.821 196.288 160.677 194.812C154.559 190.577 150.501 181.997 146.107 173.017C144.056 168.782 142.533 164.311 141.572 159.705C141.389 158.639 141.329 157.555 141.394 156.474C141.471 155.453 141.718 154.451 142.125 153.511C142.198 153.379 142.257 153.24 142.303 153.097C142.354 152.857 142.374 152.611 142.361 152.366C142.34 151.754 142.546 151.156 142.939 150.687C143.136 150.503 143.349 150.337 143.575 150.191C143.648 150.137 143.713 150.073 143.766 150C143.919 149.777 143.83 149.472 143.855 149.205C143.908 148.911 144.066 148.646 144.3 148.461C144.535 148.276 144.829 148.183 145.127 148.2C145.457 148.239 145.774 148.354 146.053 148.535C146.332 148.715 146.566 148.958 146.736 149.243C146.764 149.288 146.804 149.326 146.851 149.351C146.907 149.364 146.966 149.364 147.023 149.351C147.288 149.311 147.559 149.328 147.818 149.402C148.057 149.477 148.275 149.607 148.454 149.784C148.831 150.24 149.073 150.793 149.153 151.38C149.369 152.334 149.528 153.288 149.751 154.248C150.183 156.112 150.387 158.064 151.398 159.731C151.494 159.883 151.64 160.055 151.818 160.011C151.996 159.966 152.034 159.775 152.06 159.61C152.301 157.899 151.284 156.118 152.594 154.611C153.739 153.301 153.949 155.845 154.139 156.519C154.4 157.409 154.655 158.3 154.915 159.184C155.412 160.635 155.701 162.148 155.774 163.68C155.774 165.124 155.392 166.555 155.462 167.999C155.497 169.43 156.075 170.794 157.078 171.815C161.059 175.758 162.872 177.316 162.872 177.316L165.74 162.58C165.74 162.58 166.109 154.121 169.403 147.405C171.579 142.985 174.937 141.7 174.937 141.7Z" fill="#C8856A"/>
<path d="M146.609 149.529C146.202 150.254 146.367 151.157 146.374 151.952C146.528 154.4 146.97 156.82 147.69 159.165C147.455 157.772 147.156 155.756 146.927 154.344C146.743 153.148 146.609 151.927 146.501 150.719C146.444 150.319 146.481 149.912 146.609 149.529Z" fill="#AF6152"/>
<path d="M143.836 150.102C143.74 153.421 144.204 156.732 145.21 159.896C144.485 156.716 144.294 153.326 143.836 150.102Z" fill="#AF6152"/>
<path d="M142.297 153.205C142.126 155.685 142.424 158.175 143.175 160.545C142.908 158.376 142.507 155.349 142.297 153.205Z" fill="#AF6152"/>
<path d="M160.652 194.812C153.79 189.693 150.432 181.425 146.66 174.015C144.776 170.241 143.284 166.283 142.208 162.205C141.587 160.194 141.356 158.082 141.528 155.985C141.696 154.943 141.997 153.928 142.424 152.964C142.424 151.882 142.558 150.878 143.575 150.286C143.701 150.201 143.799 150.083 143.86 149.945C143.921 149.806 143.941 149.653 143.919 149.504C143.903 149.323 143.932 149.141 144.002 148.974C144.073 148.807 144.183 148.66 144.324 148.545C144.464 148.43 144.63 148.352 144.808 148.316C144.986 148.28 145.17 148.288 145.344 148.34C145.892 148.524 146.36 148.892 146.666 149.383C146.702 149.416 146.744 149.441 146.79 149.455C146.837 149.47 146.886 149.473 146.934 149.466C147.306 149.399 147.69 149.455 148.027 149.625C148.962 150.152 148.988 151.412 149.229 152.353C149.662 154.185 150.031 156.805 150.68 158.529C150.867 159.034 151.119 159.513 151.43 159.953C152.142 160.545 152.181 159.317 152.155 158.866C152.079 157.352 151.519 155.565 152.855 154.458C153.783 153.822 153.866 156.214 154.127 156.735L154.572 158.255C155.151 160.265 155.876 162.306 155.685 164.424C155.494 166.542 155.049 168.743 156.136 170.651C156.72 171.535 157.429 172.33 158.242 173.01C159.762 174.479 161.282 175.942 162.872 177.335C161.294 175.93 159.781 174.454 158.28 172.972C157.48 172.288 156.782 171.494 156.206 170.613C155.72 169.677 155.482 168.633 155.513 167.579C155.513 166.529 155.723 165.493 155.806 164.437C156.003 162.3 155.278 160.233 154.705 158.217L154.267 156.697C154.025 155.946 154.038 155.088 153.58 154.407C152.893 153.625 152.085 155.113 151.939 155.679C151.672 156.754 151.996 157.816 152.015 158.859C152.053 160.984 151.227 159.4 150.87 158.452C150.234 156.741 149.865 154.096 149.446 152.296C149.21 151.068 148.962 149.243 147.347 149.224C147.201 149.192 146.94 149.288 146.838 149.224C146.509 148.699 146.004 148.309 145.413 148.124C145.207 148.065 144.99 148.056 144.78 148.099C144.57 148.142 144.373 148.236 144.207 148.371C144.041 148.507 143.91 148.681 143.825 148.878C143.741 149.075 143.705 149.29 143.722 149.504C143.744 149.617 143.732 149.734 143.687 149.839C143.641 149.945 143.565 150.034 143.467 150.095C142.991 150.393 142.626 150.84 142.431 151.367C142.286 151.882 142.221 152.416 142.24 152.951C141.808 153.915 141.508 154.934 141.349 155.978C141.182 158.103 141.421 160.24 142.055 162.275C143.151 166.361 144.662 170.325 146.565 174.104C150.381 181.507 153.777 189.775 160.697 194.832L160.652 194.812Z" fill="#AF6152"/>
<path d="M162.853 177.335C165.772 178.664 168.265 181.367 168.761 182.926C168.761 182.926 168.964 178.226 163.228 175.618L162.853 177.335Z" fill="#AF6152"/>
<path d="M174.79 141.223C182.06 143.131 184.33 146.718 184.292 152.302C184.292 160.036 180.711 173.538 179.401 178.206C171.807 181.024 163.196 174.308 163.196 174.308L165.219 162.58C165.219 162.58 166.23 144.537 174.79 141.223Z" fill="#1E1E1E"/>
<path d="M261.14 104.761C257.836 106.666 255.384 109.76 254.284 113.411L253.877 115.084C253.236 118.776 253.999 122.575 256.017 125.734C258.034 128.892 261.16 131.183 264.779 132.154C268.399 133.126 272.251 132.708 275.579 130.984C278.907 129.26 281.47 126.354 282.764 122.836L283.247 121.189C283.912 118.34 283.729 115.359 282.722 112.612C281.715 109.865 279.928 107.472 277.58 105.727C275.232 103.982 272.425 102.961 269.504 102.789C266.583 102.618 263.676 103.303 261.14 104.761Z" fill="white"/>
<path d="M260.504 103.648C257.168 105.571 254.619 108.612 253.309 112.233C251.998 115.854 252.01 119.821 253.343 123.434L250.163 127.377C250.044 127.527 249.973 127.708 249.96 127.898C249.946 128.087 249.989 128.277 250.085 128.442C250.18 128.607 250.323 128.739 250.494 128.821C250.666 128.904 250.859 128.932 251.047 128.904L256.052 128.141C258.028 130.54 260.649 132.324 263.606 133.283C266.562 134.241 269.732 134.335 272.74 133.552C275.748 132.769 278.469 131.143 280.583 128.864C282.697 126.586 284.116 123.75 284.672 120.692C285.228 117.634 284.898 114.481 283.721 111.604C282.544 108.727 280.569 106.247 278.028 104.456C275.488 102.664 272.489 101.637 269.384 101.493C266.279 101.35 263.198 102.098 260.504 103.648ZM281.657 110.294C283.564 113.607 284.13 117.523 283.241 121.24L282.764 122.862C281.491 126.414 278.927 129.357 275.582 131.105C272.237 132.852 268.357 133.276 264.714 132.292C261.071 131.309 257.932 128.989 255.921 125.796C253.911 122.602 253.176 118.769 253.864 115.058L254.271 113.385C255.125 110.582 256.781 108.09 259.034 106.216C261.287 104.342 264.04 103.168 266.952 102.84C269.864 102.511 272.809 103.042 275.423 104.366C278.037 105.691 280.207 107.752 281.664 110.294H281.657Z" fill="#455A64"/>
<path d="M266.342 127.072C266.019 127.073 265.7 127.008 265.403 126.879C265.107 126.751 264.84 126.564 264.619 126.328L259.277 120.604C259.032 120.386 258.836 120.118 258.701 119.82C258.566 119.521 258.495 119.197 258.492 118.869C258.49 118.542 258.556 118.217 258.686 117.916C258.816 117.615 259.008 117.345 259.248 117.122C259.489 116.9 259.774 116.73 260.084 116.624C260.394 116.518 260.723 116.478 261.05 116.506C261.376 116.534 261.693 116.631 261.98 116.789C262.268 116.947 262.519 117.163 262.717 117.424L266.19 121.126L274.394 110.727C274.584 110.477 274.821 110.267 275.093 110.109C275.365 109.952 275.665 109.85 275.977 109.811C276.288 109.771 276.604 109.794 276.907 109.878C277.21 109.962 277.492 110.105 277.739 110.3C277.985 110.495 278.19 110.737 278.342 111.012C278.493 111.287 278.589 111.589 278.622 111.901C278.655 112.214 278.626 112.529 278.535 112.83C278.445 113.131 278.296 113.41 278.096 113.653L268.187 126.175C267.977 126.443 267.713 126.661 267.411 126.816C267.109 126.971 266.777 127.058 266.438 127.072H266.342Z" fill="#57AE8F"/>
<path d="M117.735 106.052C121.037 107.959 123.488 111.052 124.591 114.702L124.998 116.375C125.678 120.086 124.936 123.916 122.92 127.105C120.903 130.294 117.761 132.607 114.117 133.584C110.473 134.561 106.595 134.131 103.253 132.379C99.9124 130.626 97.3533 127.681 96.0853 124.127L95.5956 122.512C94.9289 119.659 95.1111 116.673 96.1197 113.923C97.1283 111.172 98.9193 108.776 101.272 107.03C103.625 105.284 106.437 104.264 109.362 104.096C112.287 103.928 115.197 104.619 117.735 106.084V106.052Z" fill="white"/>
<path d="M96.0916 110.95C94.0634 114.493 93.4386 118.668 94.3407 122.65C95.2429 126.631 97.6063 130.129 100.964 132.452C104.321 134.775 108.428 135.754 112.472 135.195C116.516 134.635 120.203 132.579 122.804 129.432L127.809 130.195C127.998 130.225 128.191 130.198 128.364 130.115C128.536 130.033 128.68 129.901 128.775 129.735C128.87 129.569 128.913 129.378 128.897 129.188C128.881 128.997 128.808 128.816 128.687 128.668L125.507 124.725C126.923 120.892 126.849 116.666 125.297 112.885C123.745 109.105 120.83 106.045 117.129 104.312C113.428 102.579 109.211 102.299 105.313 103.529C101.416 104.758 98.1222 107.407 96.0853 110.95H96.0916ZM117.716 106.04C121.021 107.939 123.477 111.028 124.584 114.676L124.991 116.349C125.679 120.06 124.945 123.893 122.935 127.087C120.924 130.28 117.785 132.6 114.142 133.584C110.498 134.567 106.618 134.143 103.274 132.396C99.9289 130.648 97.3648 127.705 96.0916 124.153L95.6083 122.512C94.9326 119.66 95.1066 116.672 96.1088 113.917C97.1109 111.162 98.8975 108.761 101.248 107.01C103.599 105.258 106.41 104.233 109.337 104.061C112.263 103.888 115.176 104.576 117.716 106.04Z" fill="#455A64"/>
<path d="M107.94 128.363C107.618 128.364 107.3 128.298 107.004 128.17C106.709 128.042 106.443 127.854 106.223 127.619L100.881 121.895C100.649 121.673 100.465 121.407 100.34 121.111C100.214 120.816 100.151 120.498 100.153 120.178C100.155 119.857 100.223 119.54 100.352 119.246C100.481 118.953 100.669 118.689 100.904 118.47C101.139 118.252 101.416 118.084 101.718 117.976C102.02 117.869 102.341 117.825 102.661 117.846C102.981 117.867 103.294 117.953 103.579 118.099C103.865 118.246 104.117 118.449 104.321 118.696L107.794 122.397L115.998 111.999C116.188 111.749 116.425 111.539 116.697 111.381C116.969 111.224 117.269 111.122 117.581 111.082C117.892 111.043 118.209 111.066 118.511 111.15C118.814 111.234 119.096 111.377 119.343 111.572C119.589 111.767 119.794 112.009 119.946 112.283C120.097 112.558 120.193 112.861 120.226 113.173C120.259 113.485 120.23 113.801 120.139 114.102C120.049 114.403 119.9 114.682 119.7 114.924L109.772 127.466C109.562 127.733 109.297 127.951 108.995 128.106C108.693 128.26 108.362 128.348 108.023 128.363H107.94Z" fill="#57AE8F"/>
<defs>
<filter id="filter0_d_5813_1488" x="-139" y="-175" width="654" height="654" filterUnits="userSpaceOnUse" color-interpolation-filters="sRGB">
<feFlood flood-opacity="0" result="BackgroundImageFix"/>
<feColorMatrix in="SourceAlpha" type="matrix" values="0 0 0 0 0 0 0 0 0 0 0 0 0 0 0 0 0 0 127 0" result="hardAlpha"/>
<feOffset dy="1"/>
<feGaussianBlur stdDeviation="30"/>
<feComposite in2="hardAlpha" operator="out"/>
<feColorMatrix type="matrix" values="0 0 0 0 0 0 0 0 0 0 0 0 0 0 0 0 0 0 0.15 0"/>
<feBlend mode="normal" in2="BackgroundImageFix" result="effect1_dropShadow_5813_1488"/>
<feBlend mode="normal" in="SourceGraphic" in2="effect1_dropShadow_5813_1488" result="shape"/>
</filter>
</defs>
</svg>
