<svg width="25" height="24" viewBox="0 0 25 24" fill="none" xmlns="http://www.w3.org/2000/svg">
<path d="M7.25886 15.7229L7.97037 15.9601L7.25886 15.7229ZM7.82075 14.0373L7.10924 13.8001H7.10924L7.82075 14.0373ZM8.40054 13.0992L8.93086 13.6295L8.93087 13.6295L8.40054 13.0992ZM13.9999 7.49977L13.4696 6.96944L13.4696 6.96944L13.9999 7.49977ZM16.9999 10.4998L17.5302 11.0301H17.5302L16.9999 10.4998ZM11.4005 16.0992L10.8702 15.5688L10.8702 15.5688L11.4005 16.0992ZM10.4624 16.6789L10.6996 17.3904H10.6996L10.4624 16.6789ZM8.77676 17.2408L9.01393 17.9523H9.01393L8.77676 17.2408ZM11.093 16.3862L10.6413 15.7875L10.6413 15.7875L11.093 16.3862ZM10.8567 16.5322L10.5232 15.8605L10.8567 16.5322ZM17.7226 8.33375L17.0506 8.66676V8.66676L17.7226 8.33375ZM17.7226 9.6658L17.0506 9.33279V9.33279L17.7226 9.6658ZM14.8339 6.77707L15.1669 7.44908V7.44908L14.8339 6.77707ZM16.1659 6.77707L15.8329 7.44908V7.44908L16.1659 6.77707ZM7.96745 13.643L8.63921 13.9765L8.63921 13.9765L7.96745 13.643ZM8.11349 13.4067L7.51475 12.955L7.51475 12.955L8.11349 13.4067ZM6.97934 17.0658L6.27291 17.3177L6.97934 17.0658ZM7.43386 17.5203L7.18195 18.2268L7.18195 18.2268L7.43386 17.5203ZM13.7802 7.71947C13.4873 7.42658 13.0125 7.42658 12.7196 7.71947C12.4267 8.01236 12.4267 8.48724 12.7196 8.78013L13.7802 7.71947ZM15.7196 11.7801C16.0125 12.073 16.4873 12.073 16.7802 11.7801C17.0731 11.4872 17.0731 11.0124 16.7802 10.7195L15.7196 11.7801ZM7.97037 15.9601L8.53226 14.2744L7.10924 13.8001L6.54735 15.4858L7.97037 15.9601ZM8.93087 13.6295L14.5302 8.0301L13.4696 6.96944L7.87021 12.5688L8.93087 13.6295ZM16.4696 9.96944L10.8702 15.5688L11.9309 16.6295L17.5302 11.0301L16.4696 9.96944ZM10.2253 15.9674L8.53958 16.5293L9.01393 17.9523L10.6996 17.3904L10.2253 15.9674ZM10.8702 15.5688C10.7066 15.7324 10.6735 15.7632 10.6413 15.7875L11.5447 16.9849C11.6793 16.8833 11.7956 16.7647 11.9309 16.6295L10.8702 15.5688ZM10.6996 17.3904C10.8811 17.33 11.0391 17.279 11.1902 17.204L10.5232 15.8605C10.4871 15.8784 10.4447 15.8943 10.2253 15.9674L10.6996 17.3904ZM10.6413 15.7875C10.6043 15.8154 10.5647 15.8398 10.5232 15.8605L11.1902 17.204C11.3149 17.1421 11.4336 17.0688 11.5447 16.9849L10.6413 15.7875ZM16.4696 8.0301C16.9213 8.48186 17.0097 8.58428 17.0506 8.66676L18.3946 8.00074C18.2169 7.64208 17.8964 7.33556 17.5302 6.96944L16.4696 8.0301ZM17.5302 11.0301C17.8964 10.664 18.2169 10.3575 18.3946 9.99881L17.0506 9.33279C17.0097 9.41527 16.9213 9.51769 16.4696 9.96944L17.5302 11.0301ZM17.0506 8.66676C17.1546 8.87659 17.1546 9.12295 17.0506 9.33279L18.3946 9.99881C18.7066 9.36931 18.7066 8.63024 18.3946 8.00074L17.0506 8.66676ZM14.5302 8.0301C14.982 7.57835 15.0844 7.48995 15.1669 7.44908L14.5009 6.10505C14.1422 6.28278 13.8357 6.60333 13.4696 6.96944L14.5302 8.0301ZM17.5302 6.96944C17.1641 6.60332 16.8576 6.28278 16.499 6.10505L15.8329 7.44908C15.9154 7.48995 16.0178 7.57835 16.4696 8.0301L17.5302 6.96944ZM15.1669 7.44908C15.3767 7.3451 15.6231 7.3451 15.8329 7.44908L16.499 6.10505C15.8695 5.79311 15.1304 5.79311 14.5009 6.10505L15.1669 7.44908ZM8.53226 14.2744C8.60541 14.055 8.62129 14.0126 8.63921 13.9765L7.29569 13.3095C7.22068 13.4605 7.16973 13.6186 7.10924 13.8001L8.53226 14.2744ZM7.87021 12.5688C7.73495 12.7041 7.61634 12.8203 7.51475 12.955L8.71223 13.8584C8.73649 13.8262 8.7673 13.793 8.93086 13.6295L7.87021 12.5688ZM8.63921 13.9765C8.65984 13.935 8.68428 13.8954 8.71223 13.8584L7.51475 12.955C7.43093 13.0661 7.35759 13.1848 7.29569 13.3095L8.63921 13.9765ZM6.54735 15.4858C6.42994 15.838 6.32471 16.1513 6.2648 16.4063C6.20751 16.6501 6.15339 16.9826 6.27291 17.3177L7.68577 16.8139C7.71841 16.9054 7.6819 16.9329 7.72503 16.7494C7.76554 16.577 7.84351 16.3407 7.97037 15.9601L6.54735 15.4858ZM8.53958 16.5293C8.15899 16.6562 7.92271 16.7341 7.75031 16.7747C7.56678 16.8178 7.59425 16.7813 7.68577 16.8139L7.18195 18.2268C7.51714 18.3463 7.84964 18.2922 8.09344 18.2349C8.34837 18.175 8.6617 18.0697 9.01393 17.9523L8.53958 16.5293ZM6.27291 17.3177C6.42414 17.7418 6.75787 18.0755 7.18195 18.2268L7.68577 16.8139L7.68577 16.8139L6.27291 17.3177ZM12.7196 8.78013L15.7196 11.7801L16.7802 10.7195L13.7802 7.71947L12.7196 8.78013Z" fill="#424242"/>
</svg>
