<svg width="21" height="20" viewBox="0 0 21 20" fill="none" xmlns="http://www.w3.org/2000/svg">
<path d="M11.3008 5.04068L10.5 6.11094L9.69933 5.04068C9.03753 4.1561 7.97857 3.58331 6.80004 3.58331C4.79866 3.58331 3.16671 5.21425 3.16671 7.24164C3.16671 8.12455 3.30732 8.93747 3.55149 9.69215L3.55151 9.69215L3.55357 9.69866C4.1403 11.5554 5.35011 13.0722 6.68412 14.2187C8.02254 15.3689 9.4284 16.0965 10.3055 16.3949L10.3055 16.3949L10.3149 16.3982C10.3149 16.3981 10.3309 16.403 10.3651 16.4078C10.4028 16.4132 10.4493 16.4166 10.5 16.4166C10.5508 16.4166 10.5973 16.4132 10.635 16.4078C10.6658 16.4034 10.6819 16.3991 10.6847 16.3983L10.6946 16.3949C11.5717 16.0965 12.9775 15.3689 14.316 14.2187C15.65 13.0722 16.8598 11.5554 17.4465 9.69866L17.4465 9.69865L17.4486 9.69215C17.6928 8.93747 17.8334 8.12455 17.8334 7.24164C17.8334 5.21425 16.2014 3.58331 14.2 3.58331C13.0215 3.58331 11.9625 4.1561 11.3008 5.04068Z" stroke="#2F1E19" stroke-width="2"/>
</svg>
