<svg width="40" height="41" viewBox="0 0 40 41" fill="none" xmlns="http://www.w3.org/2000/svg">
<path d="M37.5017 21.1113C37.5017 19.6724 37.3826 18.6224 37.1247 17.5336H20.3589V24.0279H30.2001C30.0017 25.6419 28.9303 28.0724 26.5493 29.7057L26.5159 29.9231L31.817 33.9476L32.1843 33.9836C35.5572 30.9308 37.5017 26.4391 37.5017 21.1113Z" fill="#4285F4"/>
<path d="M20.3578 38.2227C25.1792 38.2227 29.2267 36.667 32.1832 33.9838L26.5482 29.7058C25.0403 30.7364 23.0165 31.4559 20.3578 31.4559C15.6356 31.4559 11.6278 28.4031 10.1991 24.1837L9.98964 24.2011L4.47754 28.3817L4.40546 28.5781C7.34192 34.2948 13.3737 38.2227 20.3578 38.2227Z" fill="#34A853"/>
<path d="M10.2001 24.1837C9.82312 23.0949 9.60495 21.9281 9.60495 20.7226C9.60495 19.517 9.82312 18.3504 10.1803 17.2615L10.1703 17.0296L4.58909 12.7819L4.40648 12.867C3.19622 15.2392 2.50177 17.9032 2.50177 20.7226C2.50177 23.542 3.19622 26.2058 4.40648 28.5781L10.2001 24.1837Z" fill="#FBBC05"/>
<path d="M20.3579 9.98928C23.711 9.98928 25.9729 11.4087 27.2626 12.5949L32.3023 7.77265C29.2072 4.95322 25.1793 3.22266 20.3579 3.22266C13.3737 3.22266 7.34194 7.1504 4.40546 12.867L10.1793 17.2615C11.6278 13.0421 15.6357 9.98928 20.3579 9.98928Z" fill="#EB4335"/>
</svg>
