<svg width="32" height="32" viewBox="0 0 32 32" fill="none" xmlns="http://www.w3.org/2000/svg">
<rect width="32" height="32" rx="16" fill="#EBE6DC" fill-opacity="0.6"/>
<rect x="7.25" y="7.25" width="17.5" height="17.5" rx="6" fill="#292929"/>
<rect x="7.25" y="7.25" width="17.5" height="17.5" rx="6" fill="url(#paint0_radial_59247_12122)"/>
<rect x="7.25" y="7.25" width="17.5" height="17.5" rx="6" fill="url(#paint1_radial_59247_12122)"/>
<path d="M20.375 12.5625C20.375 13.0803 19.9553 13.5 19.4375 13.5C18.9197 13.5 18.5 13.0803 18.5 12.5625C18.5 12.0447 18.9197 11.625 19.4375 11.625C19.9553 11.625 20.375 12.0447 20.375 12.5625Z" fill="white"/>
<path fill-rule="evenodd" clip-rule="evenodd" d="M16 19.125C17.7259 19.125 19.125 17.7259 19.125 16C19.125 14.2741 17.7259 12.875 16 12.875C14.2741 12.875 12.875 14.2741 12.875 16C12.875 17.7259 14.2741 19.125 16 19.125ZM16 17.875C17.0355 17.875 17.875 17.0355 17.875 16C17.875 14.9645 17.0355 14.125 16 14.125C14.9645 14.125 14.125 14.9645 14.125 16C14.125 17.0355 14.9645 17.875 16 17.875Z" fill="white"/>
<path fill-rule="evenodd" clip-rule="evenodd" d="M9.75 15.75C9.75 13.6498 9.75 12.5997 10.1587 11.7975C10.5183 11.0919 11.0919 10.5183 11.7975 10.1587C12.5997 9.75 13.6498 9.75 15.75 9.75H16.25C18.3502 9.75 19.4003 9.75 20.2025 10.1587C20.9081 10.5183 21.4817 11.0919 21.8413 11.7975C22.25 12.5997 22.25 13.6498 22.25 15.75V16.25C22.25 18.3502 22.25 19.4003 21.8413 20.2025C21.4817 20.9081 20.9081 21.4817 20.2025 21.8413C19.4003 22.25 18.3502 22.25 16.25 22.25H15.75C13.6498 22.25 12.5997 22.25 11.7975 21.8413C11.0919 21.4817 10.5183 20.9081 10.1587 20.2025C9.75 19.4003 9.75 18.3502 9.75 16.25V15.75ZM15.75 11H16.25C17.3207 11 18.0486 11.001 18.6112 11.0469C19.1592 11.0917 19.4395 11.1729 19.635 11.2725C20.1054 11.5122 20.4878 11.8946 20.7275 12.365C20.8271 12.5605 20.9083 12.8408 20.9531 13.3888C20.999 13.9514 21 14.6793 21 15.75V16.25C21 17.3207 20.999 18.0486 20.9531 18.6112C20.9083 19.1592 20.8271 19.4395 20.7275 19.635C20.4878 20.1054 20.1054 20.4878 19.635 20.7275C19.4395 20.8271 19.1592 20.9083 18.6112 20.9531C18.0486 20.999 17.3207 21 16.25 21H15.75C14.6793 21 13.9514 20.999 13.3888 20.9531C12.8408 20.9083 12.5605 20.8271 12.365 20.7275C11.8946 20.4878 11.5122 20.1054 11.2725 19.635C11.1729 19.4395 11.0917 19.1592 11.0469 18.6112C11.001 18.0486 11 17.3207 11 16.25V15.75C11 14.6793 11.001 13.9514 11.0469 13.3888C11.0917 12.8408 11.1729 12.5605 11.2725 12.365C11.5122 11.8946 11.8946 11.5122 12.365 11.2725C12.5605 11.1729 12.8408 11.0917 13.3888 11.0469C13.9514 11.001 14.6793 11 15.75 11Z" fill="white"/>
<defs>
<radialGradient id="paint0_radial_59247_12122" cx="0" cy="0" r="1" gradientUnits="userSpaceOnUse" gradientTransform="translate(12.875 25.375) rotate(-65.1363) scale(14.1214)">
<stop stop-color="#E0E8B7"/>
<stop offset="0.444662" stop-color="#FB8A2E"/>
<stop offset="0.71474" stop-color="#E2425C"/>
<stop offset="1" stop-color="#E2425C" stop-opacity="0"/>
</radialGradient>
<radialGradient id="paint1_radial_59247_12122" cx="0" cy="0" r="1" gradientUnits="userSpaceOnUse" gradientTransform="translate(6.3125 7.875) rotate(-8.1301) scale(24.3068 5.19897)">
<stop offset="0.156701" stop-color="#406ADC"/>
<stop offset="0.467799" stop-color="#6A45BE"/>
<stop offset="1" stop-color="#6A45BE" stop-opacity="0"/>
</radialGradient>
</defs>
</svg>
