<svg width="20" height="16" viewBox="0 0 20 16" fill="none" xmlns="http://www.w3.org/2000/svg">
<path d="M18.3438 0.725617H13.4894C12.678 0.725067 11.8905 1.00091 11.2568 1.50771C10.6231 2.01451 10.181 2.72204 10.0031 3.51374C9.8249 2.72225 9.3826 2.01498 8.749 1.50826C8.11539 1.00153 7.3282 0.725521 6.51689 0.725617H1.66626C1.22423 0.725783 0.800353 0.901453 0.487789 1.21402C0.175225 1.52658 -0.000444703 1.95046 -0.000610352 2.39249V10.9275C-0.000444703 11.3695 0.175225 11.7934 0.487789 12.106C0.800353 12.4185 1.22423 12.5942 1.66626 12.5944H4.78064C8.32939 12.5944 9.38814 13.4412 9.89501 15.1987C9.91939 15.2962 10.0756 15.2962 10.1031 15.1987C10.6138 13.4419 11.6725 12.5944 15.2175 12.5944H18.3319C18.7739 12.5942 19.1978 12.4185 19.5104 12.106C19.8229 11.7934 19.9986 11.3695 19.9988 10.9275V2.39624C19.9988 1.9557 19.8247 1.533 19.5145 1.22021C19.2043 0.907415 18.783 0.729869 18.3425 0.726242L18.3438 0.725617ZM8.40252 9.94062C8.40268 9.95659 8.39966 9.97243 8.39363 9.98721C8.38759 10.002 8.37867 10.0154 8.36737 10.0267C8.35608 10.038 8.34265 10.0469 8.32786 10.053C8.31308 10.059 8.29723 10.062 8.28127 10.0619H2.71501C2.69907 10.0619 2.68326 10.0589 2.66852 10.0528C2.65377 10.0467 2.64037 10.0378 2.62909 10.0265C2.61782 10.0153 2.60889 10.0019 2.60283 9.98712C2.59676 9.97237 2.59368 9.95656 2.59376 9.94062V9.14562C2.59376 9.07999 2.64564 9.02437 2.71501 9.02437H8.28439C8.35001 9.02437 8.40564 9.07624 8.40564 9.14562V9.94062H8.40252ZM8.40252 7.82624C8.4026 7.84219 8.39952 7.85799 8.39345 7.87274C8.38739 7.88749 8.37846 7.90089 8.36719 7.91216C8.35591 7.92344 8.34251 7.93237 8.32776 7.93843C8.31301 7.9445 8.29721 7.94758 8.28127 7.94749H2.71501C2.69907 7.94758 2.68326 7.9445 2.66852 7.93843C2.65377 7.93237 2.64037 7.92344 2.62909 7.91216C2.61782 7.90089 2.60889 7.88749 2.60283 7.87274C2.59676 7.85799 2.59368 7.84219 2.59376 7.82624V7.03124C2.59376 6.96499 2.64564 6.90999 2.71501 6.90999H8.28439C8.35001 6.90999 8.40564 6.96187 8.40564 7.03124V7.82624H8.40252ZM8.40252 5.71187C8.4026 5.72781 8.39952 5.74362 8.39345 5.75837C8.38739 5.77311 8.37846 5.78651 8.36719 5.79779C8.35591 5.80906 8.34251 5.81799 8.32776 5.82406C8.31301 5.83012 8.29721 5.8332 8.28127 5.83312H2.71501C2.69907 5.8332 2.68326 5.83012 2.66852 5.82406C2.65377 5.81799 2.64037 5.80906 2.62909 5.79779C2.61782 5.78651 2.60889 5.77311 2.60283 5.75837C2.59676 5.74362 2.59368 5.72781 2.59376 5.71187V4.91687C2.59376 4.85124 2.64564 4.79562 2.71501 4.79562H8.28439C8.35001 4.79562 8.40564 4.84749 8.40564 4.91687V5.71187H8.40252ZM17.4063 9.93749C17.4063 9.95344 17.4033 9.96924 17.3972 9.98399C17.3911 9.99874 17.3822 10.0121 17.3709 10.0234C17.3597 10.0347 17.3463 10.0436 17.3315 10.0497C17.3168 10.0557 17.301 10.0588 17.285 10.0587H11.7188C11.7028 10.0588 11.687 10.0557 11.6723 10.0497C11.6575 10.0436 11.6441 10.0347 11.6328 10.0234C11.6216 10.0121 11.6126 9.99874 11.6066 9.98399C11.6005 9.96924 11.5974 9.95344 11.5975 9.93749V9.14249C11.5975 9.07687 11.6494 9.02124 11.7188 9.02124H17.2881C17.3544 9.02124 17.4094 9.07312 17.4094 9.14249V9.93749H17.4063ZM17.4063 7.82312C17.4064 7.83909 17.4034 7.85493 17.3974 7.86971C17.3913 7.8845 17.3824 7.89793 17.3711 7.90923C17.3598 7.92052 17.3464 7.92944 17.3316 7.93548C17.3168 7.94151 17.301 7.94453 17.285 7.94437H11.7188C11.7028 7.94445 11.687 7.94137 11.6723 7.93531C11.6575 7.92924 11.6441 7.92031 11.6328 7.90904C11.6216 7.89776 11.6126 7.88436 11.6066 7.86962C11.6005 7.85487 11.5974 7.83906 11.5975 7.82312V7.02812C11.5975 6.96249 11.6494 6.90687 11.7188 6.90687H17.2881C17.3544 6.90687 17.4094 6.95874 17.4094 7.02812V7.82312H17.4063ZM17.4063 5.70812C17.4063 5.72406 17.4033 5.73987 17.3972 5.75462C17.3911 5.76936 17.3822 5.78276 17.3709 5.79404C17.3597 5.80531 17.3463 5.81424 17.3315 5.82031C17.3168 5.82637 17.301 5.82945 17.285 5.82937H11.7188C11.7028 5.82945 11.687 5.82637 11.6723 5.82031C11.6575 5.81424 11.6441 5.80531 11.6328 5.79404C11.6216 5.78276 11.6126 5.76936 11.6066 5.75462C11.6005 5.73987 11.5974 5.72406 11.5975 5.70812V4.91624C11.5975 4.85062 11.6494 4.79499 11.7188 4.79499H17.2881C17.3544 4.79499 17.4094 4.84687 17.4094 4.91624V5.70812H17.4063Z" fill="white"/>
</svg>
