<svg width="37" height="37" viewBox="0 0 37 37" fill="none" xmlns="http://www.w3.org/2000/svg">
<path d="M28.8137 12.7783C28.8137 6.64355 23.9725 1.66992 18.0005 1.66992C12.0285 1.66992 7.1875 6.64355 7.1875 12.7783C7.1875 14.8696 7.75049 16.8252 8.72871 18.496L8.72793 18.4965L8.73613 18.5087C8.87764 18.7506 9.03047 18.9849 9.18955 19.2137L17.6451 32.3639C17.7669 32.5648 17.8628 32.6746 18.0005 32.6746C18.138 32.6746 18.2342 32.5648 18.3559 32.3639L26.8116 19.2137C26.9706 18.9849 27.1232 18.7506 27.2653 18.5087L27.273 18.4965L27.2725 18.496C28.2503 16.8252 28.8137 14.8696 28.8137 12.7783Z" fill="#F67DC4"/>
<path d="M22.5693 25.8106L18.3559 32.3645C18.233 32.5648 18.1375 32.6745 18.0001 32.6745C17.863 32.6745 17.7657 32.5648 17.6445 32.3645L9.18887 19.2139C9.03047 18.9854 8.87754 18.7511 8.73613 18.5097L8.72754 18.4969H8.72891C7.75029 16.8253 7.1875 14.8705 7.1875 12.7791C7.1875 7.72276 10.4764 3.45361 14.9769 2.11084C13.9122 3.83096 13.2956 5.87363 13.2956 8.06416C13.2956 10.154 13.8581 12.1108 14.8366 13.7805L14.8353 13.782L14.8436 13.7932C14.9852 14.0364 15.1384 14.2693 15.2967 14.4991L22.5693 25.8106Z" fill="#BA1267"/>
<path d="M22.1726 35.4859C22.1726 35.9521 20.3041 36.3302 17.9998 36.3302C15.6959 36.3302 13.8281 35.9524 13.8281 35.4859C13.8281 35.0194 15.6961 34.6416 17.9998 34.6416C20.3041 34.6416 22.1726 35.0197 22.1726 35.4859Z" fill="#B51264"/>
<path d="M23.148 13.169C23.148 16.0112 20.8436 18.3151 18.0018 18.3151C15.1594 18.3151 12.8555 16.0111 12.8555 13.169C12.8555 10.327 15.1593 8.02246 18.0018 8.02246C20.8437 8.02236 23.148 10.327 23.148 13.169Z" fill="white"/>
<path d="M7.64952 29.4088C7.64337 29.326 7.6296 29.2447 7.60851 29.1652C7.47316 28.6554 7.03458 28.2195 6.37433 27.9681C6.34601 27.9573 6.31661 27.947 6.28732 27.9371C6.28634 27.9366 6.28615 27.9366 6.28527 27.9361C6.27443 27.9319 6.2631 27.9276 6.25138 27.9242C6.20148 27.9077 6.1507 27.8917 6.09884 27.8772H6.09835C6.08907 27.8394 6.07824 27.8028 6.06652 27.7662V27.7656C6.06056 27.7475 6.05431 27.7296 6.04796 27.7112C6.04757 27.7112 6.04757 27.7106 6.04757 27.7104C6.04484 27.7028 6.0423 27.6954 6.03917 27.688C6.0131 27.6187 5.98302 27.5519 5.94786 27.4869C5.82355 27.2527 5.64532 27.0513 5.43058 26.8976C5.1504 26.6971 4.80714 26.5792 4.43654 26.5792C3.49025 26.5792 2.72345 27.346 2.72345 28.2924C2.72345 28.3103 2.72384 28.328 2.72413 28.3458C2.54239 28.2624 2.34025 28.2157 2.12677 28.2157C1.49581 28.2157 0.959583 28.6244 0.769056 29.1917V29.1919C0.765149 29.2035 0.761438 29.2148 0.758118 29.2266C0.755091 29.2357 0.751965 29.2456 0.749621 29.2556C0.743957 29.2727 0.739759 29.2899 0.736243 29.3064C0.732532 29.3208 0.729308 29.3349 0.726379 29.3496C0.724914 29.3541 0.724035 29.3593 0.723644 29.3639C0.720324 29.3777 0.717786 29.3918 0.715735 29.4061C0.710852 29.4319 0.707238 29.4574 0.704504 29.4829C0.702941 29.4984 0.701184 29.5135 0.700208 29.529C0.698743 29.5439 0.697669 29.5592 0.697278 29.5738C0.697083 29.5811 0.696496 29.5884 0.696496 29.596C0.695715 29.6131 0.695129 29.6305 0.695129 29.6475C0.695129 30.4383 1.33605 31.0791 2.12677 31.0791C2.47579 31.0791 2.79484 30.9542 3.04357 30.7475C3.04552 30.7462 3.0465 30.745 3.04816 30.7437C3.04865 30.743 3.04943 30.7428 3.04991 30.7424C3.05196 30.7403 3.05372 30.739 3.05607 30.7363C3.05655 30.7367 3.05656 30.7363 3.05695 30.7357C3.05734 30.7357 3.05753 30.7354 3.05812 30.7345C3.05929 30.7329 3.06046 30.7319 3.06173 30.7309C3.07257 30.7202 3.08712 30.7062 3.10275 30.691C3.13419 30.66 3.17062 30.6235 3.19445 30.5991C3.20607 30.5869 3.21495 30.578 3.21808 30.5743C5.02696 32.1618 7.59689 30.8272 7.65089 29.5217C7.65265 29.4841 7.65197 29.4467 7.64952 29.4088Z" fill="#CAD4EC"/>
<path d="M6.07099 29.2284C6.04648 29.2572 6.01191 29.2722 5.97714 29.2722C5.9498 29.2722 5.92177 29.2627 5.89921 29.2435C5.84736 29.2006 5.84043 29.1241 5.88369 29.0723C5.88984 29.0648 6.25781 28.557 6.10546 27.9137C6.10244 27.9006 6.09931 27.8878 6.09814 27.877C6.1498 27.8915 6.20088 27.9075 6.25078 27.924C6.2622 27.9274 6.27353 27.9317 6.28437 27.9359C6.28525 27.9361 6.28583 27.9361 6.28642 27.9369C6.31572 27.9469 6.34492 27.9571 6.37333 27.9679C6.53203 28.6651 6.09101 29.2042 6.07099 29.2284Z" fill="white"/>
<path d="M7.65107 29.5219C7.59707 30.8274 5.02734 32.1618 3.21826 30.5744C3.21514 30.5782 3.20625 30.5871 3.19463 30.5989C3.1708 30.6235 3.13438 30.6598 3.10293 30.6906C3.08731 30.7062 3.07275 30.7201 3.06191 30.7309C3.06064 30.7317 3.05947 30.7329 3.0583 30.7347C3.05772 30.7354 3.05752 30.7356 3.05713 30.7356C3.05674 30.7361 3.05674 30.7366 3.05625 30.7361C3.0541 30.7387 3.05205 30.7403 3.0501 30.7423C3.04961 30.7429 3.04883 30.7431 3.04844 30.7438C3.04668 30.7449 3.0457 30.7461 3.04375 30.7474C2.79502 30.9542 2.47607 31.079 2.12695 31.079C1.33623 31.079 0.695312 30.4381 0.695312 29.6471C0.695312 29.6303 0.695899 29.6128 0.69668 29.596C0.69668 29.5885 0.697266 29.5812 0.697461 29.5736C0.697852 29.5592 0.699121 29.5435 0.700391 29.529C0.701367 29.5132 0.703124 29.4982 0.704687 29.4825C0.707421 29.4568 0.711035 29.4315 0.715918 29.4059C0.717969 29.3918 0.720509 29.3774 0.723829 29.3636C0.724219 29.3588 0.725294 29.3538 0.726563 29.3493C0.729298 29.3346 0.732715 29.3204 0.736426 29.306C0.739942 29.289 0.74414 29.2719 0.749805 29.2551C0.752051 29.2451 0.755274 29.2354 0.758301 29.2262C0.761622 29.2142 0.765332 29.2031 0.769239 29.1916C0.766114 29.2561 0.766797 29.3206 0.771973 29.3862C0.835059 30.174 1.5251 30.7621 2.31328 30.699C2.50478 30.6836 2.68418 30.6311 2.84551 30.549C2.91807 30.5128 2.98691 30.4696 3.05137 30.4212C3.10391 30.3827 3.1542 30.3402 3.20068 30.2947C3.21748 30.2781 3.23262 30.2611 3.24873 30.2446C3.26484 30.2278 3.28008 30.2101 3.29551 30.1916C3.30322 30.1825 3.31084 30.1727 3.31895 30.1627C3.3332 30.1449 3.34678 30.1268 3.36035 30.108C5.37207 31.5569 7.33799 30.143 7.60811 29.1644C7.6293 29.2437 7.64287 29.3251 7.64912 29.4077C7.65195 29.4467 7.65264 29.4841 7.65107 29.5219Z" fill="#AEBAD2"/>
<path d="M3.28917 30.5745C3.28595 30.5783 3.27726 30.5871 3.26564 30.599C3.24152 30.6237 3.20519 30.6603 3.17394 30.6913C3.15792 30.7064 3.14367 30.7202 3.13283 30.7311C3.13146 30.7322 3.13038 30.7331 3.12921 30.7346C3.12872 30.7357 3.12843 30.7357 3.12794 30.7357C3.12746 30.7362 3.12745 30.7367 3.12726 30.7362C3.12492 30.7386 3.12296 30.7404 3.12111 30.7423C3.12062 30.743 3.11984 30.7432 3.11945 30.744C3.11759 30.7453 3.11652 30.7463 3.11466 30.7477C3.03078 30.6769 2.96622 30.6099 2.91671 30.5496C2.79122 30.3979 2.76154 30.289 2.75665 30.2671C2.7421 30.2012 2.78312 30.1364 2.84884 30.1212C2.91378 30.1067 2.97833 30.1469 2.99376 30.2111C3.01076 30.284 3.06486 30.3594 3.12257 30.422C3.19757 30.5038 3.27892 30.5647 3.28917 30.5745Z" fill="white"/>
<path d="M34.3245 4.76885C34.3245 5.20742 34.1949 5.61729 33.9698 5.96006C33.5813 6.55762 32.9061 6.95332 32.1389 6.95332C30.9316 6.95332 29.9531 5.97471 29.9531 4.76885C29.9531 3.69023 30.734 2.79424 31.7612 2.61709C31.8836 2.59473 32.0103 2.5835 32.1389 2.5835C33.3462 2.5835 34.3245 3.56152 34.3245 4.76885Z" fill="#E8BE6B"/>
<path d="M34.3245 4.76885C34.3245 5.20742 34.1949 5.61729 33.9698 5.96006C33.8475 5.98242 33.7209 5.99414 33.5921 5.99414C32.3856 5.99414 31.4064 5.01465 31.4064 3.8085C31.4064 3.36924 31.5361 2.96016 31.7612 2.61709C31.8835 2.59473 32.0102 2.5835 32.1389 2.5835C33.3462 2.5835 34.3245 3.56152 34.3245 4.76885Z" fill="#FAD170"/>
<path d="M35.9396 5.18799C36.1717 5.18799 36.3598 4.9999 36.3598 4.76787C36.3598 4.53585 36.1717 4.34776 35.9396 4.34776C35.7076 4.34776 35.5195 4.53585 35.5195 4.76787C35.5195 4.9999 35.7076 5.18799 35.9396 5.18799Z" fill="#E8BE6B"/>
<path d="M28.7618 4.76813C28.7618 5.00046 28.5739 5.18835 28.3421 5.18835C28.1098 5.18835 27.9219 5.00046 27.9219 4.76813C27.9219 4.5362 28.1098 4.3485 28.3421 4.3485C28.5739 4.3485 28.7618 4.5362 28.7618 4.76813Z" fill="#E8BE6B"/>
<path d="M32.1382 0.549805C32.3704 0.549805 32.5584 0.737793 32.5584 0.97002C32.5584 1.20205 32.3704 1.38984 32.1382 1.38984C31.9066 1.38984 31.7188 1.20205 31.7188 0.97002C31.7188 0.737793 31.9066 0.549805 32.1382 0.549805Z" fill="#E8BE6B"/>
<path d="M32.1382 8.14639C32.3704 8.14639 32.5584 8.33457 32.5584 8.56631C32.5584 8.79834 32.3704 8.98623 32.1382 8.98623C31.9066 8.98623 31.7188 8.79834 31.7188 8.56631C31.7188 8.33457 31.9066 8.14639 32.1382 8.14639Z" fill="#E8BE6B"/>
<path d="M35.1232 1.7855C35.2873 1.94927 35.2873 2.21558 35.1232 2.37925C34.9592 2.54331 34.6935 2.54331 34.5291 2.37925C34.3653 2.21558 34.3653 1.94927 34.5292 1.7855C34.6932 1.62163 34.9592 1.62163 35.1232 1.7855Z" fill="#E8BE6B"/>
<path d="M29.4549 7.87377C29.6867 7.87377 29.8747 7.68581 29.8747 7.45395C29.8747 7.22209 29.6867 7.03413 29.4549 7.03413C29.223 7.03413 29.035 7.22209 29.035 7.45395C29.035 7.68581 29.223 7.87377 29.4549 7.87377Z" fill="#E8BE6B"/>
<path d="M29.1581 1.78521C29.3223 1.62114 29.5881 1.62114 29.752 1.78481C29.9162 1.94897 29.9162 2.21528 29.752 2.37915C29.5881 2.54302 29.3223 2.54302 29.1581 2.37896C28.9942 2.21548 28.9942 1.94897 29.1581 1.78521Z" fill="#E8BE6B"/>
<path d="M34.8263 7.87373C35.0582 7.87373 35.2463 7.68568 35.2463 7.45371C35.2463 7.22174 35.0582 7.03369 34.8263 7.03369C34.5943 7.03369 34.4062 7.22174 34.4062 7.45371C34.4062 7.68568 34.5943 7.87373 34.8263 7.87373Z" fill="#E8BE6B"/>
<path d="M32.7675 7.8293C32.7598 7.71954 32.741 7.61172 32.7131 7.50674C32.534 6.83164 31.953 6.25459 31.0792 5.92188C31.0415 5.90762 31.0028 5.89356 30.9642 5.88008C30.9629 5.8795 30.9622 5.8795 30.9614 5.87901C30.947 5.87315 30.9318 5.86817 30.917 5.86309C30.8506 5.84112 30.7835 5.82032 30.7143 5.80088H30.7139C30.7017 5.75069 30.6875 5.70235 30.6722 5.6544V5.65323C30.6641 5.62901 30.6558 5.60518 30.6473 5.58135C30.6467 5.58135 30.6467 5.58096 30.6467 5.58028C30.6429 5.57012 30.6394 5.56036 30.6352 5.55039C30.6015 5.4583 30.5612 5.36973 30.5152 5.28448C30.35 4.97373 30.1145 4.70743 29.8297 4.50371C29.4586 4.23848 29.0042 4.08223 28.5133 4.08223C27.2605 4.08223 26.245 5.09776 26.245 6.35069C26.245 6.37412 26.2455 6.39815 26.2461 6.42178C26.0053 6.31133 25.7375 6.24932 25.4551 6.24932C24.6191 6.24932 23.9091 6.79043 23.6566 7.54121V7.54209C23.6511 7.55713 23.6465 7.57256 23.6421 7.58809C23.638 7.60059 23.6342 7.61338 23.6311 7.62647C23.6239 7.64883 23.6181 7.67149 23.6132 7.69405C23.6084 7.71299 23.6042 7.73184 23.6003 7.75098C23.5983 7.75694 23.5971 7.76377 23.5967 7.76983C23.5924 7.78828 23.589 7.80723 23.5858 7.82588C23.5803 7.85967 23.5754 7.89366 23.5715 7.92744C23.5694 7.94805 23.5669 7.96758 23.5653 7.98858C23.5639 8.00811 23.5621 8.02823 23.5617 8.04795C23.5611 8.05762 23.5607 8.06709 23.5607 8.07696C23.5595 8.09932 23.5588 8.12305 23.5588 8.14551C23.5588 9.19209 24.4072 10.0418 25.4551 10.0418C25.9169 10.0418 26.3395 9.87588 26.6688 9.60196C26.6709 9.6 26.6725 9.59883 26.6747 9.59698C26.6755 9.5959 26.6765 9.59561 26.6767 9.59493C26.6796 9.59287 26.6821 9.59034 26.685 9.58731C26.6855 9.5879 26.6855 9.58731 26.6859 9.58663C26.6865 9.58663 26.6871 9.58623 26.6877 9.58497C26.6894 9.58282 26.6906 9.58135 26.6926 9.57959C26.707 9.56592 26.7262 9.54795 26.7471 9.52676C26.7885 9.48594 26.8368 9.4376 26.8685 9.40508C26.8842 9.38926 26.8957 9.37745 26.8999 9.37266C29.2951 11.4747 32.6984 9.70743 32.7697 7.97881C32.7713 7.92911 32.7708 7.8793 32.7675 7.8293Z" fill="#CAD4EC"/>
<path d="M30.6799 7.59072C30.6478 7.62891 30.6022 7.64893 30.5558 7.64893C30.52 7.64893 30.4827 7.63633 30.4524 7.61113C30.3841 7.55381 30.3749 7.45303 30.432 7.38398C30.4399 7.37432 30.9274 6.70176 30.7257 5.8499C30.7219 5.83193 30.7177 5.81553 30.7157 5.80127C30.7848 5.82031 30.852 5.8417 30.9183 5.86357C30.9328 5.86826 30.9483 5.87373 30.9628 5.87949C30.9637 5.87998 30.9643 5.87998 30.9652 5.88057C31.0038 5.89375 31.0426 5.90781 31.0807 5.92188C31.2904 6.84512 30.7063 7.55889 30.6799 7.59072Z" fill="white"/>
<path d="M32.7697 7.9792C32.6984 9.70801 29.2951 11.475 26.8998 9.37295C26.8956 9.37754 26.8842 9.38975 26.8686 9.40537C26.8368 9.43799 26.7885 9.48604 26.7471 9.52725C26.7262 9.54785 26.7073 9.56612 26.6926 9.58008C26.6906 9.58164 26.6895 9.58311 26.6877 9.58545C26.6871 9.58672 26.6865 9.58692 26.6859 9.58692C26.6855 9.5874 26.6855 9.58809 26.6851 9.58741C26.6821 9.59082 26.6793 9.59317 26.6768 9.59522C26.6763 9.5958 26.6752 9.59639 26.6747 9.59746C26.6727 9.59883 26.6709 9.60039 26.6687 9.60205C26.3394 9.87618 25.9167 10.0417 25.4547 10.0417C24.407 10.0417 23.5586 9.19219 23.5586 8.14541C23.5586 8.12305 23.5593 8.09961 23.5605 8.07725C23.5605 8.06758 23.5609 8.05811 23.5615 8.04815C23.562 8.02862 23.5637 8.0084 23.5651 7.98906C23.5669 7.96807 23.5691 7.94815 23.5713 7.92783C23.5751 7.89414 23.5801 7.86016 23.5856 7.82608C23.589 7.80733 23.5922 7.78877 23.5965 7.77012C23.5969 7.76407 23.5984 7.75723 23.6001 7.75127C23.604 7.73223 23.6082 7.71328 23.613 7.69414C23.6179 7.67178 23.6234 7.64883 23.631 7.62696C23.634 7.61358 23.6378 7.60049 23.6419 7.58838C23.6464 7.57305 23.6512 7.55782 23.6564 7.54219C23.6522 7.62803 23.6533 7.71328 23.66 7.8003C23.7437 8.84375 24.6576 9.62198 25.7012 9.53877C25.9548 9.51836 26.1921 9.44893 26.406 9.34043C26.5023 9.29248 26.5933 9.23565 26.6786 9.17149C26.7484 9.12061 26.8149 9.06416 26.8765 9.00332C26.8987 8.98184 26.9189 8.95977 26.94 8.9375C26.9613 8.91514 26.9817 8.89131 27.0017 8.867C27.0118 8.85498 27.023 8.8419 27.0327 8.82871C27.0514 8.80508 27.0701 8.78145 27.0877 8.75684C29.7516 10.6754 32.355 8.80293 32.7127 7.50655C32.7406 7.61201 32.759 7.71983 32.767 7.82959C32.7708 7.8793 32.7713 7.9291 32.7697 7.9792Z" fill="#AEBAD2"/>
<path d="M26.9009 9.37344C26.8967 9.37823 26.8853 9.39004 26.8697 9.40586C26.8379 9.43809 26.7896 9.48623 26.7482 9.52754C26.7273 9.54795 26.7084 9.56661 26.6936 9.58037C26.6917 9.58194 26.6906 9.5833 26.6888 9.58555C26.6882 9.58692 26.6876 9.58731 26.687 9.58731C26.6866 9.58799 26.6866 9.58868 26.6862 9.58799C26.6832 9.59102 26.6804 9.59366 26.6779 9.59561C26.6774 9.59649 26.6763 9.59688 26.6758 9.59776C26.6738 9.59903 26.672 9.60059 26.6698 9.60225C26.5583 9.50889 26.4726 9.42022 26.4073 9.34043C26.2408 9.13916 26.2018 8.99522 26.1952 8.96602C26.1761 8.87891 26.2304 8.79297 26.3172 8.77305C26.4036 8.75362 26.4892 8.80674 26.5093 8.89161C26.5321 8.98838 26.6035 9.08789 26.6799 9.17129C26.78 9.27998 26.8876 9.36006 26.9009 9.37344Z" fill="white"/>
<path d="M20.1868 14.4724C18.5061 14.8792 16.7998 13.786 16.3749 12.03C16.2207 11.3939 16.257 10.7586 16.4445 10.1871C15.3032 10.8899 14.6966 12.3146 15.0419 13.7407C15.4669 15.4965 17.1737 16.5901 18.8539 16.1833C19.9259 15.9239 20.7269 15.1169 21.057 14.1104C20.7938 14.2731 20.502 14.3964 20.1868 14.4724Z" fill="#E8BE6B"/>
<path d="M19.4459 10.0693L19.8082 10.8034L20.6184 10.9211L20.0321 11.4926L20.1705 12.2995L19.4459 11.9186L18.7213 12.2995L18.8597 11.4926L18.2734 10.9211L19.0836 10.8034L19.4459 10.0693Z" fill="#E8BE6B"/>
</svg>
