<svg width="182" height="182" viewBox="0 0 182 182" fill="none" xmlns="http://www.w3.org/2000/svg">
<g clip-path="url(#clip0_59247_9765)">
<mask id="mask0_59247_9765" style="mask-type:luminance" maskUnits="userSpaceOnUse" x="-355" y="-224" width="892" height="631">
<path d="M-354.477 -223.268H536.36V406.617H-354.477V-223.268Z" fill="white"/>
</mask>
<g mask="url(#mask0_59247_9765)">
<path d="M107.58 155.982C69.0679 155.982 37.8475 124.761 37.8475 86.2492C37.8475 47.7372 69.0679 16.5168 107.58 16.5168C120.678 16.5168 132.93 20.1303 143.401 26.4114C129.268 15.2756 111.432 8.63045 92.0422 8.63045C46.1782 8.63045 8.99625 45.8114 8.99625 91.6764C8.99625 137.539 46.1782 174.721 92.0422 174.721C131.348 174.721 164.272 147.413 172.887 110.738C162.971 137.169 137.474 155.982 107.58 155.982Z" fill="#EBE6E0"/>
<path d="M107.58 155.982C69.0679 155.982 37.8475 124.761 37.8475 86.2492C37.8475 47.7372 69.0679 16.5168 107.58 16.5168C120.678 16.5168 132.93 20.1303 143.401 26.4114C129.268 15.2756 111.432 8.63044 92.0422 8.63044C46.1782 8.63044 8.99625 45.8113 8.99625 91.6764C8.99625 137.539 46.1782 174.721 92.0422 174.721C131.348 174.721 164.272 147.413 172.887 110.738C162.971 137.169 137.475 155.982 107.58 155.982Z" stroke="black" stroke-linecap="round" stroke-linejoin="round"/>
<path d="M62.9452 94.6549C62.9452 94.6549 56.8609 88.5706 47.8656 91.2159C38.8714 93.8613 33.5797 101.004 33.3151 111.057C33.3151 111.057 17.7065 107.089 13.474 123.491C9.2414 139.894 27.2308 147.036 36.225 142.274C36.225 142.274 41.5168 154.444 54.48 154.444C67.4423 154.444 71.4103 149.417 75.9084 144.92C75.9084 144.92 81.9927 157.883 101.834 159.735C121.675 161.586 129.877 144.92 129.877 144.92C129.877 144.92 144.427 159.206 161.888 145.184C179.348 131.163 166.914 108.412 156.861 105.502C146.808 102.592 136.49 104.973 129.877 115.29" fill="#FAFBFD"/>
<path d="M83.8602 85.8276C83.8602 85.8276 86.6399 81.5813 89.8259 84.0584C93.0109 86.5355 95.2426 92.35 90.9412 96.444C90.9412 96.444 92.3919 99.4512 93.3337 102.17C94.2744 104.887 95.033 108.679 92.9094 113.48C90.7857 118.283 91.2841 118.897 86.0039 123.319C80.7259 127.738 73.6978 127.313 72.4344 127.07C71.1709 126.828 66.8569 124.701 64.3121 123.488C61.7673 122.278 59.2383 121.218 57.8733 118.993C56.5094 116.768 53.5265 111.51 55.5994 103.371C57.6723 95.2313 60.2509 87.1926 60.2509 87.1926C60.2509 87.1926 76.4288 84.3113 83.8602 85.8276Z" fill="#FCDBB0"/>
<path d="M77.9572 126.723C77.9572 126.723 78.0228 133.395 89.457 131.507C89.457 131.507 93.5436 137.843 102.441 135.147C102.441 135.147 107.621 133.275 108.435 127.573H112.536C112.536 127.573 114.103 132.844 119.833 135.816C125.563 138.786 133.381 136.833 133.381 136.833C133.381 136.833 139.99 134.137 142.751 133.932C145.515 133.731 150.167 132.793 151.85 132.79C151.85 132.79 155.761 129.417 154.547 124.834C153.335 120.251 150.437 117.808 145.717 118.119C145.717 118.119 151.595 112.219 150.947 104.877C150.299 97.5344 148.481 87.153 134.259 83.3787C134.259 83.3787 126.979 81.693 117.407 86.5467C107.835 91.4004 109.878 92.5464 103.183 95.5779C96.4884 98.6127 92.9002 100.947 92.9002 100.947C92.9002 100.947 95.281 106.229 93.3341 112.633C91.3871 119.036 88.3566 121.531 87.2762 122.473C86.1969 123.419 80.6375 126.252 77.9572 126.723Z" fill="#CBC1B4"/>
<path d="M40.5606 117.307C42.5372 115.848 44.9688 114.986 47.4777 114.737C48.7369 114.582 50.0151 114.708 51.2754 114.897C51.5875 114.963 51.8975 115.04 52.2086 115.119C52.5218 115.182 52.8234 115.287 53.1239 115.399L54.0265 115.723C54.3175 115.852 54.6032 115.998 54.891 116.135C56.0412 116.69 57.0898 117.452 58.0453 118.301C58.9691 119.191 59.7743 120.203 60.3923 121.315C61.0219 122.421 61.4367 123.628 61.7086 124.844C61.9583 126.065 62.0684 127.316 61.9118 128.537C61.733 127.328 61.4303 126.159 60.9986 125.05C60.5785 123.943 60.0484 122.885 59.3913 121.929C58.0707 120.021 56.3015 118.474 54.217 117.478C53.9599 117.35 53.7048 117.214 53.4445 117.09L52.6382 116.785C52.1092 116.549 51.5357 116.464 50.9865 116.287C49.8606 116.046 48.7062 115.894 47.537 115.905C45.2006 115.927 42.8282 116.402 40.5606 117.307Z" fill="black"/>
<path d="M79.0288 135.191C81.2223 134.226 83.6105 133.724 86.0188 133.536C88.4303 133.35 90.8937 133.53 93.2692 134.144C94.448 134.469 95.6172 134.862 96.7209 135.406C97.0013 135.53 97.2669 135.687 97.5367 135.833C97.8044 135.984 98.0774 136.123 98.3324 136.294L99.108 136.789L99.8403 137.343C101.781 138.831 103.346 140.762 104.44 142.882C102.828 141.118 101.109 139.53 99.162 138.3C98.1959 137.681 97.178 137.151 96.1294 136.702C95.0881 136.234 93.9972 135.879 92.8904 135.6C91.7868 135.295 90.6556 135.086 89.5128 134.949C88.37 134.795 87.2145 134.74 86.0538 134.706C83.729 134.672 81.3852 134.827 79.0288 135.191Z" fill="black"/>
<path d="M121.269 143.328C122.572 142.031 124.049 140.922 125.561 139.869C127.086 138.839 128.672 137.884 130.321 137.048C131.959 136.187 133.669 135.474 135.4 134.813C137.142 134.175 138.924 133.646 140.725 133.196C142.539 132.791 144.37 132.469 146.216 132.261C147.144 132.196 148.067 132.098 148.997 132.081C149.463 132.069 149.924 132.038 150.39 132.044L151.78 132.077C155.485 132.197 159.166 132.87 162.617 134.106C158.974 133.684 155.371 133.473 151.788 133.643C148.208 133.82 144.661 134.312 141.186 135.147C139.444 135.544 137.727 136.046 136.024 136.603C134.315 137.138 132.644 137.792 130.976 138.463C127.659 139.854 124.41 141.449 121.269 143.328Z" fill="black"/>
<path d="M74.3308 127.572C73.8472 127.572 73.3806 127.552 72.934 127.518C69.7501 127.27 67.7565 126.05 65.9969 124.973C65.0615 124.401 64.253 123.906 63.3864 123.633C60.6998 122.788 58.9433 121.061 58.8692 120.986C58.6724 120.793 58.6724 120.475 58.8671 120.277C59.0629 120.083 59.3803 120.083 59.5761 120.275C59.593 120.293 61.2426 121.907 63.6869 122.676C64.671 122.986 65.5694 123.536 66.5206 124.116C68.184 125.134 70.0686 126.288 73.0123 126.519C77.756 126.888 84.8656 125.294 89.295 119.578C93.7243 113.863 94.5539 106.126 92.7953 101.95C92.3519 100.896 91.8229 99.7948 91.2621 98.6277C89.5764 95.1104 87.8326 91.4757 88.3056 88.8145C88.3532 88.5425 88.6146 88.3563 88.8865 88.4092C89.1595 88.4568 89.3415 88.7171 89.2929 88.9901C88.877 91.3318 90.5489 94.8205 92.1668 98.1917C92.7318 99.3715 93.2662 100.484 93.7201 101.562C95.5888 106.002 94.7433 114.187 90.0875 120.191C85.8317 125.684 79.2437 127.572 74.3308 127.572Z" fill="black"/>
<path d="M90.7459 96.8612C90.5713 96.8612 90.402 96.7702 90.3089 96.6073C90.1724 96.3671 90.2571 96.0613 90.4973 95.9248C90.638 95.8422 93.9648 93.8582 92.4083 89.0574C91.4919 86.2237 89.638 84.1762 87.7958 83.9635C86.7049 83.8408 85.76 84.3762 85.0679 85.5201C84.9251 85.7571 84.6161 85.8343 84.3791 85.6894C84.1421 85.5476 84.0669 85.2386 84.2098 85.0016C85.105 83.517 86.4224 82.7964 87.9122 82.9678C90.1713 83.2281 92.3109 85.4968 93.3627 88.7474C95.1763 94.3471 91.0337 96.7723 90.9914 96.7956C90.9142 96.84 90.8295 96.8612 90.7459 96.8612Z" fill="black"/>
<path d="M85.214 84.3698C85.214 84.3698 81.7031 78.1839 74.1247 76.457C66.5453 74.7291 56.7374 76.7914 51.7779 80.8589C46.8184 84.9274 42.6948 89.3293 41.8589 97.8558C41.023 106.381 44.7011 112.512 46.9856 115.353C46.9856 115.353 53.2826 114.128 58.3542 119.477L58.7214 119.001C58.7214 119.001 55.9575 111.677 58.0199 105.993C58.0199 105.993 58.0199 112.144 63.2026 114.667C63.2026 114.667 61.6969 111.342 62.5889 106.772C63.4809 102.204 66.322 100.196 66.1559 96.0739C65.9887 91.9492 62.7561 90.7789 62.7561 90.7789C62.7561 90.7789 67.3812 92.0043 72.2857 91.1133C77.1891 90.2213 79.1953 90.89 81.2577 92.9513C83.3189 95.0147 85.4362 95.5152 86.8859 95.348C86.8859 95.348 82.1878 89.2774 85.595 84.8174L85.214 84.3698Z" fill="black"/>
<path d="M87.2758 127.112C87.9668 128.913 89.0779 130.483 90.4058 131.715C91.6227 133.048 93.1951 134.033 94.9251 134.574C95.1431 134.636 95.3495 134.733 95.5748 134.771L96.2468 134.907L96.9155 135.042L97.6033 135.099C98.5249 135.203 99.4191 135.199 100.305 135.059C102.073 134.769 103.732 133.922 105.037 132.691C106.329 131.447 107.262 129.831 107.687 128.085C108.105 126.337 108.03 124.477 107.476 122.753C106.938 121.019 105.949 119.437 104.718 118.071C103.632 116.569 102.256 115.235 100.762 114.017C102.522 114.812 104.184 115.879 105.651 117.233C106.978 118.708 108.07 120.441 108.671 122.376C109.29 124.3 109.379 126.403 108.905 128.382C108.424 130.357 107.369 132.187 105.903 133.6C104.421 134.997 102.526 135.966 100.508 136.295C99.5016 136.457 98.4667 136.461 97.4848 136.347L96.7409 136.284L96.0034 136.136L95.2659 135.989C95.0193 135.943 94.7855 135.84 94.5442 135.769C92.6195 135.173 90.846 134.05 89.4694 132.561C88.2694 130.925 87.4631 129.047 87.2758 127.112Z" fill="black"/>
<path d="M119.413 102.425C117.285 104.471 115.639 106.924 114.456 109.532C113.115 112.059 112.326 114.863 112.071 117.709C111.944 119.133 111.965 120.569 112.08 122.008C112.092 122.37 112.142 122.726 112.195 123.081L112.341 124.147C112.452 124.855 112.643 125.546 112.785 126.245C113.203 127.603 113.662 128.961 114.394 130.169C115.062 131.414 115.983 132.494 117.01 133.437L117.819 134.104C118.092 134.323 118.406 134.485 118.696 134.679C119.267 135.091 119.935 135.333 120.561 135.649C121.876 136.145 123.245 136.539 124.665 136.681C127.492 137.018 130.416 136.794 133.203 136.151C136.003 135.516 138.64 134.282 140.966 132.633C142.167 131.858 143.3 130.962 144.32 129.938C144.575 129.682 144.831 129.426 145.06 129.143L145.415 128.731L145.74 128.296C146.171 127.713 146.587 127.098 146.791 126.388C146.701 127.126 146.381 127.821 146.041 128.482L145.773 128.977L145.472 129.451C145.278 129.775 145.055 130.074 144.83 130.377C143.93 131.582 142.862 132.662 141.704 133.646C139.236 135.4 136.44 136.703 133.498 137.37C130.556 138.046 127.525 138.283 124.509 137.925C122.999 137.771 121.513 137.351 120.082 136.808C119.395 136.465 118.67 136.195 118.036 135.746C117.715 135.533 117.374 135.35 117.072 135.111L116.178 134.375C115.042 133.337 114.032 132.141 113.306 130.792C112.512 129.473 112.018 128.021 111.575 126.572C111.419 125.832 111.222 125.098 111.104 124.355L110.951 123.235C110.896 122.862 110.844 122.488 110.831 122.113C110.71 120.621 110.688 119.106 110.821 117.6C111.086 114.591 111.937 111.624 113.339 108.944C114.918 106.368 116.948 104.072 119.413 102.425Z" fill="black"/>
<path d="M85.4603 132.39C83.2699 132.39 81.4637 131.886 80.067 130.884C77.7814 129.244 77.483 126.88 77.4724 126.779L78.4681 126.662C78.4713 126.681 78.74 128.708 80.669 130.08C82.6023 131.458 85.4867 131.748 89.2474 130.945L89.4569 131.926C88.0094 132.235 86.675 132.39 85.4603 132.39Z" fill="black"/>
<path d="M112.538 128.074H108.437V127.071H112.538V128.074Z" fill="black"/>
<path d="M95.2489 120.776C94.0934 120.143 92.7792 119.863 91.4872 119.786C90.8364 119.739 90.1931 119.792 89.5497 119.843C89.5465 119.843 89.5434 119.844 89.5391 119.845L88.7339 120.865C89.6397 120.778 90.5401 120.713 91.4343 120.789C92.6257 120.841 93.8108 121.05 94.9198 121.484C96.0202 121.932 97.0784 122.56 97.9312 123.488C97.4202 122.316 96.3916 121.398 95.2489 120.776Z" fill="black"/>
<path d="M150.414 104.876C150.414 113.534 144.757 118.033 144.702 118.078L144.732 118.119C145.411 118.002 145.941 117.949 146.336 117.931C148.075 116.141 151.416 111.804 151.416 104.876C151.416 95.7457 146.52 87.8403 138.64 84.2469C131.066 80.7952 120.367 83.0353 110.719 90.0941C101.739 96.6631 92.7505 100.318 92.6616 100.356L93.0351 101.285C93.1261 101.248 102.226 97.5519 111.311 90.9036C120.526 84.1611 131.089 81.9063 138.223 85.16C145.743 88.5873 150.414 96.1435 150.414 104.876Z" fill="black"/>
<path d="M154.619 123.422C154.228 122.369 153.667 121.378 152.939 120.52C152.573 120.093 152.185 119.677 151.725 119.343C151.293 118.974 150.797 118.686 150.296 118.415C149.268 117.904 148.124 117.672 147.006 117.641C145.883 117.612 144.773 117.752 143.71 118.011C141.58 118.526 139.577 119.351 137.627 120.232C136.65 120.667 135.683 121.15 134.731 121.562C133.771 121.976 132.788 122.336 131.787 122.618C130.806 122.974 129.8 123.267 128.768 123.467C127.738 123.661 126.681 123.797 125.616 123.71C126.651 123.999 127.747 124.05 128.829 124.015C129.915 123.974 130.999 123.819 132.066 123.59C133.117 123.304 134.129 122.901 135.127 122.482C136.131 122.047 137.07 121.579 138.039 121.149C139.965 120.275 141.925 119.474 143.939 118.988C145.938 118.513 148.065 118.433 149.854 119.316C150.286 119.555 150.717 119.798 151.098 120.125C151.503 120.415 151.845 120.787 152.172 121.166C152.822 121.933 153.327 122.825 153.677 123.766C154.381 125.652 154.359 127.788 153.556 129.632C153.061 130.811 152.288 131.859 151.362 132.769C151.864 132.76 152.322 132.769 152.721 132.79C153.439 131.968 154.048 131.049 154.479 130.022C155.384 127.952 155.408 125.521 154.619 123.422Z" fill="black"/>
<path d="M61.6428 119.477C61.6428 119.477 69.2773 119.42 68.2742 111.955C68.2742 111.955 70.4614 115.534 68.3652 118.12C66.268 120.704 62.8131 119.98 61.6428 119.477Z" fill="black"/>
<path d="M73.9024 107.985C73.9024 107.985 77.7879 107.495 78.6799 104.708C79.5708 101.923 78.137 99.4133 78.137 99.4133C78.137 99.4133 81.3305 101.354 80.3665 105.155C79.3634 109.11 74.6822 108.642 73.9024 107.985Z" fill="black"/>
<path d="M76.0188 114.017C76.0188 114.017 73.9502 114.014 73.7153 115.961C73.456 118.119 75.9818 119.107 77.2241 117.769C77.2241 117.769 73.3809 116.767 76.0188 114.017Z" fill="black"/>
<path d="M75.6849 122.636C75.6849 122.636 79.9196 122.932 82.2602 120.097C84.1648 117.789 82.8178 116.602 83.877 114.669C83.877 114.669 84.5203 116 84.824 117.305C85.2145 118.98 83.5987 125.403 75.6849 122.636Z" fill="black"/>
<path d="M170.598 123.003C168.932 114.67 162.953 106.791 156.988 105.064C154.917 104.463 152.887 104.099 150.917 103.957C150.934 104.247 150.944 104.555 150.946 104.877C152.826 105.016 154.76 105.367 156.734 105.939C161.703 107.376 167.914 114.22 169.705 123.182C171.388 131.595 168.51 139.283 161.603 144.83C154.5 150.535 147.064 152.236 139.506 149.887C133.849 148.128 130.233 144.629 130.195 144.594L129.749 144.156L129.469 144.717C129.389 144.883 121.166 161.088 101.877 159.282C82.5504 157.478 76.3804 144.852 76.3201 144.725L76.0439 144.141L75.5868 144.598C75.2715 144.915 74.9583 145.232 74.644 145.552C70.5638 149.699 66.345 153.988 54.4801 153.988C41.9761 153.988 36.6949 142.21 36.643 142.093L36.4462 141.642L36.0134 141.873C31.1672 144.436 23.7517 143.399 18.7615 139.462C15.9881 137.272 11.6709 132.302 13.9152 123.604C17.9817 107.843 32.584 111.341 33.203 111.499L33.7554 111.638L33.7702 111.069C34.0273 101.312 39.2122 94.2351 47.9948 91.6521C56.6091 89.119 62.5643 94.9176 62.6235 94.9768L63.2669 94.3324C63.2045 94.27 56.8863 88.0894 47.7376 90.7792C38.7149 93.433 33.3226 100.606 32.8803 110.503C30.0244 109.991 16.8759 108.489 13.0328 123.377C10.6604 132.574 15.2506 137.848 18.1975 140.175C23.3115 144.213 30.873 145.338 36.0177 142.888C37.134 145.086 42.7792 154.899 54.4801 154.899C66.7259 154.899 71.0812 150.472 75.2926 146.19C75.4619 146.017 75.6312 145.846 75.8016 145.674C77.2714 148.212 84.2953 158.555 101.793 160.189C102.841 160.284 103.854 160.331 104.839 160.331C120.695 160.329 128.47 148.313 130.002 145.642C132.601 147.874 146.294 158.292 162.173 145.539C169.358 139.77 172.35 131.764 170.598 123.003Z" fill="black"/>
</g>
</g>
<defs>
<clipPath id="clip0_59247_9765">
<rect width="182" height="182" fill="white"/>
</clipPath>
</defs>
</svg>
