<svg width="16" height="16" viewBox="0 0 16 16" fill="none" xmlns="http://www.w3.org/2000/svg">
<path fill-rule="evenodd" clip-rule="evenodd" d="M7.49512 8.5C7.49512 7.94771 7.94168 7.5 8.49255 7.5H8.49768C9.04855 7.5 9.49512 7.94771 9.49512 8.5C9.49512 9.05229 9.04855 9.5 8.49768 9.5H8.49255C7.94168 9.5 7.49512 9.05229 7.49512 8.5Z" fill="black"/>
<path fill-rule="evenodd" clip-rule="evenodd" d="M7.48926 12.5C7.48926 11.9477 7.93582 11.5 8.48669 11.5H8.49182C9.04269 11.5 9.48926 11.9477 9.48926 12.5C9.48926 13.0523 9.04269 13.5 8.49182 13.5H8.48669C7.93582 13.5 7.48926 13.0523 7.48926 12.5Z" fill="black"/>
<path fill-rule="evenodd" clip-rule="evenodd" d="M7.5 4.5C7.5 3.94771 7.94657 3.5 8.49744 3.5H8.50256C9.05343 3.5 9.5 3.94771 9.5 4.5C9.5 5.05229 9.05343 5.5 8.50256 5.5H8.49744C7.94657 5.5 7.5 5.05229 7.5 4.5Z" fill="black"/>
</svg>
