<svg width="32" height="32" viewBox="0 0 32 32" fill="none" xmlns="http://www.w3.org/2000/svg">
<path d="M7.91421 17.0858C8.28929 16.7107 8.5 16.202 8.5 15.6716V13.5C8.5 9.35786 11.8579 6 16 6C20.1421 6 23.5 9.35786 23.5 13.5V15.6716C23.5 16.202 23.7107 16.7107 24.0858 17.0858L25.5 18.5V19.882C25.5 20.2607 25.2878 20.6092 24.9424 20.7646C23.3823 21.4668 20.4015 22.5 16 22.5C11.5985 22.5 8.61772 21.4668 7.05762 20.7646C6.71222 20.6092 6.5 20.2607 6.5 19.882V18.5L7.91421 17.0858Z" stroke="white" stroke-linecap="round" stroke-linejoin="round"/>
<path d="M13 25C13.7961 25.6212 14.8475 25.9989 16 25.9989C17.1525 25.9989 18.2039 25.6212 19 25" stroke="white" stroke-linecap="round" stroke-linejoin="round"/>
</svg>
