<svg width="39" height="34" viewBox="0 0 39 34" fill="none" xmlns="http://www.w3.org/2000/svg">
<path d="M34.494 18.0358C34.494 18.6146 34.4594 19.1851 34.3934 19.7448C33.0933 18.3464 31.3526 17.3624 29.3951 17.0172C28.8881 16.927 28.3674 16.881 27.8347 16.881C25.2744 16.881 22.9622 17.9605 21.3297 19.6867C19.8087 21.2933 18.8755 23.4599 18.8755 25.8402C18.8755 26.1269 18.8893 26.4082 18.9156 26.688C19.127 28.9353 20.1737 30.9424 21.7393 32.3988C21.1782 32.4649 20.609 32.5008 20.0303 32.5008C12.042 32.5008 5.56641 26.0242 5.56641 18.0358C5.56641 10.0477 12.0422 3.57227 20.0303 3.57227C24.428 3.57227 28.3684 5.53555 31.02 8.63281C33.1855 11.1622 34.494 14.4455 34.494 18.0358Z" fill="#ED459A"/>
<path d="M10.3144 13.6868C10.3144 13.6868 9.99685 15.2139 10.9208 15.7046C11.8448 16.1953 12.653 15.9932 13.9523 14.8673C15.2517 13.7414 16.493 12.5865 18.2543 12.7887C20.0155 12.9906 21.8054 13.1351 22.3253 11.6338C22.8451 10.1325 22.0655 9.03525 20.2176 9.41054C18.3699 9.78593 17.4647 10.4211 16.3724 9.93007C15.2804 9.43954 11.4406 8.37753 10.3144 13.6868Z" fill="#BA1267"/>
<path d="M9.39219 18.5536C9.39219 18.5536 10.3161 16.6283 12.3181 17.9372C12.9341 18.4377 13.2418 19.439 11.933 20.8632C10.932 21.7871 10.6625 21.9796 9.62324 21.633C8.69922 21.0942 8.5456 19.9394 9.39219 18.5536Z" fill="#BA1267"/>
<path d="M18.8751 25.8406C18.8751 26.1273 18.8887 26.4087 18.9151 26.6884C17.7059 28.2717 14.4921 27.4435 13.7793 26.946C12.4315 25.8294 13.895 24.6745 14.6651 24.0969C15.4344 23.5194 15.5117 22.8266 15.396 21.3633C15.2805 19.9013 16.1664 18.7072 17.3974 18.3606C19.7456 17.7104 20.8875 18.9728 21.3291 19.6874C19.808 21.2939 18.8751 23.4602 18.8751 25.8406Z" fill="#BA1267"/>
<path d="M34.4935 18.0359C34.4935 18.6146 34.4588 19.1852 34.3928 19.7449C33.0927 18.3465 31.3521 17.3625 29.3945 17.0173C29.6287 16.8416 29.8878 16.6431 30.1704 16.4167C31.791 14.6301 31.4351 10.9067 31.0192 8.63281C33.185 11.1623 34.4935 14.4456 34.4935 18.0359Z" fill="#BA1267"/>
<path d="M35.6404 25.8406C35.6404 27.6296 35.0389 29.2781 34.0252 30.5945C33.497 31.282 32.8562 31.8797 32.1309 32.3582C30.8994 33.1717 29.4229 33.6455 27.8359 33.6455C23.5254 33.6455 20.0312 30.1514 20.0312 25.8408C20.0312 23.3223 21.2236 21.0829 23.0752 19.6562C23.6632 19.2041 24.3174 18.8328 25.0216 18.5604C25.8945 18.2215 26.8438 18.0361 27.8359 18.0361C32.1463 18.0358 35.6404 21.5302 35.6404 25.8406Z" fill="#CAD4ED"/>
<path d="M35.6387 25.8408C35.6387 27.6298 35.0371 29.2783 34.0234 30.5947C33.4952 31.2822 32.8545 31.8799 32.1291 32.3584C31.8585 32.3828 31.5851 32.3957 31.3078 32.3957C26.3205 32.3957 22.2775 28.3535 22.2775 23.3674C22.2775 22.044 22.5615 20.7883 23.0732 19.6564C23.6612 19.2043 24.3155 18.833 25.0195 18.5606C25.8926 18.2217 26.8418 18.0363 27.834 18.0363C32.1445 18.036 35.6387 21.5304 35.6387 25.8408Z" fill="#D9E4F9"/>
<path d="M27.836 26.1338C27.6742 26.1338 27.543 26.0026 27.543 25.8408V20.4551C27.543 20.2933 27.6742 20.1621 27.836 20.1621C27.9978 20.1621 28.1289 20.2933 28.1289 20.4551V25.8408C28.1289 26.0026 27.9978 26.1338 27.836 26.1338Z" fill="#AEBAD2"/>
<path d="M31.4322 28.5972C31.3752 28.5972 31.3176 28.5806 31.267 28.546L27.6704 26.0826C27.5369 25.9911 27.5028 25.8088 27.5942 25.6753C27.6857 25.5419 27.8679 25.5077 28.0016 25.5991L31.5981 28.0625C31.7316 28.154 31.7657 28.3363 31.6743 28.4698C31.6174 28.5526 31.5257 28.5972 31.4322 28.5972Z" fill="#AEBAD2"/>
<path d="M27.8355 27.0085C28.4804 27.0085 29.0031 26.4858 29.0031 25.8409C29.0031 25.1961 28.4804 24.6733 27.8355 24.6733C27.1907 24.6733 26.668 25.1961 26.668 25.8409C26.668 26.4858 27.1907 27.0085 27.8355 27.0085Z" fill="#A1ACBF"/>
<path d="M27.8355 26.4185C28.1545 26.4185 28.4131 26.1598 28.4131 25.8408C28.4131 25.5218 28.1545 25.2632 27.8355 25.2632C27.5164 25.2632 27.2578 25.5218 27.2578 25.8408C27.2578 26.1598 27.5164 26.4185 27.8355 26.4185Z" fill="#AEBAD2"/>
<path d="M2.21592 14.9834C2.21592 15.2197 2.10264 15.4288 1.92686 15.5596C1.80674 15.6504 1.65625 15.7041 1.49414 15.7041C1.24609 15.7041 1.02744 15.5791 0.897558 15.3887C0.819433 15.2725 0.773438 15.1338 0.773438 14.9834C0.773438 14.7325 0.901464 14.5117 1.0957 14.3829C1.21006 14.3067 1.34668 14.2628 1.49414 14.2628C1.58896 14.2628 1.67969 14.2813 1.7627 14.3137C2.02939 14.4199 2.21592 14.6797 2.21592 14.9834Z" fill="#CAD4ED"/>
<path d="M21.7422 1.25684V1.25781C21.7412 1.62998 21.5146 1.94922 21.1923 2.08691C21.084 2.13281 20.9638 2.1581 20.8389 2.1581C20.3406 2.1581 19.9375 1.75478 19.9375 1.25684C19.9375 1.11426 19.9697 0.979492 20.0293 0.859375C20.0293 0.858398 20.0293 0.858398 20.0293 0.858398C20.1348 0.644531 20.3232 0.477539 20.5518 0.402344C20.5528 0.402344 20.5528 0.402343 20.5518 0.401367C20.6416 0.370898 20.7383 0.354492 20.8389 0.354492C21.3379 0.354492 21.7422 0.758789 21.7422 1.25684Z" fill="#CAD4ED"/>
<path d="M38.2232 11.9461C38.2232 12.1656 38.127 12.3627 37.9746 12.4974C37.8446 12.6128 37.6735 12.6825 37.4863 12.6825C37.0799 12.6825 36.75 12.3525 36.75 11.9461C36.75 11.5783 37.0196 11.2731 37.3714 11.2183C37.4089 11.2123 37.4476 11.2095 37.4863 11.2095C37.8934 11.2095 38.2232 11.5396 38.2232 11.9461Z" fill="#CAD4ED"/>
<path d="M38.2255 11.946C38.2255 12.1655 38.1292 12.3626 37.9769 12.4973C37.9393 12.5028 37.9016 12.5063 37.8618 12.5063C37.4548 12.5063 37.125 12.1763 37.125 11.7698C37.125 11.5499 37.2215 11.3525 37.3736 11.2183C37.4111 11.2125 37.4498 11.2095 37.4886 11.2095C37.8956 11.2094 38.2255 11.5396 38.2255 11.946Z" fill="#D9E4F9"/>
<path d="M5.1182 8.81574C5.13831 8.70783 5.06732 8.60383 4.95941 8.5842L4.21409 8.44513L4.34378 7.75031C4.364 7.6424 4.2929 7.53859 4.18509 7.51857C4.07728 7.49836 3.97357 7.56945 3.95335 7.67746L3.82386 8.37209L3.07884 8.23341C2.97083 8.213 2.86712 8.28429 2.8471 8.39211C2.83109 8.47892 2.87376 8.563 2.94739 8.60304C2.96517 8.61291 2.98499 8.61984 3.00579 8.62365L3.75101 8.76232L3.62142 9.45773C3.60521 9.54455 3.64818 9.62863 3.72181 9.66847C3.73968 9.67804 3.75931 9.68527 3.7804 9.68927C3.88821 9.70929 3.99193 9.6383 4.01195 9.53058L4.14134 8.83537L4.88656 8.97443C4.99447 8.99445 5.09818 8.92375 5.1182 8.81574Z" fill="#FCD370"/>
<path d="M34.0106 9.30114L33.6838 9.27771L33.7054 8.97859C33.7128 8.8737 33.6342 8.78249 33.5292 8.77487C33.4236 8.76765 33.3333 8.84636 33.3257 8.95114L33.3041 9.25036L32.9771 9.22712C32.8713 9.2199 32.7811 9.29831 32.7739 9.4032C32.7663 9.50769 32.8451 9.59909 32.9499 9.60652L33.2769 9.63015L33.2554 9.92927C33.2478 10.0342 33.3266 10.1252 33.4314 10.1326C33.4362 10.133 33.4405 10.1332 33.4454 10.1332C33.5444 10.1332 33.6278 10.0567 33.6348 9.95671L33.6564 9.6573L33.9832 9.68073C33.988 9.68112 33.9928 9.68113 33.9973 9.68113C34.0962 9.68113 34.1797 9.60486 34.1869 9.50486C34.1943 9.39978 34.1153 9.30876 34.0106 9.30114Z" fill="#FCD370"/>
<path d="M4.51473 21.3348L4.18778 21.3112L4.20926 21.0121C4.21688 20.9072 4.13807 20.8162 4.03329 20.8086C3.92782 20.8013 3.83719 20.8799 3.82987 20.9846L3.80819 21.2841L3.48133 21.2604C3.37547 21.2532 3.28553 21.3317 3.27782 21.4365C3.27049 21.5412 3.34901 21.6326 3.45399 21.6398L3.78094 21.6636L3.75936 21.9628C3.75194 22.0676 3.83055 22.1589 3.93543 22.1663C3.94012 22.1667 3.94481 22.1669 3.9494 22.1669C4.04823 22.1669 4.13182 22.0904 4.13905 21.9901L4.16063 21.691L4.48749 21.7141C4.49227 21.7148 4.49647 21.7148 4.50135 21.7148C4.60008 21.7148 4.68377 21.6385 4.69081 21.5383C4.69833 21.4332 4.61942 21.3423 4.51473 21.3348Z" fill="#FCD370"/>
<path d="M2.2168 14.9834C2.2168 15.2197 2.10352 15.4288 1.92773 15.5596C1.44619 15.499 1.07422 15.0889 1.07422 14.5908C1.07422 14.5195 1.08203 14.4492 1.09658 14.3828C1.21094 14.3066 1.34756 14.2627 1.49502 14.2627C1.58984 14.2627 1.68057 14.2812 1.76357 14.3136C2.03027 14.4199 2.2168 14.6797 2.2168 14.9834Z" fill="#D9E4F9"/>
<path d="M21.7441 11.2568V11.2578C21.7432 11.63 21.5166 11.9492 21.1942 12.0869C20.7371 11.9219 20.4102 11.4834 20.4102 10.9697C20.4102 10.7638 20.4629 10.5713 20.5537 10.4023C20.5548 10.4023 20.5548 10.4023 20.5537 10.4014C20.6436 10.3709 20.7402 10.3545 20.8408 10.3545C21.3398 10.3545 21.7441 10.7588 21.7441 11.2568Z" fill="#D9E4F9"/>
</svg>
