<svg width="25" height="25" viewBox="0 0 25 25" fill="none" xmlns="http://www.w3.org/2000/svg">
<path d="M12.5 22.5C17.4706 22.5 21.5 18.4706 21.5 13.5C21.5 8.52944 17.4706 4.5 12.5 4.5C7.52944 4.5 3.5 8.52944 3.5 13.5C3.5 18.4706 7.52944 22.5 12.5 22.5Z" stroke="#CBCBCB" stroke-width="1.5" stroke-linecap="round"/>
<path d="M5.5 19.5L3.5 21.5M19.5 19.5L21.5 21.5" stroke="#CBCBCB" stroke-width="1.5" stroke-linecap="round" stroke-linejoin="round"/>
<path d="M19.5 4.0697L20.0955 3.77195C20.9408 3.34932 21.2583 3.39769 21.9303 4.0697C22.6023 4.7417 22.6507 5.05924 22.228 5.9045L21.9303 6.5M5.5 4.0697L4.9045 3.77195C4.05924 3.34932 3.7417 3.39769 3.0697 4.0697C2.39769 4.7417 2.34932 5.05924 2.77195 5.9045L3.0697 6.5" stroke="#CBCBCB" stroke-width="1.5" stroke-linecap="round"/>
<path d="M12.5 10V14L14.5 16" stroke="#CBCBCB" stroke-width="1.5" stroke-linecap="round" stroke-linejoin="round"/>
<path d="M12.5 4V2.5" stroke="#CBCBCB" stroke-width="1.5" stroke-linecap="round" stroke-linejoin="round"/>
<path d="M10.5 2.5H14.5" stroke="#CBCBCB" stroke-width="1.5" stroke-linecap="round" stroke-linejoin="round"/>
</svg>
