<svg width="41" height="41" viewBox="0 0 41 41" fill="none" xmlns="http://www.w3.org/2000/svg">
<path d="M4.66699 20.5001C4.66699 13.0362 4.66699 9.30423 6.98573 6.98548C9.30448 4.66675 13.0364 4.66675 20.5003 4.66675C27.9642 4.66675 31.6962 4.66675 34.015 6.98548C36.3337 9.30423 36.3337 13.0362 36.3337 20.5001C36.3337 27.9639 36.3337 31.6959 34.015 34.0147C31.6962 36.3334 27.9642 36.3334 20.5003 36.3334C13.0364 36.3334 9.30448 36.3334 6.98573 34.0147C4.66699 31.6959 4.66699 27.9639 4.66699 20.5001Z" stroke="black" stroke-width="1.5"/>
<path opacity="0.4" d="M28 15.5C29.3807 15.5 30.5 14.3807 30.5 13C30.5 11.6193 29.3807 10.5 28 10.5C26.6193 10.5 25.5 11.6193 25.5 13C25.5 14.3807 26.6193 15.5 28 15.5Z" stroke="black" stroke-width="1.5"/>
<path d="M27.1667 37.1666C26.1342 33.4581 23.7242 30.1367 20.2942 27.7236C16.596 25.1214 11.9527 23.7442 7.19282 23.8377C6.62763 23.8364 6.06293 23.8544 5.5 23.8917" stroke="black" stroke-width="1.5" stroke-linejoin="round"/>
<path opacity="0.4" d="M22.167 30.5C25.0028 28.2888 28.0578 27.1547 31.144 27.1668C32.894 27.165 34.6357 27.536 36.3337 28.2695" stroke="black" stroke-width="1.5" stroke-linejoin="round"/>
</svg>
